<?xml version="1.0" encoding="UTF-8"?>
<svg width="20px" height="20px" viewBox="0 0 20 20" version="1.1" xmlns="http://www.w3.org/2000/svg" xmlns:xlink="http://www.w3.org/1999/xlink">
    <!-- Generator: Sketch 48.2 (47327) - http://www.bohemiancoding.com/sketch -->
    <title>buddicons/copy</title>
    <desc>Created with Sketch.</desc>
    <defs>
        <path d="M17,14.0004595 L7,14.0004595 C6.44775,14.0004595 6,13.553183 6,13.0006504 L6,2.99980911 C6,2.44777647 6.44775,2 7,2 L17,2 C17.55225,2 18,2.44777647 18,2.99980911 L18,13.0006504 C18,13.553183 17.55225,14.0004595 17,14.0004595 L17,14.0004595 Z M17,3.50008869 C17,3.22382235 16.77625,2.99980911 16.5,2.99980911 L7.5,2.99980911 C7.224,2.99980911 7,3.22382235 7,3.50008869 L7,12.5006208 C7,12.7768871 7.224,13.0006504 7.5,13.0006504 L16.5,13.0006504 C16.77625,13.0006504 17,12.7768871 17,12.5006208 L17,3.50008869 L17,3.50008869 Z M3,7.50082521 L3,16.5008573 C3,16.7771236 3.224,17.0008869 3.5,17.0008869 L12.5,17.0008869 C12.776,17.0008869 13,16.7771236 13,16.5008573 L13,15.0007686 L14,15.0007686 L14,17.0008869 C14,17.5531695 13.55225,18.000946 13,18.000946 L3,18.000946 C2.44775,18.000946 2,17.5531695 2,17.0008869 L2,7.00029562 C2,6.44801297 2.44775,6.00048651 3,6.00048651 L5,6.00048651 L5,7.00029562 L3.5,7.00029562 C3.224,7.00029562 3,7.22405885 3,7.50082521 L3,7.50082521 Z" id="path-1"></path>
    </defs>
    <g id="Icons" stroke="none" stroke-width="1" fill="none" fill-rule="evenodd">
        <g id="buddicons/copy">
            <mask id="mask-2" fill="white">
                <use xlink:href="#path-1"></use>
            </mask>
            <use id="Shape" fill="#000000" xlink:href="#path-1"></use>
        </g>
    </g>
</svg>