<?xml version="1.0" encoding="UTF-8"?>
<svg width="20px" height="20px" viewBox="0 0 20 20" version="1.1" xmlns="http://www.w3.org/2000/svg" xmlns:xlink="http://www.w3.org/1999/xlink">
    <!-- Generator: Sketch 48.2 (47327) - http://www.bohemiancoding.com/sketch -->
    <title>buddicons/icon-connections</title>
    <desc>Created with Sketch.</desc>
    <defs></defs>
    <g id="Icons" stroke="none" stroke-width="1" fill="none" fill-rule="evenodd">
        <g id="buddicons/icon-connections" fill="#000000">
            <path d="M15.8781523,8.55231081 C14.9080888,8.55231081 14.05682,8.05295535 13.5605472,7.29906463 L7.52700238,9.9787631 C7.53394132,10.0584268 7.55114988,10.1355924 7.55114988,10.2177542 C7.55114988,10.3657011 7.53005551,10.5083741 7.50757335,10.6504919 L13.5513878,13.1525431 C14.0459952,12.3900476 14.9011499,11.8826425 15.8778747,11.8826425 C17.4105472,11.8826425 18.6534496,13.125896 18.6534496,14.6589367 C18.6534496,16.1919774 17.4108247,17.4349533 15.8778747,17.4349533 C14.3449247,17.4349533 13.1022998,16.1919774 13.1022998,14.6589367 C13.1022998,14.5107122 13.1236717,14.3680392 13.1458763,14.226199 L7.10206186,11.7235927 C6.6074544,12.4860882 5.75229976,12.9932157 4.77557494,12.9932157 C3.24290246,12.9932157 2,11.7502398 2,10.2177542 C2,8.68443598 3.24290246,7.44118247 4.77557494,7.44118247 C5.82668517,7.44118247 6.73013481,8.03241488 7.20114988,8.89372671 L13.1503172,6.25122314 C13.1236717,6.09605933 13.1025773,5.93839735 13.1025773,5.77601662 C13.1025773,4.24269837 14.3452022,3 15.8781523,3 C17.4108247,3 18.6537272,4.24269837 18.6537272,5.77601662 C18.6534496,7.30989001 17.4108247,8.55231081 15.8781523,8.55231081 L15.8781523,8.55231081 Z M15.8778747,16.3241025 C16.7974227,16.3241025 17.5432197,15.5782615 17.5432197,14.6586591 C17.5432197,13.7390568 16.7974227,12.9934933 15.8778747,12.9934933 C14.9580492,12.9934933 14.2125297,13.7393344 14.2125297,14.6586591 C14.2125297,15.578539 14.9580492,16.3241025 15.8778747,16.3241025 L15.8778747,16.3241025 Z M4.77557494,8.55147808 C3.85574941,8.55147808 3.11022998,9.29759674 3.11022998,10.2174767 C3.11022998,11.137079 3.85574941,11.8826425 4.77557494,11.8826425 C5.69512292,11.8826425 6.4409199,11.1368014 6.4409199,10.2174767 C6.4409199,9.29759674 5.69540048,8.55147808 4.77557494,8.55147808 L4.77557494,8.55147808 Z M15.8778747,4.11057319 C14.9580492,4.11057319 14.2125297,4.85669185 14.2125297,5.77629419 C14.2125297,6.69589653 14.9580492,7.44146004 15.8778747,7.44146004 C16.7974227,7.44146004 17.5432197,6.69561896 17.5432197,5.77629419 C17.5432197,4.85696942 16.7977002,4.11057319 15.8778747,4.11057319 L15.8778747,4.11057319 Z" id="Shape"></path>
        </g>
    </g>
</svg>