<?xml version="1.0" encoding="UTF-8"?>
<svg width="20px" height="20px" viewBox="0 0 20 20" version="1.1" xmlns="http://www.w3.org/2000/svg" xmlns:xlink="http://www.w3.org/1999/xlink">
    <!-- Generator: Sketch 48.2 (47327) - http://www.bohemiancoding.com/sketch -->
    <title>buddicons/icon-sso-integrations</title>
    <desc>Created with Sketch.</desc>
    <defs></defs>
    <g id="Icons" stroke="none" stroke-width="1" fill="none" fill-rule="evenodd">
        <g id="buddicons/icon-sso-integrations" fill="#000000">
            <path d="M12.1022998,16.3235474 L5.99603489,16.3235474 C3.23683584,16.3235474 1,14.0863017 1,11.3272171 C1,8.56757737 3.23683584,6.33088685 5.99603489,6.33088685 C6.11593973,6.33088685 6.22807296,6.35808909 6.34575734,6.36669388 C7.49484536,4.36427574 9.62870738,3 12.1025773,3 C15.7813243,3 18.7639572,5.98225403 18.7639572,9.6617737 C18.7634021,13.3410158 15.7810468,16.3235474 12.1022998,16.3235474 L12.1022998,16.3235474 Z M12.1022998,4.11029562 C9.77470262,4.11029562 7.78850119,5.54618542 6.96360032,7.57747125 C6.65245837,7.4972524 6.33215702,7.44118247 5.99603489,7.44118247 C3.84996035,7.44118247 2.11022998,9.1810157 2.11022998,11.3272171 C2.11022998,13.2830029 3.56019033,14.8857146 5.4409199,15.157737 L5.4409199,15.2132518 L13.2125297,15.2132518 L13.2125297,15.1016671 C15.7460745,14.5870451 17.6534496,12.3481339 17.6534496,9.6617737 C17.6534496,6.59596993 15.1679223,4.11029562 12.1022998,4.11029562 L12.1022998,4.11029562 Z" id="Shape"></path>
        </g>
    </g>
</svg>