<?xml version="1.0" encoding="UTF-8"?>
<svg width="20px" height="20px" viewBox="0 0 20 20" version="1.1" xmlns="http://www.w3.org/2000/svg" xmlns:xlink="http://www.w3.org/1999/xlink">
    <!-- Generator: Sketch 48.2 (47327) - http://www.bohemiancoding.com/sketch -->
    <title>buddicons/rotate</title>
    <desc>Created with Sketch.</desc>
    <defs></defs>
    <g id="Icons" stroke="none" stroke-width="1" fill="none" fill-rule="evenodd">
        <g id="buddicons/rotate" fill="#000000">
            <path d="M17.5496431,8.77262446 C17.0070182,5.01122049 13.8020619,2.11001804 9.88988898,2.11001804 C6.79595559,2.11001804 4.1461142,3.9325683 2.89599524,6.55064536 L7.11153846,6.55064536 C7.41851705,6.55064536 7.66748612,6.79935158 7.66748612,7.10579317 C7.66748612,7.41251233 7.41879461,7.66205127 7.11153846,7.66205127 L2.47938144,7.66205127 L2.47938144,7.66205127 L1.30281523,7.66205127 C1.30781126,7.64317625 1.30919905,7.62291335 1.31419508,7.60403833 C1.23425852,7.56295739 1.16986519,7.50216871 1.11823949,7.42888919 C1.10325139,7.40918145 1.09048374,7.39086157 1.07827121,7.36976595 C1.04746233,7.31119786 1.02997621,7.24791101 1.02192704,7.17935025 C1.01776368,7.15325831 1,7.13299541 1,7.1055156 C1,7.08997146 1.00721649,7.07720306 1.00888184,7.06165892 L1.00888184,1.55820112 C1.00888184,1.25175953 1.25757335,1.00249817 1.56427439,1.00249817 C1.87125297,1.00249817 2.11994449,1.25148196 2.11994449,1.55820112 L2.11994449,5.61994006 C3.62930214,2.87223598 6.53310864,1 9.88988898,1 C14.4182395,1 18.1480571,4.39195311 18.6951229,8.77234689 L17.5496431,8.77234689 L17.5496431,8.77262446 Z M9.88988898,17.6549894 C12.9840999,17.6549894 15.6336638,15.8329943 16.8840603,13.2151948 L12.668517,13.2151948 C12.3615385,13.2151948 12.1128469,12.9670437 12.1128469,12.6594918 C12.1128469,12.3524951 12.3615385,12.104344 12.668517,12.104344 L17.3003965,12.104344 C17.3003965,12.1040665 17.3006741,12.1035113 17.3006741,12.1032337 L18.4775178,12.1032337 C18.4725218,12.1221088 18.4708565,12.1423717 18.4658604,12.1609691 C18.5460745,12.2020501 18.6104679,12.2631163 18.6620936,12.3366734 C18.6773592,12.3563811 18.6892942,12.3744234 18.7017843,12.3955191 C18.7325932,12.4540872 18.7503569,12.517374 18.758406,12.5859348 C18.7625694,12.6120267 18.7803331,12.632012 18.7803331,12.6597694 C18.7803331,12.675036 18.772839,12.688082 18.7717288,12.7030709 L18.7717288,18.207639 C18.7717288,18.5143582 18.5230373,18.7627869 18.2160587,18.7627869 C17.9090801,18.7627869 17.6603886,18.5143582 17.6603886,18.207639 L17.6603886,14.1450674 C16.1510309,16.8927715 13.2469469,18.7650074 9.89016653,18.7650074 C5.36209358,18.7650074 1.63255353,15.3738871 1.08493259,10.9934933 L2.23041237,10.9934933 C2.77331483,14.7548972 5.97799366,17.6549894 9.88988898,17.6549894 L9.88988898,17.6549894 Z" id="Shape"></path>
        </g>
    </g>
</svg>