<?xml version="1.0" encoding="UTF-8"?>
<svg width="20px" height="20px" viewBox="0 0 20 20" version="1.1" xmlns="http://www.w3.org/2000/svg" xmlns:xlink="http://www.w3.org/1999/xlink">
    <!-- Generator: Sketch 48.2 (47327) - http://www.bohemiancoding.com/sketch -->
    <title>icon-trash</title>
    <desc>Created with Sketch.</desc>
    <defs></defs>
    <g id="Symbols" stroke="none" stroke-width="1" fill="none" fill-rule="evenodd">
        <g id="icon-trash" fill="#000000">
            <path d="M16.3230373,6.55203323 L16.3230373,17.6547118 C16.3230373,18.2681502 15.8259318,18.765285 15.2125297,18.765285 L5.22045995,18.765285 C4.60761301,18.765285 4.11022998,18.2681502 4.11022998,17.6547118 L4.11022998,6.55203323 C3.49738303,6.55203323 3,6.05489837 3,5.44118247 L3,4.33088685 C3,3.71800367 3.49738303,3.22086881 4.11022998,3.22086881 L7.44119746,3.22086881 L7.44119746,1.55570296 C7.44119746,1.24870622 7.68961142,1 7.99603489,1 L12.4372324,1 C12.7436558,1 12.9923473,1.24870622 12.9923473,1.55570296 L12.9923473,3.22086881 L16.3230373,3.22086881 C16.9361618,3.22086881 17.4329897,3.71800367 17.4329897,4.33088685 L17.4329897,5.44118247 C17.4329897,6.05489837 16.9361618,6.55203323 16.3230373,6.55203323 L16.3230373,6.55203323 Z M5.22045995,7.10662589 L5.22045995,7.66232885 L5.22045995,17.0992864 C5.22045995,17.4062832 5.46915147,17.6547118 5.77557494,17.6547118 L14.6574148,17.6547118 C14.9638382,17.6547118 15.2125297,17.4062832 15.2125297,17.0992864 L15.2125297,7.66232885 L15.2125297,7.10662589 L15.2125297,6.55203323 L14.6574148,6.55203323 L5.77557494,6.55203323 L5.22045995,6.55203323 L5.22045995,7.10662589 L5.22045995,7.10662589 Z M11.8821174,2.11057319 L8.55114988,2.11057319 L8.55114988,3.22086881 L11.8821174,3.22086881 L11.8821174,2.11057319 L11.8821174,2.11057319 Z M15.7679223,4.33088685 L12.4372324,4.33088685 L7.99603489,4.33088685 L4.66534496,4.33088685 C4.35892149,4.33088685 4.11022998,4.57959307 4.11022998,4.88603466 C4.11022998,5.1930314 4.35892149,5.44118247 4.66534496,5.44118247 L5.22045995,5.44118247 L15.2125297,5.44118247 L15.7679223,5.44118247 C16.0743458,5.44118247 16.3230373,5.1930314 16.3230373,4.88603466 C16.3230373,4.57959307 16.0743458,4.33088685 15.7679223,4.33088685 L15.7679223,4.33088685 Z M8.55114988,16.5446938 L7.4409199,16.5446938 L7.4409199,8.77206932 L8.55114988,8.77206932 L8.55114988,16.5446938 L8.55114988,16.5446938 Z M10.7716098,16.5446938 L9.66165741,16.5446938 L9.66165741,8.77262446 L10.7716098,8.77262446 L10.7716098,16.5446938 L10.7716098,16.5446938 Z M12.9923473,16.5446938 L11.8818398,16.5446938 L11.8818398,8.77206932 L12.9923473,8.77206932 L12.9923473,16.5446938 L12.9923473,16.5446938 Z" id="Shape"></path>
        </g>
    </g>
</svg>