<?xml version="1.0" encoding="UTF-8"?>
<svg width="20px" height="20px" viewBox="0 0 20 20" version="1.1" xmlns="http://www.w3.org/2000/svg" xmlns:xlink="http://www.w3.org/1999/xlink">
    <!-- Generator: Sketch 48.2 (47327) - http://www.bohemiancoding.com/sketch -->
    <title>buddicons/icon-hooks</title>
    <desc>Created with Sketch.</desc>
    <defs></defs>
    <g id="Icons" stroke="none" stroke-width="1" fill="none" fill-rule="evenodd">
        <g id="buddicons/icon-hooks" fill="#000000" fill-rule="nonzero">
            <path d="M11.2902068,6.64178177 C10.9135515,6.86916606 10.4720547,7 10,7 C8.61928813,7 7.5,5.88071187 7.5,4.5 C7.5,3.11928813 8.61928813,2 10,2 C11.3807119,2 12.5,3.11928813 12.5,4.5 C12.5,5.03706105 12.3306508,5.53456848 12.0424396,5.9420352 L14.4222031,10.1186821 C14.5589096,10.3586111 14.4752311,10.6639345 14.235302,10.800641 C13.9953729,10.9373474 13.6900495,10.8536689 13.5533431,10.6137398 L11.2902068,6.64178177 Z M4.0928946,12.0707254 L6.55334307,7.75247111 C6.6900495,7.51254203 6.99537291,7.42886354 7.23530199,7.56556997 C7.47523107,7.7022764 7.55890956,8.00759981 7.42220313,8.24752889 L4.99953836,12.4994702 C5.60702427,12.9555521 6,13.6818838 6,14.5 C6,15.8807119 4.88071187,17 3.5,17 C2.11928813,17 1,15.8807119 1,14.5 C1,13.1192881 2.11928813,12 3.5,12 C3.70428023,12 3.90283788,12.0245013 4.0928946,12.0707254 Z M13.5564927,13.9690689 C13.7999329,12.8433947 14.8014738,12 16,12 C17.3807119,12 18.5,13.1192881 18.5,14.5 C18.5,15.8807119 17.3807119,17 16,17 C14.7796903,17 13.7635915,16.1256689 13.5439736,14.9692767 L8.712245,15.0243816 C8.43612058,15.0275307 8.20972463,14.8062405 8.20657548,14.5301161 C8.20342634,14.2539917 8.42471652,14.0275958 8.70084094,14.0244466 L13.5564927,13.9690689 Z M16,16 C16.8284271,16 17.5,15.3284271 17.5,14.5 C17.5,13.6715729 16.8284271,13 16,13 C15.1715729,13 14.5,13.6715729 14.5,14.5 C14.5,15.3284271 15.1715729,16 16,16 Z M3.5,16 C4.32842712,16 5,15.3284271 5,14.5 C5,13.6715729 4.32842712,13 3.5,13 C2.67157288,13 2,13.6715729 2,14.5 C2,15.3284271 2.67157288,16 3.5,16 Z M10,6 C10.8284271,6 11.5,5.32842712 11.5,4.5 C11.5,3.67157288 10.8284271,3 10,3 C9.17157288,3 8.5,3.67157288 8.5,4.5 C8.5,5.32842712 9.17157288,6 10,6 Z" id="Shape"></path>
        </g>
    </g>
</svg>