<?xml version="1.0" encoding="UTF-8"?>
<svg width="20px" height="20px" viewBox="0 0 20 20" version="1.1" xmlns="http://www.w3.org/2000/svg" xmlns:xlink="http://www.w3.org/1999/xlink">
    <!-- Generator: Sketch 48.2 (47327) - http://www.bohemiancoding.com/sketch -->
    <title>buddicons/arrow-left</title>
    <desc>Created with Sketch.</desc>
    <defs></defs>
    <g id="Icons" stroke="none" stroke-width="1" fill="none" fill-rule="evenodd">
        <g id="buddicons/arrow-left" fill="#000000">
            <path d="M17.3825139,9.76992875 C17.4463521,9.8501476 17.4899286,9.94230214 17.4988105,10.050556 C17.499088,10.0616589 17.5071372,10.0708189 17.5068596,10.0816442 C17.5068596,10.08442 17.5088025,10.0866406 17.5088025,10.0891387 C17.5088025,10.0924696 17.5074148,10.0949678 17.5071372,10.0977435 C17.5074148,10.1046829 17.5035289,10.1099568 17.5032514,10.1166186 C17.49659,10.2481886 17.4446868,10.3658799 17.3619746,10.4577569 C17.3550357,10.4652514 17.3580888,10.4771871 17.3505948,10.4846815 C17.3431007,10.4924536 17.3314433,10.4891227 17.3233941,10.4957845 C17.3164552,10.5021687 17.3045202,10.5007808 17.2967486,10.507165 L11.2310071,16.0200603 C11.0197859,16.2315717 10.6772799,16.2315717 10.4660587,16.0200603 C10.2548374,15.808549 10.2548374,15.4671331 10.4660587,15.256177 L15.541475,10.6423435 L2.55344964,10.6423435 C2.24758128,10.6423435 2,10.3941925 2,10.0891387 C2,9.78408502 2.24785884,9.53593394 2.55344964,9.53593394 L15.541475,9.53593394 L10.4660587,4.92265566 C10.2548374,4.71142192 10.2548374,4.36972844 10.4660587,4.15821713 C10.6772799,3.94726096 11.0197859,3.94726096 11.2310071,4.15821713 L17.2662173,9.64391019 C17.2750991,9.65029439 17.27954,9.66111978 17.2881443,9.66778155 C17.3067407,9.68249297 17.3331086,9.67666391 17.3503172,9.69359592 C17.3719667,9.71524669 17.3653053,9.74633496 17.3825139,9.76992875 L17.3825139,9.76992875 Z" id="Shape" transform="translate(9.754401, 10.089347) scale(-1, 1) translate(-9.754401, -10.089347) "></path>
        </g>
    </g>
</svg>