<?xml version="1.0" encoding="UTF-8"?>
<svg width="20px" height="20px" viewBox="0 0 20 20" version="1.1" xmlns="http://www.w3.org/2000/svg" xmlns:xlink="http://www.w3.org/1999/xlink">
    <!-- Generator: Sketch 48.2 (47327) - http://www.bohemiancoding.com/sketch -->
    <title>icon-dashboard</title>
    <desc>Created with Sketch.</desc>
    <defs></defs>
    <g id="Symbols" stroke="none" stroke-width="1" fill="none" fill-rule="evenodd">
        <g id="icon-dashboard" fill="#000000">
            <path d="M9.88183981,18.7636196 C4.97656622,18.7636196 1,14.787651 1,9.88180979 C1,4.9759686 4.97656622,1 9.88183981,1 C14.7871134,1 18.7636796,4.9759686 18.7636796,9.88180979 C18.7636796,14.787651 14.7871134,18.7636196 9.88183981,18.7636196 L9.88183981,18.7636196 Z M9.88183981,2.11001804 C5.58969072,2.11001804 2.11022998,5.58912936 2.11022998,9.88180979 C2.11022998,14.1742126 5.58969072,17.653324 9.88183981,17.653324 C14.1739889,17.653324 17.6534496,14.1742126 17.6534496,9.88180979 C17.6534496,5.58912936 14.1739889,2.11001804 9.88183981,2.11001804 L9.88183981,2.11001804 Z M14.3227597,9.88180979 C14.3227597,7.42916677 12.3343378,5.44090489 9.88183981,5.44090489 C7.42934179,5.44090489 5.4409199,7.42916677 5.4409199,9.88180979 L4.33068993,9.88180979 C4.33068993,6.81600601 6.81593973,4.33060928 9.88183981,4.33060928 C12.9477399,4.33060928 15.4329897,6.81600601 15.4329897,9.88180979 L14.3227597,9.88180979 L14.3227597,9.88180979 Z M9.32672482,12.1021234 C9.33199841,12.1021234 9.33560666,12.1051768 9.3406027,12.1051768 L10.8785488,8.479784 C10.9973434,8.20054465 11.3542823,8.03955178 11.6759715,8.12088094 C11.9976606,8.20193252 12.1622522,8.49421784 12.0437351,8.77428991 L10.4419508,12.5487399 C10.7747423,12.853516 10.9917922,13.2812574 10.9917922,13.7675669 C10.9917922,14.6874468 10.2459952,15.4330103 9.32644726,15.4330103 C8.40689929,15.4330103 7.66137986,14.6874468 7.66137986,13.7675669 C7.66165741,12.8479645 8.40717684,12.1021234 9.32672482,12.1021234 L9.32672482,12.1021234 Z M9.32700238,14.3241025 C9.63342585,14.3241025 9.88211737,14.0753963 9.88211737,13.7689547 C9.88211737,13.4625131 9.63342585,13.2143621 9.32700238,13.2143621 C9.02030135,13.2143621 8.77188739,13.4625131 8.77188739,13.7689547 C8.77188739,14.0753963 9.02030135,14.3241025 9.32700238,14.3241025 L9.32700238,14.3241025 Z" id="Shape"></path>
        </g>
    </g>
</svg>