<?xml version="1.0" encoding="UTF-8"?>
<svg width="20px" height="20px" viewBox="0 0 20 20" version="1.1" xmlns="http://www.w3.org/2000/svg" xmlns:xlink="http://www.w3.org/1999/xlink">
    <!-- Generator: Sketch 48.2 (47327) - http://www.bohemiancoding.com/sketch -->
    <title>buddicons/icon-analytics</title>
    <desc>Created with Sketch.</desc>
    <defs></defs>
    <g id="Icons" stroke="none" stroke-width="1" fill="none" fill-rule="evenodd">
        <g id="buddicons/icon-analytics" fill="#000000">
            <path d="M18.2082871,3.11001804 L17.6531721,3.11001804 L17.6531721,13.102401 C17.6531721,13.7158393 17.1560666,14.2126966 16.5429421,14.2126966 L11.748414,14.2126966 L13.1298176,16.756939 C13.2999603,17.0092537 13.199207,17.3317946 12.9038858,17.4777985 C12.6088422,17.6224145 12.2316416,17.5369217 12.0614988,17.284607 L10.5193894,14.445026 C10.4697066,14.3711913 10.4494449,14.2920828 10.4441713,14.2129742 L9.31923077,14.2129742 C9.31367962,14.2923603 9.29369548,14.3711913 9.24401269,14.445026 L7.70190325,17.284607 C7.53148295,17.5369217 7.15428232,17.622692 6.8592387,17.4777985 C6.56419508,17.3317946 6.46316416,17.0092537 6.63358446,16.756939 L8.01526566,14.2126966 L3.22045995,14.2126966 C2.60733545,14.2126966 2.11022998,13.7158393 2.11022998,13.102401 L2.11022998,3.11001804 L1.55511499,3.11001804 C1.24869151,3.11001804 1,2.8615894 1,2.55459266 C1,2.24815107 1.24869151,2 1.55511499,2 L3.22045995,2 L16.5432197,2 L18.2085646,2 C18.5152657,2 18.7636796,2.24842864 18.7636796,2.55459266 C18.7634021,2.86186697 18.5149881,3.11001804 18.2082871,3.11001804 L18.2082871,3.11001804 Z M16.5432197,3.11112834 L15.9939334,3.11112834 C15.9919905,3.11112834 15.9900476,3.11029562 15.9881047,3.11029562 L3.77557494,3.11029562 C3.77335448,3.11029562 3.77168914,3.11112834 3.76974623,3.11112834 L3.22045995,3.11112834 L3.22045995,3.66516585 C3.22045995,3.66516585 3.22045995,3.66516585 3.22045995,3.66544343 L3.22045995,12.5475308 C3.22045995,12.8539724 3.46915147,13.1026786 3.77557494,13.1026786 L15.9881047,13.1026786 C16.2945282,13.1026786 16.5432197,12.8539724 16.5432197,12.5475308 L16.5432197,4.2219791 L16.5432197,4.2219791 L16.5432197,3.11112834 L16.5432197,3.11112834 Z M7.18037272,6.72264241 C7.18536875,6.71403761 7.19369548,6.70931886 7.19896907,6.70126922 C7.2222839,6.6674052 7.24920698,6.6365945 7.28168121,6.60717166 C7.31554322,6.57469551 7.35079302,6.5472157 7.3907613,6.52445464 C7.3999207,6.51945831 7.40491673,6.51140866 7.41463125,6.50696748 C7.42434576,6.50197115 7.43544806,6.50197115 7.44544013,6.49780754 C7.49095956,6.4780998 7.53620143,6.46477625 7.58505155,6.4578369 C7.8426249,6.40648573 8.11796193,6.49419908 8.25701824,6.69988135 L10.9676447,8.63124057 L14.3968676,5.49937421 C14.5500793,5.23401356 14.8898097,5.14324689 15.1551546,5.29646769 C15.4207772,5.44941091 15.5115385,5.78916137 15.3583267,6.05452202 L11.4725218,9.60330438 C11.3193101,9.86922018 10.9798573,9.95915413 10.7142347,9.80676606 C10.6728787,9.78261713 10.6662173,9.73320897 10.6334655,9.70156555 C10.5396511,9.65659857 10.4538858,9.59830805 10.3961538,9.51281529 L7.81431404,7.67388818 L5.3665345,10.6003498 C5.21332276,10.8676535 4.87359239,10.9589753 4.60824742,10.8049218 C4.3426249,10.6505907 4.2518636,10.3088972 4.40507534,10.0410384 L7.18037272,6.72264241 L7.18037272,6.72264241 Z" id="Shape"></path>
        </g>
    </g>
</svg>