<?xml version="1.0" encoding="UTF-8"?>
<svg width="20px" height="20px" viewBox="0 0 20 20" version="1.1" xmlns="http://www.w3.org/2000/svg" xmlns:xlink="http://www.w3.org/1999/xlink">
    <!-- Generator: Sketch 48.2 (47327) - http://www.bohemiancoding.com/sketch -->
    <title>icon-users</title>
    <desc>Created with Sketch.</desc>
    <defs></defs>
    <g id="Symbols" stroke="none" stroke-width="1" fill="none" fill-rule="evenodd">
        <g id="icon-users" fill="#000000">
            <path d="M18.3610329,15.5467168 C18.3610329,15.5467168 18.134546,15.7421288 15.3784001,15.8328955 C15.4472344,15.4839851 15.4377974,15.1170324 15.3739592,14.7645136 L17.0717784,14.7692323 C17.9421987,14.4647337 17.7309774,12.9805461 17.0717784,12.6865953 C16.5982653,12.4761943 14.6481463,11.9579638 13.4962827,11.660127 L13.3433486,11.1563304 L13.3433486,10.4163183 C14.3034199,9.66076218 14.873523,8.09857625 14.873523,6.67073609 C14.873523,4.70301468 14.4111122,3.1072423 12.0996134,3.1072423 C11.9294707,3.1072423 11.7895817,3.13333425 11.638868,3.15026626 C11.1661876,2.84410224 10.5552835,2.65285382 9.78339614,2.59539602 C10.3512788,2.22788818 11.0893041,2 12.0993359,2 C15.2806999,2 15.9876388,4.07653038 15.9876388,6.63742722 C15.9876388,8.28455076 15.3423176,10.0155016 14.2628965,11.0489093 C15.4083763,11.3323122 17.6638085,11.9185483 17.9938244,12.2186057 C18.7274088,12.8833952 19.0940623,14.5477283 18.3610329,15.5467168 L18.3610329,15.5467168 Z M11.5469965,8.00503384 C11.5469965,9.76818328 10.8816911,11.6176582 9.77506942,12.702417 C10.9058386,12.9816564 13.2190028,13.5798281 13.5534596,13.883494 C14.2867665,14.5493938 14.6531424,16.2134493 13.920113,17.2118827 C13.920113,17.2118827 13.5534596,17.5446938 7.68839218,17.5446938 C1.82304721,17.5446938 1.40171493,17.2118827 1.40171493,17.2118827 C0.663134443,16.2131718 1.03506149,14.5493938 1.77391953,13.883494 C2.1189235,13.5726112 4.3985032,12.9908163 5.55258726,12.7110218 C4.43985926,11.628206 3.77011303,9.77345719 3.77011303,8.00503384 C3.77011303,5.30229674 4.47732953,3.11085076 7.65869352,3.11085076 C10.8400575,3.11085076 11.5469965,5.30229674 11.5469965,8.00503384 L11.5469965,8.00503384 Z M7.65869352,4.22780815 C5.34691716,4.22780815 4.88450637,5.93599796 4.88450637,8.04444934 C4.88450637,9.5733264 5.45433191,11.2462643 6.41440328,12.0559474 L6.41440328,12.822329 L6.27978789,13.2683902 C5.29917727,13.5529035 3.35072366,14.1283142 2.84751192,14.3525939 C2.18525974,14.6473774 1.682048,16.0821569 2.67431605,16.433843 C2.67653651,16.433843 7.59124705,16.4219073 7.59124705,16.4219073 L12.6308585,16.433843 C13.5012788,16.1301772 13.2900575,14.6465446 12.6308585,14.3525939 C12.1573454,14.1410826 10.2069489,13.6234072 9.05536283,13.3255704 L8.90242865,12.822329 L8.90242865,12.0565025 C9.86250003,11.247097 10.4326031,9.57388155 10.4326031,8.04444934 C10.4326031,5.93599796 9.97046989,4.22780815 7.65869352,4.22780815 L7.65869352,4.22780815 Z" id="Shape"></path>
        </g>
    </g>
</svg>