<?xml version="1.0" encoding="UTF-8"?>
<svg width="20px" height="20px" viewBox="0 0 20 20" version="1.1" xmlns="http://www.w3.org/2000/svg" xmlns:xlink="http://www.w3.org/1999/xlink">
    <!-- Generator: Sketch 48.2 (47327) - http://www.bohemiancoding.com/sketch -->
    <title>icon-apis</title>
    <desc>Created with Sketch.</desc>
    <defs></defs>
    <g id="Symbols" stroke="none" stroke-width="1" fill="none" fill-rule="evenodd">
        <g id="icon-apis" fill="#000000">
            <path d="M12.9920698,17.4332879 L11.8818398,17.4332879 L8.55114988,17.4332879 L7.4409199,17.4332879 L3,17.4332879 L3,12.992383 L3,11.8820874 L3,8.55120051 L3,7.44090489 L3,3 L8.55114988,3 L8.55114988,7.44090489 L12.9920698,7.44090489 L12.9920698,11.8820874 L17.4329897,11.8820874 L17.4329897,17.4332879 L12.9920698,17.4332879 L12.9920698,17.4332879 Z M7.4409199,4.11029562 L4.11022998,4.11029562 L4.11022998,7.44090489 L7.4409199,7.44090489 L7.4409199,4.11029562 L7.4409199,4.11029562 Z M7.4409199,8.55120051 L4.11022998,8.55120051 L4.11022998,11.8820874 L7.4409199,11.8820874 L7.4409199,8.55120051 L7.4409199,8.55120051 Z M7.4409199,12.992383 L4.11022998,12.992383 L4.11022998,16.3229923 L7.4409199,16.3229923 L7.4409199,12.992383 L7.4409199,12.992383 Z M11.8818398,8.55120051 L8.55114988,8.55120051 L8.55114988,11.8820874 L11.8818398,11.8820874 L11.8818398,8.55120051 L11.8818398,8.55120051 Z M11.8818398,12.992383 L8.55114988,12.992383 L8.55114988,16.3229923 L11.8818398,16.3229923 L11.8818398,12.992383 L11.8818398,12.992383 Z M16.3227597,12.992383 L12.9920698,12.992383 L12.9920698,16.3229923 L16.3227597,16.3229923 L16.3227597,12.992383 L16.3227597,12.992383 Z" id="Shape"></path>
        </g>
    </g>
</svg>