<?xml version="1.0" encoding="UTF-8"?>
<svg width="20px" height="20px" viewBox="0 0 20 20" version="1.1" xmlns="http://www.w3.org/2000/svg" xmlns:xlink="http://www.w3.org/1999/xlink">
    <!-- Generator: Sketch 48.2 (47327) - http://www.bohemiancoding.com/sketch -->
    <title>buddicons/icon-support</title>
    <desc>Created with Sketch.</desc>
    <defs></defs>
    <g id="Icons" stroke="none" stroke-width="1" fill="none" fill-rule="evenodd">
        <g id="buddicons/icon-support" fill="#000000">
            <path d="M9.88183981,16.5444162 C9.54210944,16.5444162 9.20820777,16.5238757 8.87874703,16.4916772 L4.33068993,18.7655626 L4.33068993,14.8340058 C2.30174465,13.4100517 1,11.2255451 1,8.77262446 C1,4.47966646 4.97656622,1 9.88183981,1 C14.7871134,1 18.7636796,4.47994404 18.7636796,8.77262446 C18.7636796,13.0647497 14.7871134,16.5444162 9.88183981,16.5444162 L9.88183981,16.5444162 Z M9.88183981,2.11029562 C5.58969072,2.11029562 2.11022998,5.09310479 2.11022998,8.77234689 C2.11022998,11.0287452 3.43584457,13.0009077 5.44119746,14.2030803 L5.4409199,14.3235474 L5.4409199,17.0992864 L8.77188739,15.4346757 C8.77188739,15.4346757 8.60812847,15.4341206 9.88183981,15.4341206 C14.1739889,15.4341206 17.6534496,12.451589 17.6534496,8.77262446 C17.6534496,5.09310479 14.1739889,2.11029562 9.88183981,2.11029562 L9.88183981,2.11029562 Z" id="Shape"></path>
        </g>
    </g>
</svg>