<?xml version="1.0" encoding="UTF-8"?>
<svg width="20px" height="20px" viewBox="0 0 20 20" version="1.1" xmlns="http://www.w3.org/2000/svg" xmlns:xlink="http://www.w3.org/1999/xlink">
    <!-- Generator: Sketch 48.2 (47327) - http://www.bohemiancoding.com/sketch -->
    <title>icon-clients</title>
    <desc>Created with Sketch.</desc>
    <defs></defs>
    <g id="Symbols" stroke="none" stroke-width="1" fill="none" fill-rule="evenodd">
        <g id="icon-clients" fill="#000000">
            <path d="M17.6537272,15.6797735 L17.6537272,13.2138069 C17.6537272,13.2138069 17.6537272,13.2138069 17.6537272,13.2132518 L17.6537272,4.33088685 C17.6537272,3.10428777 16.6595163,2.11057319 15.4332672,2.11057319 L15.4332672,2.11001804 L4.0853291,2.11001804 C4.69484536,1.43329286 5.56887391,1 6.55142744,1 L15.4332672,1 C17.2726408,1 18.7639572,2.49084944 18.7639572,4.33088685 L18.7639572,13.2132518 C18.7639572,14.1955858 18.3304124,15.0699436 17.6537272,15.6797735 L17.6537272,15.6797735 Z M13.2125297,3.22059123 C15.0519033,3.22059123 16.5432197,4.71227339 16.5432197,6.55147808 L16.5432197,7.6617737 L16.5432197,8.77206932 L16.5432197,15.433843 C16.5432197,17.2733253 15.0519033,18.7647299 13.2125297,18.7647299 L4.33068993,18.7647299 C2.49131642,18.7647299 1,17.2733253 1,15.433843 L1,8.77206932 L1,7.6617737 L1,6.55147808 C1,4.71227339 2.49131642,3.22059123 4.33068993,3.22059123 L13.2125297,3.22059123 L13.2125297,3.22059123 Z M2.11022998,15.433843 C2.11022998,16.6604421 3.10444092,17.6544343 4.33068993,17.6544343 L13.2125297,17.6544343 C14.4387787,17.6544343 15.4329897,16.6604421 15.4329897,15.433843 L15.4329897,8.77206932 L2.11022998,8.77206932 L2.11022998,15.433843 L2.11022998,15.433843 Z M2.11022998,6.55147808 L2.11022998,7.6617737 L15.4329897,7.6617737 L15.4329897,6.55147808 C15.4329897,5.324879 14.4387787,4.33088685 13.2125297,4.33088685 L4.33068993,4.33088685 C3.10444092,4.33088685 2.11022998,5.324879 2.11022998,6.55147808 L2.11022998,6.55147808 Z M10.9920698,6.55147808 L3.22045995,6.55147808 L3.22045995,5.44118247 L10.9920698,5.44118247 L10.9920698,6.55147808 L10.9920698,6.55147808 Z M13.2125297,6.55147808 L12.1022998,6.55147808 L12.1022998,5.44118247 L13.2125297,5.44118247 L13.2125297,6.55147808 L13.2125297,6.55147808 Z" id="Shape"></path>
        </g>
    </g>
</svg>