<?xml version="1.0" encoding="UTF-8"?>
<svg width="20px" height="20px" viewBox="0 0 20 20" version="1.1" xmlns="http://www.w3.org/2000/svg" xmlns:xlink="http://www.w3.org/1999/xlink">
    <!-- Generator: Sketch 48.2 (47327) - http://www.bohemiancoding.com/sketch -->
    <title>buddicons/hourglass</title>
    <desc>Created with Sketch.</desc>
    <defs></defs>
    <g id="Icons" stroke="none" stroke-width="1" fill="none" fill-rule="evenodd">
        <g id="buddicons/hourglass" fill="#000000">
            <path d="M15.7679223,2.11057319 L14.1025773,2.11057319 L14.1025773,7.10718104 C14.1025773,7.10829134 14.1020222,7.1096792 14.1020222,7.1107895 C14.1000793,7.13882446 14.0920301,7.16491641 14.0853688,7.19239623 C14.0454005,7.4405473 13.8483347,7.63040785 13.5943695,7.65289134 L10.4954401,9.88264251 L13.5946471,12.1126713 C13.8486122,12.1351547 14.045678,12.3247377 14.0853688,12.5728888 C14.0920301,12.6006462 14.1000793,12.6267381 14.1020222,12.6547731 C14.1020222,12.6556058 14.1025773,12.6569937 14.1025773,12.6578264 L14.1025773,17.6547118 L15.7679223,17.6547118 C16.0746233,17.6547118 16.3230373,17.9031405 16.3230373,18.2095821 C16.3230373,18.5160236 16.0746233,18.7647299 15.7679223,18.7647299 L3.55539255,18.7647299 C3.24896907,18.7647299 3.00027756,18.5160236 3.00027756,18.2095821 C3.00027756,17.9031405 3.24896907,17.6547118 3.55539255,17.6547118 L5.22073751,17.6547118 L5.22073751,12.6578264 C5.22073751,12.6569937 5.22129262,12.6556058 5.22129262,12.6547731 C5.22323553,12.6267381 5.23100714,12.6006462 5.23766852,12.5728888 C5.2776368,12.3241826 5.47470262,12.1351547 5.72839017,12.1126713 L8.82759715,9.88264251 L5.72839017,7.65289134 C5.47470262,7.63040785 5.27791435,7.44026972 5.23766852,7.19295138 C5.23100714,7.16491641 5.22295797,7.13882446 5.22101507,7.11051193 C5.22101507,7.1096792 5.22045995,7.10829134 5.22045995,7.10718104 L5.22045995,2.11057319 L3.55511499,2.11057319 C3.24869151,2.11057319 3,1.86186697 3,1.55514781 C3,1.24842864 3.24869151,1 3.55511499,1 L15.7676447,1 C16.0743458,1 16.3227597,1.24842864 16.3227597,1.55514781 C16.3227597,1.86186697 16.0746233,2.11057319 15.7679223,2.11057319 L15.7679223,2.11057319 Z M6.33096749,12.8790528 L6.33096749,17.6547118 L12.9923473,17.6547118 L12.9923473,12.8790528 L9.66165741,10.4827573 L6.33096749,12.8790528 L6.33096749,12.8790528 Z M12.9926249,2.11057319 L6.33124504,2.11057319 L6.33124504,6.88539949 L9.66193497,9.28252773 L12.9926249,6.88539949 L12.9926249,2.11057319 L12.9926249,2.11057319 Z" id="Shape"></path>
        </g>
    </g>
</svg>