<?xml version="1.0" encoding="UTF-8"?>
<svg width="20px" height="20px" viewBox="0 0 20 20" version="1.1" xmlns="http://www.w3.org/2000/svg" xmlns:xlink="http://www.w3.org/1999/xlink">
    <!-- Generator: Sketch 48.2 (47327) - http://www.bohemiancoding.com/sketch -->
    <title>buddicons/pencil</title>
    <desc>Created with Sketch.</desc>
    <defs></defs>
    <g id="Icons" stroke="none" stroke-width="1" fill="none" fill-rule="evenodd">
        <g id="buddicons/pencil" fill="#000000">
            <path d="M14.9071297,7.85511752 L6.8159674,15.859503 L6.6519374,15.859503 L6.60978894,15.8506432 L3.26583204,17.0171776 L2.5004482,16.3411515 L3.54288435,12.8453071 L3.54905896,12.8122844 L3.54905896,12.6211285 L11.8359297,4.7738023 L13.3908589,2.96533847 C14.0171797,2.34488718 15.117335,2.34488718 15.7433873,2.96533847 L16.4642066,3.64566022 C17.1125412,4.28866362 17.214825,5.5343988 16.5664904,6.17686524 L14.9071297,7.85511752 L14.9071297,7.85511752 Z M3.58395896,15.9470266 L5.73326202,15.2285811 L4.27122049,13.7946432 L3.58395896,15.9470266 L3.58395896,15.9470266 Z M4.73431665,13.0289457 L6.43851048,14.7496174 L13.9546281,7.2623194 L12.2963412,5.58702037 L4.73431665,13.0289457 L4.73431665,13.0289457 Z M15.815872,4.62426038 L14.9594797,3.74231209 C14.855585,3.63894829 14.6311512,3.48162053 14.4824235,3.48162053 C14.3331589,3.48162053 14.1946327,3.53800078 14.0902012,3.64109611 L12.8673589,4.85192922 L14.5941035,6.6123356 L15.8172143,5.40177096 C16.0327889,5.18725751 16.0327889,4.83931079 15.815872,4.62426038 L15.815872,4.62426038 Z" id="Shape"></path>
        </g>
    </g>
</svg>