<?xml version="1.0" encoding="UTF-8"?>
<svg width="20px" height="20px" viewBox="0 0 20 20" version="1.1" xmlns="http://www.w3.org/2000/svg" xmlns:xlink="http://www.w3.org/1999/xlink">
    <!-- Generator: Sketch 48.2 (47327) - http://www.bohemiancoding.com/sketch -->
    <title>buddicons/icon-anomaly-detection</title>
    <desc>Created with Sketch.</desc>
    <defs></defs>
    <g id="Icons" stroke="none" stroke-width="1" fill="none" fill-rule="evenodd">
        <g id="buddicons/icon-anomaly-detection" fill="#000000">
            <path d="M9.88183981,18.0917919 C9.88183981,18.0917919 1,10.8820874 1,7.55231081 C1,4.48595189 2.37501983,2 5.4409199,2 C7.10626487,2 9.32672482,3.665721 9.88183981,4.2283633 C10.4369548,3.665721 12.6574148,2 14.3227597,2 C17.3883822,2 18.7636796,4.48595189 18.7636796,7.55231081 C18.7636796,10.8823649 9.88183981,18.0917919 9.88183981,18.0917919 L9.88183981,18.0917919 Z M14.3227597,3.11085076 C13.1489691,3.11085076 11.232157,4.44098491 10.6723236,5.00862355 L9.88183981,5.80997941 L9.09135607,5.00862355 C8.53180016,4.44098491 6.61443299,3.11085076 5.4409199,3.11085076 C2.43469469,3.11085076 2.11022998,6.21662518 2.11022998,7.55258838 C2.11022998,9.3595945 6.44290246,13.7535894 9.88156225,16.6509058 C12.624663,14.3395479 15.92954,11.0791648 17.157732,8.93629429 L14.3227597,8.93629429 C14.3124901,8.93629429 14.3041634,8.93102039 14.2938937,8.93046524 C14.2730769,8.92852222 14.2533703,8.92269317 14.232276,8.91797441 C14.0576923,8.88827401 13.9128073,8.78335107 13.833981,8.630963 L12.8106265,7.62836606 L10.9174068,11.4438969 C10.9074148,11.460829 10.8907613,11.4702665 10.8793814,11.485533 C10.8682791,11.4991341 10.8566217,11.511625 10.8438541,11.5246709 C10.7494845,11.6284836 10.6245837,11.6889947 10.4874703,11.7023182 C10.4538858,11.7073146 10.4219667,11.7081473 10.3883822,11.7087024 C10.3781126,11.7075922 10.3683981,11.7081473 10.3581285,11.7067594 C10.1513481,11.701208 9.9517843,11.6171031 9.8407613,11.4527793 L8.47434576,8.93629429 L5.99547978,8.93629429 C5.6890563,8.93629429 5.44036479,8.68758807 5.44036479,8.38059134 C5.44036479,8.07442732 5.6890563,7.82544353 5.99547978,7.82544353 L8.75440127,7.82544353 C8.75856463,7.82516595 8.76245044,7.82627625 8.76633624,7.82544353 L8.77188739,7.82544353 C8.77244251,7.82544353 8.77299762,7.82627625 8.77355274,7.82627625 C9.00670103,7.80712365 9.2426249,7.89983333 9.36780333,8.08553028 L10.4058684,9.99745933 L12.1766852,6.42869164 C12.1969469,6.39482762 12.2272006,6.37206656 12.253291,6.34430917 C12.2757732,6.31932752 12.294092,6.28990469 12.32046,6.26991937 C12.3365583,6.25798369 12.3557098,6.25354251 12.3726408,6.24354985 C12.4164948,6.2174579 12.4600714,6.19136595 12.5089215,6.17887513 C12.6477002,6.14140265 12.8006344,6.15500377 12.9349722,6.23050387 C12.9843775,6.25826126 12.9943695,6.31405362 13.0310071,6.35208124 L14.533981,7.8257211 L17.6168121,7.8257211 C17.6348533,7.7310684 17.6534496,7.6364157 17.6534496,7.55286595 C17.6534496,6.21662518 17.3287074,3.11085076 14.3227597,3.11085076 L14.3227597,3.11085076 Z" id="Shape"></path>
        </g>
    </g>
</svg>