<?xml version="1.0" standalone="no"?>
<!DOCTYPE svg PUBLIC "-//W3C//DTD SVG 20010904//EN"
 "http://www.w3.org/TR/2001/REC-SVG-20010904/DTD/svg10.dtd">
<svg version="1.0" xmlns="http://www.w3.org/2000/svg"
 width="700.000000pt" height="700.000000pt" viewBox="0 0 700.000000 700.000000"
 preserveAspectRatio="xMidYMid meet">
<metadata>
Created by potrace 1.11, written by Peter Selinger 2001-2013
</metadata>
<g transform="translate(0.000000,700.000000) scale(0.100000,-0.100000)"
fill="#000000" stroke="none">
<path d="M1155 6763 c-42 -131 -104 -321 -137 -423 -33 -102 -73 -223 -88
-270 -15 -47 -78 -240 -140 -430 -61 -190 -147 -455 -191 -590 -78 -237 -133
-423 -144 -485 -5 -29 -9 -52 -20 -105 -15 -74 -25 -142 -30 -195 -3 -33 -8
-73 -11 -88 -17 -84 -17 -472 0 -610 3 -23 8 -69 11 -102 4 -33 15 -105 27
-160 11 -55 22 -111 24 -125 3 -14 16 -65 30 -115 14 -49 29 -106 34 -125 4
-19 13 -48 20 -65 19 -46 26 -64 56 -145 92 -252 263 -548 463 -805 95 -122
346 -378 461 -471 100 -81 584 -435 1569 -1149 76 -55 149 -108 162 -118 100
-73 236 -170 245 -174 7 -2 82 47 167 109 86 62 166 120 178 128 12 8 34 24
48 36 14 11 348 254 741 540 393 285 758 552 810 593 182 142 381 343 527 532
151 197 240 341 344 559 75 157 73 152 102 230 49 129 65 177 96 287 31 110
36 127 46 186 3 15 12 58 19 95 8 37 18 94 21 127 4 33 9 69 11 80 10 51 18
235 17 385 -1 204 -16 365 -49 533 -9 42 -18 90 -20 105 -18 101 -63 256 -172
587 -126 383 -252 774 -252 784 0 6 -4 19 -10 29 -5 9 -59 172 -120 362 -62
190 -138 424 -169 520 l-58 175 -2270 3 -2271 2 -77 -237z m2555 -403 c56
-173 110 -340 120 -370 10 -30 73 -224 140 -430 181 -558 218 -673 225 -697 5
-20 13 -23 53 -24 26 0 537 0 1135 -1 598 0 1086 -2 1084 -4 -2 -2 -68 -51
-148 -109 -79 -58 -278 -203 -442 -322 -164 -120 -308 -225 -320 -233 -26 -17
-569 -412 -702 -510 -49 -36 -118 -86 -153 -110 -50 -35 -61 -48 -56 -64 12
-46 236 -741 309 -961 13 -38 69 -212 125 -385 56 -173 109 -337 118 -365 9
-27 17 -52 17 -55 1 -3 4 -12 8 -20 23 -61 108 -333 105 -340 -2 -5 -413 289
-914 654 l-911 662 -719 -523 c-396 -289 -730 -532 -745 -541 -33 -22 -274
-197 -322 -235 -21 -16 -41 -27 -44 -24 -3 3 5 32 17 64 12 32 23 66 25 76 2
10 13 44 24 75 10 31 39 120 64 197 49 151 264 814 328 1010 21 66 68 212 105
325 36 113 81 249 99 302 38 112 48 90 -90 189 -49 35 -97 69 -105 76 -8 7
-366 267 -795 579 -429 311 -786 572 -793 579 -11 10 196 13 1113 13 622 0
1130 4 1134 8 4 5 21 52 38 104 112 347 232 715 270 830 44 134 112 346 117
365 2 6 6 17 9 25 3 8 29 87 57 175 72 225 200 617 207 635 6 15 35 -70 213
-620z"/>
</g>
</svg>
