<?xml version="1.0" encoding="UTF-8"?>
<svg width="20px" height="20px" viewBox="0 0 20 20" version="1.1" xmlns="http://www.w3.org/2000/svg" xmlns:xlink="http://www.w3.org/1999/xlink">
    <!-- Generator: Sketch 52.3 (67297) - http://www.bohemiancoding.com/sketch -->
    <title>icon/brands/brand-instagram</title>
    <desc>Created with Sketch.</desc>
    <g id="icon/brands/brand-instagram" stroke="none" stroke-width="1" fill="none" fill-rule="evenodd">
        <path d="M10,0 C7.28333333,0 6.94416667,0.0125 5.8775,0.06 C4.8125,0.11 4.0875,0.2775 3.45,0.525 C2.7925,0.78 2.23416667,1.1225 1.67833333,1.67833333 C1.1225,2.23416667 0.779166667,2.79166667 0.525,3.45 C0.2775,4.0875 0.109166667,4.8125 0.06,5.8775 C0.01,6.94416667 0,7.28333333 0,10 C0,12.7166667 0.0125,13.0558333 0.06,14.1225 C0.11,15.1866667 0.2775,15.9125 0.525,16.55 C0.78,17.2066667 1.1225,17.7658333 1.67833333,18.3216667 C2.23416667,18.8766667 2.79166667,19.2208333 3.45,19.475 C4.08833333,19.7216667 4.81333333,19.8908333 5.8775,19.94 C6.94416667,19.99 7.28333333,20 10,20 C12.7166667,20 13.0558333,19.9875 14.1225,19.94 C15.1866667,19.89 15.9125,19.7216667 16.55,19.475 C17.2066667,19.22 17.7658333,18.8766667 18.3216667,18.3216667 C18.8766667,17.7658333 19.2208333,17.2091667 19.475,16.55 C19.7216667,15.9125 19.8908333,15.1866667 19.94,14.1225 C19.99,13.0558333 20,12.7166667 20,10 C20,7.28333333 19.9875,6.94416667 19.94,5.8775 C19.89,4.81333333 19.7216667,4.08666667 19.475,3.45 C19.22,2.7925 18.8766667,2.23416667 18.3216667,1.67833333 C17.7658333,1.1225 17.2091667,0.779166667 16.55,0.525 C15.9125,0.2775 15.1866667,0.109166667 14.1225,0.06 C13.0558333,0.01 12.7166667,0 10,0 Z M10,1.8 C12.6691667,1.8 12.9875,1.81333333 14.0416667,1.85916667 C15.0166667,1.905 15.5458333,2.06666667 15.8975,2.205 C16.3658333,2.38583333 16.6975,2.6025 17.0491667,2.95166667 C17.3983333,3.30166667 17.615,3.63416667 17.7958333,4.1025 C17.9325,4.45416667 18.0958333,4.98333333 18.14,5.95833333 C18.1875,7.01333333 18.1983333,7.33 18.1983333,10 C18.1983333,12.67 18.1858333,12.9875 18.1366667,14.0416667 C18.0858333,15.0166667 17.9233333,15.5458333 17.7858333,15.8975 C17.5991667,16.3658333 17.3866667,16.6975 17.0366667,17.0491667 C16.6875,17.3983333 16.35,17.615 15.8866667,17.7958333 C15.5366667,17.9325 14.9991667,18.0958333 14.0241667,18.14 C12.9625,18.1875 12.65,18.1983333 9.975,18.1983333 C7.29916667,18.1983333 6.98666667,18.1858333 5.92583333,18.1366667 C4.95,18.0858333 4.4125,17.9233333 4.0625,17.7858333 C3.58833333,17.5991667 3.2625,17.3866667 2.91333333,17.0366667 C2.5625,16.6875 2.33833333,16.35 2.16333333,15.8866667 C2.02583333,15.5366667 1.86416667,14.9991667 1.81333333,14.0241667 C1.77583333,12.9741667 1.7625,12.65 1.7625,9.9875 C1.7625,7.32416667 1.77583333,6.99916667 1.81333333,5.93666667 C1.86416667,4.96166667 2.02583333,4.425 2.16333333,4.075 C2.33833333,3.6 2.5625,3.275 2.91333333,2.92416667 C3.2625,2.575 3.58833333,2.35 4.0625,2.17583333 C4.4125,2.0375 4.93833333,1.875 5.91333333,1.825 C6.97583333,1.7875 7.28833333,1.775 9.9625,1.775 L10,1.8 Z M10,4.865 C7.1625,4.865 4.865,7.165 4.865,10 C4.865,12.8375 7.165,15.135 10,15.135 C12.8375,15.135 15.135,12.835 15.135,10 C15.135,7.1625 12.835,4.865 10,4.865 Z M10,13.3333333 C8.15833333,13.3333333 6.66666667,11.8416667 6.66666667,10 C6.66666667,8.15833333 8.15833333,6.66666667 10,6.66666667 C11.8416667,6.66666667 13.3333333,8.15833333 13.3333333,10 C13.3333333,11.8416667 11.8416667,13.3333333 10,13.3333333 Z M16.5383333,4.6625 C16.5383333,5.325 16,5.8625 15.3383333,5.8625 C14.6758333,5.8625 14.1383333,5.32416667 14.1383333,4.6625 C14.1383333,4.00083333 14.6766667,3.46333333 15.3383333,3.46333333 C15.9991667,3.4625 16.5383333,4.00083333 16.5383333,4.6625 Z" id="Shape" fill="#000000"></path>
    </g>
</svg>