<?xml version="1.0" encoding="UTF-8"?>
<svg width="20px" height="20px" viewBox="0 0 20 20" version="1.1" xmlns="http://www.w3.org/2000/svg" xmlns:xlink="http://www.w3.org/1999/xlink">
    <!-- Generator: Sketch 52.3 (67297) - http://www.bohemiancoding.com/sketch -->
    <title>icon/brands/brand-dwolla</title>
    <desc>Created with Sketch.</desc>
    <g id="icon/brands/brand-dwolla" stroke="none" stroke-width="1" fill="none" fill-rule="evenodd">
        <path d="M4.00060753,16.9392764 C4.00060753,17.9747688 4.30437424,18.7952239 4.93104496,19.4006416 C5.55771567,19.9866809 6.41190765,20.1429581 7.51306197,19.8694731 C7.7600243,19.8107128 8.08262454,19.6741266 8.50030377,19.4590892 L9.18377886,19.0877747 L10.9304374,18.3063889 C10.9684083,18.3063889 11.1014581,18.2282504 11.3672539,18.1110425 C11.6142163,17.9938346 11.8420413,17.8960051 12.050729,17.8178666 C12.5443499,17.6028292 12.9431956,17.4271737 13.227825,17.2708965 C13.4747874,17.1536887 13.8165249,16.9583422 14.272175,16.6651663 C14.6710207,16.4110596 14.9747874,16.1375746 15.1834751,15.8837805 C15.4113001,15.6296738 15.5823208,15.2780502 15.7342041,14.8482881 C15.9052248,14.4575952 16,13.9887637 16,13.5002413 C16,13.0898575 15.9428919,12.6991646 15.8481166,12.3281626 C15.7530377,11.9374698 15.6582625,11.6249154 15.5443499,11.3514304 C15.449271,11.0779454 15.2785541,10.7847695 15.050729,10.4331459 C14.8037667,10.0815223 14.6330498,9.82741561 14.5,9.67113845 C14.3669502,9.5148613 14.1582625,9.26075464 13.8544957,8.92882196 C13.550729,8.57719836 13.3797084,8.362161 13.2849332,8.26464405 C13.227825,8.18650548 13.0191373,7.95208974 12.6773998,7.54170593 C12.3356622,7.15101304 12.1078372,6.87752802 12.0127582,6.74062923 C11.8988457,6.62342137 11.727825,6.36931471 11.4811665,5.99831275 C11.2345079,5.62731078 11.0823208,5.33413483 10.9875456,5.08002818 C10.9116039,4.82592153 10.8165249,4.51336721 10.7405832,4.14236525 C10.6646416,3.75167236 10.6455043,3.38035784 10.6455043,2.98966495 C10.6834751,1.99324181 11.1011543,1.23154695 11.8985419,0.703955275 C12.2402795,0.527987198 12.4113001,0.352331675 12.4113001,0.215432887 C12.354192,-0.0189828459 12.1834751,-0.0580521348 11.9365128,0.078534099 C11.5756379,0.293571465 11.0060753,0.547365565 10.2657959,0.879610798 L8.91767922,1.48534105 L8.0063791,1.91510323 C7.85449575,1.97386344 7.66464156,2.05200202 7.43681652,2.14951896 C7.20899149,2.26672683 7.05710814,2.32548704 7,2.34486541 C6.88608748,2.40362562 6.60115431,2.55990277 6.12667072,2.85276616 C5.74696233,3.08718189 5.46202916,3.30221926 5.31014581,3.4975657 C4.85449575,3.96639717 4.56956258,4.57212743 4.4936209,5.31444391 C4.2846294,6.83814618 4.89246659,8.49874723 6.31622114,10.2568652 C6.43013366,10.393764 6.80984204,10.8625955 7.4744836,11.6633596 C7.91130012,12.1712604 8.25303767,12.6207135 8.53766707,13.0307847 C8.42375456,13.0895449 7.62636695,13.4605469 6.16433779,14.1053465 C5.84143378,14.2422452 5.4808627,14.4375917 5.10115431,14.6913858 C4.36057108,15.1799082 4,15.9222247 4,16.9380262 L4.00060753,16.9392764 Z" id="Shape" fill="#000000"></path>
    </g>
</svg>