<?xml version="1.0" encoding="UTF-8"?>
<svg width="75px" height="69px" viewBox="0 0 75 69" version="1.1" xmlns="http://www.w3.org/2000/svg" xmlns:xlink="http://www.w3.org/1999/xlink">
    <!-- Generator: Sketch 46.2 (44496) - http://www.bohemiancoding.com/sketch -->
    <title>sharepoint-mark-color-b1c3a998d2ffad0c9c62970333c7e22ee8a3c56fcac355c6d0c4b03eb1d9c9a6</title>
    <desc>Created with Sketch.</desc>
    <defs></defs>
    <g id="Page-1" stroke="none" stroke-width="1" fill="none" fill-rule="evenodd">
        <g id="sharepoint-mark-color-b1c3a998d2ffad0c9c62970333c7e22ee8a3c56fcac355c6d0c4b03eb1d9c9a6" fill-rule="nonzero" fill="#000000">
            <path d="M66.48,27.27 C66.0027911,27.2714664 65.5269829,27.3217279 65.06,27.42 C63.2856288,22.8902959 59.8480161,19.209439 55.45,17.13 C55.7628314,14.3423909 54.381336,11.6372363 51.9396789,10.256317 C49.4980218,8.87539763 46.4677945,9.08542987 44.24,10.79 L44.24,21.71 C45.7450954,22.8920213 47.6709936,23.4011071 49.5635828,23.1172187 C51.456172,22.8333303 53.1479469,21.7815936 54.24,20.21 C57.8460177,21.9907984 60.6360142,25.0812561 62.04,28.85 C60.4231307,30.1870243 59.4912344,32.1787896 59.5009207,34.2768379 C59.510607,36.3748861 60.4608543,38.3579619 62.09,39.68 C60.7033845,43.5150558 57.886781,46.6649215 54.23,48.47 C53.1379469,46.8984064 51.446172,45.8466697 49.5535828,45.5627813 C47.6609936,45.2788929 45.7350954,45.7879787 44.23,46.97 L44.23,57.89 C46.3311333,59.5077991 49.1660494,59.799412 51.5525276,58.64323 C53.9390058,57.487048 55.4672695,55.0815965 55.5,52.43 C55.4979469,52.1390407 55.4779087,51.8484865 55.44,51.56 C59.8966478,49.4477269 63.3622656,45.6918144 65.11,41.08 C65.5580101,41.1675743 66.0135123,41.211115 66.47,41.21 C69.114361,41.4575165 71.6710324,40.1871851 73.0709734,37.9301794 C74.4709144,35.6731737 74.4729623,32.8182996 73.076261,30.5592877 C71.6795596,28.3002758 69.1247134,27.0262777 66.48,27.27 L66.48,27.27 Z M0.09,7.35 L0,61.5 L40.42,68.85 L40.42,0 L0.09,7.35 Z M22.86,47.95 C19.56,50.34 15.25,49.33 11.78,47.95 C11.78,45.95 11.69,43.95 11.62,41.88 C13.85,43.53 17.14,45.95 19.8,43.7 C21.85,40.25 17.8,38.06 15.48,36.39 C10.48,33.39 10.28,25.08 15.14,21.84 C17.98,20.04 21.45,20.61 24.59,21.05 C24.59,22.95 24.68,24.87 24.73,26.77 C22.12,25.95 18.79,24.29 16.64,26.94 C15.14,30.85 19.88,32.32 22.16,34.37 C26.64,37.22 27.02,44.65 22.86,47.95 L22.86,47.95 Z" id="Shape"></path>
        </g>
    </g>
</svg>