<?xml version="1.0" encoding="UTF-8" standalone="no"?>
<svg width="79px" height="65px" viewBox="0 0 79 65" version="1.1" xmlns="http://www.w3.org/2000/svg" xmlns:xlink="http://www.w3.org/1999/xlink" xmlns:sketch="http://www.bohemiancoding.com/sketch/ns">
    <!-- Generator: Sketch 3.4 (15588) - http://www.bohemiancoding.com/sketch -->
    <title>twitter</title>
    <desc>Created with Sketch.</desc>
    <defs></defs>
    <g id="Page-1" stroke="none" stroke-width="1" fill="none" fill-rule="evenodd" sketch:type="MSPage">
        <g id="twitter" sketch:type="MSLayerGroup" fill="#000000">
            <path d="M0,57.438 C7.625,62.251 15.875,64.626 24.75,64.626 C30.5,64.626 35.938,63.751 40.938,61.938 C45.938,60.125 50.251,57.688 53.813,54.625 C57.438,51.5 60.501,48 63.063,44.062 C65.625,40.124 67.563,35.999 68.813,31.624 C70.063,27.311 70.751,22.999 70.751,18.686 L70.751,16.561 C74.001,14.186 76.689,11.373 78.751,8.186 C75.688,9.499 72.626,10.374 69.501,10.749 C73.001,8.686 75.376,5.686 76.564,1.811 C73.439,3.686 70.001,4.999 66.314,5.749 C63.126,2.374 59.189,0.624 54.501,0.624 C50.063,0.624 46.251,2.249 43.063,5.374 C39.938,8.562 38.313,12.312 38.313,16.749 C38.313,17.812 38.501,19.062 38.813,20.499 C32.188,20.124 26,18.499 20.188,15.499 C14.438,12.561 9.5,8.561 5.5,3.561 C4,6.124 3.25,8.811 3.25,11.686 C3.25,14.499 3.938,17.061 5.188,19.436 C6.501,21.811 8.251,23.686 10.501,25.186 C7.876,25.123 5.376,24.436 3.126,23.186 L3.126,23.374 C3.126,27.249 4.376,30.687 6.814,33.624 C9.252,36.624 12.377,38.437 16.127,39.187 C14.752,39.562 13.314,39.75 11.814,39.75 C10.689,39.75 9.689,39.687 8.814,39.5 C9.877,42.75 11.752,45.375 14.502,47.5 C17.315,49.563 20.44,50.625 23.94,50.688 C18.065,55.313 11.377,57.626 3.815,57.626 C2.565,57.626 1.252,57.563 0.002,57.438 L0,57.438 Z" id="Shape" sketch:type="MSShapeGroup"></path>
        </g>
    </g>
</svg>