<?xml version="1.0" encoding="UTF-8" standalone="no"?>
<svg width="55px" height="63px" viewBox="0 0 55 63" version="1.1" xmlns="http://www.w3.org/2000/svg" xmlns:xlink="http://www.w3.org/1999/xlink" xmlns:sketch="http://www.bohemiancoding.com/sketch/ns">
    <!-- Generator: Sketch 3.4 (15588) - http://www.bohemiancoding.com/sketch -->
    <title>shopify</title>
    <desc>Created with Sketch.</desc>
    <defs></defs>
    <g id="Page-1" stroke="none" stroke-width="1" fill="none" fill-rule="evenodd" sketch:type="MSPage">
        <g id="shopify" sketch:type="MSLayerGroup" fill="#000000">
            <path d="M21.125,1.688 C24.125,0.188 25.813,0.125 27.375,1.375 C28,1.875 29.188,2.438 30.063,2.563 C31.751,2.938 34.251,5.438 34.813,7.188 C35.126,8.126 35.376,8.251 36.688,8.001 C37.938,7.751 38.438,7.938 40.126,9.626 C41.876,11.376 42.501,11.689 44.939,11.876 C47.189,12.126 47.689,12.314 47.877,13.189 C48.002,13.814 48.877,19.439 49.815,25.814 C50.753,32.189 52.19,41.752 52.94,47.127 C53.753,52.44 54.378,57.127 54.378,57.565 C54.378,58.128 52.315,58.753 45.003,60.315 L35.565,62.378 L18.315,59.128 C8.752,57.378 0.815,55.753 0.627,55.565 C0.377,55.377 0.752,51.002 1.44,45.815 C2.128,40.69 3.128,33.002 3.628,28.752 C5.128,16.752 4.566,18.064 8.691,16.814 L12.129,15.689 L13.504,12.001 C15.317,6.876 17.942,3.313 21.129,1.688 L21.125,1.688 Z M24.188,4.438 L25.938,2.875 L24.563,2.875 C22.188,2.875 19.375,5.063 17.313,8.688 C16.188,10.626 15.063,13.938 15.375,14.251 C15.563,14.439 16.5,14.251 17.625,14.001 C19.375,13.563 19.625,13.251 20.125,11.438 C20.938,8.313 22.25,6.063 24.188,4.438 L24.188,4.438 Z M28.375,22.563 C28.125,22.313 26.5,22 24.812,21.938 C17.312,21.5 11.937,26.001 11.874,32.813 C11.874,35.938 12.812,37.876 15.499,39.876 C21.312,44.501 17.687,49.064 11.499,45.001 C10.124,44.126 10.124,44.188 9.249,47.001 C8.561,49.251 8.561,49.251 9.999,50.501 C10.812,51.189 12.624,52.001 14.124,52.439 C20.437,54.314 25.562,51.001 26.249,44.626 C26.687,40.751 25.124,37.938 20.749,34.751 C18.624,33.188 18.124,32.563 18.124,31.376 C18.124,29.313 19.937,28.313 22.874,28.626 C24.124,28.751 25.499,29.001 25.874,29.189 C26.437,29.377 26.874,28.751 27.749,26.189 C28.312,24.314 28.562,22.751 28.374,22.564 L28.375,22.563 Z" id="Shape" sketch:type="MSShapeGroup"></path>
        </g>
    </g>
</svg>