<?xml version="1.0" encoding="UTF-8" standalone="no"?>
<svg width="54px" height="65px" viewBox="0 0 54 65" version="1.1" xmlns="http://www.w3.org/2000/svg" xmlns:xlink="http://www.w3.org/1999/xlink" xmlns:sketch="http://www.bohemiancoding.com/sketch/ns">
    <!-- Generator: Sketch 3.4 (15588) - http://www.bohemiancoding.com/sketch -->
    <title>evernote</title>
    <desc>Created with Sketch.</desc>
    <defs></defs>
    <g id="Page-1" stroke="none" stroke-width="1" fill="none" fill-rule="evenodd" sketch:type="MSPage">
        <g id="evernote" sketch:type="MSLayerGroup" fill="#000000">
            <path d="M7.54951657e-15,20.375 C7.54951657e-15,21.188 0.063,22.25 0.25,23.688 C0.5,25.376 1,28.188 1.75,32.188 C2.563,36.188 3.313,38.938 4.063,40.438 C4.563,41.688 5.376,42.501 6.376,43.001 C9.439,44.314 13.626,45.314 19.064,46.001 C20.377,46.314 21.502,46.501 22.502,46.501 L22.94,46.501 C24.003,46.438 24.815,45.938 25.253,44.876 L25.816,43.313 C26.566,41.063 26.941,38.5 26.941,35.625 C26.941,35.562 27.004,35.5 27.129,35.5 C27.192,35.5 27.254,35.563 27.254,35.625 C27.254,39.875 28.379,42.375 30.629,43.25 C32.004,43.688 34.504,44.125 38.254,44.5 C39.879,44.75 41.129,45.438 41.879,46.563 C42.692,47.688 43.067,49.876 43.067,53.126 C43.067,55.251 42.754,56.564 42.067,57.189 C41.379,57.752 39.817,58.002 37.379,58.002 L35.316,58.002 C35.003,58.002 34.503,58.002 33.878,57.877 C33.253,57.814 32.878,57.689 32.753,57.439 C32.565,57.251 32.44,56.939 32.253,56.564 C32.066,56.189 32.003,55.689 32.003,55.064 C32.128,54.814 32.128,54.564 32.066,54.376 C32.003,54.126 32.066,53.938 32.316,53.751 C32.566,53.626 32.691,53.501 32.691,53.376 C32.628,53.313 32.816,53.188 33.191,53.126 C33.566,53.064 33.754,53.001 33.754,53.001 C33.754,52.938 33.942,52.876 34.379,52.876 L36.317,52.876 C36.567,52.876 36.692,52.813 36.755,52.688 C36.755,52.563 36.755,52.313 36.692,51.938 C36.567,51.5 36.567,51.125 36.567,50.75 C36.567,50.5 36.567,50.187 36.63,49.875 C36.693,49.625 36.755,49.375 36.818,49.187 C36.881,48.999 36.943,48.874 37.006,48.687 C37.069,48.562 37.006,48.437 36.943,48.374 C36.88,48.311 36.755,48.311 36.63,48.311 L34.817,48.311 C33.754,48.311 32.879,48.311 32.254,48.374 C31.254,48.437 30.316,48.749 29.254,49.187 C28.254,49.687 27.566,50.437 27.191,51.625 C26.753,52.75 26.566,54.25 26.566,56.188 C26.566,59.626 27.379,61.876 28.941,63.001 C30.566,64.064 33.691,64.626 38.254,64.626 C39.942,64.626 41.192,64.563 42.004,64.501 C42.879,64.438 43.754,64.251 44.754,64.001 C45.692,63.688 46.504,63.188 47.067,62.501 C47.63,61.814 48.255,60.938 48.817,59.813 C49.442,58.688 50.005,57.188 50.63,55.375 C51.755,51.875 52.693,46.5 53.38,39.125 C53.505,38 53.568,36.5 53.568,34.625 C53.568,32.125 53.443,29 53.255,25.187 C52.942,18.562 52.505,14.124 52.13,11.749 C51.63,9.436 50.505,7.999 48.692,7.436 C47.317,6.936 44.567,6.436 40.442,5.936 C38.942,5.748 37.004,5.623 34.754,5.623 C33.816,5.623 32.816,5.623 31.691,5.686 C31.378,3.686 30.441,2.373 28.816,1.686 C27.128,1.061 25.066,0.686 22.503,0.623 L21.315,0.623 C19.502,0.623 18.377,0.748 17.94,0.998 C16.44,1.436 15.377,2.061 14.752,2.998 C14.189,3.811 13.939,4.748 13.939,5.811 L13.939,9.561 C14.002,10.561 14.002,11.499 14.002,12.374 C14.002,13.062 13.814,13.562 13.314,14.062 C12.814,14.5 12.314,14.75 11.626,14.75 L5.626,14.75 C4.376,14.75 3.376,14.938 2.626,15.313 C1.876,15.626 1.376,16.063 0.938,16.688 C0.313,17.438 0,18.688 0,20.376 L7.54951657e-15,20.375 Z M0.375,12.75 C0.563,12.687 0.75,12.562 0.938,12.437 C2.001,11.999 3.313,11.749 4.751,11.749 L10.689,11.749 C11.127,11.749 11.314,11.561 11.314,11.124 C11.314,7.686 11.251,5.436 11.251,4.499 C11.251,3.311 11.501,2.311 11.939,1.436 L12.189,1.061 C12.126,1.061 12.126,1.061 12.126,1.124 L0.376,12.624 L0.376,12.749 L0.375,12.75 Z M36.75,31.313 C36.938,30 37.313,28.938 37.938,28 C38.563,27.187 39.501,26.75 40.751,26.75 L40.939,26.75 C43.564,26.813 44.877,28.688 44.877,32.313 C43.314,31.563 41.627,31.188 39.689,31.125 C38.626,31.125 37.626,31.188 36.751,31.313 L36.75,31.313 Z" id="Shape" sketch:type="MSShapeGroup"></path>
        </g>
    </g>
</svg>