<?xml version="1.0" encoding="UTF-8" standalone="no"?>
<svg width="64px" height="65px" viewBox="0 0 64 65" version="1.1" xmlns="http://www.w3.org/2000/svg" xmlns:xlink="http://www.w3.org/1999/xlink" xmlns:sketch="http://www.bohemiancoding.com/sketch/ns">
    <!-- Generator: Sketch 3.4 (15588) - http://www.bohemiancoding.com/sketch -->
    <title>instagram</title>
    <desc>Created with Sketch.</desc>
    <defs></defs>
    <g id="Page-1" stroke="none" stroke-width="1" fill="none" fill-rule="evenodd" sketch:type="MSPage">
        <g id="instagram" sketch:type="MSLayerGroup" transform="translate(-1.000000, 0.000000)" fill="#000000">
            <path d="M46.063,23.688 C47.938,26.313 49.063,29.563 49.063,33.126 C49.063,42.126 41.813,49.376 32.813,49.376 C23.813,49.376 16.5,42.126 16.5,33.126 C16.5,29.563 17.625,26.313 19.5,23.688 L1,23.688 L1,52.251 C1,59.189 6.625,64.814 13.563,64.814 L52.063,64.814 C59.001,64.814 64.688,59.189 64.688,52.251 L64.688,23.688 L46.063,23.688 L46.063,23.688 Z M64.688,13.375 C64.688,6.437 59,0.812 52.063,0.812 L17.688,0.812 L17.688,16.687 L15.063,16.687 L15.063,0.812 L13.313,0.812 L13.313,16.687 L10.75,16.687 L10.75,1.124 C10.125,1.312 9.5,1.499 8.875,1.749 L8.875,16.687 L6.312,16.687 L6.312,3.124 C3.124,5.437 0.999,9.187 0.999,13.374 L0.999,21.687 L21.187,21.687 C24.125,18.687 28.25,16.812 32.812,16.812 C37.312,16.812 41.437,18.687 44.375,21.687 L64.688,21.687 L64.688,13.374 L64.688,13.375 Z M58.938,8.125 L58.938,15.063 C58.938,16.188 58,17.063 56.875,17.063 L50.062,17.063 C48.999,17.063 48.062,16.188 48.062,15.063 L48.062,8.125 C48.062,7 49,6.062 50.062,6.062 L56.875,6.062 C58,6.062 58.938,7 58.938,8.125 L58.938,8.125 Z M20.25,33.125 C20.25,40 25.875,45.625 32.813,45.625 C39.688,45.625 45.313,40 45.313,33.125 C45.313,29.375 43.688,26 41.063,23.687 C40.125,22.874 39.125,22.187 38,21.687 C36.375,20.937 34.625,20.562 32.812,20.562 C30.937,20.562 29.187,20.937 27.624,21.687 C26.499,22.187 25.436,22.875 24.499,23.687 C21.874,26 20.249,29.375 20.249,33.125 L20.25,33.125 Z M23.563,33.125 C23.563,28 27.688,23.812 32.813,23.812 C37.938,23.812 42.126,28 42.126,33.125 C42.126,38.25 37.938,42.375 32.813,42.375 C27.688,42.375 23.563,38.25 23.563,33.125 L23.563,33.125 Z" id="Shape" sketch:type="MSShapeGroup"></path>
        </g>
    </g>
</svg>