<?xml version="1.0" encoding="UTF-8" standalone="no"?>
<svg width="40px" height="65px" viewBox="0 0 40 65" version="1.1" xmlns="http://www.w3.org/2000/svg" xmlns:xlink="http://www.w3.org/1999/xlink" xmlns:sketch="http://www.bohemiancoding.com/sketch/ns">
    <!-- Generator: Sketch 3.4 (15588) - http://www.bohemiancoding.com/sketch -->
    <title>dwolla</title>
    <desc>Created with Sketch.</desc>
    <defs></defs>
    <g id="Page-1" stroke="none" stroke-width="1" fill="none" fill-rule="evenodd" sketch:type="MSPage">
        <g id="dwolla" sketch:type="MSLayerGroup" transform="translate(-1.000000, 0.000000)" fill="#000000">
            <path d="M1,55 C1,58.313 2,60.938 4.063,62.875 C6.126,64.75 8.938,65.25 12.563,64.375 C13.376,64.187 14.438,63.75 15.813,63.062 L18.063,61.874 L23.813,59.374 C23.938,59.374 24.376,59.124 25.251,58.749 C26.064,58.374 26.814,58.061 27.501,57.811 C29.126,57.123 30.439,56.561 31.376,56.061 C32.189,55.686 33.314,55.061 34.814,54.123 C36.127,53.31 37.127,52.435 37.814,51.623 C38.564,50.81 39.127,49.685 39.627,48.31 C40.19,47.06 40.502,45.56 40.502,43.997 C40.502,42.684 40.314,41.434 40.002,40.247 C39.689,38.997 39.377,37.997 39.002,37.122 C38.689,36.247 38.127,35.309 37.377,34.184 C36.564,33.059 36.002,32.246 35.564,31.746 C35.126,31.246 34.439,30.433 33.439,29.371 C32.439,28.246 31.876,27.558 31.564,27.246 C31.376,26.996 30.689,26.246 29.564,24.933 C28.439,23.683 27.689,22.808 27.376,22.37 C27.001,21.995 26.438,21.182 25.626,19.995 C24.814,18.808 24.313,17.87 24.001,17.057 C23.751,16.244 23.438,15.244 23.188,14.057 C22.938,12.807 22.875,11.619 22.875,10.369 C23,7.181 24.375,4.744 27,3.056 C28.125,2.493 28.688,1.931 28.688,1.493 C28.5,0.743 27.938,0.618 27.125,1.055 C25.937,1.743 24.062,2.555 21.625,3.618 L17.187,5.556 L14.187,6.931 C13.687,7.119 13.062,7.369 12.312,7.681 C11.562,8.056 11.062,8.244 10.874,8.306 C10.499,8.494 9.561,8.994 7.999,9.931 C6.749,10.681 5.811,11.369 5.311,11.994 C3.811,13.494 2.873,15.432 2.623,17.807 C1.935,22.682 3.936,27.995 8.623,33.62 C8.998,34.058 10.248,35.558 12.436,38.12 C13.874,39.745 14.999,41.183 15.936,42.495 C15.561,42.683 12.936,43.87 8.123,45.933 C7.06,46.371 5.873,46.996 4.623,47.808 C2.185,49.371 0.998,51.746 0.998,54.996 L1,55 Z" id="Shape" sketch:type="MSShapeGroup"></path>
        </g>
    </g>
</svg>