<?xml version="1.0" encoding="UTF-8" standalone="no"?>
<svg width="67px" height="64px" viewBox="0 0 67 64" version="1.1" xmlns="http://www.w3.org/2000/svg" xmlns:xlink="http://www.w3.org/1999/xlink" xmlns:sketch="http://www.bohemiancoding.com/sketch/ns">
    <!-- Generator: Sketch 3.4 (15588) - http://www.bohemiancoding.com/sketch -->
    <title>linkedin</title>
    <desc>Created with Sketch.</desc>
    <defs></defs>
    <g id="Page-1" stroke="none" stroke-width="1" fill="none" fill-rule="evenodd" sketch:type="MSPage">
        <g id="linkedin" sketch:type="MSLayerGroup" fill="#000000">
            <path d="M0.687,7.375 C0.687,9.5 1.375,11.25 2.875,12.688 C4.313,14.063 6.188,14.813 8.563,14.813 L8.626,14.813 C11.064,14.813 13.001,14.063 14.501,12.688 C15.939,11.313 16.689,9.625 16.689,7.563 C16.689,5.313 15.939,3.438 14.439,2.063 C13.001,0.688 11.064,8.8817842e-16 8.751,8.8817842e-16 C6.376,8.8817842e-16 4.438,0.688 2.938,2.063 C1.438,3.501 0.688,5.251 0.688,7.376 L0.687,7.375 Z M1.5,63.375 L15.75,63.375 L15.75,20.625 L1.5,20.625 L1.5,63.375 L1.5,63.375 Z M23.563,63.375 C23.688,50.5 23.751,40.5 23.751,33.375 C23.751,26.25 23.688,22 23.563,20.625 L37.813,20.625 L37.813,26.688 L37.75,26.813 L37.813,26.813 L37.813,26.688 C40.876,21.938 45.188,19.563 50.688,19.563 C55.563,19.563 59.501,21.251 62.501,24.501 C65.501,27.751 67.001,32.564 67.001,38.876 L67.001,63.376 L52.751,63.376 L52.751,40.501 C52.751,34.063 50.376,30.876 45.626,30.876 C43.751,30.876 42.251,31.376 41.063,32.376 C39.813,33.376 38.938,34.564 38.313,36.064 C38,36.877 37.813,38.002 37.813,39.502 L37.813,63.377 L23.563,63.377 L23.563,63.375 Z" id="Shape" sketch:type="MSShapeGroup"></path>
        </g>
    </g>
</svg>