<?xml version="1.0" encoding="UTF-8" standalone="no"?>
<svg width="59px" height="65px" viewBox="0 0 59 65" version="1.1" xmlns="http://www.w3.org/2000/svg" xmlns:xlink="http://www.w3.org/1999/xlink" xmlns:sketch="http://www.bohemiancoding.com/sketch/ns">
    <!-- Generator: Sketch 3.4 (15588) - http://www.bohemiancoding.com/sketch -->
    <title>baidu</title>
    <desc>Created with Sketch.</desc>
    <defs></defs>
    <g id="Page-1" stroke="none" stroke-width="1" fill="none" fill-rule="evenodd" sketch:type="MSPage">
        <g id="baidu" sketch:type="MSLayerGroup" fill="#000000">
            <path d="M0.125,24 C0.062,24.438 0,24.875 0,25.313 C0,25.938 0.063,26.626 0.25,27.376 C0.5,28.626 0.938,29.876 1.625,31.064 C2.25,32.252 3.188,33.189 4.5,33.814 C5.313,34.252 6.25,34.502 7.25,34.502 C7.813,34.502 8.313,34.439 8.875,34.314 C10.5,33.939 11.75,33.251 12.688,32.189 C13.688,31.189 14.251,29.939 14.501,28.501 C14.751,27.126 14.876,26.001 14.876,25.126 L14.876,24.751 C14.876,24.001 14.813,23.313 14.626,22.626 C14.501,21.001 13.626,19.376 12.063,17.626 C10.563,16.126 8.938,15.313 7.125,15.313 L6.562,15.313 L5.999,15.438 C5.624,15.501 5.124,15.688 4.561,16.063 C3.936,16.376 3.373,16.813 2.748,17.376 C2.123,17.939 1.623,18.814 1.123,19.939 C0.623,21.127 0.31,22.439 0.123,24.002 L0.125,24 Z M4.25,55.125 L4.938,57.313 C5.376,58.751 6.376,60.251 7.876,61.688 C9.314,63.063 11.001,63.813 13.001,63.813 L13.189,63.813 C13.877,63.938 14.627,64.001 15.502,63.938 C16.315,63.938 17.252,63.875 18.315,63.813 C20.378,63.563 21.753,63.375 22.503,63.25 C23.253,63.125 23.816,63.062 24.253,62.937 L25.878,62.687 C26.816,62.499 27.941,62.437 29.378,62.437 L30.253,62.437 C32.128,62.5 33.816,62.75 35.316,63.25 C37.941,64.125 40.316,64.563 42.504,64.563 C44.692,64.563 46.379,64.313 47.567,63.813 C48.755,63.313 49.817,62.688 50.755,61.813 C51.693,60.938 52.255,60.313 52.505,59.938 C52.755,59.563 52.943,59.25 53.005,59 L53.38,58 C53.568,57.375 53.818,56.562 53.943,55.5 C54.131,54.437 54.193,53.375 54.193,52.187 C54.193,50.999 53.943,49.812 53.38,48.499 C52.755,47.249 51.942,46.186 50.817,45.374 C48.504,43.499 46.192,41.499 44.067,39.249 C41.879,36.999 40.442,35.436 39.754,34.624 C39.129,33.811 38.629,33.124 38.254,32.624 C36.754,30.311 35.066,28.686 33.191,27.686 C31.753,26.936 30.316,26.561 29.003,26.561 C28.628,26.561 28.315,26.561 27.878,26.624 C26.253,26.874 24.69,27.437 23.315,28.374 C21.94,29.311 20.877,30.437 20.127,31.812 C19.252,33.312 18.189,34.687 16.939,36 C15.751,37.313 14.564,38.438 13.564,39.313 C12.501,40.188 11.939,40.688 11.814,40.751 L10.189,42.064 C9.064,43.002 8.064,43.939 7.064,45.002 C6.126,46.002 5.314,47.44 4.626,49.315 C4.188,50.503 3.938,51.628 3.938,52.878 C3.938,53.628 4.063,54.378 4.251,55.128 L4.25,55.125 Z M13.313,48.5 L13.813,47.187 C14.126,46.312 14.751,45.437 15.751,44.562 C16.751,43.687 17.876,43.249 19.126,43.249 L23.501,43.249 L23.501,37.936 L27.126,37.999 L27.126,57.624 L19.001,57.624 C16.563,57.124 14.876,55.936 13.938,54.124 C13.438,52.874 13.188,51.561 13.188,50.249 C13.188,49.686 13.251,49.061 13.313,48.499 L13.313,48.5 Z M14.875,10.5 C14.875,13.188 15.5,15.563 16.875,17.438 C18.188,19.376 19.813,20.313 21.75,20.313 C23.687,20.313 25.313,19.375 26.625,17.438 C28,15.563 28.688,13.188 28.688,10.5 C28.688,7.75 28,5.437 26.625,3.5 C25.312,1.562 23.687,0.625 21.75,0.625 C19.813,0.625 18.187,1.563 16.875,3.5 C15.5,5.438 14.875,7.75 14.875,10.5 L14.875,10.5 Z M17.125,51.625 L17.438,52.313 C17.563,52.813 17.938,53.251 18.376,53.688 C18.876,54.188 19.501,54.376 20.189,54.376 L23.439,54.376 L23.439,46.376 L19.876,46.376 C18.688,46.751 17.813,47.501 17.438,48.626 C17.125,49.376 17,50.001 17,50.626 C17,50.939 17.063,51.314 17.125,51.626 L17.125,51.625 Z M29.125,54.063 L29.125,43.688 L32.938,43.625 L32.938,52.938 L33.001,53.188 C33.126,53.313 33.251,53.501 33.501,53.751 C33.751,53.939 34.064,54.064 34.439,54.126 L38.252,54.126 L38.252,43.688 L42.315,43.688 L42.315,57.563 L32.94,57.563 L32.002,57.25 C31.377,57.062 30.752,56.625 30.064,56.062 C29.439,55.499 29.126,54.812 29.126,54.062 L29.125,54.063 Z M32.5,11.063 C32.437,11.751 32.375,12.376 32.375,13.001 C32.438,14.814 32.75,16.439 33.438,17.751 C34.251,19.626 35.876,20.689 38.251,21.064 C38.564,21.064 38.876,21.127 39.189,21.127 C41.127,21.064 42.814,20.189 44.314,18.564 C45.939,16.564 47.002,14.439 47.377,12.064 C47.377,11.689 47.44,11.314 47.44,10.939 C47.44,9.314 46.877,7.689 45.815,6.001 C44.502,3.938 42.94,2.688 41.065,2.313 C40.815,2.25 40.502,2.25 40.252,2.25 C38.752,2.25 37.252,3.125 35.627,4.875 C33.752,6.938 32.752,9 32.502,11.063 L32.5,11.063 Z M43.875,29.625 C43.875,30.875 43.938,31.875 44.125,32.688 C44.25,33.563 44.5,34.501 45,35.563 C45.438,36.563 46.25,37.376 47.438,37.876 C48.501,38.314 49.813,38.564 51.438,38.564 L51.813,38.564 C52.626,38.564 53.376,38.501 54.063,38.314 C54.751,38.064 55.313,37.814 55.751,37.439 C56.251,37.064 56.626,36.626 57.001,36.251 C57.376,35.813 57.626,35.313 57.814,34.751 C58.002,34.126 58.189,33.626 58.314,33.188 C58.439,32.75 58.502,32.25 58.564,31.563 C58.626,30.876 58.627,30.438 58.627,30.125 L58.627,27.937 C58.627,27.374 58.502,26.624 58.252,25.812 C58.002,25 57.564,24.187 57.064,23.249 C56.501,22.311 55.689,21.561 54.626,20.936 C53.563,20.311 52.251,19.998 50.813,19.998 C46.188,19.998 43.875,23.186 43.875,29.623 L43.875,29.625 Z" id="Shape" sketch:type="MSShapeGroup"></path>
        </g>
    </g>
</svg>