<?xml version="1.0" encoding="UTF-8" standalone="no"?>
<svg width="74px" height="36px" viewBox="0 0 74 36" version="1.1" xmlns="http://www.w3.org/2000/svg" xmlns:xlink="http://www.w3.org/1999/xlink" xmlns:sketch="http://www.bohemiancoding.com/sketch/ns">
    <!-- Generator: Sketch 3.4 (15588) - http://www.bohemiancoding.com/sketch -->
    <title>soundcloud</title>
    <desc>Created with Sketch.</desc>
    <defs></defs>
    <g id="Page-1" stroke="none" stroke-width="1" fill="none" fill-rule="evenodd" sketch:type="MSPage">
        <g id="soundcloud" sketch:type="MSLayerGroup" fill="#000000">
            <path d="M0,26.25 C0,29.125 0.25,30.688 0.813,31 C1.063,30.875 1.313,30.187 1.501,29 C1.689,27.75 1.814,26.875 1.814,26.25 C1.814,25.687 1.689,24.812 1.501,23.562 C1.313,22.312 1.063,21.624 0.813,21.437 C0.563,21.625 0.375,22.25 0.25,23.437 C0.062,24.625 0,25.562 0,26.25 L0,26.25 Z M4.125,26.25 C4.125,27.313 4.188,28.813 4.438,30.875 C4.626,32.875 4.751,34.125 4.813,34.563 C4.813,34.876 4.938,35.063 5.188,35.063 C5.376,35.063 5.501,34.875 5.563,34.563 C5.626,34.063 5.751,32.813 6.001,30.813 C6.189,28.813 6.314,27.313 6.314,26.25 C6.314,26 6.064,23.125 5.564,17.625 C5.501,17.375 5.376,17.25 5.189,17.25 C4.939,17.25 4.814,17.375 4.814,17.625 C4.751,18.125 4.626,19.438 4.439,21.563 C4.189,23.626 4.126,25.188 4.126,26.251 L4.125,26.25 Z M9.25,26.25 C9.25,27.375 9.375,29 9.625,31.25 C9.813,33.438 9.938,34.688 9.938,35 C9.938,35.312 10.063,35.5 10.376,35.5 C10.689,35.5 10.876,35.312 10.876,35 C11.376,29.812 11.564,26.937 11.564,26.25 C11.564,25.625 11.376,22.875 10.876,18.062 C10.876,17.687 10.688,17.499 10.376,17.499 C10.064,17.499 9.938,17.687 9.938,18.062 C9.938,18.312 9.813,19.437 9.625,21.562 C9.375,23.687 9.25,25.25 9.25,26.25 L9.25,26.25 Z M15.188,26.25 C15.188,26.375 15.376,29.25 15.751,34.938 C15.751,35.313 15.939,35.563 16.314,35.563 C16.752,35.563 16.939,35.313 16.939,34.938 C16.939,34.625 17.064,33.375 17.252,31.188 C17.502,29 17.627,27.375 17.627,26.25 C17.627,24.125 17.502,21 17.314,16.937 C17.126,12.874 17.001,10.499 16.939,9.812 C16.939,9.374 16.751,9.187 16.314,9.187 C15.939,9.187 15.751,9.375 15.751,9.812 C15.688,11.062 15.626,12.812 15.501,15.062 C15.438,17.25 15.313,19.312 15.251,21.125 C15.189,22.938 15.188,24.625 15.188,26.25 L15.188,26.25 Z M21.188,26.25 C21.188,27.375 21.251,28.938 21.438,31 C21.563,33.063 21.626,34.313 21.626,34.75 C21.689,35.313 22.001,35.563 22.376,35.563 C22.814,35.563 23.064,35.313 23.189,34.75 C23.189,34.187 23.314,32.875 23.439,30.875 C23.627,28.875 23.689,27.312 23.689,26.25 C23.689,23.937 23.626,20.687 23.439,16.375 C23.314,12.062 23.189,9.187 23.189,7.812 C23.064,7.312 22.814,7.062 22.376,7.062 C22.001,7.062 21.688,7.312 21.626,7.812 C21.563,8.875 21.501,11.625 21.376,16.062 C21.251,20.499 21.188,23.937 21.188,26.25 L21.188,26.25 Z M27.25,26.25 C27.25,26.375 27.375,29.125 27.625,34.625 C27.75,35.25 28.063,35.563 28.563,35.563 C29.063,35.563 29.376,35.25 29.438,34.563 L29.438,34.626 C29.688,29.126 29.813,26.376 29.813,26.251 C29.813,24.563 29.813,22.751 29.75,20.813 C29.687,18.938 29.687,16.75 29.625,14.438 C29.562,12.063 29.5,10.25 29.437,9 C29.374,8.375 29.062,8 28.562,8 C28.062,8 27.749,8.375 27.624,9 C27.624,10.25 27.561,12.063 27.499,14.438 C27.436,16.751 27.374,18.938 27.311,20.813 C27.311,22.751 27.248,24.563 27.248,26.251 L27.25,26.25 Z M33.375,26.313 C33.375,26.376 33.5,29.063 33.75,34.438 C33.813,35.188 34.125,35.563 34.75,35.563 C35.375,35.563 35.688,35.188 35.75,34.438 C36.063,29.063 36.188,26.375 36.188,26.313 C36.188,26.188 36.063,18.688 35.75,3.875 C35.687,3.125 35.375,2.687 34.75,2.687 C34.125,2.687 33.812,3.125 33.75,3.875 C33.5,18.688 33.375,26.188 33.375,26.313 L33.375,26.313 Z M38.438,12.75 C38.438,16.25 38.501,20.188 38.501,24.438 L38.501,34.376 C38.501,34.689 38.626,35.001 38.814,35.251 C39.002,35.501 39.252,35.626 39.502,35.626 L64.627,35.626 C67.127,35.626 69.252,34.626 71.065,32.688 C72.815,30.75 73.69,28.375 73.69,25.625 C73.69,22.875 72.752,20.5 71.002,18.562 C69.252,16.624 67.127,15.624 64.627,15.624 C63.502,15.624 62.314,15.937 61.127,16.499 C60.752,11.936 59.064,8.124 56.002,5.061 C52.939,1.936 49.314,0.436 45.189,0.436 C44.814,0.436 44.251,0.436 43.626,0.561 C42.938,0.624 42.188,0.749 41.438,0.874 C40.625,1.062 39.875,1.312 39.313,1.624 C38.75,1.999 38.5,2.374 38.5,2.749 C38.5,5.874 38.437,9.187 38.437,12.749 L38.438,12.75 Z" id="Shape" sketch:type="MSShapeGroup"></path>
        </g>
    </g>
</svg>