<?xml version="1.0" encoding="UTF-8" standalone="no"?>
<svg width="61px" height="65px" viewBox="0 0 61 65" version="1.1" xmlns="http://www.w3.org/2000/svg" xmlns:xlink="http://www.w3.org/1999/xlink" xmlns:sketch="http://www.bohemiancoding.com/sketch/ns">
    <!-- Generator: Sketch 3.4 (15588) - http://www.bohemiancoding.com/sketch -->
    <title>thecity</title>
    <desc>Created with Sketch.</desc>
    <defs></defs>
    <g id="Page-1" stroke="none" stroke-width="1" fill="none" fill-rule="evenodd" sketch:type="MSPage">
        <g id="thecity" sketch:type="MSLayerGroup" fill="#000000">
            <path d="M3.813,3.438 L3.813,3.438 C7.063,0.813 7.376,0.813 29.938,0.813 C51.188,0.813 53.063,0.938 55.626,3.001 C59.251,5.814 60.314,9.501 60.189,18.189 C60.189,24.439 60.001,25.252 58.064,25.314 C56.814,25.439 54.751,25.564 53.501,25.627 C50.001,25.877 44.688,30.877 41.751,36.69 C39.938,40.315 38.501,41.815 37.563,41.378 C36.25,40.815 36.688,39.628 39.251,35.315 C43.689,28.127 44.376,22.065 41.251,16.127 C35.563,4.939 19.063,5.127 13.751,16.315 C11.313,21.44 11.501,27.69 14.126,31.94 C15.814,34.878 23.876,41.065 27.564,42.378 C28.127,42.566 28.189,43.316 27.752,44.128 C27.127,45.066 26.252,44.941 24.064,43.565 C15.626,38.002 10.501,36.815 4.876,39.315 C2.626,40.19 0.626,40.94 0.313,40.94 C0.125,40.94 -2.50077736e-14,33.127 0.188,23.502 L0.563,6.002 L3.813,3.438 Z M24.063,13.938 L24.063,13.938 C27.563,12.75 32.188,13.813 34.688,16.563 C38.376,20.438 38.501,25.001 35.376,30.876 C33.188,34.689 32.751,36.189 33.751,37.376 C36.314,40.376 33.939,39.626 26.688,35.313 C19.438,30.875 17.375,28.125 17.375,23.188 C17.375,20.125 21.125,15 24.063,13.938 L24.063,13.938 Z M53.563,31.75 L53.563,31.75 C59.251,29.312 60.313,30.75 60.126,41.188 C59.876,52.313 60.001,51.813 57.813,51.813 C56.313,51.813 46.438,47.563 43.5,45.625 C43.312,45.5 44.688,42.687 46.625,39.312 C49,35.187 51.313,32.687 53.563,31.749 L53.563,31.75 Z M6.938,44.188 L6.938,44.188 C10.001,43.125 13.876,43.875 18.001,46.501 C19.876,47.564 22.251,48.564 23.189,48.564 C26.377,48.564 18.751,61.439 14.564,63.314 C7.501,66.252 0.001,61.251 0.001,53.626 C0.001,50.501 3.689,45.376 6.939,44.188 L6.938,44.188 Z M39.313,52 L39.876,51.687 L32.126,63.312 L57.564,63.562 L56.501,58.437 L39.313,52 Z M20.188,62.875 L19.313,63.438 L26.626,63.626 L34.501,51.126 L28.876,50.688 L20.188,62.875 Z" id="Shape" sketch:type="MSShapeGroup"></path>
        </g>
    </g>
</svg>