<?xml version="1.0" encoding="UTF-8"?>
<svg width="20px" height="20px" viewBox="0 0 20 20" version="1.1" xmlns="http://www.w3.org/2000/svg" xmlns:xlink="http://www.w3.org/1999/xlink">
    <!-- Generator: Sketch 52.5 (67469) - http://www.bohemiancoding.com/sketch -->
    <title>icon/custom</title>
    <desc>Created with Sketch.</desc>
    <g id="icon/custom" stroke="none" stroke-width="1" fill="none" fill-rule="evenodd">
        <path d="M10.0764473,18.7650074 C5.47815226,18.7650074 1.75,15.0363572 1.75,10.4383455 C1.75,6.81378542 4.06899286,3.73854414 7.30087232,2.59410693 L7.30087232,3.77768206 C4.69377478,4.86549419 2.85995242,7.43638369 2.85995242,10.4383455 C2.85995242,14.4237516 6.09127676,17.6544343 10.0764473,17.6544343 C14.0621729,17.6544343 17.2932197,14.4237516 17.2932197,10.4383455 C17.2932197,7.43638369 15.4593973,4.86549419 12.8522998,3.77768206 L12.8522998,2.59410693 C16.0841792,3.73854414 18.4034496,6.81378542 18.4034496,10.4383455 C18.4034496,15.0366348 14.6752974,18.7650074 10.0764473,18.7650074 L10.0764473,18.7650074 Z M10.0764473,8.77234689 C9.77002379,8.77234689 9.52160983,8.52364067 9.52160983,8.21692151 L9.52160983,1.55570296 C9.52160983,1.24870622 9.77002379,1 10.0764473,1 C10.3828707,1 10.6315623,1.24870622 10.6315623,1.55570296 L10.6315623,8.21692151 C10.6315623,8.52364067 10.3831483,8.77234689 10.0764473,8.77234689 L10.0764473,8.77234689 Z" id="Shape" fill="#000000"></path>
    </g>
</svg>