<?xml version="1.0" encoding="UTF-8"?>
<svg width="20px" height="20px" viewBox="0 0 20 20" version="1.1" xmlns="http://www.w3.org/2000/svg" xmlns:xlink="http://www.w3.org/1999/xlink">
    <!-- Generator: Sketch 52.3 (67297) - http://www.bohemiancoding.com/sketch -->
    <title>icon/brands/brand-evernote</title>
    <desc>Created with Sketch.</desc>
    <g id="icon/brands/brand-evernote" stroke="none" stroke-width="1" fill="none" fill-rule="evenodd">
        <path d="M1,6.17221068 C1,6.42626127 1.01999328,6.75812071 1.07933841,7.20747465 C1.15867682,7.73494992 1.31735364,8.61365873 1.55536888,9.86360014 C1.81337739,11.1135416 2.05139262,11.9728763 2.28940786,12.4416043 C2.44808468,12.832211 2.70609319,13.0862616 3.02344683,13.2425043 C3.99550105,13.6527975 5.32426075,13.9652829 7.05002987,14.1799603 C7.4667152,14.2777682 7.82373805,14.336203 8.1410917,14.336203 L8.28009259,14.336203 C8.61743952,14.3165164 8.87513068,14.1602737 9.01413157,13.8284143 L9.19280167,13.3399997 C9.43081691,12.6369076 9.54982452,11.8360077 9.54982452,10.9376123 C9.54982452,10.9179257 9.5698178,10.8985516 9.60948701,10.8985516 C9.62948029,10.8985516 9.64915621,10.9182382 9.64915621,10.9376123 C9.64915621,12.265675 10.0061791,13.0468884 10.7202248,13.3203131 C11.156586,13.4571817 11.9499701,13.5937378 13.1400463,13.7109198 C13.655746,13.7890411 14.052438,14.0040311 14.2904533,14.3555771 C14.5484618,14.7071231 14.6674694,15.3908411 14.6674694,16.4064184 C14.6674694,17.0704498 14.5681377,17.4807431 14.3501157,17.6760464 C14.1317764,17.8519757 13.63607,17.930097 12.8623619,17.930097 L12.2076613,17.930097 C12.1083296,17.930097 11.9496528,17.930097 11.7513068,17.8910364 C11.5529607,17.8713498 11.4339531,17.8322891 11.3942839,17.7541678 C11.3346214,17.6954205 11.2949522,17.5979251 11.2356071,17.4807431 C11.1762619,17.3635611 11.1562687,17.2073184 11.1562687,17.0120151 C11.1959379,16.9338937 11.1959379,16.8557724 11.1762619,16.7970251 C11.1562687,16.7189038 11.1762619,16.6601566 11.2556004,16.6017218 C11.3349388,16.5626611 11.374608,16.5236005 11.374608,16.4845398 C11.3546147,16.4648532 11.4142772,16.4257925 11.5332848,16.4064184 C11.6522924,16.3870444 11.7119549,16.3673578 11.7119549,16.3673578 C11.7119549,16.3476712 11.7716174,16.3282971 11.9103009,16.3282971 L12.5253323,16.3282971 C12.6046707,16.3282971 12.6443399,16.3086105 12.6643332,16.2695499 C12.6643332,16.2304892 12.6643332,16.1523679 12.6443399,16.0351859 C12.6046707,15.8983173 12.6046707,15.7811353 12.6046707,15.6639533 C12.6046707,15.5858319 12.6046707,15.488024 12.624664,15.3905286 C12.6446573,15.3124072 12.6643332,15.2342859 12.6843265,15.1755386 C12.7043197,15.1167914 12.7239957,15.0777307 12.7439889,15.019296 C12.7639822,14.9802353 12.7439889,14.9411746 12.7239957,14.9214881 C12.7040024,14.9018015 12.6643332,14.9018015 12.624664,14.9018015 L12.0493018,14.9018015 C11.7119549,14.9018015 11.4342705,14.9018015 11.2359244,14.9214881 C10.9185708,14.9411746 10.6208931,15.0386701 10.2838635,15.1755386 C9.96650986,15.3317813 9.74817055,15.5661453 9.62916293,15.9373779 C9.49016204,16.288924 9.43081691,16.757652 9.43081691,17.3632486 C9.43081691,18.4375732 9.68882542,19.1406653 10.1845318,19.4922113 C10.7002315,19.8243832 11.6919616,20 13.1400463,20 C13.6757392,20 14.0724313,19.9803134 14.3301225,19.9609393 C14.6078069,19.9412528 14.8854913,19.882818 15.202845,19.8046967 C15.5005227,19.7068887 15.7582139,19.5506461 15.936884,19.3359686 C16.1155541,19.1212912 16.3139001,18.847554 16.4922528,18.496008 C16.6905989,18.144462 16.869269,17.6757339 17.067615,17.109198 C17.4246378,16.0154993 17.7223156,14.3358905 17.9403375,12.031311 C17.9800067,11.679765 18,11.211037 18,10.6251269 C18,9.84391357 17.9603308,8.86739684 17.9006683,7.67589019 C17.8013366,5.60567473 17.6626531,4.21886474 17.5436455,3.47671203 C17.3849686,2.75393341 17.0279458,2.30489196 16.4525836,2.1289627 C16.0162224,1.97272003 15.1434999,1.81647735 13.8344161,1.66023468 C13.3583856,1.60148743 12.7433542,1.56242676 12.0293085,1.56242676 C11.7316308,1.56242676 11.4142772,1.56242676 11.0572543,1.58211334 C10.9579226,0.957142634 10.6605623,0.546849366 10.1448626,0.332171929 C9.60916965,0.136868584 8.95478644,0.0196865772 8.14140905,0 L7.76439292,0 C7.18903076,0 6.83200792,0.039060669 6.69332437,0.117182007 C6.21729391,0.254050591 5.87994698,0.449353937 5.68160096,0.742152712 C5.50293085,0.996203303 5.42359244,1.28900208 5.42359244,1.62117401 L5.42359244,2.79299408 C5.44358572,3.10547943 5.44358572,3.39859069 5.44358572,3.67201537 C5.44358572,3.8870053 5.38392324,4.04324797 5.22524642,4.19949065 C5.06656959,4.33635923 4.90789277,4.41448057 4.68955346,4.41448057 L2.7854316,4.41448057 C2.38873955,4.41448057 2.0713859,4.47322782 1.83337067,4.59040982 C1.59535544,4.68821774 1.43667861,4.82477384 1.29767772,5.02007718 C1.09933169,5.2544412 1,5.64504789 1,6.17252316 L1,6.17221068 Z M1.11900762,3.78950987 C1.1786701,3.76982329 1.23801523,3.73076262 1.29767772,3.69170195 C1.63502464,3.55483337 2.05139262,3.47671203 2.50774716,3.47671203 L4.3921931,3.47671203 C4.531194,3.47671203 4.59053913,3.41796478 4.59053913,3.28140868 C4.59053913,2.20708404 4.57054585,1.503992 4.57054585,1.21119323 C4.57054585,0.839960627 4.64988426,0.527475275 4.78888516,0.254050591 L4.86822357,0.136868584 C4.84823029,0.136868584 4.84823029,0.136868584 4.84823029,0.156555161 L1.11932497,3.75013671 L1.11932497,3.78919738 L1.11900762,3.78950987 Z M12.6627464,9.59017546 C12.7224089,9.17988219 12.8414165,8.84802275 13.0397625,8.55491149 C13.2381086,8.3008609 13.5357863,8.1643048 13.9324783,8.1643048 L13.9921408,8.1643048 C14.8251941,8.18399138 15.2418795,8.76990141 15.2418795,9.90266081 C14.7458557,9.6682968 14.2104801,9.55111479 13.5954488,9.53142821 C13.2581019,9.53142821 12.9407482,9.55111479 12.6630638,9.59017546 L12.6627464,9.59017546 Z" id="Shape" fill="#000000"></path>
    </g>
</svg>