<?xml version="1.0" encoding="UTF-8"?>
<svg width="20px" height="20px" viewBox="0 0 20 20" version="1.1" xmlns="http://www.w3.org/2000/svg" xmlns:xlink="http://www.w3.org/1999/xlink">
    <!-- Generator: Sketch 52.3 (67297) - http://www.bohemiancoding.com/sketch -->
    <title>icon/brands/brand-dropbox</title>
    <desc>Created with Sketch.</desc>
    <g id="icon/brands/brand-dropbox" stroke="none" stroke-width="1" fill="none" fill-rule="evenodd">
        <path d="M0.00030533885,10.7586347 L6.06891498,14.3426188 L10.03832,11.3086866 L14.0077251,14.3426188 L20,10.7586347 L16.145097,7.45923353 L20,4.25449102 L14.1029908,0.5 L10.0380147,3.8752495 L6.06860964,0.5 L0,4.44411178 L4.17947818,7.59181637 L0.00030533885,10.7586347 Z M4.16054717,15.6317365 L9.98122166,19.5 L9.98122166,12.5978044 L9.96198531,12.5786906 L5.99258027,15.5938124 L4.16054717,14.5128224 L4.16054717,15.6317365 Z M4.25611823,7.55389222 L10.0386254,4.04575649 L15.7829651,7.34515768 L10.000458,11.1375729 L4.25611823,7.55389222 Z M9.98122166,19.5 L15.9353292,15.6505469 L15.9353292,14.4178603 L13.9887941,15.593509 L10.03832,12.5783872 L10.0001527,12.597501 L9.98122166,19.5 Z" id="Shape" fill="#000000"></path>
    </g>
</svg>