<?xml version="1.0" encoding="UTF-8"?>
<svg width="20px" height="20px" viewBox="0 0 20 20" version="1.1" xmlns="http://www.w3.org/2000/svg" xmlns:xlink="http://www.w3.org/1999/xlink">
    <!-- Generator: Sketch 52.3 (67297) - http://www.bohemiancoding.com/sketch -->
    <title>icon/brands/brand-aol</title>
    <desc>Created with Sketch.</desc>
    <g id="icon/brands/brand-aol" stroke="none" stroke-width="1" fill="none" fill-rule="evenodd">
        <path d="M11.013339,7.71526587 C12.8163959,7.71526587 14.171987,9.12122149 14.171987,10.8646065 C14.171987,12.6923488 12.760267,14 11.013339,14 C9.2802755,14 7.86855552,12.6923488 7.86855552,10.8646065 C7.86855552,9.12122149 9.22437023,7.71526587 11.013339,7.71526587 Z M11.013339,9.38846554 C10.2445297,9.38846554 9.60161902,10.0352051 9.60161902,10.8648314 C9.60161902,11.6802857 10.2445297,12.3411973 11.013339,12.3411973 C11.7960128,12.3411973 12.425059,11.6802857 12.425059,10.8648314 C12.425059,10.0352051 11.7960128,9.37451846 11.013339,9.38846554 Z M20,12.9033546 C20,12.2986812 19.510717,11.8067092 18.9098472,11.8067092 C18.3089773,11.8067092 17.8196943,12.2989062 17.8196943,12.9033546 C17.8196943,13.5078031 18.3089773,14 18.9098472,14 C19.510717,14 20,13.5078031 20,12.9033546 Z M16.8274875,13.8031662 L16.8274875,6 L15.1082885,6 L15.1082885,13.8031662 L16.8274875,13.8031662 Z M0,13.8031662 L3.13069535,6 L4.73808379,6 L7.81287387,13.8031662 L5.63256818,13.8031662 L5.26918389,12.6923488 L2.5577781,12.6923488 L2.19439382,13.8031662 L0,13.8031662 Z M4.73786017,11.0756123 L3.9410982,8.46053483 L3.13047173,11.0756123 L4.73786017,11.0756123 Z" id="Shape" fill="#000000"></path>
    </g>
</svg>