<?xml version="1.0" encoding="UTF-8"?>
<svg width="20px" height="20px" viewBox="0 0 20 20" version="1.1" xmlns="http://www.w3.org/2000/svg" xmlns:xlink="http://www.w3.org/1999/xlink">
    <!-- Generator: Sketch 52.3 (67297) - http://www.bohemiancoding.com/sketch -->
    <title>icon/brands/brand-miicard</title>
    <desc>Created with Sketch.</desc>
    <g id="icon/brands/brand-miicard" stroke="none" stroke-width="1" fill="none" fill-rule="evenodd">
        <path d="M9.18261294,4.54497628 C14.2103689,3.86649075 17.0495618,3.5 17.1880644,3.5 C17.5898328,3.5 17.908278,3.59509653 18.2546454,3.82567306 C18.5593511,4.04278843 18.8226169,4.4364186 18.9057185,4.78923108 C18.9750806,5.1285824 20,12.5511056 20,12.7547598 C20,13.5554813 19.3628879,14.2882457 18.5595727,14.4102645 C17.8947602,14.5188222 2.90877663,16.5 2.77027401,16.5 C2.02235986,16.5 1.38524781,16.0386298 1.13594309,15.3330049 C1.0942815,15.2379083 0.900377835,13.8674761 0.540271022,11.3026922 C0.0416615882,7.77456744 0,7.38093727 0,7.1638219 C0.0139610641,6.89242768 0.0831015723,6.68877347 0.193903669,6.45819694 C0.415507861,6.06456677 0.817276263,5.73889371 1.24652358,5.63033603 C1.32962516,5.60319661 4.90299276,5.11468702 9.18283454,4.54475917 L9.18261294,4.54497628 Z M13.850262,5.08776471 C13.5732568,5.00634645 13.309991,5.06062529 13.1023479,5.26427951 C12.9084442,5.45425546 12.8530432,5.69851025 12.9361448,5.98358274 C12.9915458,6.17355869 13.1854495,6.36353464 13.3656137,6.40435233 C13.65658,6.48577059 13.9473247,6.4180306 14.1412284,6.21437638 C14.4598952,5.84788563 14.3074315,5.2373572 13.850262,5.08798183 L13.850262,5.08776471 Z M17.4096686,5.08776471 C17.1187023,5.00634645 16.8556581,5.06062529 16.6617544,5.26427951 C16.4538897,5.45425546 16.3984887,5.69851025 16.4815902,5.98358274 C16.5369913,6.17355869 16.7308949,6.36353464 16.9110592,6.40435233 C17.2157649,6.48577059 17.5067312,6.4180306 17.6866738,6.21437638 C18.0190801,5.84788563 17.866838,5.2373572 17.4096686,5.08798183 L17.4096686,5.08776471 Z M5.37390167,7.3403367 C5.2908001,7.31319727 5.09689643,7.28605785 4.91673222,7.28605785 C4.09945596,7.25891843 3.46234391,7.58459149 2.991435,8.29021645 C2.94977341,8.35817356 2.94977341,8.34449529 2.90833343,7.66600975 L2.89437236,7.39461554 L2.38180186,7.39461554 C1.93859348,7.40829381 1.86923137,7.40829381 1.88319243,7.44889438 C1.89715349,7.46257265 1.89715349,8.81954372 1.91089295,10.447909 L1.92485402,13.406106 L3.06057551,13.406106 L3.08827603,9.40293273 L3.14367708,9.26723562 C3.26844024,8.96870198 3.3929818,8.79218719 3.55918494,8.6158895 C3.98865387,8.19511991 4.55640381,8.1002405 5.04127378,8.34449529 C5.33224009,8.4801924 5.55384428,8.7924043 5.67838584,9.18581736 C5.72004742,9.37579331 5.72004742,9.416611 5.73378688,11.3977888 L5.74774795,13.4197842 L6.86972998,13.4197842 L6.88369104,11.3977888 C6.88369104,9.38947157 6.88369104,9.38947157 6.93909209,9.22663505 C7.04989418,8.90096199 7.31315996,8.57528893 7.57620414,8.4124524 C7.83946992,8.2359376 8.2133162,8.18165876 8.51802196,8.2359376 C8.98893087,8.33103414 9.3075977,8.65670719 9.47380084,9.2400962 C9.52920189,9.43007215 9.52920189,9.45721157 9.54316296,11.4249282 L9.55712402,13.406106 L10.6928455,13.406106 L10.6928455,11.4655288 C10.6928455,9.43007215 10.6788844,9.32151446 10.5680823,8.88728372 C10.3602176,8.05942281 9.87556925,7.53031265 9.14139456,7.32665843 C8.9058293,7.27237958 8.31037883,7.27237958 8.07481358,7.32665843 C7.83924832,7.39461554 7.57620414,7.50317322 7.36833941,7.63887033 C7.16047468,7.78824571 6.84202945,8.11391877 6.70352683,8.30389472 L6.60646419,8.45327009 L6.52336262,8.27675529 C6.28779737,7.80170686 5.85855004,7.46257265 5.37368007,7.3403367 L5.37390167,7.3403367 Z M14.1964078,10.4070913 L14.1964078,7.40807669 L13.6146968,7.39439842 C13.1714884,7.39439842 13.0467252,7.39439842 13.0329858,7.42153784 C13.0192463,7.44867727 13.0190247,8.79218719 13.0190247,10.4340136 L13.0329858,13.4058888 L14.1964078,13.4058888 L14.1964078,10.4068742 L14.1964078,10.4070913 Z M17.7420749,10.4070913 L17.7420749,7.40807669 L17.1741033,7.39439842 C16.7169339,7.39439842 16.5923923,7.39439842 16.5784313,7.42153784 L16.5784313,13.4058888 L17.7418533,13.4058888 L17.7418533,10.4068742 L17.7420749,10.4070913 Z" id="Shape" fill="#000000"></path>
    </g>
</svg>