<?xml version="1.0" encoding="UTF-8"?>
<svg width="20px" height="20px" viewBox="0 0 20 20" version="1.1" xmlns="http://www.w3.org/2000/svg" xmlns:xlink="http://www.w3.org/1999/xlink">
    <!-- Generator: Sketch 55.2 (78181) - https://sketchapp.com -->
    <title>icon/brand-firebase</title>
    <desc>Created with Sketch.</desc>
    <g id="icon/brand-firebase" stroke="none" stroke-width="1" fill="none" fill-rule="evenodd">
        <g id="firebase" transform="translate(3.000000, 0.000000)" fill="#000000">
            <path d="M0.741666667,13.0608333 L2.7125,0.384166667 C2.74176147,0.191429177 2.89138096,0.039214798 3.08358687,0.00664394373 C3.27579278,-0.0259269105 3.46720706,0.0684965248 3.55833333,0.240833333 L5.6775,4.21666667 L0.741666667,13.0608333 Z M14.7375,16.1366667 L12.8608333,4.47083333 C12.8327079,4.30414618 12.7140169,4.16703514 12.5530792,4.11531768 C12.3921415,4.06360022 12.2157963,4.10590119 12.0958333,4.225 L0.2625,16.1366667 L6.81,19.8266667 C7.22064723,20.057379 7.72185277,20.057379 8.1325,19.8266667 L14.7375,16.1366667 Z M9.41666667,5.95666667 L7.9,3.055 C7.82200545,2.90627492 7.66793541,2.81310172 7.5,2.81310172 C7.33206459,2.81310172 7.17799455,2.90627492 7.1,3.055 L0.441666667,14.9866667 L9.41666667,5.95666667 Z" id="Shape"></path>
        </g>
    </g>
</svg>