<?xml version="1.0" encoding="UTF-8"?>
<svg width="20px" height="20px" viewBox="0 0 20 20" version="1.1" xmlns="http://www.w3.org/2000/svg" xmlns:xlink="http://www.w3.org/1999/xlink">
    <!-- Generator: Sketch 52.3 (67297) - http://www.bohemiancoding.com/sketch -->
    <title>icon/brands/brand-renren</title>
    <desc>Created with Sketch.</desc>
    <g id="icon/brands/brand-renren" stroke="none" stroke-width="1" fill="none" fill-rule="evenodd">
        <path d="M4.71675166,7.50492788 C4.70674988,9.97664412 3.32067011,12.0993354 1.33865105,13.038767 C0.0255696774,11.5195338 -0.353931964,9.42801583 0.344432276,7.5594061 C1.04279652,5.69079638 2.71174748,4.33214122 4.71675166,4 L4.71675166,7.50492788 Z M5.66025274,10.8598077 C6.01281542,12.287711 7.06550259,13.5092983 8.37823598,14.3206997 C7.54487097,14.7674775 6.60969125,15.0011313 5.65941926,14.9999935 C4.70937531,15.0014175 3.77439348,14.7677415 2.94143601,14.3206997 C4.25416941,13.5092983 5.30769006,12.2885265 5.66025274,10.8598077 Z M9.98102095,5.88375603 C9.11367009,6.88205997 8.63848098,8.15019577 8.64078266,9.46044604 C8.63912372,10.7704418 9.11390553,12.0382791 9.98018747,13.0371361 C7.99233404,12.095258 6.60375382,9.96033455 6.60375382,7.47801708 L6.60375382,4 C7.9215601,4.21798334 9.11796963,4.88531097 9.98102095,5.88375603 Z M9.98102095,5.88375603 C10.8590907,4.883607 12.0682473,4.21690263 13.3974617,4 L13.3974617,7.50492788 C13.3874599,9.97664412 11.96304,12.1001509 9.98102095,13.038767 L9.98018747,13.0379515 L9.98102095,13.038767 C10.8170029,12.0724246 11.3604329,10.8255576 11.3604329,9.46126152 C11.3604329,8.09696549 10.8170029,6.84846745 9.98102095,5.88375603 Z M15.2844639,7.47801708 L15.2844639,4.00081548 C17.2889975,4.33306713 18.9574895,5.69150711 19.65566,7.55972249 C20.3538306,9.42793787 19.9744464,11.5189859 18.661731,13.0379515 C16.6730441,12.095258 15.2844639,9.96115003 15.2844639,7.47801708 Z M14.3409628,10.8598077 C14.6935255,12.287711 15.7470461,13.5092983 17.058946,14.3206997 C16.225581,14.7674775 15.2904013,15.0011313 14.3401293,14.9999935 C13.3900854,15.0014175 12.4551035,14.7677415 11.6221461,14.3206997 C12.9348795,13.5092983 13.9884001,12.2885265 14.3409628,10.8598077 Z" id="Combined-Shape" fill="#000000"></path>
    </g>
</svg>