<?xml version="1.0" encoding="UTF-8"?>
<svg width="20px" height="20px" viewBox="0 0 20 20" version="1.1" xmlns="http://www.w3.org/2000/svg" xmlns:xlink="http://www.w3.org/1999/xlink">
    <!-- Generator: Sketch 52.3 (67297) - http://www.bohemiancoding.com/sketch -->
    <title>icon/brands/brand-box</title>
    <desc>Created with Sketch.</desc>
    <g id="icon/brands/brand-box" stroke="none" stroke-width="1" fill="none" fill-rule="evenodd">
        <path d="M10.6347692,7.32291667 C12.7501538,7.32291667 14.4618462,9.02272222 14.4618462,11.1041667 C14.4618462,13.2048611 12.7501538,14.9046667 10.6347692,14.9046667 C9.17323077,14.9046667 7.904,14.0833333 7.25015385,12.8803611 C6.61538462,14.0836389 5.34615385,14.9046667 3.88461538,14.9046667 C1.78830769,14.9046667 0.096,13.2430556 0.0575384615,11.1805556 L0.0575384615,4.87847222 C0.0769230769,4.45833333 0.403692308,4.13352778 0.826769231,4.13352778 C1.24984615,4.13352778 1.57692308,4.45833333 1.596,4.87847222 L1.596,8.06786111 C2.23076923,7.59027778 3.01907692,7.32291667 3.88461538,7.32291667 C5.34615385,7.32291667 6.61538462,8.125 7.25015385,9.32827778 C7.904,8.125 9.17323077,7.32291667 10.6347692,7.32291667 Z M3.88461538,13.3768889 C5.15384615,13.3768889 6.17323077,12.3645833 6.17323077,11.1041667 C6.17323077,9.86269444 5.15384615,8.83144444 3.88461538,8.83144444 C2.61538462,8.83144444 1.596,9.86269444 1.596,11.1041667 C1.596,12.3645833 2.61538462,13.3768889 3.88461538,13.3768889 Z M10.6347692,13.3768889 C11.904,13.3768889 12.9233846,12.3645833 12.9233846,11.1041667 C12.9233846,9.86269444 11.904,8.83144444 10.6347692,8.83144444 C9.36553846,8.83144444 8.34615385,9.86269444 8.34615385,11.1041667 C8.34615385,12.3645833 9.36553846,13.3768889 10.6347692,13.3768889 Z M19.5963077,13.7013889 L19.5963077,13.7206389 C19.8270769,14.0454444 19.7695385,14.5037778 19.4424615,14.7518889 C19.0963077,15.01925 18.6347692,14.9428611 18.3655385,14.6180556 L16.6923077,12.3835278 L15,14.6180556 C14.7307692,14.9428611 14.2692308,15.01925 13.9421538,14.7518889 C13.596,14.5034722 13.5381538,14.0451389 13.7689231,13.7206389 L15.7304615,11.1041667 L13.7689231,8.50694444 C13.5381538,8.18213889 13.5956923,7.70486111 13.9421538,7.45644444 C14.2692308,7.20802778 14.7307692,7.28441667 15,7.60922222 L16.6923077,9.84375 L18.3655385,7.60922222 C18.6347692,7.28441667 19.0963077,7.20802778 19.4424615,7.45644444 C19.7695385,7.70486111 19.8270769,8.18213889 19.5963077,8.50694444 L17.6347692,11.1041667 L19.5963077,13.7013889 Z" id="Shape" fill="#000000"></path>
    </g>
</svg>