<?xml version="1.0" encoding="UTF-8"?>
<svg width="20px" height="20px" viewBox="0 0 20 20" version="1.1" xmlns="http://www.w3.org/2000/svg" xmlns:xlink="http://www.w3.org/1999/xlink">
    <!-- Generator: Sketch 52.3 (67297) - http://www.bohemiancoding.com/sketch -->
    <title>icon/brands/brand-planningcenter</title>
    <desc>Created with Sketch.</desc>
    <g id="icon/brands/brand-planningcenter" stroke="none" stroke-width="1" fill="none" fill-rule="evenodd">
        <path d="M1.31633939,19.698291 L1.95440986,19.9999555 L9.97017021,19.9999555 C18.6839796,19.9999555 18.5442422,20.0202166 19.3019509,19.1959456 C19.5214471,18.9547427 19.7607236,18.5125372 19.8404824,18.1909333 C19.9403404,17.8088678 20,15.0350337 20,10.0704335 C20,3.85929636 19.9601206,2.41207857 19.7805038,1.80907116 C19.5811067,1.08546227 19.0824547,0.502394303 18.4644834,0.160850905 C18.2449872,0.0402494231 15.7325847,4.89290716e-05 10.0100496,4.89290716e-05 C1.27645999,4.89290716e-05 1.49563719,-0.0202121199 0.777807909,0.763858316 C0,1.58812925 0,1.5678682 0,10.1305734 L0,18.0500708 L0.339134457,18.6932787 C0.578410885,19.1756846 0.837786534,19.4371486 1.31633939,19.698291 Z M6.32104516,17.3264619 C6.24128635,17.6683269 6.22118713,17.6683269 4.36695433,17.6683269 C3.34986999,17.6683269 2.47252309,17.6281264 2.43264369,17.5676648 C2.37266506,17.5274643 2.33278566,14.1303618 2.33278566,10.0501724 L2.33278566,2.63302049 L17.5469381,2.63302049 L17.5469381,17.6680053 L13.798274,17.6680053 L13.5191182,17.1251378 C13.1602035,16.4015289 12.8210691,16.3211279 9.63071671,16.3812678 C6.77917976,16.4214683 6.52012315,16.5018693 6.32072612,17.3261403 L6.32104516,17.3264619 Z M9.31200051,14.5124273 C9.71079456,14.7938307 10.049929,14.8140918 10.4886025,14.5928283 C10.9872545,14.3313643 11.0271339,14.1908233 11.0271339,12.7436055 C11.0271339,11.9997356 11.0871126,11.3967282 11.1467722,11.3967282 C11.226531,11.3967282 11.8049419,11.6781316 12.4627925,12.0399361 C13.100863,12.4220016 13.7989121,12.703405 13.9584297,12.703405 C14.4969612,12.703405 15.1149324,11.9595351 15.0552729,11.3967282 C15.0153935,10.9342617 14.8957552,10.8538607 13.6594937,10.1704523 C12.1239771,9.32624194 12.1041969,9.44684342 13.9188693,8.42157002 C14.8163155,7.9391641 15.0157125,7.73816163 15.0555919,7.41655767 C15.1155705,6.93415174 14.4175214,5.98927933 14.0187274,5.98927933 C13.8789899,5.98927933 13.1413805,6.33114433 12.3836718,6.73314927 L11.027772,7.47701922 L11.027772,6.11020242 C11.027772,4.36132013 10.927914,4.20051815 9.87126928,4.26097969 L9.07368119,4.30118019 L8.99392238,5.86899945 L8.91416357,7.45707977 L7.71778143,6.71320983 C6.16248465,5.78859847 5.84344941,5.76833742 5.26503852,6.67300934 C4.72650704,7.47701922 4.78648567,7.63782119 5.84344941,8.2408286 C6.26234268,8.46209212 6.84043453,8.80363552 7.15946976,9.00463799 L7.71778143,9.36644244 L6.42154126,10.1505129 C5.70371197,10.5927183 5.04554228,11.0349237 4.96578347,11.1355858 C4.82604604,11.2963878 4.88602466,11.4973902 5.22515912,12.0199966 C5.78347078,12.9246686 6.20236405,12.944608 7.63802262,12.0402577 C8.21643351,11.6784532 8.77474517,11.3970498 8.85450398,11.3970498 C8.93426279,11.3970498 8.99424141,12.0000572 8.99424141,12.8442676 C8.99424141,14.1911449 9.01434063,14.3117464 9.31327665,14.5127489 L9.31200051,14.5124273 Z" id="Shape" fill="#000000"></path>
    </g>
</svg>