<?xml version="1.0" encoding="UTF-8"?>
<svg width="20px" height="20px" viewBox="0 0 20 20" version="1.1" xmlns="http://www.w3.org/2000/svg" xmlns:xlink="http://www.w3.org/1999/xlink">
    <!-- Generator: Sketch 52.3 (67297) - http://www.bohemiancoding.com/sketch -->
    <title>icon/brands/yahoo</title>
    <desc>Created with Sketch.</desc>
    <g id="icon/brands/yahoo" stroke="none" stroke-width="1" fill="none" fill-rule="evenodd">
        <path d="M11.2686928,20 C11.2686928,20 10.5619939,19.8733333 9.99242823,19.8733333 C9.48007151,19.8733333 8.71111579,20 8.71111579,20 L8.87180566,11.5041667 C7.68135451,9.46583333 4.18319487,3.25833333 2,0 C3.09790725,0.2475 3.55978547,0.2325 4.66274056,0 L4.67956673,0.0283333333 C6.06940793,2.46666667 8.19539384,5.86583333 9.99242823,8.81166667 C11.7667473,5.9175 14.5598906,1.39833333 15.317068,0 C16.1752024,0.223333333 17.0409086,0.215 18,0 C16.9895888,1.3475 13.3172784,7.64416667 11.0970659,11.5041667 L11.2619624,20 L11.2686928,20 Z" id="Path" fill="#000000"></path>
    </g>
</svg>