<?xml version="1.0" encoding="UTF-8"?>
<svg width="20px" height="20px" viewBox="0 0 20 20" version="1.1" xmlns="http://www.w3.org/2000/svg" xmlns:xlink="http://www.w3.org/1999/xlink">
    <!-- Generator: Sketch 55.2 (78181) - https://sketchapp.com -->
    <title>icon/brand-aws</title>
    <desc>Created with Sketch.</desc>
    <g id="icon/brand-aws" stroke="none" stroke-width="1" fill="none" fill-rule="evenodd">
        <g id="aws" transform="translate(0.000000, 4.000000)" fill="#000000">
            <path d="M5.63596363,4.35785953 C5.63596363,4.60535117 5.66263044,4.80518395 5.70929736,4.95150502 C5.76263098,5.09866221 5.829298,5.25919732 5.92263184,5.43311037 C5.95596535,5.48578595 5.96929875,5.53929766 5.96929875,5.5861204 C5.96929875,5.65301003 5.92929854,5.71989967 5.84263141,5.7867893 L5.4234625,6.06688963 C5.37279982,6.10354098 5.31253251,6.1244724 5.25012823,6.1270903 C5.18346121,6.1270903 5.11679419,6.09364548 5.0509605,6.03344482 C4.96144045,5.93683343 4.88135188,5.83183867 4.81179255,5.71989967 C4.73729809,5.59166779 4.66834489,5.46027504 4.60512478,5.32608696 C4.08678867,5.93979933 3.43428518,6.24665552 2.64928097,6.24665552 C2.09094465,6.24665552 1.64510893,6.08695652 1.31927385,5.76672241 C0.99343877,5.44565217 0.827604549,5.01923077 0.827604549,4.48494983 C0.827604549,3.9180602 1.02677228,3.45652174 1.43260779,3.11036789 C1.8384433,2.76337793 2.37677951,2.58946488 3.06178318,2.58946488 C3.28845106,2.58946488 3.52095231,2.60953177 3.76678696,2.64297659 C4.01345494,2.6764214 4.26678963,2.72993311 4.53179105,2.79013378 L4.53179105,2.30267559 C4.53179105,1.7951505 4.42595715,1.44147157 4.21928938,1.23494983 C4.00678824,1.02759197 3.64761965,0.928093645 3.13595024,0.928093645 C2.90261566,0.928093645 2.66261438,0.954013378 2.41677973,1.01421405 C2.17094508,1.07441472 1.93094379,1.14799331 1.69844255,1.2416388 C1.62263597,1.2756948 1.54469158,1.30474224 1.46510796,1.32859532 C1.43083418,1.33967867 1.39524503,1.34614547 1.35927406,1.34782609 C1.26594023,1.34782609 1.21927331,1.28093645 1.21927331,1.14130435 L1.21927331,0.814381271 C1.21927331,0.70735786 1.23260672,0.627090301 1.26594023,0.580267559 C1.31627876,0.519564129 1.38025321,0.471709632 1.4526079,0.440635452 C1.68510914,0.320234114 1.9642773,0.219899666 2.29011238,0.139632107 C2.62929665,0.052507782 2.97834374,0.0100662873 3.32845128,0.0133779264 C4.12012218,0.0133779264 4.69845861,0.193979933 5.07096061,0.554347826 C5.4367959,0.913879599 5.62263023,1.46153846 5.62263023,2.19565217 L5.62263023,4.35785953 L5.63596363,4.35785953 Z M3.62095284,5.25250836 C3.86012079,5.1722408 4.07345527,5.02591973 4.25262289,4.82608696 C4.35929013,4.69899666 4.43929056,4.55852843 4.47929077,4.39799331 C4.51845765,4.23829431 4.5459578,4.04431438 4.5459578,3.81772575 L4.5459578,3.53762542 C4.34407268,3.48824661 4.13958294,3.45028271 3.93345452,3.42391304 C3.72615647,3.39748782 3.51741537,3.38408378 3.30845117,3.38377926 C2.86261545,3.38377926 2.53678037,3.47073579 2.31677919,3.65133779 C2.09761135,3.83110368 1.99177745,4.08444816 1.99177745,4.4180602 C1.99177745,4.73160535 2.07094454,4.96571906 2.2376121,5.12541806 C2.39677962,5.29264214 2.62928086,5.3729097 2.93594917,5.3729097 C3.15511701,5.3729097 3.38095156,5.33277592 3.62095284,5.25250836 Z M8.27764445,6.09364548 C8.15764381,6.09364548 8.07764338,6.0735786 8.02430976,6.02675585 C7.97097614,5.98662207 7.92430922,5.89297659 7.88430901,5.76672241 L6.32180064,0.607023411 C6.29140604,0.520508415 6.27126736,0.430704301 6.26180032,0.339464883 C6.26180032,0.232441472 6.31513394,0.172240803 6.42096784,0.172240803 L7.07347133,0.172240803 C7.19930534,0.172240803 7.28597247,0.193143813 7.33180605,0.239130435 C7.38597301,0.279264214 7.42597322,0.372909699 7.4651401,0.5 L8.58347942,4.9180602 L9.62098498,0.5 C9.65431849,0.366220736 9.6943187,0.279264214 9.74681898,0.239130435 C9.82677335,0.18993533 9.91986552,0.166584577 10.0134871,0.172240803 L10.5451566,0.172240803 C10.6718239,0.172240803 10.7584911,0.193143813 10.8118247,0.239130435 C10.864325,0.279264214 10.9118252,0.372909699 10.9376587,0.5 L11.9884977,4.97157191 L13.1393372,0.5 C13.1793374,0.366220736 13.2260043,0.279264214 13.2726712,0.239130435 C13.3498635,0.189958187 13.4405799,0.166544849 13.5318393,0.172240803 L14.1510092,0.172240803 C14.2568431,0.172240803 14.3176768,0.226588629 14.3176768,0.339464883 C14.3176768,0.372909699 14.3101768,0.406354515 14.3035101,0.446488294 C14.2930717,0.5035414 14.2774509,0.559516226 14.2568431,0.613712375 L12.6543346,5.77257525 C12.6143343,5.90635452 12.5676674,5.99247492 12.5143338,6.0326087 C12.4392494,6.08094139 12.3509104,6.10434309 12.2618325,6.09949833 L11.6893294,6.09949833 C11.5634954,6.09949833 11.4768282,6.07943144 11.4226613,6.0326087 C11.370161,5.98578595 11.3234941,5.89882943 11.2976606,5.76505017 L10.2659884,1.46070234 L9.24098294,5.7583612 C9.20764943,5.89214047 9.16848255,5.97909699 9.11598227,6.02591973 C9.06181531,6.07274247 8.96848148,6.09280936 8.84931418,6.09280936 L8.27764445,6.09364548 Z M15.8001847,6.15384615 C15.467683,6.0735786 15.2085149,5.98662207 15.0351806,5.88628763 C14.9285134,5.82692308 14.856013,5.76003344 14.8293462,5.69983278 C14.8033607,5.64081272 14.7897455,5.57706288 14.789346,5.51254181 L14.789346,5.1722408 C14.789346,5.0326087 14.8426796,4.96571906 14.9418468,4.96571906 C14.981847,4.96571906 15.0218472,4.97240803 15.0618474,4.98578595 C15.1018477,4.99916388 15.161848,5.02591973 15.228515,5.05267559 C15.4543496,5.15301003 15.7001842,5.23244147 15.9601856,5.28595318 C16.2260203,5.33946488 16.4851884,5.36622074 16.7518565,5.36622074 C17.1701921,5.36622074 17.4968605,5.29264214 17.722695,5.14548495 C17.9430732,5.01189468 18.0750909,4.76995837 18.0685302,4.51170569 C18.073457,4.33814609 18.0089354,4.16982964 17.8893626,4.04431438 C17.7693619,3.9180602 17.5426941,3.80434783 17.216859,3.69732441 L16.2526872,3.39632107 C15.7668512,3.24331104 15.4076826,3.01672241 15.1885148,2.71655518 C14.9740103,2.43953385 14.8568163,2.0991241 14.8551797,1.74832776 C14.8551797,1.46822742 14.9160133,1.22157191 15.0351806,1.00752508 C15.1551813,0.794314381 15.3143488,0.607023411 15.5143499,0.460702341 C15.7143509,0.306856187 15.9393521,0.193143813 16.2060202,0.113712375 C16.4726883,0.0334448161 16.7518565,0 17.0443581,0 C17.1901922,0 17.3435263,0.00668896321 17.4901938,0.0267558528 C17.6426946,0.0468227425 17.781862,0.0735785953 17.9218628,0.100334448 C18.0551968,0.133779264 18.1818642,0.16722408 18.3010315,0.206521739 C18.4210321,0.246655518 18.5143659,0.286789298 18.581033,0.326923077 C18.6595656,0.366589448 18.7279862,0.423796991 18.781034,0.494147157 C18.823988,0.559076091 18.8447528,0.636250302 18.840201,0.714046823 L18.840201,1.02759197 C18.840201,1.1680602 18.7868674,1.2416388 18.6868669,1.2416388 C18.598332,1.23145325 18.5125931,1.20419774 18.4343655,1.16137124 C18.0325023,0.983253545 17.5969678,0.894543679 17.157692,0.901337793 C16.7785233,0.901337793 16.4785217,0.960702341 16.2726873,1.08779264 C16.0660195,1.21488294 15.9601856,1.40802676 15.9601856,1.68143813 C15.9601856,1.8687291 16.0268526,2.02926421 16.1601867,2.15551839 C16.2926874,2.2826087 16.538522,2.409699 16.8910239,2.52341137 L17.836029,2.82274247 C18.3143649,2.97658863 18.6610334,3.19063545 18.8668678,3.46404682 C19.0727023,3.73745819 19.1727028,4.05100334 19.1727028,4.39799331 C19.1727028,4.68478261 19.1127025,4.94565217 19.0002019,5.1722408 C18.8802012,5.39966555 18.7202004,5.59949833 18.5143659,5.76003344 C18.3076982,5.92725753 18.0618635,6.04682274 17.7760287,6.13377926 C17.476027,6.22658863 17.1643587,6.27341137 16.8243569,6.27341137 C16.4785217,6.27341137 16.1326865,6.23327759 15.8001847,6.15384615 Z M18.0818636,9.51755853 C15.8935186,11.1396321 12.7135015,12 9.98015357,12 C6.14846638,12 2.69678123,10.5785953 0.0884339232,8.21571906 C-0.117400513,8.02926421 0.068433816,7.77508361 0.315101804,7.9222408 C3.13511691,9.56354515 6.61430221,10.5585284 10.2126548,10.5585284 C12.6410011,10.5585284 15.3076821,10.0510033 17.7626952,9.01003344 C18.1285305,8.84280936 18.4410322,9.25 18.0818636,9.51755853 Z M16.4318548,8.38963211 C16.2193536,8.41638796 16.1860201,8.22909699 16.3793545,8.08862876 C17.6293612,7.20819398 19.6852055,7.46153846 19.9243735,7.75501672 C20.1635414,8.05602007 19.8577065,10.117893 18.6868669,11.1053512 C18.5076992,11.2591973 18.334365,11.1789298 18.4143654,10.979097 C18.6810335,10.3185619 19.2727033,8.83026756 18.9935352,8.47575251 C18.7135337,8.11622074 17.1435253,8.30267559 16.4318548,8.38963211 Z" id="Shape"></path>
        </g>
    </g>
</svg>