<?xml version="1.0" encoding="UTF-8"?>
<svg width="20px" height="20px" viewBox="0 0 20 20" version="1.1" xmlns="http://www.w3.org/2000/svg" xmlns:xlink="http://www.w3.org/1999/xlink">
    <!-- Generator: Sketch 52.3 (67297) - http://www.bohemiancoding.com/sketch -->
    <title>icon/brands/brand-paypal</title>
    <desc>Created with Sketch.</desc>
    <g id="icon/brands/brand-paypal" stroke="none" stroke-width="1" fill="none" fill-rule="evenodd">
        <path d="M5.69982578,20 L3.07783153,20 C2.516941,20 2.16047142,19.5591667 2.28717862,19.0166667 L2.4130411,18.455 L4.16244513,18.455 C4.72502508,18.455 5.29098389,18.0108333 5.41431223,17.47 L6.31308861,13.6433333 C6.43979581,13.1033333 7.00237576,12.66 7.56326629,12.66 L8.30914932,12.66 C11.5097731,12.66 13.9974577,12.0108333 15.7764268,10.71 C17.5553958,9.40916667 18.4457251,7.71 18.4457251,5.5975 C18.4457251,4.66 18.2810057,3.885 17.9490328,3.27333333 C17.9490328,3.26 17.9355174,3.2475 17.9355174,3.235 L18.0495539,3.2975 C18.6830899,3.685 19.1645772,4.18416667 19.4948606,4.80916667 C19.8361254,5.43416667 20,6.20916667 20,7.135 C20,9.2475 19.1138943,10.9466667 17.3273229,12.2475 C15.5534221,13.535 13.0572903,14.1841667 9.86511369,14.1841667 L9.10487051,14.1841667 C8.54735885,14.1841667 7.97802118,14.6216667 7.85131398,15.1725 L6.95169289,19.01 C6.8258304,19.5475 6.26747402,19.985 5.70996236,19.985 L5.69982578,20 Z M3.43852468,17.7541667 L0.815685707,17.7541667 C0.255639898,17.7541667 -0.0999849675,17.3133333 0.0250327999,16.7708333 L3.71896994,0.985 C3.84652185,0.440833333 4.40741238,0 4.96999233,0 L10.4310725,0 C11.6094494,0 12.634933,0.0816666667 13.5125915,0.240833333 C14.3868712,0.398333333 15.1344436,0.673333333 15.7798056,1.06583333 C16.4015156,1.45333333 16.8965184,1.95916667 17.2132864,2.58083333 C17.5418804,3.20416667 17.7065997,3.98083333 17.7065997,4.91166667 C17.7065997,7.02416667 16.8188046,8.72333333 15.0339226,10.0108333 C13.2600219,11.3116667 10.7630454,11.9491667 7.57002401,11.9491667 L6.82414097,11.9491667 C6.26662931,11.9491667 5.70235993,12.3858333 5.57565273,12.9233333 L4.67941049,16.7475 C4.55354801,17.2858333 3.98927863,17.7241667 3.42500924,17.7241667 L3.43852468,17.7541667 Z M9.72826992,3.28 L8.87172927,3.28 C8.30914932,3.28 7.74656937,3.72083333 7.6215516,4.26166667 L6.83596698,7.61166667 C6.70925978,8.15166667 7.06403993,8.59416667 7.6215516,8.59416667 L8.26860302,8.59416667 C9.67420818,8.59416667 10.7774055,8.30833333 11.5629901,7.74333333 C12.34773,7.17166667 12.7413671,6.365 12.7413671,5.31666667 C12.7413671,4.625 12.487108,4.1125 11.9811239,3.78333333 C11.4742951,3.44666667 10.7140519,3.27916667 9.71222034,3.27916667 L9.72826992,3.28 Z" id="Shape" fill="#000000"></path>
    </g>
</svg>