<?xml version="1.0" encoding="UTF-8"?>
<svg width="20px" height="20px" viewBox="0 0 20 20" version="1.1" xmlns="http://www.w3.org/2000/svg" xmlns:xlink="http://www.w3.org/1999/xlink">
    <!-- Generator: Sketch 52.3 (67297) - http://www.bohemiancoding.com/sketch -->
    <title>icon/brands/yammer</title>
    <desc>Created with Sketch.</desc>
    <g id="icon/brands/yammer" stroke="none" stroke-width="1" fill="none" fill-rule="evenodd">
        <path d="M17.3767516,5.40701036 C17.783409,5.08283157 17.8859067,4.50030979 17.6000799,4.05612651 C17.3492523,3.6644452 16.8767631,3.50443921 16.4517728,3.62611043 L16.3351088,3.68861277 C15.6576243,4.0611267 11.0802292,7.2629131 11.5952174,7.62459329 C12.1093723,7.98294003 15.2309674,6.57622076 17.3642519,5.40451027 L17.3767516,5.40701036 Z M17.3642519,15.0357038 C15.2193011,13.8648267 12.0968726,12.4589408 11.5827177,12.8156208 C11.0685628,13.1773009 15.6326249,16.3799207 16.3101094,16.7516013 L16.4242735,16.8141036 C16.8509304,16.9391083 17.3134198,16.7774356 17.5642474,16.3849209 C17.8534074,15.9399043 17.7400767,15.3573825 17.3384192,15.0348704 L17.3642519,15.0357038 Z M19.2192095,9.16798435 C19.1683773,9.15548388 19.1317115,9.15548388 19.0808793,9.15548388 C18.3042304,9.15548388 12.761024,9.75717305 13.036851,10.3221942 C13.312678,10.8738815 16.7234333,11.1497251 19.1567109,11.1497251 C19.6591994,11.0613885 20.0341908,10.5972045 19.997525,10.0713515 C19.9591925,9.60716744 19.6333666,9.23132005 19.1933767,9.14381678 L19.2192095,9.16798435 Z M4.52204601,13.9714973 C3.89539369,15.7640644 3.30624051,16.6049291 1.95210485,16.6049291 C1.8262744,16.6049291 1.36211836,16.5807616 1.33711894,16.5665944 C0.897962327,16.5424268 0.497138172,16.8307709 0.383807434,17.269954 C0.246310582,17.7599723 0.534637313,18.2724915 1.03629249,18.4241638 C1.38711779,18.4858328 1.76377583,18.5 2.08960171,18.5 C4.57287818,18.5 5.40035923,17.0691132 6.21534056,14.9757015 L11.1060619,2.86024846 C11.2818912,2.30856116 10.9685651,1.73187293 10.4285774,1.55603302 C9.89025641,1.38102647 9.32526935,1.66937059 9.12444062,2.18272312 L5.71368539,11.2122275 L5.66285322,11.2122275 L2.07793531,2.12105415 C1.85210714,1.61936872 1.25045426,1.368526 0.711299935,1.56936685 C0.158812586,1.77020769 -0.129514145,2.38439733 0.0563149332,2.93608463 L4.57871138,13.973164 L4.52204601,13.9714973 Z" id="Shape" fill="#000000" fill-rule="nonzero"></path>
    </g>
</svg>