<?xml version="1.0" encoding="UTF-8"?>
<svg width="20px" height="20px" viewBox="0 0 20 20" version="1.1" xmlns="http://www.w3.org/2000/svg" xmlns:xlink="http://www.w3.org/1999/xlink">
    <!-- Generator: Sketch 52.3 (67297) - http://www.bohemiancoding.com/sketch -->
    <title>icon/brands/brand-thecity</title>
    <desc>Created with Sketch.</desc>
    <g id="icon/brands/brand-thecity" stroke="none" stroke-width="1" fill="none" fill-rule="evenodd">
        <path d="M1.70316944,0.828680776 C2.7289566,0 2.82774779,0 9.94892009,0 C16.65599,0 17.2477903,0.0394609893 18.0567418,0.690725157 C19.200889,1.57875526 19.5364004,2.7426966 19.496947,5.4853932 C19.496947,7.45844267 19.4376092,7.71509694 18.82624,7.73466959 C18.4317065,7.77413058 17.7805684,7.81359157 17.3860348,7.83347991 C16.281341,7.91240189 14.6044157,9.49084146 13.6774197,11.3259353 C13.1051883,12.470304 12.6516325,12.9438359 12.3555746,12.8058803 C11.9411566,12.628148 12.0794011,12.2534264 12.8883527,10.8918644 C14.2891045,8.6226997 14.5059401,6.70899956 13.5196063,4.83444472 C11.7243209,1.30252834 6.51647843,1.36187766 4.83986877,4.89379405 C4.07037058,6.51169461 4.12970842,8.48474408 4.95822882,9.82641772 C5.49100689,10.7539088 8.03559031,12.7070699 9.19962202,13.1215682 C9.37731992,13.1809175 9.39688878,13.4176834 9.25895986,13.674022 C9.0616931,13.9701373 8.78551963,13.9306763 8.09492815,13.4962897 C5.43166905,11.7401179 3.8140816,11.3653963 2.03868074,12.1546161 C1.3285204,12.430843 0.697266762,12.6676089 0.598475568,12.6676089 C0.539137726,12.6676089 0.499684373,10.2011393 0.559022215,7.16264309 L0.677382272,1.63810459 L1.70316944,0.828680776 Z M8.09461253,4.14340388 C9.19930639,3.76836664 10.6590804,4.10394289 11.4481475,4.97208465 C12.6121792,6.19537532 12.6516325,7.63585928 11.6652987,9.49052577 C10.9747073,10.6942438 10.8367783,11.1677757 11.1524052,11.5424972 C11.9613567,12.489561 11.211743,12.252795 8.92313293,10.8912331 C6.63483849,9.49021009 5.98370036,8.62206832 5.98370036,7.06351709 C5.98370036,6.09656501 7.16730093,4.47866444 8.09461253,4.14340388 Z M17.4056037,9.76643701 C19.200889,8.99678988 19.5360847,9.4507491 19.4770625,12.7458995 C19.3981558,16.2579276 19.4376092,16.1000836 18.7470177,16.1000836 C18.2735774,16.1000836 15.1567626,14.75841 14.229451,14.1466068 C14.1701132,14.1071458 14.6044157,13.2191157 15.2157848,12.153669 C15.9653985,10.8514564 16.6954434,10.0622366 17.4056037,9.76612132 L17.4056037,9.76643701 Z M2.68950325,13.6929633 C3.65626819,13.357387 4.87932212,13.594153 6.18128275,14.4231494 C6.77308303,14.7587257 7.52269673,15.0744136 7.81875469,15.0744136 C8.82497299,15.0744136 6.41800286,19.1388955 5.09647337,19.7308103 C2.86720114,20.6583014 0.5,19.0795462 0.5,16.6724258 C0.5,15.6859011 1.66403171,14.0680005 2.68981887,13.6929633 L2.68950325,13.6929633 Z M12.9079215,16.1591173 L13.0856194,16.060307 L10.6395116,19.730179 L18.6684266,19.8091009 L18.3329153,18.1912004 L12.9079215,16.1591173 Z M6.8715586,19.5922234 L6.59538513,19.7699556 L8.90356406,19.829305 L11.3891253,15.883206 L9.61372441,15.7449347 L6.8715586,19.5922234 Z" id="Shape" fill="#000000"></path>
    </g>
</svg>