<?xml version="1.0" encoding="UTF-8"?>
<svg width="20px" height="20px" viewBox="0 0 20 20" version="1.1" xmlns="http://www.w3.org/2000/svg" xmlns:xlink="http://www.w3.org/1999/xlink">
    <!-- Generator: Sketch 52.3 (67297) - http://www.bohemiancoding.com/sketch -->
    <title>icon/brands/wiebo</title>
    <desc>Created with Sketch.</desc>
    <g id="icon/brands/wiebo" stroke="none" stroke-width="1" fill="none" fill-rule="evenodd">
        <path d="M0.000252946831,12.74975 C0.000252946831,13.79675 0.411291547,14.73425 1.2493044,15.54675 C2.0713816,16.35925 3.11478727,16.96875 4.37952142,17.3905 C5.64425558,17.79675 6.97222644,18 8.37936966,18 C9.69165781,18 10.9247736,17.828 12.0787171,17.46875 C13.2485961,17.125 14.2130824,16.67175 14.9719229,16.125 C15.7307634,15.57825 16.3315121,14.98425 16.7741691,14.328 C17.216826,13.67175 17.4381545,13.031 17.4381545,12.406 C17.4381545,11.7185 17.2008904,11.14025 16.7266151,10.68725 C16.2523398,10.23425 15.6832094,9.906 15.0032883,9.70275 C14.8924976,9.6715 14.8135782,9.64025 14.7660242,9.609 C14.7344058,9.59325 14.6868518,9.5465 14.6395508,9.46825 C14.5919968,9.40575 14.6079324,9.312 14.6871048,9.2025 C14.8611322,8.7805 14.9400516,8.39 14.9400516,8.06175 C14.9400516,7.74925 14.8608792,7.468 14.7027875,7.2335 C14.3549856,6.78025 13.7858552,6.5615 12.9794607,6.5615 C12.1890019,6.5615 11.2720696,6.78025 10.2286639,7.20225 L10.0705722,7.26475 C9.9757171,7.296 9.88086204,7.296 9.81762534,7.249 C9.73845298,7.21775 9.72277027,7.124 9.75438863,6.98325 C9.89679769,6.54575 9.9600344,6.155 9.9600344,5.827 C9.9600344,5.327 9.81762534,4.952 9.53306015,4.67075 C9.24849497,4.3895 8.85313907,4.23325 8.36318106,4.23325 C7.92052411,4.23325 7.39869479,4.35825 6.79794607,4.60825 C5.51727627,5.09275 4.23685941,5.96775 2.97212526,7.202 C0.995851672,9.1865 0,11.03025 0,12.749 L0.000252946831,12.74975 Z M2.02382759,13.5155 C2.00789194,13.42175 2.00789194,13.328 2.00789194,13.23425 C2.00789194,12.6405 2.21353771,12.04675 2.62457631,11.48425 C3.09885162,10.8435 3.7787727,10.31225 4.66408661,9.87475 C5.54940052,9.43725 6.52956948,9.156 7.62052916,9.06225 C7.95264835,9.031 8.26883189,9.01525 8.58501543,9.01525 C9.84974958,9.01525 10.9723276,9.26525 11.9841149,9.7965 C13.2172307,10.43725 13.8971518,11.281 14.0076896,12.359 C14.0076896,12.45275 14.0236252,12.5465 14.0236252,12.64025 C14.0236252,13.5935 13.5177316,14.484 12.5375626,15.281 C11.4309202,16.156 10.0553954,16.67175 8.39555825,16.828 C8.06343907,16.85925 7.74725553,16.875 7.43107199,16.875 C6.16633784,16.875 5.0437598,16.625 4.04790813,16.09375 C2.79885668,15.453 2.13487125,14.59375 2.02433349,13.5155 L2.02382759,13.5155 Z M4.6165326,14.5155 C4.91703344,15.203 5.45454545,15.65625 6.2450043,15.90625 C6.60874184,16.01575 6.97222644,16.07825 7.33596398,16.07825 C7.81023929,16.07825 8.2845146,15.9845 8.7587899,15.78125 C9.59680275,15.42175 10.1816158,14.875 10.5294177,14.10925 C10.6875095,13.7655 10.7666818,13.42175 10.7666818,13.078 C10.7666818,12.703 10.6718268,12.35925 10.4977994,12.0155 C10.1340618,11.35925 9.54924875,10.92175 8.72717155,10.703 C8.44260636,10.62475 8.14210553,10.5935 7.85754035,10.5935 C7.35164668,10.5935 6.86143573,10.703 6.37147772,10.906 C5.59670157,11.24975 5.0275712,11.7655 4.69570496,12.453 C4.50599484,12.828 4.41113978,13.203 4.41113978,13.5625 C4.41113978,13.89075 4.47437649,14.20325 4.61678555,14.51575 L4.6165326,14.5155 Z M5.51778216,14.203 C5.50184651,14.1405 5.48616381,14.078 5.48616381,13.99975 C5.48616381,13.81225 5.54940052,13.64025 5.66019123,13.4685 C5.818283,13.234 6.03961147,13.06225 6.32417666,12.9685 C6.46658572,12.9215 6.60874184,12.89025 6.73521526,12.89025 C6.87762432,12.89025 7.01978044,12.9215 7.16218951,12.984 C7.41513634,13.07775 7.57322811,13.26525 7.63646482,13.51525 C7.66808317,13.609 7.68401882,13.68725 7.68401882,13.76525 C7.68401882,13.93725 7.63646482,14.109 7.52592705,14.26525 C7.36783528,14.531 7.13057115,14.70275 6.83032327,14.7965 C6.70384985,14.8435 6.57737644,14.859 6.45090302,14.859 C6.29281125,14.859 6.15040219,14.82775 6.00824607,14.76525 C5.75529924,14.65575 5.58127182,14.46825 5.51803511,14.20275 L5.51778216,14.203 Z M7.80998634,12.93725 L7.80998634,12.8435 C7.80998634,12.781 7.82592199,12.7185 7.85754035,12.656 C7.90509435,12.56225 7.98401376,12.49975 8.11048718,12.45275 C8.22127789,12.4215 8.31613295,12.4215 8.41098801,12.45275 C8.52177872,12.484 8.58501543,12.56225 8.61663378,12.656 C8.64825214,12.74975 8.63256943,12.8435 8.58501543,12.93725 C8.52177872,13.04675 8.44260636,13.10925 8.31613295,13.156 C8.26857894,13.17175 8.22127789,13.18725 8.17372388,13.18725 C8.12616988,13.18725 8.06293317,13.1715 8.01563211,13.156 C7.9048414,13.109 7.84160469,13.0465 7.80998634,12.93725 Z M12.9953964,3.0155 C13.0429504,3.21875 13.1534881,3.375 13.3275156,3.48425 C13.453989,3.578 13.596398,3.60925 13.7385542,3.60925 C13.8017909,3.60925 13.8493449,3.60925 13.9125816,3.5935 C14.1814641,3.5465 14.4344109,3.51525 14.7030404,3.51525 C15.0824607,3.51525 15.4618809,3.57775 15.8256185,3.68725 C16.4739212,3.8905 17.0271159,4.23425 17.4857085,4.73425 C17.9443011,5.23425 18.244549,5.8125 18.3869581,6.48425 C18.4345121,6.75 18.4501948,7 18.4501948,7.25 C18.4501948,7.64075 18.4026408,8 18.2761673,8.375 L18.2761673,8.39075 C18.2602317,8.45325 18.244549,8.547 18.244549,8.62525 C18.244549,8.73475 18.2761673,8.844 18.3237214,8.969 C18.4185764,9.141 18.5609855,9.266 18.7663783,9.3285 C18.8455507,9.34425 18.9244701,9.35975 19.0036424,9.35975 C19.1301158,9.35975 19.2409066,9.3285 19.36738,9.2815 C19.5414074,9.18775 19.6678808,9.047 19.7311175,8.844 L19.7311175,8.82825 C19.9051449,8.32825 20,7.8125 20,7.26575 C20,6.90625 19.952446,6.547 19.8735266,6.172 C19.6838165,5.25 19.2727779,4.4375 18.6244751,3.7345 C17.9761724,3.0315 17.2016492,2.53125 16.3003997,2.2345 C15.7785703,2.07825 15.2410583,2 14.6878636,2 C14.3241261,2 13.9447058,2.03125 13.5812212,2.1095 C13.3755755,2.172 13.2174837,2.2815 13.1069459,2.45325 C13.0277736,2.57825 12.9804725,2.70325 12.9804725,2.844 C12.9804725,2.9065 12.9964082,2.9535 12.9964082,3.016 L12.9953964,3.0155 Z M13.6436991,5.5155 C13.6912531,5.6875 13.7861082,5.828 13.9441999,5.92175 C14.039055,6 14.1655284,6.03125 14.2763191,6.03125 C14.3238731,6.03125 14.3711742,6.03125 14.4187282,6.0155 C14.5295189,5.99975 14.6400567,5.98425 14.7508474,5.98425 C15.0986493,5.98425 15.3832144,6.125 15.6204786,6.40625 C15.8418071,6.64075 15.9682805,6.90625 15.9682805,7.20325 C15.9682805,7.32825 15.9366621,7.469 15.9050438,7.6095 C15.8734254,7.68775 15.8734254,7.75025 15.8734254,7.82825 C15.8734254,7.922 15.8893611,8.01575 15.9366621,8.1095 C16.0158345,8.26575 16.1423079,8.37525 16.3160824,8.43775 C16.3793191,8.4535 16.4584914,8.469 16.5374108,8.469 C16.6322659,8.469 16.727121,8.43775 16.821976,8.39075 C16.9800678,8.3125 17.0908585,8.1875 17.1381596,8.01575 C17.2330146,7.76575 17.2805686,7.5 17.2805686,7.25 C17.2805686,7.078 17.264633,6.90625 17.2330146,6.71875 C17.1222239,6.2655 16.9168311,5.875 16.6163302,5.5155 C16.0945009,4.953 15.4780695,4.67175 14.7508474,4.67175 C14.5611372,4.67175 14.3554915,4.6875 14.1500986,4.73425 C13.9603885,4.78125 13.8179795,4.875 13.7231244,5.03125 C13.6598877,5.14075 13.6282693,5.25 13.6282693,5.3595 C13.6282693,5.422 13.644205,5.469 13.644205,5.51575 L13.6436991,5.5155 Z" id="Shape" fill="#000000" fill-rule="nonzero"></path>
    </g>
</svg>