<?xml version="1.0" encoding="UTF-8"?>
<svg width="20px" height="20px" viewBox="0 0 20 20" version="1.1" xmlns="http://www.w3.org/2000/svg" xmlns:xlink="http://www.w3.org/1999/xlink">
    <!-- Generator: Sketch 52.3 (67297) - http://www.bohemiancoding.com/sketch -->
    <title>icon/brands/brand-baidu</title>
    <desc>Created with Sketch.</desc>
    <g id="icon/brands/brand-baidu" stroke="none" stroke-width="1" fill="none" fill-rule="evenodd">
        <path d="M1.03837822,7.31177078 C1.0190356,7.4487785 1,7.58547343 1,7.72248115 C1,7.91798305 1.01934262,8.13319153 1.07675644,8.3677938 C1.15351289,8.75879759 1.28799018,9.14980137 1.49891688,9.52141137 C1.69080799,9.89302136 1.97879816,10.1861178 2.38161598,10.3816197 C2.63122793,10.5186274 2.91891108,10.5968282 3.22593686,10.5968282 C3.39879237,10.5968282 3.55230525,10.5771216 3.72485374,10.5380212 C4.22377062,10.4207201 4.60755283,10.2055116 4.89554301,9.87331477 C5.20256878,9.56051175 5.37542429,9.16950796 5.45218074,8.71969721 C5.52893718,8.28959304 5.5673154,7.93768964 5.5673154,7.66398699 L5.5673154,7.54668585 C5.5673154,7.31208358 5.54797278,7.0968751 5.49055896,6.88197942 C5.45218074,6.3736745 5.18353318,5.86536958 4.7036519,5.31796428 C4.24311324,4.84875974 3.74419636,4.59445087 3.18755863,4.59445087 L3.01470312,4.59445087 L2.84184761,4.63355125 C2.72671295,4.65325784 2.57320006,4.71175201 2.40034455,4.82905315 C2.20845344,4.92696049 2.03559793,5.06365542 1.84370682,5.23976352 C1.65181572,5.41587163 1.49830283,5.68957428 1.34478994,6.04147768 C1.19127706,6.41308768 1.09517799,6.82348525 1.03776417,7.31239638 L1.03837822,7.31177078 Z M2.30485954,17.047765 L2.51609327,17.732178 C2.65057056,18.1819888 2.95759633,18.6511933 3.41813499,19.1006913 C3.85963805,19.5307955 4.37759053,19.7653977 4.99164208,19.7653977 L5.04936292,19.7653977 C5.26059665,19.8044981 5.49086598,19.8242047 5.75951353,19.8044981 C6.00912549,19.8044981 6.29680864,19.7847915 6.62317703,19.7653977 C7.2565712,19.687197 7.67873164,19.62839 7.90900097,19.5892896 C8.1392703,19.5501892 8.31212581,19.5304827 8.44629608,19.4913823 L8.94521296,19.4131815 C9.23320313,19.3543746 9.57860713,19.3349808 10.0198032,19.3349808 L10.2884507,19.3349808 C10.864124,19.3546874 11.3823835,19.4328881 11.8429222,19.5892896 C12.6488649,19.8629923 13.3780511,20 14.0498235,20 C14.7215959,20 15.2395483,19.9217992 15.6042949,19.7653977 C15.9690416,19.6089962 16.2951029,19.4134943 16.5830931,19.1397917 C16.8710833,18.866089 17.0436318,18.6705871 17.1203882,18.553286 C17.1971447,18.4359849 17.2548655,18.3380775 17.2739011,18.2598768 L17.3890358,17.9470737 C17.4467566,17.7515718 17.5235131,17.497263 17.5618913,17.1650662 C17.6196121,16.8325565 17.6386477,16.5003597 17.6386477,16.1287497 C17.6386477,15.7571397 17.5618913,15.3858425 17.3890358,14.9751322 C17.1971447,14.5841284 16.9475327,14.2516188 16.6021287,13.9976227 C15.8919781,13.411117 15.1821345,12.785511 14.5297047,12.0817042 C13.8579324,11.3778973 13.4167363,10.8889862 13.2055026,10.6349901 C13.0136115,10.3806813 12.8600986,10.1657856 12.7449639,10.0093841 C12.2844253,9.28587069 11.7661658,8.77756577 11.1904924,8.46476274 C10.7489894,8.23016047 10.3077933,8.11285933 9.9046685,8.11285933 C9.78953383,8.11285933 9.69343477,8.11285933 9.5592645,8.13256592 C9.06034762,8.21076668 8.58046634,8.38687478 8.1583059,8.67997122 C7.73614546,8.97306766 7.40977707,9.32528387 7.17950774,9.75538803 C6.91086018,10.2245926 6.58449179,10.6546967 6.20070957,11.0654071 C5.83596295,11.4761175 5.47152336,11.8280209 5.16449759,12.1017235 C4.83812919,12.3754262 4.66558071,12.5318277 4.62720248,12.5515343 L4.1282856,12.9622447 C3.78288161,13.2556539 3.47585583,13.5487504 3.16883006,13.88126 C2.88083989,14.194063 2.63153496,14.6438738 2.42030123,15.2303794 C2.28582394,15.6019894 2.20906749,15.9538928 2.20906749,16.3448966 C2.20906749,16.5794989 2.24744572,16.8141012 2.30516656,17.0487034 L2.30485954,17.047765 Z M5.08743412,14.975445 L5.240947,14.5647346 C5.33704607,14.2910319 5.52893718,14.0173293 5.83596295,13.7436266 C6.14298873,13.469924 6.48839272,13.3329163 6.87217494,13.3329163 L8.21541269,13.3329163 L8.21541269,11.6709938 L9.32838112,11.6907004 L9.32838112,17.8294598 L6.83379671,17.8294598 C6.08526788,17.6730583 5.5673154,17.3014483 5.27932523,16.7346492 C5.12581234,16.3436454 5.0490559,15.932935 5.0490559,15.5225375 C5.0490559,15.3464294 5.06839852,15.1509275 5.08743412,14.9751322 L5.08743412,14.975445 Z M5.56700837,3.0889299 C5.56700837,3.92974444 5.75889948,4.67265163 6.18105992,5.25915731 C6.58418476,5.86536958 7.08310164,6.15846601 7.67781057,6.15846601 C8.27251949,6.15846601 8.77174339,5.86505677 9.17456121,5.25915731 C9.59672165,4.67265163 9.80795538,3.92974444 9.80795538,3.0889299 C9.80795538,2.22872157 9.59672165,1.50520817 9.17456121,0.899308705 C8.77143637,0.293096437 8.27251949,0 7.67781057,0 C7.08310164,0 6.58387774,0.29340924 6.18105992,0.899308705 C5.75889948,1.50552097 5.56700837,2.22872157 5.56700837,3.0889299 Z M6.25781636,15.9529544 L6.35391543,16.1681629 C6.39229365,16.3245644 6.50742832,16.4615721 6.64190561,16.5982671 C6.79541849,16.7546686 6.9873096,16.8134756 7.19854333,16.8134756 L8.1963771,16.8134756 L8.1963771,14.3110513 L7.10244427,14.3110513 C6.73769765,14.4283525 6.4690501,14.6629547 6.35391543,15.0148581 C6.25781636,15.2494604 6.21943814,15.4449623 6.21943814,15.6404642 C6.21943814,15.7383715 6.23878077,15.8556727 6.25781636,15.9532672 L6.25781636,15.9529544 Z M9.94212564,16.7155682 L9.94212564,13.4702368 L11.1128149,13.4505302 L11.1128149,16.3636648 L11.1321575,16.4418656 C11.1705358,16.4809659 11.208914,16.5397729 11.2856704,16.6179737 C11.3624269,16.6767806 11.4585259,16.715881 11.5736606,16.7352748 L12.7443499,16.7352748 L12.7443499,13.4702368 L13.9917956,13.4702368 L13.9917956,17.8103788 L11.113429,17.8103788 L10.8254388,17.7124715 C10.6335477,17.6536645 10.4416566,17.5169696 10.2304228,17.3408615 C10.0385317,17.1647534 9.94243267,16.9498577 9.94243267,16.7152554 L9.94212564,16.7155682 Z M10.9783376,3.26503801 C10.958995,3.48024649 10.9399594,3.67574838 10.9399594,3.87125027 C10.959302,4.43836216 11.0550941,4.94666708 11.2663278,5.35706466 C11.5159398,5.94357033 12.0148566,6.27607995 12.7440428,6.39338109 C12.8401419,6.39338109 12.935934,6.41308768 13.032033,6.41308768 C13.627049,6.39338109 14.1450014,6.11967844 14.6055401,5.61137352 C15.104457,4.98576746 15.4308254,4.32106103 15.5459601,3.57815384 C15.5459601,3.4608527 15.5653027,3.34355157 15.5653027,3.22625043 C15.5653027,2.71794551 15.3924472,2.20964059 15.0663858,1.68162908 C14.663261,1.03631643 14.1836867,0.645312647 13.6080134,0.528011511 C13.5312569,0.50830492 13.4351579,0.50830492 13.3584014,0.50830492 C12.8978628,0.50830492 12.4373241,0.78200757 11.9384072,1.32941287 C11.3627339,1.97472552 11.0557081,2.61972536 10.9789517,3.26503801 L10.9783376,3.26503801 Z M14.4707558,9.07128781 C14.4707558,9.46229159 14.4900984,9.77509462 14.5475122,10.0294035 C14.5858905,10.3031061 14.6626469,10.5965154 14.8161598,10.9287122 C14.9506371,11.2415152 15.199942,11.4958241 15.5646886,11.6522256 C15.891057,11.7892333 16.2938748,11.8674341 16.7927917,11.8674341 L16.9079264,11.8674341 C17.1575383,11.8674341 17.3878077,11.8477275 17.5987344,11.7892333 C17.8099681,11.7110326 17.9825166,11.6328318 18.1169939,11.5155307 C18.2705068,11.3982295 18.3856414,11.2612218 18.5007761,11.1439207 C18.6159108,11.0069129 18.6926672,10.8505114 18.750388,10.6747161 C18.8081089,10.4792142 18.8655227,10.3228127 18.9039009,10.185805 C18.9422792,10.0487973 18.9616218,9.89239576 18.9806574,9.67750008 C18.999693,9.4626044 19,9.32559667 19,9.22768932 L19,8.5432763 C19,8.36716819 18.9616218,8.13256592 18.8848653,7.87856986 C18.8081089,7.62457381 18.6736316,7.37026494 18.5201187,7.0768557 C18.3472632,6.78344646 18.0979583,6.54884419 17.7715899,6.3533423 C17.4452215,6.15784041 17.0424037,6.05993306 16.6009006,6.05993306 C15.1809064,6.05993306 14.4707558,7.05714911 14.4707558,9.0706622 L14.4707558,9.07128781 Z" id="Shape" fill="#000000"></path>
    </g>
</svg>