<?xml version="1.0" encoding="UTF-8"?>
<svg width="20px" height="20px" viewBox="0 0 20 20" version="1.1" xmlns="http://www.w3.org/2000/svg" xmlns:xlink="http://www.w3.org/1999/xlink">
    <!-- Generator: Sketch 52.3 (67297) - http://www.bohemiancoding.com/sketch -->
    <title>icon/brands/vkontakte</title>
    <desc>Created with Sketch.</desc>
    <g id="icon/brands/vkontakte" stroke="none" stroke-width="1" fill="none" fill-rule="evenodd">
        <path d="M9.75019481,15.4475578 L10.9477016,15.4475578 C10.9477016,15.4475578 11.308537,15.409741 11.4927047,15.219048 C11.6677057,15.0412287 11.6677057,14.7121424 11.6677057,14.7121424 C11.6677057,14.7121424 11.6418722,13.161655 12.3918765,12.9339498 C13.1310473,12.7078539 14.0685527,14.4305282 15.067725,15.0927239 C15.8310627,15.5988248 16.4052326,15.4902022 16.4052326,15.4902022 L19.0810812,15.4547993 C19.0810812,15.4547993 20.4827558,15.370315 19.820252,14.3074225 C19.7694184,14.2229383 19.4444166,13.5229258 17.8444075,12.0866934 C16.1677313,10.5893104 16.3927325,10.830694 18.407744,8.2350157 C19.6319176,6.6539531 20.1327538,5.68761408 19.9702529,5.27726195 C19.8319188,4.89104819 18.9202469,4.98679702 18.9202469,4.98679702 L15.9185632,5.01173999 C15.9185632,5.01173999 15.6935619,4.98679702 15.531061,5.08415507 C15.3685601,5.1799039 15.2693928,5.39875837 15.2693928,5.39875837 C15.2693928,5.39875837 14.7927235,6.62901013 14.1560532,7.66776424 C12.8035455,9.86355041 12.2660424,9.98424221 12.0535412,9.83941205 C11.550205,9.52480876 11.6793724,8.56812508 11.6793724,7.88259564 C11.6793724,5.75761532 12.016041,4.8653006 11.0285354,4.63598618 C10.7035336,4.56276649 10.4610322,4.51529438 9.62436076,4.50242059 C8.54935465,4.49115602 7.64268283,4.51046671 7.12851324,4.75265492 C6.79101133,4.91599116 6.52850983,5.27726195 6.67934403,5.29576803 C6.87934516,5.31990639 7.32851438,5.41324138 7.56601573,5.72784468 C7.87851751,6.13497835 7.8651841,7.04418993 7.8651841,7.04418993 C7.8651841,7.04418993 8.04101843,9.55136095 7.45351509,9.8627458 C7.04101275,10.0735541 6.49100962,9.63745444 5.2910028,7.6452351 C4.67849932,6.63142397 4.21516336,5.49692103 4.21516336,5.49692103 C4.21516336,5.49692103 4.12766286,5.29094036 3.96599528,5.17024855 C3.77682753,5.03748757 3.50182597,4.98921085 3.50182597,4.98921085 L0.639309707,5.01334921 C0.639309707,5.01334921 0.214307293,5.026223 0.0651397783,5.20645609 C-0.073194341,5.36335544 0.0518063692,5.70129248 0.0518063692,5.70129248 C0.0518063692,5.70129248 2.29015242,10.7598882 4.82850018,13.3072898 C7.15351339,15.6422739 9.79186171,15.4918114 9.79186171,15.4918114 L9.75019481,15.4475578 Z" id="Path" fill="#000000"></path>
    </g>
</svg>