<?xml version="1.0" encoding="UTF-8"?>
<svg width="20px" height="20px" viewBox="0 0 20 20" version="1.1" xmlns="http://www.w3.org/2000/svg" xmlns:xlink="http://www.w3.org/1999/xlink">
    <!-- Generator: Sketch 52.3 (67297) - http://www.bohemiancoding.com/sketch -->
    <title>icon/brands/thirtysevensignals</title>
    <desc>Created with Sketch.</desc>
    <g id="icon/brands/thirtysevensignals" stroke="none" stroke-width="1" fill="none" fill-rule="evenodd">
        <path d="M0.0776999179,14.5715839 C0.0581975481,14.5321556 0.0390047397,14.5122838 0.0195023698,14.4728555 C0,14.4334272 0,14.4135553 0,14.3545706 L0,14.0587007 C0,13.8615592 0.0386951782,13.6839741 0.0773903565,13.4868327 C0.309561426,12.0279857 0.6773204,10.6085671 1.19955053,9.24813319 C1.70258784,7.96655587 2.36040587,6.72472228 3.17300462,5.62073001 C3.94690818,4.59559433 4.87559246,3.64931524 5.92036227,2.90017763 C6.46209477,2.52545111 7.04252244,2.19046831 7.64245249,1.95389854 C7.95201391,1.83561365 8.26157534,1.7368852 8.59063913,1.65802861 C8.74541985,1.61860031 8.91970293,1.57917202 9.07448364,1.55930016 C9.151874,1.5394283 9.24876672,1.51987186 9.32615708,1.51987186 C9.42304981,1.5 9.51963297,1.5 9.6165257,1.5 L10.54521,1.5 C10.6226003,1.5 10.7194931,1.5394283 10.7968834,1.5394283 C11.1259472,1.61828489 11.4355086,1.69714148 11.7450701,1.79586993 C12.3254977,1.97345497 12.8867326,2.21002474 13.4284651,2.50557925 C14.4345397,3.05757538 15.305336,3.82658485 16.0597372,4.69400735 C16.8531432,5.64028644 17.5496564,6.68529398 18.1105817,7.78928626 C18.7879021,9.09042 19.271437,10.4902822 19.5809984,11.9292573 C19.6196936,12.0475422 19.639196,12.165827 19.6778912,12.3039838 C19.7552815,12.6194102 19.8521742,12.9547084 19.9100622,13.2896912 C19.9682598,13.6051175 20.0261478,13.9205439 19.9874526,14.2164138 C19.9679502,14.4924119 19.8518647,14.7094252 19.697084,14.9261231 C19.5228009,15.1825648 19.3101322,15.3992627 19.0779611,15.5964042 C18.2071648,16.4048419 17.2010902,17.0158228 16.1176252,17.4694059 C14.8985723,17.9624173 13.6024386,18.2384154 12.2868026,18.3762567 C10.8937761,18.5339699 9.46205455,18.5339699 8.03033295,18.415685 C6.83078243,18.2974001 5.61172953,18.1002586 4.43168137,17.7059757 C3.42560674,17.3706775 2.45822728,16.8975379 1.62612617,16.2272569 C1.21967202,15.9118305 0.871415414,15.5569759 0.54266118,15.1822494 C0.368378097,14.9851079 0.233099754,14.7680945 0.0783190408,14.5709531 L0.0776999179,14.5715839 Z M1.39333598,13.6647331 C1.37383361,13.7041614 1.39333598,13.7240333 1.41283835,13.7634616 C1.41283835,13.7833334 1.43234072,13.8227617 1.45153353,13.8423182 C1.56761906,14.0593315 1.6837046,14.2760294 1.83848531,14.4731709 C2.47711053,15.3011651 3.40579481,15.8531612 4.3536719,16.2278877 C5.51452724,16.6814709 6.73358014,16.8981688 7.95232347,17.0164537 C9.2874619,17.1546104 10.660986,17.1546104 12.0153172,17.055882 C13.3117604,16.9770254 14.6273965,16.7404556 15.8461398,16.2474442 C16.8717168,15.8531612 17.8969843,15.2418649 18.477412,14.2561576 C18.4969143,14.2167293 18.5161071,14.1968574 18.5356095,14.1574291 C18.8451709,13.4871481 18.5161071,12.7969952 18.2065457,12.2055708 C17.8387867,11.574718 17.5292253,10.904437 17.1422735,10.2735843 C16.8327121,9.74114459 16.4649531,9.26800505 16.0975037,8.7948655 C15.7105519,8.32172596 15.3040978,7.84858641 14.8784508,7.41487516 C14.3946063,6.90230732 13.8723762,6.40929592 13.3111413,5.97558467 C13.233751,5.91628451 13.1563606,5.87685622 13.0981631,5.79799962 C13.0399655,5.73869947 12.9820775,5.69927117 12.9046872,5.65984288 C12.7690993,5.60054272 12.6143185,5.58098629 12.4790402,5.63997102 C12.1694788,5.73869947 11.9373077,6.03425397 11.7243294,6.27082374 C11.2017898,6.82281988 10.7761428,7.45367261 10.3118007,8.08452533 C9.8861537,8.63652147 9.46050674,9.20838946 8.91877424,9.66165715 C8.72529835,9.81937033 8.49312728,10.0165118 8.24145384,10.0363837 C8.04797795,10.0363837 7.87369487,9.99695537 7.71891416,9.91809878 C7.35115518,9.7603856 7.08028894,9.44495924 6.82892506,9.16896117 C6.36458292,8.65639333 5.78415524,7.80852726 4.99074931,8.0649689 C4.44901681,8.26211037 4.00386748,8.75512178 3.65561088,9.20838946 C3.44263262,9.48438753 3.24915673,9.78025746 3.07518321,10.075812 C2.88170731,10.3716819 2.70742423,10.6672364 2.51394834,10.9631063 C2.16569174,11.5744026 1.81743513,12.1853835 1.58526406,12.8556645 C1.52706651,13.0332495 1.48837134,13.2105192 1.44967616,13.3881042 C1.43017379,13.4669608 1.41098098,13.5656892 1.39147861,13.6641023 L1.39333598,13.6647331 Z" id="Shape" fill="#000000"></path>
    </g>
</svg>