<?xml version="1.0" encoding="UTF-8"?>
<svg width="20px" height="20px" viewBox="0 0 20 20" version="1.1" xmlns="http://www.w3.org/2000/svg" xmlns:xlink="http://www.w3.org/1999/xlink">
    <!-- Generator: Sketch 52.3 (67297) - http://www.bohemiancoding.com/sketch -->
    <title>icon/brands/brand-amazon</title>
    <desc>Created with Sketch.</desc>
    <g id="icon/brands/brand-amazon" stroke="none" stroke-width="1" fill="none" fill-rule="evenodd">
        <path d="M11.4811465,5.83482143 C9.34348198,5.91517857 4.04102057,6.52678571 4.04102057,11.0803571 C4.04102057,15.96875 10.1116366,16.1696429 12.0956701,13.0089286 C12.3809847,13.4642857 13.6495371,14.6830357 14.0840932,15.0982143 L16.5773035,12.5982143 C16.5773035,12.5982143 15.1595096,11.46875 15.1595096,10.2410714 L15.1595096,3.67410714 C15.1595096,2.54464286 14.0840932,0 10.2301518,0 C6.36743162,0 4.31755622,2.45535714 4.31755622,4.65625 L7.54380551,4.95982143 C8.25928664,2.75 9.92289001,2.75 9.92289001,2.75 C11.7093981,2.74553571 11.4811465,4.08035714 11.4811465,5.83482143 Z M11.4811465,9.70982143 C11.4811465,13.28125 7.78522552,12.7455357 7.78522552,10.4776786 C7.78522552,8.37053571 10.0019002,7.94642857 11.4811465,7.89732143 L11.4811465,9.70982143 Z M17.450805,17.0089286 C17.112817,17.4553571 14.3781866,20 9.79120637,20 C5.20422609,20 1.69266225,16.8080357 0.617245823,15.4910714 C0.318762897,15.1473214 0.661140371,14.9866071 0.858665838,15.1205357 C4.07613621,17.1071429 9.10206196,20.3794643 17.209385,16.4732143 C17.5385941,16.3080357 17.7931825,16.5625 17.450805,17.0089286 Z M19.197808,17.1071429 C18.9124934,17.8125 18.4954952,18.3035714 18.2672436,18.4910714 C18.0258236,18.6919643 17.8502454,18.6116071 17.981929,18.3214286 C18.1136127,18.03125 18.8290938,16.2455357 18.5393898,15.8660714 C18.2540752,15.4955357 16.9152915,15.6741071 16.4324515,15.7232143 C15.9583904,15.7678571 15.8618224,15.8125 15.8179278,15.7098214 C15.7169704,15.4553571 16.7704395,15.0178571 17.4639734,14.9285714 C18.1531178,14.8482143 19.2636498,14.8928571 19.4831226,15.1830357 C19.6455324,15.4107143 19.4831226,16.3928571 19.197808,17.1071429 Z" id="Shape" fill="#000000"></path>
    </g>
</svg>