<?xml version="1.0" encoding="UTF-8"?>
<svg width="20px" height="20px" viewBox="0 0 20 20" version="1.1" xmlns="http://www.w3.org/2000/svg" xmlns:xlink="http://www.w3.org/1999/xlink">
    <!-- Generator: Sketch 52.3 (67297) - http://www.bohemiancoding.com/sketch -->
    <title>icon/brands/brand-soundcloud</title>
    <desc>Created with Sketch.</desc>
    <g id="icon/brands/brand-soundcloud" stroke="none" stroke-width="1" fill="none" fill-rule="evenodd">
        <path d="M0,12.3356067 C0,13.1526002 0.0678518116,13.5967604 0.220654091,13.685422 C0.288505903,13.6499005 0.356357715,13.4543905 0.407382277,13.1170787 C0.458406839,12.7618642 0.492332745,12.513214 0.492332745,12.3356067 C0.492332745,12.1756181 0.458406839,11.9269679 0.407382277,11.5717533 C0.356357715,11.2165388 0.288505903,11.0210287 0.220654091,10.9678886 C0.15280228,11.0213129 0.101777717,11.1989201 0.0678518116,11.5362319 C0.0168272493,11.8738278 0,12.1400966 0,12.3356067 Z M1.11955489,12.3356067 C1.11955489,12.6376812 1.13665355,13.0639386 1.20450536,13.6499005 C1.25552992,14.2182438 1.28945583,14.5734584 1.30628308,14.6979255 C1.30628308,14.7868713 1.34020898,14.8400114 1.4080608,14.8400114 C1.45908536,14.8400114 1.49301126,14.7865871 1.50983851,14.6979255 C1.52693717,14.5558397 1.56086308,14.2006252 1.62871489,13.6322819 C1.67973945,13.0639386 1.71366535,12.6376812 1.71366535,12.3356067 C1.71366535,12.2645638 1.64581354,11.4475703 1.51010992,9.88462631 C1.49301126,9.8135834 1.45908536,9.77806195 1.4083322,9.77806195 C1.34048039,9.77806195 1.30655449,9.8135834 1.30655449,9.88462631 C1.28945583,10.0267121 1.25552992,10.3998295 1.20477677,11.0036942 C1.13692496,11.5899403 1.1198263,12.0338164 1.1198263,12.3358909 L1.11955489,12.3356067 Z M2.51051703,12.3356067 C2.51051703,12.6552998 2.54444294,13.1170787 2.61229475,13.7564649 C2.66331931,14.3782325 2.69724522,14.733447 2.69724522,14.8221086 C2.69724522,14.9107701 2.73117112,14.9641944 2.81612159,14.9641944 C2.90107206,14.9641944 2.95182521,14.9107701 2.95182521,14.8221086 C3.08752884,13.3478261 3.1385534,12.5308326 3.1385534,12.3356067 C3.1385534,12.1579994 3.08752884,11.3765274 2.95182521,10.0088093 C2.95182521,9.90224496 2.90080065,9.84882069 2.81612159,9.84882069 C2.73144253,9.84882069 2.69724522,9.90224496 2.69724522,10.0088093 C2.69724522,10.0798522 2.66331931,10.3995453 2.61229475,11.0034101 C2.54444294,11.6072748 2.51051703,12.0514351 2.51051703,12.3356067 Z M4.12213326,12.3356067 C4.12213326,12.3711282 4.17315782,13.1881216 4.27493554,14.8044899 C4.27493554,14.9110543 4.3259601,14.9820972 4.42773782,14.9820972 C4.54661419,14.9820972 4.59736735,14.9110543 4.59736735,14.8044899 C4.59736735,14.7155442 4.63129326,14.3603296 4.68231782,13.7388463 C4.75016963,13.1170787 4.78409554,12.6552998 4.78409554,12.3356067 C4.78409554,11.731742 4.75016963,10.8437056 4.69914507,9.68911623 C4.6481205,8.53452685 4.6141946,7.85961921 4.59736735,7.66439329 C4.59736735,7.53992612 4.54634279,7.48678602 4.42773782,7.48678602 C4.3259601,7.48678602 4.27493554,7.54021029 4.27493554,7.66439329 C4.25783688,8.01960784 4.24100963,8.51690821 4.20708373,9.1562944 C4.18998507,9.77806195 4.15605917,10.3640239 4.13923192,10.8792271 C4.12240467,11.3944302 4.12213326,11.8738278 4.12213326,12.3356067 Z M5.75057674,12.3356067 C5.75057674,12.6552998 5.7676754,13.0994601 5.81842855,13.685422 C5.85235446,14.2716681 5.86945311,14.6268826 5.86945311,14.7510656 C5.88655177,14.9110543 5.97123083,14.9820972 6.07300855,14.9820972 C6.19188492,14.9820972 6.25973673,14.9110543 6.29366264,14.7510656 C6.29366264,14.591077 6.32758855,14.2182438 6.36151445,13.6499005 C6.41253901,13.0815573 6.42936626,12.637397 6.42936626,12.3356067 C6.42936626,11.6783177 6.41226761,10.7547599 6.36151445,9.52941176 C6.32758855,8.30377948 6.29366264,7.48678602 6.29366264,7.09605001 C6.25973673,6.95396419 6.19188492,6.88292128 6.07300855,6.88292128 C5.97123083,6.88292128 5.88628036,6.95396419 5.86945311,7.09605001 C5.85235446,7.39812447 5.83552721,8.17959648 5.8016013,9.44046604 C5.7676754,10.7013356 5.75057674,11.6783177 5.75057674,12.3356067 Z M7.39584747,12.3356067 C7.39584747,12.3711282 7.42977337,13.1526002 7.49762519,14.7155442 C7.53155109,14.8931515 7.61650156,14.9820972 7.75220518,14.9820972 C7.88790881,14.9820972 7.97285928,14.8931515 7.98968652,14.6979255 L7.98968652,14.7158284 C8.05753834,13.1528843 8.09146424,12.3714123 8.09146424,12.3358909 C8.09146424,11.8562092 8.09146424,11.3412901 8.07436559,10.7905655 C8.05726693,10.2577437 8.05726693,9.63597613 8.04043968,8.9789713 C8.02334102,8.30406365 8.00651377,7.78886047 7.98941512,7.43364592 C7.97231646,7.25603865 7.8876374,7.14947428 7.75193378,7.14947428 C7.61623015,7.14947428 7.53127969,7.25603865 7.49735378,7.43364592 C7.49735378,7.78886047 7.48025512,8.30406365 7.46342787,8.9789713 C7.44632922,9.6362603 7.42950197,10.2577437 7.41240331,10.7905655 C7.41240331,11.3412901 7.39530465,11.8562092 7.39530465,12.3358909 L7.39584747,12.3356067 Z M9.05821685,12.3535095 C9.05821685,12.3714123 9.09214276,13.1349815 9.15999457,14.6624041 C9.17709323,14.8755328 9.26177229,14.9820972 9.43140182,14.9820972 C9.60103135,14.9820972 9.68598182,14.8755328 9.70280907,14.6624041 C9.78775953,13.1349815 9.82168544,12.3711282 9.82168544,12.3535095 C9.82168544,12.3179881 9.78775953,10.1867008 9.70280907,5.97726627 C9.68571041,5.76413754 9.60103135,5.63967036 9.43140182,5.63967036 C9.26177229,5.63967036 9.17682182,5.76413754 9.15999457,5.97726627 C9.09214276,10.1867008 9.05821685,12.3179881 9.05821685,12.3535095 Z M10.4323517,8.49928957 C10.4323517,9.49389031 10.4494504,10.6129582 10.4494504,11.8206877 L10.4494504,14.6447855 C10.4494504,14.7337312 10.4833763,14.8223927 10.5344009,14.8934356 C10.5854254,14.9644785 10.6532772,15 10.7211291,15 L17.5402361,15 C18.2187542,15 18.7954946,14.7158284 19.287556,14.1651037 C19.7625187,13.6143791 20,12.9394714 20,12.1579994 C20,11.3765274 19.74542,10.7016198 19.2704573,10.1508951 C18.7954946,9.6001705 18.2187542,9.31599886 17.5402361,9.31599886 C17.234903,9.31599886 16.9124712,9.40494459 16.5903108,9.56464905 C16.488533,8.26797386 16.0303976,7.18471157 15.1993486,6.31429383 C14.3680282,5.42625746 13.384177,5 12.2646221,5 C12.1628443,5 12.0100421,5 11.8404125,5.03552145 C11.6536844,5.05342427 11.4501289,5.08894572 11.2465735,5.12446718 C11.0259194,5.17789145 10.822364,5.24893436 10.6698331,5.33759591 C10.5170308,5.44416027 10.449179,5.55072464 10.449179,5.657289 C10.449179,6.54532538 10.4320803,7.48678602 10.4320803,8.4990054 L10.4323517,8.49928957 Z" id="Shape" fill="#000000" fill-rule="nonzero"></path>
    </g>
</svg>