<?xml version="1.0" encoding="UTF-8"?>
<svg width="20px" height="20px" viewBox="0 0 20 20" version="1.1" xmlns="http://www.w3.org/2000/svg" xmlns:xlink="http://www.w3.org/1999/xlink">
    <!-- Generator: Sketch 52.3 (67297) - http://www.bohemiancoding.com/sketch -->
    <title>icon/brands/brand-google</title>
    <desc>Created with Sketch.</desc>
    <g id="icon/brands/brand-google" stroke="none" stroke-width="1" fill="none" fill-rule="evenodd">
        <path d="M10.1940566,11.9003509 L10.1940566,8.18035088 L19.745077,8.18035088 C19.8882922,8.81052632 20,9.4 20,10.2301754 C20,15.9403509 16.0916577,20 10.2040816,20 C4.57142857,20 0,15.52 0,10 C0,4.48 4.57142857,0 10.2040816,0 C12.9595417,0 15.2653061,0.990175439 17.0304332,2.60982456 L14.132474,5.36982456 C13.3977802,4.68982456 12.1117078,3.88982456 10.2040816,3.88982456 C6.82635159,3.88982456 4.07160759,6.64 4.07160759,10.0098246 C4.07160759,13.3796491 6.82706767,16.1298246 10.2040816,16.1298246 C14.1124239,16.1298246 15.5510204,13.48 15.8159685,11.9094737 L10.1933405,11.9094737 L10.1933405,11.8996491 L10.1940566,11.9003509 Z" id="Shape" fill="#000000"></path>
    </g>
</svg>