<?xml version="1.0" encoding="UTF-8"?>
<svg width="20px" height="20px" viewBox="0 0 20 20" version="1.1" xmlns="http://www.w3.org/2000/svg" xmlns:xlink="http://www.w3.org/1999/xlink">
    <!-- Generator: Sketch 52.3 (67297) - http://www.bohemiancoding.com/sketch -->
    <title>icon/brands/brand-daccount</title>
    <desc>Created with Sketch.</desc>
    <g id="icon/brands/brand-daccount" stroke="none" stroke-width="1" fill="none" fill-rule="evenodd">
        <path d="M6.600625,12.7982143 C6.600625,11.1205357 7.685625,9.475 9.6885,9.475 C11.693125,9.475 12.741375,11.05 12.776375,12.7125 L12.776375,12.8848214 C12.741375,14.5482143 11.693125,16.1241071 9.6885,16.1241071 C7.685625,16.1241071 6.600625,14.4785714 6.600625,12.7982143 Z M12.73,0 L12.73,6.75982143 C11.859375,6.22678571 10.819,5.91160714 9.612375,5.91160714 C5.295125,5.91160714 3,9.45446429 3,12.8026786 C3,16.1410714 5.295125,19.6866071 9.612375,19.6866071 C12.855125,19.6866071 14.067,18.0357143 16.328875,16.9419643 L16.328875,0 L12.73,0 Z" id="Shape" fill="#000000"></path>
    </g>
</svg>