<?xml version="1.0" encoding="UTF-8"?>
<svg width="20px" height="20px" viewBox="0 0 20 20" version="1.1" xmlns="http://www.w3.org/2000/svg" xmlns:xlink="http://www.w3.org/1999/xlink">
    <!-- Generator: Sketch 52.3 (67297) - http://www.bohemiancoding.com/sketch -->
    <title>icon/brands/brand-sharepoint</title>
    <desc>Created with Sketch.</desc>
    <g id="icon/brands/brand-sharepoint" stroke="none" stroke-width="1" fill="none" fill-rule="evenodd">
        <path d="M17.937907,8.0254902 C17.8091446,8.02589487 17.68076,8.03976514 17.5547568,8.06688453 C17.0759887,6.81685726 16.1484379,5.80107975 14.9617471,5.22723312 C15.0461565,4.45795827 14.6733957,3.71143776 14.0145778,3.33035618 C13.3557598,2.94927458 12.5381314,3.00723555 11.9370188,3.47763253 L11.9370188,6.49114016 C12.3431298,6.8173334 12.8627836,6.95782186 13.3734498,6.87947938 C13.884116,6.8011369 14.3405976,6.51089729 14.6352599,6.0771968 C15.6082504,6.56862991 16.3610587,7.42147953 16.739888,8.46151053 C16.3036176,8.83047875 16.0521695,9.38013075 16.0547831,9.95911286 C16.0573967,10.5380949 16.3137964,11.085349 16.7533792,11.4501816 C16.3792369,12.5085121 15.6192493,13.3777561 14.6325616,13.8758896 C14.3378994,13.4421891 13.8814177,13.1519495 13.3707515,13.073607 C12.8600853,12.9952646 12.3404315,13.135753 11.9343205,13.4619463 L11.9343205,16.4754539 C12.5012569,16.9219053 13.2661857,17.0023795 13.910115,16.6833169 C14.5540444,16.3642544 14.9664068,15.7004406 14.9752383,14.9687001 C14.9746843,14.8884063 14.9692775,14.8082243 14.9590488,14.7286129 C16.1615599,14.1457053 17.0966671,13.1092153 17.568248,11.8365287 C17.6891319,11.8606959 17.8120374,11.8727115 17.9352088,11.8724038 C18.6487211,11.940709 19.3385727,11.5901455 19.7163106,10.9672971 C20.0940484,10.3444488 20.094601,9.55661136 19.7177373,8.93320939 C19.3408736,8.30980741 18.6515145,7.95823205 17.937907,8.0254902 Z M0.0242841702,2.52832244 L0,17.4716776 L10.9062906,19.5 L10.9062906,0.5 L0.0242841702,2.52832244 Z M6.16817922,13.7323893 C5.27775965,14.391939 4.11481772,14.1132171 3.17852805,13.7323893 C3.17852805,13.1804648 3.15424388,12.6285403 3.13535619,12.0572985 C3.73706396,12.5126362 4.6247853,13.1804648 5.34251744,12.5595497 C5.89565687,11.60748 4.80286921,11.0031227 4.17687727,10.5422658 C2.8277567,9.71437908 2.77379188,7.4211329 4.08513707,6.52701525 C4.85143755,6.03028322 5.78772722,6.1875817 6.63497494,6.30900508 C6.63497494,6.83333333 6.65925911,7.36318083 6.67275031,7.88750908 C5.96850938,7.66122004 5.06999508,7.20312273 4.48987324,7.93442266 C4.08513707,9.013435 5.36410337,9.41909949 5.97930234,9.98482208 C7.18811437,10.7713145 7.29064753,12.8217139 6.16817922,13.7323893 Z" id="Shape" fill="#000000"></path>
    </g>
</svg>