<?xml version="1.0" encoding="UTF-8"?>
<svg width="20px" height="20px" viewBox="0 0 20 20" version="1.1" xmlns="http://www.w3.org/2000/svg" xmlns:xlink="http://www.w3.org/1999/xlink">
    <!-- Generator: Sketch 52.3 (67297) - http://www.bohemiancoding.com/sketch -->
    <title>icon/brands/brand-bitly</title>
    <desc>Created with Sketch.</desc>
    <g id="icon/brands/brand-bitly" stroke="none" stroke-width="1" fill="none" fill-rule="evenodd">
        <path d="M10.8791667,17.7166667 C9.75833333,17.735 8.94166667,17.375 8.89083333,16.3958333 C8.87,16.0291667 8.87583333,15.6375 8.8925,15.4025 C9.00666667,13.9725 10.0033333,12.9441667 11.0008333,12.7441667 C12.2358333,12.4991667 13.0466667,13.0608333 13.0466667,14.6691667 C13.0466667,15.755 12.7466667,17.6841667 10.8883333,17.7166667 L10.875,17.7166667 L10.8791667,17.7166667 Z M9.93583333,0 C4.43333333,0 0,4.41416667 0,10.1866667 C0,13.1816667 1.6,16.0716667 3.8525,17.8091667 C4.28583333,18.1425 4.80083333,18.115 5.1,17.8258333 C5.3475,17.5883333 5.32666667,17.0058333 4.8625,16.5966667 C3.0625,15.025 1.81916667,12.63 1.81916667,10.2341667 C1.81916667,5.9425 5.63583333,2.32583333 9.93583333,2.32583333 C15.1691667,2.32583333 17.9658333,6.5775 17.9658333,10.1841667 C17.9658333,12.3925 16.8908333,15.0508333 14.9441667,16.7458333 C14.9566667,16.7458333 15.355,15.9608333 15.355,14.4258333 C15.355,11.8175 13.7083333,10.3958333 11.7883333,10.3958333 C10.4025,10.3958333 9.56583333,10.8941667 9.005,11.3558333 C9.005,10.2958333 9.0425,8.3125 9.0425,8.3125 C9.0425,7.0025 8.5925,5.95416667 6.98416667,5.92916667 C6.05916667,5.91666667 5.37416667,6.34 4.95083333,7.30166667 C4.80083333,7.665 4.85083333,8.065 5.1625,8.23916667 C5.4125,8.38916667 5.8375,8.2775 6.03416667,8.0025 C6.17166667,7.8275 6.24583333,7.79083333 6.37083333,7.8025 C6.57083333,7.8275 6.585,8.14 6.585,8.3525 C6.59666667,8.51333333 6.74583333,10.7716667 6.65833333,16.5733333 C6.65,18.165 7.91083333,20 10.9166667,20 C12.2166667,20 13.2133333,19.6375 14.6608333,18.815 C16.8691667,17.5666667 20,14.7983333 20,10.1066667 C19.9608333,4.20416667 15.2208333,0 9.94416667,0 L9.93583333,0 Z" id="Shape" fill="#000000"></path>
    </g>
</svg>