<?xml version="1.0" encoding="UTF-8"?>
<svg width="20px" height="20px" viewBox="0 0 20 20" version="1.1" xmlns="http://www.w3.org/2000/svg" xmlns:xlink="http://www.w3.org/1999/xlink">
    <!-- Generator: Sketch 52.3 (67297) - http://www.bohemiancoding.com/sketch -->
    <title>icon/brands/brand-fitbit</title>
    <desc>Created with Sketch.</desc>
    <g id="icon/brands/brand-fitbit" stroke="none" stroke-width="1" fill="none" fill-rule="evenodd">
        <path d="M12.7916667,14.2763237 C12.7916667,15.1062466 13.4376667,15.7445178 14.271,15.7445178 C15.0836667,15.7445178 15.7503333,15.0848007 15.771,14.2763237 C15.771,13.4678468 15.0833333,12.7655782 14.25,12.7870241 C13.4373333,12.7870241 12.7916667,13.4252954 12.7916667,14.2763237 Z M20,10.021182 C20,9.1487077 19.3956667,8.53188235 18.5623333,8.53188235 C17.729,8.51043643 17.0413333,9.19159952 17.0413333,10.0000765 C17.0623333,10.8085534 17.729,11.4893761 18.5206667,11.4893761 C19.354,11.510822 20,10.8511048 20,10.021182 Z M12.7916667,5.7449347 C12.7916667,6.57485755 13.4583333,7.23423432 14.271,7.23423432 C15.0836667,7.2127884 15.7503333,6.53196572 15.771,5.7449347 C15.771,4.95756327 15.0833333,4.25563509 14.2916667,4.25563509 C13.4583333,4.23418917 12.7916667,4.89390635 12.7916667,5.7449347 Z M0,10.0000765 C0,10.8299993 0.666666667,11.4893761 1.45833333,11.4893761 C2.29166667,11.4893761 2.95833333,10.7871075 2.95833333,9.97863054 C2.93733333,9.17015361 2.27066667,8.53188235 1.45833333,8.53188235 C0.604,8.53188235 0,9.14904811 0,10.0000765 Z M12.7916667,10.0000765 C12.7916667,10.8085534 13.4583333,11.4893761 14.271,11.4893761 C15.0836667,11.4893761 15.771,10.7871075 15.771,9.97863054 C15.75,9.17015361 15.0833333,8.53188235 14.271,8.53188235 C13.4166667,8.53188235 12.7916667,9.14904811 12.7916667,10.0000765 Z M7.20833333,10.021182 C7.20833333,9.17015361 6.604,8.53188235 5.77066667,8.53188235 C4.91633333,8.51043643 4.24966667,9.14904811 4.229,10.0000765 C4.229,10.7874479 4.93733333,11.4893761 5.75,11.4893761 C6.54166667,11.4893761 7.18766667,10.8296589 7.20833333,10.021182 Z M9.97933333,8.53188235 C9.16666667,8.53188235 8.5,9.19159952 8.521,10.0000765 C8.521,10.8299993 9.18766667,11.4893761 10.0003333,11.4893761 C10.813,11.4893761 11.4796667,10.8296589 11.4796667,10.021182 C11.5006667,9.17015361 10.8336667,8.53188235 9.97966667,8.53188235 L9.97933333,8.53188235 Z M10,2.93654114 C10.8333333,2.93654114 11.4793333,2.27682396 11.4793333,1.44724153 C11.4583333,0.659870096 10.771,-0.0209525856 10,0.000493328885 C9.20833333,0.000493328885 8.52066667,0.68131601 8.52066667,1.48979294 C8.54166667,2.27716437 9.20833333,2.93654114 10,2.93654114 Z M10,19.9996596 C10.8126667,19.9996596 11.4793333,19.3399424 11.4793333,18.51036 C11.4793333,17.7229885 10.8126667,17.0636118 10,17.0636118 C9.20833333,17.0421659 8.52066667,17.7444345 8.52066667,18.5318059 C8.52066667,19.3402828 9.18733333,19.9785541 10,20 L10,19.9996596 Z M11.4793333,14.2552182 C11.4793333,13.4678468 10.8126667,12.7870241 10,12.7870241 C9.229,12.7870241 8.54166667,13.4678468 8.52066667,14.2552182 C8.52066667,15.0425896 9.20833333,15.7445178 10.0206667,15.7445178 C10.8123333,15.7230719 11.479,15.0636952 11.479,14.2552182 L11.4793333,14.2552182 Z M4.29166667,14.2763237 C4.29166667,15.1062466 4.91666667,15.7445178 5.72933333,15.7445178 C6.542,15.7445178 7.18766667,15.0848007 7.18766667,14.2763237 C7.18766667,13.4678468 6.54166667,12.7870241 5.75,12.7870241 C4.89566667,12.7870241 4.29166667,13.4252954 4.29166667,14.2763237 Z M10,4.27674059 C9.16666667,4.2981865 8.54166667,4.91501185 8.52066667,5.72348879 C8.52066667,6.53196572 9.16666667,7.1916829 9.979,7.1916829 C10.8333333,7.1916829 11.479,6.55341164 11.479,5.72348879 C11.458,4.91501185 10.8123333,4.27674059 9.99966667,4.27674059 L10,4.27674059 Z M5.75,7.1916829 C6.58333333,7.1916829 7.18766667,6.57451714 7.18766667,5.72348879 C7.18766667,4.89356594 6.58333333,4.29784609 5.75,4.27674059 C4.91666667,4.27674059 4.229,4.95756327 4.25,5.7449347 C4.271,6.55341164 4.93766667,7.1916829 5.75,7.1916829 Z" id="Shape" fill="#000000"></path>
    </g>
</svg>