<?xml version="1.0" encoding="UTF-8"?>
<svg width="20px" height="20px" viewBox="0 0 20 20" version="1.1" xmlns="http://www.w3.org/2000/svg" xmlns:xlink="http://www.w3.org/1999/xlink">
    <!-- Generator: Sketch 54.1 (76490) - https://sketchapp.com -->
    <title>icon/brands/brand-apple</title>
    <desc>Created with Sketch.</desc>
    <g id="icon/brands/brand-apple" stroke="none" stroke-width="1" fill="none" fill-rule="evenodd">
        <g id="apple" transform="translate(2.500000, 0.000000)" fill="#000000" fill-rule="nonzero">
            <path d="M3.8085,18.8846154 C3.45375,18.6415385 3.13875,18.3438462 2.8755,18 C2.58825,17.6438462 2.322,17.2692308 2.0775,16.8815385 C1.503,16.02 1.05375,15.0776923 0.7425,14.0846154 C0.3675,12.9292308 0.18525,11.8230769 0.18525,10.7407692 C0.18525,9.53307692 0.44025,8.47923077 0.93675,7.59461538 C1.30425,6.90230769 1.85175,6.32307692 2.51175,5.91615385 C3.14925,5.50846154 3.89175,5.28538462 4.64175,5.27 C4.90425,5.27 5.18925,5.30846154 5.48925,5.38538462 C5.70675,5.44692308 5.96925,5.54692308 6.29175,5.67 C6.70425,5.83153846 6.92925,5.93153846 7.00425,5.95461538 C7.24425,6.04692308 7.44675,6.08538462 7.60425,6.08538462 C7.72425,6.08538462 7.89675,6.04692308 8.088,5.98538462 C8.19675,5.94692308 8.403,5.87769231 8.6955,5.74692308 C8.985,5.63923077 9.2145,5.54692308 9.39675,5.47769231 C9.67425,5.39307692 9.94275,5.31615385 10.18425,5.27769231 C10.47675,5.23153846 10.767,5.21615385 11.04525,5.23923077 C11.57775,5.27769231 12.06525,5.39307692 12.50025,5.56230769 C13.26525,5.87769231 13.8825,6.37 14.343,7.07 C14.148,7.19307692 13.968,7.33615385 13.79925,7.49307692 C13.434,7.82384615 13.12425,8.21615385 12.87675,8.65076923 C12.55425,9.24307692 12.38925,9.91230769 12.39375,10.5892308 C12.405,11.4223077 12.61125,12.1546154 13.02375,12.7892308 C13.314,13.2507692 13.70175,13.6461538 14.17425,13.9707692 C14.40675,14.1323077 14.61075,14.2438462 14.80425,14.3169231 C14.71425,14.6053846 14.61525,14.8861538 14.5005,15.1630769 C14.24025,15.7838462 13.9305,16.3784615 13.563,16.94 C13.239,17.4246154 12.984,17.7861538 12.7905,18.0246154 C12.489,18.3938462 12.198,18.6707692 11.9055,18.8684615 C11.583,19.0876923 11.20425,19.2038462 10.8165,19.2038462 C10.554,19.2153846 10.2915,19.1807692 10.041,19.1061538 C9.8235,19.0330769 9.609,18.9507692 9.399,18.8576923 C9.17925,18.7546154 8.952,18.6669231 8.72025,18.5961538 C8.43525,18.5192308 8.14275,18.4823077 7.84725,18.4830769 C7.54725,18.4830769 7.25475,18.5215385 6.97725,18.5946154 C6.74475,18.6623077 6.51975,18.7453846 6.297,18.8446154 C5.982,18.9792308 5.77575,19.0676923 5.65575,19.1061538 C5.41275,19.18 5.16375,19.2246154 4.91325,19.2407692 C4.52325,19.2407692 4.16025,19.1253846 3.79875,18.8946154 L3.8085,18.8846154 Z M8.949,4.68461538 C8.439,4.94615385 7.9545,5.05692308 7.46925,5.02 C7.39425,4.52307692 7.46925,4.01230769 7.67175,3.45307692 C7.85175,2.97615385 8.09175,2.54538462 8.42175,2.16076923 C8.76675,1.76076923 9.17925,1.43 9.64425,1.19153846 C10.13925,0.93 10.61175,0.791538462 11.06175,0.768461538 C11.12175,1.29153846 11.06175,1.80692308 10.87425,2.36076923 C10.70325,2.85307692 10.44825,3.30692308 10.12425,3.71461538 C9.798,4.11461538 9.393,4.44538462 8.93475,4.68384615 L8.949,4.68461538 Z" id="Shape"></path>
        </g>
    </g>
</svg>