<?xml version="1.0" encoding="UTF-8"?>
<svg width="20px" height="20px" viewBox="0 0 20 20" version="1.1" xmlns="http://www.w3.org/2000/svg" xmlns:xlink="http://www.w3.org/1999/xlink">
    <!-- Generator: Sketch 52.3 (67297) - http://www.bohemiancoding.com/sketch -->
    <title>icon/brands/brand-salesforce</title>
    <desc>Created with Sketch.</desc>
    <g id="icon/brands/brand-salesforce" stroke="none" stroke-width="1" fill="none" fill-rule="evenodd">
        <path d="M8.33798592,4.51259004 C8.96295988,3.84921722 9.87542186,3.42419192 10.8762135,3.42419192 C12.1761593,3.42419192 13.3377776,4.17423656 13.9502521,5.2618013 C14.4752302,5.01178642 15.0752052,4.88677897 15.7010125,4.88677897 C18.0750802,4.88677897 20,6.83689505 20,9.23703792 C20,11.6371808 18.0742469,13.5872969 15.6868464,13.5872969 C15.3993584,13.5872969 15.1127036,13.550628 14.8368818,13.500625 C14.2994042,14.4756831 13.2744469,15.1257218 12.0869964,15.1257218 C11.5870172,15.1257218 11.1245365,15.0007143 10.7120537,14.8132032 C10.1629099,16.1016132 8.887963,17 7.39969168,17 C5.85058956,17 4.52481147,16.0257753 4.0248323,14.6506935 C3.79984167,14.7015299 3.57485105,14.7131972 3.33736094,14.7131972 C1.5007708,14.7131972 0,13.2131079 0,11.3379963 C0,10.0879219 0.675805175,9.00035716 1.67493021,8.41282219 C1.46243907,7.93779392 1.34994375,7.41276266 1.34994375,6.87439729 C1.34994375,4.7242693 3.09987084,3 5.2247823,3 C6.49972918,3 7.59968335,3.58670159 8.32465314,4.50008929" id="Path" fill="#000000"></path>
    </g>
</svg>