<?xml version="1.0" encoding="UTF-8"?>
<svg width="20px" height="20px" viewBox="0 0 20 20" version="1.1" xmlns="http://www.w3.org/2000/svg" xmlns:xlink="http://www.w3.org/1999/xlink">
    <!-- Generator: Sketch 52.3 (67297) - http://www.bohemiancoding.com/sketch -->
    <title>icon/brands/brand-github</title>
    <desc>Created with Sketch.</desc>
    <g id="icon/brands/brand-github" stroke="none" stroke-width="1" fill="none" fill-rule="evenodd">
        <path d="M10,0 C4.475,0 0,4.59118253 0,10.2538973 C0,14.7852655 2.865,18.6279135 6.8375,19.9822824 C7.3375,20.07884 7.52083333,19.7618236 7.52083333,19.4892409 C7.52083333,19.2457108 7.5125,18.6005698 7.50833333,17.7460783 C4.72666667,18.3647301 4.14,16.3703471 4.14,16.3703471 C3.685,15.1868764 3.0275,14.8707146 3.0275,14.8707146 C2.12166667,14.234973 3.0975,14.2477904 3.0975,14.2477904 C4.10166667,14.3195676 4.62916667,15.3039418 4.62916667,15.3039418 C5.52083333,16.8719336 6.97,16.4190531 7.54166667,16.1567242 C7.63166667,15.4936389 7.88916667,15.0416129 8.175,14.7852655 C5.95416667,14.528918 3.62,13.6470829 3.62,9.7181312 C3.62,8.59874741 4.0075,7.68444156 4.64916667,6.96666875 C4.53666667,6.70775784 4.19916667,5.66527828 4.73666667,4.25280392 C4.73666667,4.25280392 5.57416667,3.97765768 7.48666667,5.3038284 C8.28666667,5.07567918 9.13666667,4.96288631 9.98666667,4.95775936 C10.8366667,4.96288631 11.6866667,5.07567918 12.4866667,5.3038284 C14.3866667,3.97765768 15.2241667,4.25280392 15.2241667,4.25280392 C15.7616667,5.66527828 15.4241667,6.70775784 15.3241667,6.96666875 C15.9616667,7.68444156 16.3491667,8.59874741 16.3491667,9.7181312 C16.3491667,13.6573368 14.0116667,14.5246456 11.7866667,14.7767206 C12.1366667,15.0843375 12.4616667,15.7132432 12.4616667,16.6736916 C12.4616667,18.0460048 12.4491667,19.1482988 12.4491667,19.4815505 C12.4491667,19.7507153 12.6241667,20.0711495 13.1366667,19.9686106 C17.1375,18.623641 20,14.7784295 20,10.2538973 C20,4.59118253 15.5225,5.21771842e-16 10,5.21771842e-16" id="Path" fill="#000000"></path>
    </g>
</svg>