<?xml version="1.0" encoding="UTF-8"?>
<svg width="20px" height="20px" viewBox="0 0 20 20" version="1.1" xmlns="http://www.w3.org/2000/svg" xmlns:xlink="http://www.w3.org/1999/xlink">
    <!-- Generator: Sketch 52.3 (67297) - http://www.bohemiancoding.com/sketch -->
    <title>icon/brands/wordpress</title>
    <desc>Created with Sketch.</desc>
    <g id="icon/brands/wordpress" stroke="none" stroke-width="1" fill="none" fill-rule="evenodd">
        <path d="M17.8908333,5.6875 C18.5908333,6.96833333 18.9891667,8.4375 18.9891667,10 C18.9891667,13.3158333 17.1925,16.2133333 14.52,17.7708333 L17.2658333,9.83166667 C17.7783333,8.54833333 17.9491667,7.5225 17.9491667,6.61166667 C17.9491667,6.27416667 17.9275,5.96166667 17.8908333,5.68666667 L17.8908333,5.6875 Z M11.24,5.77416667 C11.7791667,5.74916667 12.2666667,5.68666667 12.2666667,5.68666667 C12.7516667,5.62416667 12.695,4.91166667 12.2108333,4.9375 C12.2108333,4.9375 10.7483333,5.05 9.81083333,5.05 C8.92416667,5.05 7.43583333,4.925 7.43583333,4.925 C6.94833333,4.9 6.885,5.6375 7.37333333,5.6625 C7.37333333,5.6625 7.82333333,5.71333333 8.31083333,5.7375 L9.71083333,9.575 L7.73583333,15.475 L4.46166667,5.75 C5.0025,5.725 5.49,5.66666667 5.49,5.66666667 C5.9775,5.60416667 5.92,4.89166667 5.43583333,4.92 C5.43583333,4.92 3.98083333,5.035 3.04083333,5.035 C2.87416667,5.035 2.67583333,5.02833333 2.46583333,5.0225 C4.0925,2.625 6.8625,1.0125 10,1.0125 C12.3408333,1.0125 14.4708333,1.90583333 16.0716667,3.37333333 C16.0333333,3.37083333 15.9958333,3.36583333 15.9541667,3.36583333 C15.0708333,3.36583333 14.4441667,4.135 14.4441667,4.96083333 C14.4441667,5.7025 14.8716667,6.33 15.3275,7.07 C15.67,7.67 16.0691667,8.43916667 16.0691667,9.55083333 C16.0691667,10.3133333 15.7741667,11.2125 15.385,12.45 L14.4891667,15.4375 L11.2391667,5.7625 L11.24,5.77416667 Z M10,18.9866667 C9.1175,18.9866667 8.26583333,18.8591667 7.46,18.6225 L10.1575,10.7841667 L12.92,18.3566667 C12.94,18.4008333 12.9616667,18.4408333 12.985,18.4808333 C12.0516667,18.8083333 11.0475,18.9883333 10,18.9883333 L10,18.9866667 Z M1.00916667,10 C1.00916667,8.69666667 1.28916667,7.45833333 1.78833333,6.34166667 L6.075,18.0908333 C3.07833333,16.6333333 1.01,13.5591667 1.00916667,10 Z M10,0 C4.4875,0 0,4.4875 0,10 C0,15.5125 4.4875,20 10,20 C15.5125,20 20,15.5125 20,10 C20,4.4875 15.5125,0 10,0 Z" id="Shape" fill="#000000" fill-rule="nonzero"></path>
    </g>
</svg>