<?xml version="1.0" encoding="UTF-8"?>
<svg width="20px" height="20px" viewBox="0 0 20 20" version="1.1" xmlns="http://www.w3.org/2000/svg" xmlns:xlink="http://www.w3.org/1999/xlink">
    <!-- Generator: Sketch 52.3 (67297) - http://www.bohemiancoding.com/sketch -->
    <title>icon/brands/twitter</title>
    <desc>Created with Sketch.</desc>
    <g id="icon/brands/twitter" stroke="none" stroke-width="1" fill="none" fill-rule="evenodd">
        <path d="M0,16.2030562 C1.93648335,17.4062686 4.03169484,18 6.28563447,18 C7.74593338,18 9.12699521,17.7812568 10.3968204,17.328021 C11.6666455,16.8747852 12.7619967,16.2655542 13.6666201,15.4998281 C14.5872433,14.7186025 15.3651382,13.8436299 16.0157966,12.8591607 C16.666455,11.8746914 17.1586393,10.8434736 17.4760955,9.74975782 C17.7935518,8.67154151 17.9682798,7.5935752 17.9682798,6.5153589 L17.9682798,5.9841255 C18.7936661,5.39039405 19.4763241,4.68716603 20,3.89044092 C19.2221051,4.21868067 18.4444642,4.43742383 17.6508235,4.5311709 C18.5397011,4.01543702 19.142868,3.26546045 19.4445785,2.29674073 C18.6509378,2.76547608 17.777806,3.09371582 16.8414369,3.28120996 C16.0317964,2.43748633 15.0319361,2 13.841348,2 C12.7142512,2 11.7461366,2.40623731 10.936496,3.18746289 C10.1428553,3.98443799 9.73016216,4.92190869 9.73016216,6.03112403 C9.73016216,6.29686572 9.77790758,6.60935596 9.85714467,6.96859473 C8.17462635,6.87484766 6.60309075,6.46861036 5.12704601,5.71863379 C3.66674709,4.98415675 2.41266778,3.98418799 1.39680766,2.73422706 C1.01586012,3.37495703 0.825386344,4.04668604 0.825386344,4.76541358 C0.825386344,5.4686416 1.00011428,6.10912159 1.31757057,6.70285304 C1.65102665,7.29658448 2.09546545,7.76531983 2.66688677,8.14030812 C2.00022857,8.12455861 1.365316,7.95281397 0.793894681,7.64032374 L0.793894681,7.68732227 C0.793894681,8.656042 1.11135097,9.51551514 1.73051771,10.2497422 C2.34968445,10.9997188 3.14332516,11.4529546 4.09569402,11.6404487 C3.74649211,11.7341958 3.3812904,11.7811943 3.00034285,11.7811943 C2.7146322,11.7811943 2.46066717,11.7654448 2.23844777,11.7186963 C2.50841259,12.5311709 2.98459702,13.1874004 3.68300085,13.7186338 C4.39740448,14.2343677 5.19104519,14.4998594 6.07992279,14.5156089 C4.58787825,15.6718228 2.88936014,16.2500547 0.968876586,16.2500547 C0.651420299,16.2500547 0.317964216,16.2343052 0.000507930058,16.2030562 L0,16.2030562 Z" id="Shape" fill="#000000"></path>
    </g>
</svg>