<?xml version="1.0" encoding="UTF-8"?>
<svg width="20px" height="20px" viewBox="0 0 20 20" version="1.1" xmlns="http://www.w3.org/2000/svg" xmlns:xlink="http://www.w3.org/1999/xlink">
    <!-- Generator: Sketch 52.3 (67297) - http://www.bohemiancoding.com/sketch -->
    <title>icon/brands/brand-shopify</title>
    <desc>Created with Sketch.</desc>
    <g id="icon/brands/brand-shopify" stroke="none" stroke-width="1" fill="none" fill-rule="evenodd">
        <path d="M12.845629,19.9825 L19,18.6816667 C19,18.6816667 16.7791045,4.00416667 16.761194,3.90666667 C16.7458422,3.81 16.6639659,3.74666667 16.5812367,3.74666667 C16.4985075,3.74666667 14.9360341,3.63333333 14.9360341,3.63333333 C14.9360341,3.63333333 13.8486141,2.57166667 13.708742,2.4575 C13.6703625,2.42666667 13.6447761,2.41 13.6055437,2.39583333 L12.8260128,19.9825 L12.845629,19.9825 Z M9.75223881,9.42083333 C9.75223881,9.42083333 9.06140725,9.0675 8.23923241,9.0675 C7.00511727,9.0675 6.9565032,9.8225 6.9565032,10.0183333 C6.9565032,11.045 9.71982942,11.4475 9.71982942,13.8758333 C9.71982942,15.7883333 8.49168443,17.0091667 6.81492537,17.0091667 C4.80724947,17.0091667 3.79573561,15.7883333 3.79573561,15.7883333 L4.3466951,14.05 C4.3466951,14.05 5.40852878,14.9383333 6.291258,14.9383333 C6.86695096,14.9383333 7.1228145,14.4841667 7.1228145,14.1616667 C7.1228145,12.8125 4.85927505,12.75 4.85927505,10.5291667 C4.83027719,8.665 6.19914712,6.84916667 8.9761194,6.84916667 C10.0481876,6.84916667 10.5752665,7.15 10.5752665,7.15 L9.76929638,9.4125 L9.75223881,9.42083333 Z M9.29168443,0.691666667 C9.40767591,0.691666667 9.5228145,0.723333333 9.63710021,0.804166667 C8.7978678,1.19166667 7.87675906,2.17 7.49808102,4.13083333 C6.93859275,4.30833333 6.39530917,4.46833333 5.8869936,4.6125 C6.32963753,3.125 7.39914712,0.7 9.29168443,0.7 L9.29168443,0.691666667 Z M10.3449893,3.14916667 L10.3449893,3.26166667 C9.70191898,3.455 8.99488273,3.665 8.30319829,3.875 C8.70063966,2.39416667 9.44008529,1.67083333 10.0814499,1.39916667 C10.2460554,1.81666667 10.3449893,2.37916667 10.3449893,3.14916667 Z M10.8046908,1.2875 C11.3965885,1.34916667 11.7778252,2.01 12.0234542,2.75 C11.7257996,2.845 11.3965885,2.9425 11.0358209,3.055 L11.0358209,2.845 C11.0358209,2.21833333 10.9539446,1.7025 10.8046908,1.28583333 L10.8046908,1.2875 Z M13.3565032,2.36166667 C13.3394456,2.36166667 13.3053305,2.37916667 13.2899787,2.37916667 C13.2746269,2.37916667 13.0434968,2.44166667 12.6810235,2.55416667 C12.3202559,1.52666667 11.6780384,0.579166667 10.5420043,0.579166667 L10.4439232,0.579166667 C10.1147122,0.174166667 9.71727079,0 9.37270789,0 C6.72366738,0 5.45799574,3.23083333 5.06140725,4.87166667 C4.04307036,5.17583333 3.30191898,5.40166667 3.21918977,5.43333333 C2.6434968,5.61083333 2.62729211,5.62666667 2.56076759,6.15833333 C2.49680171,6.54333333 1,17.8775 1,17.8775 L12.5658849,20 L13.3565032,2.36166667 Z" id="Shape" fill="#000000"></path>
    </g>
</svg>