<?xml version="1.0" encoding="UTF-8"?>
<svg width="20px" height="20px" viewBox="0 0 20 20" version="1.1" xmlns="http://www.w3.org/2000/svg" xmlns:xlink="http://www.w3.org/1999/xlink">
    <!-- Generator: Sketch 52.5 (67469) - http://www.bohemiancoding.com/sketch -->
    <title>icon/application-check</title>
    <desc>Created with Sketch.</desc>
    <g id="icon/application-check" stroke="none" stroke-width="1" fill="none" fill-rule="evenodd">
        <path d="M17.8483347,18.6541567 L2.30511499,18.6541567 C1.99869151,18.6541567 1.75,18.405728 1.75,18.0990089 L1.75,2.55514781 C1.75,2.24870622 1.99869151,2 2.30511499,2 L17.8483347,2 C18.1547581,2 18.4034496,2.24870622 18.4034496,2.55514781 L18.4034496,18.0990089 C18.4034496,18.4060056 18.1547581,18.6541567 17.8483347,18.6541567 L17.8483347,18.6541567 Z M17.2929421,3.665721 C17.2929421,3.35872426 17.0442506,3.10974047 16.7378271,3.10974047 L3.41506741,3.10974047 C3.10836638,3.10974047 2.85995242,3.35844669 2.85995242,3.665721 L2.85995242,6.44173761 L17.2929421,6.44173761 L17.2929421,3.665721 L17.2929421,3.665721 Z M17.2929421,7.55147808 L2.85995242,7.55147808 L2.85995242,16.9884357 C2.85995242,17.2954324 3.10864393,17.5446938 3.41506741,17.5446938 L16.7378271,17.5446938 C17.0442506,17.5446938 17.2929421,17.29571 17.2929421,16.9884357 L17.2929421,7.55147808 L17.2929421,7.55147808 Z M9.2443299,15.3166081 L9.24127676,15.3196614 L6.19536082,12.828158 L7.02664552,11.9976569 L9.16134021,13.742764 L13.1273592,9.77678807 L13.9586439,10.6083995 L9.24738303,15.3191062 L9.2443299,15.3166081 L9.2443299,15.3166081 Z M5.08041237,5.33088685 L3.97018239,5.33088685 L3.97018239,4.22059123 L5.08041237,4.22059123 L5.08041237,5.33088685 L5.08041237,5.33088685 Z M7.30087232,5.33088685 L6.19064235,5.33088685 L6.19064235,4.22059123 L7.30087232,4.22059123 L7.30087232,5.33088685 L7.30087232,5.33088685 Z M9.52160983,5.33088685 L8.41137986,5.33088685 L8.41137986,4.22059123 L9.52160983,4.22059123 L9.52160983,5.33088685 L9.52160983,5.33088685 Z" id="Shape" fill="#000000"></path>
    </g>
</svg>