<?xml version="1.0" encoding="UTF-8"?>
<svg width="20px" height="20px" viewBox="0 0 20 20" version="1.1" xmlns="http://www.w3.org/2000/svg" xmlns:xlink="http://www.w3.org/1999/xlink">
    <!-- Generator: Sketch 52.5 (67469) - http://www.bohemiancoding.com/sketch -->
    <title>icon/chart-line</title>
    <desc>Created with Sketch.</desc>
    <g id="icon/chart-line" stroke="none" stroke-width="1" fill="none" fill-rule="evenodd">
        <path d="M17.6534496,18.7650074 L2.11022998,18.7650074 C1.49710547,18.7650074 1,18.2681502 1,17.6547118 L1,2.11057319 C1,1.49657971 1.49710547,1 2.11022998,1 L17.6534496,1 C18.2665741,1 18.7636796,1.49657971 18.7636796,2.11057319 L18.7636796,17.6547118 C18.7636796,18.2681502 18.2662966,18.7650074 17.6534496,18.7650074 L17.6534496,18.7650074 Z M2.11022998,17.099564 C2.11022998,17.4060056 2.35892149,17.6547118 2.66534496,17.6547118 L17.0983347,17.6547118 C17.4047581,17.6547118 17.6534496,17.4060056 17.6534496,17.099564 L17.6534496,5.14390082 L11.5244251,11.2732878 L11.5419112,11.2849459 L10.7292228,12.0982374 L10.7117367,12.0863017 L10.6998017,12.0982374 L10.6362411,12.034673 L6.38350515,9.12264516 L2.11022998,12.9467808 L2.11022998,17.099564 L2.11022998,17.099564 Z M17.0983347,2.11057319 L2.66534496,2.11057319 C2.35892149,2.11057319 2.11022998,2.35927941 2.11022998,2.66544343 L2.11022998,11.4065232 L6.01074544,7.91547625 L6.2591594,7.66677003 L6.27581285,7.67815056 L6.28830293,7.66677003 L6.3518636,7.73033445 L10.5599128,10.6123843 L17.6537272,3.51815046 L17.6537272,2.66516585 C17.6534496,2.35927941 17.4047581,2.11057319 17.0983347,2.11057319 L17.0983347,2.11057319 Z" id="Shape" fill="#000000"></path>
    </g>
</svg>