<?xml version="1.0" encoding="UTF-8"?>
<svg width="20px" height="20px" viewBox="0 0 20 20" version="1.1" xmlns="http://www.w3.org/2000/svg" xmlns:xlink="http://www.w3.org/1999/xlink">
    <!-- Generator: Sketch 52.5 (67469) - http://www.bohemiancoding.com/sketch -->
    <title>icon/medal</title>
    <desc>Created with Sketch.</desc>
    <g id="icon/medal" stroke="none" stroke-width="1" fill="none" fill-rule="evenodd">
        <path d="M16.2175258,12.660047 C16.2175258,16.0309045 13.4824742,18.7636196 10.1090404,18.7636196 C6.73477399,18.7636196 4,16.0306269 4,12.660047 C4,10.9185483 4.73885805,9.35636239 5.90987312,8.24440133 L5.10273592,1 L15.1231166,1 L14.3154243,8.25050795 C15.482276,9.36219144 16.2175258,10.9218792 16.2175258,12.660047 L16.2175258,12.660047 Z M8.44147502,2.11057319 L6.21629659,2.11057319 L6.98013481,7.44332304 C7.43421887,7.17074546 7.92383029,6.95173965 8.44147502,6.79907401 L8.44147502,2.11057319 L8.44147502,2.11057319 Z M9.55475813,2.11057319 L9.55475813,6.59588991 C9.73850119,6.57840275 9.92057891,6.55591927 10.109318,6.55591927 C10.2886201,6.55591927 10.461816,6.57812518 10.6366772,6.59422446 L10.6366772,2.11057319 L9.55475813,2.11057319 L9.55475813,2.11057319 Z M11.7499603,2.11057319 L11.7499603,6.79074679 C12.2803727,6.94452273 12.781364,7.16741458 13.2454401,7.4469315 L14.010111,2.11029562 L11.7499603,2.11029562 L11.7499603,2.11057319 Z M10.1090404,7.67093364 C7.35622522,7.67093364 5.11605868,9.9092896 5.11605868,12.660047 C5.11605868,15.4102492 7.35622522,17.6483276 10.1090404,17.6483276 C12.8618557,17.6483276 15.1014671,15.4102492 15.1014671,12.660047 C15.1014671,9.90956718 12.8618557,7.67093364 10.1090404,7.67093364 L10.1090404,7.67093364 Z" id="Shape" fill="#000000"></path>
    </g>
</svg>