<?xml version="1.0" encoding="UTF-8"?>
<svg width="20px" height="20px" viewBox="0 0 20 20" version="1.1" xmlns="http://www.w3.org/2000/svg" xmlns:xlink="http://www.w3.org/1999/xlink">
    <!-- Generator: Sketch 52.3 (67297) - http://www.bohemiancoding.com/sketch -->
    <title>icon/search</title>
    <desc>Created with Sketch.</desc>
    <g id="icon/search" stroke="none" stroke-width="1" fill="none" fill-rule="evenodd">
        <path d="M18.6046392,18.6062352 C18.398414,18.8127502 18.0639572,18.8127502 17.8574544,18.6062352 L12.909437,13.6579252 C11.644885,14.7499009 10.017843,15.4335654 8.21621729,15.4335654 C4.23104679,15.4335654 1,12.2026052 1,8.21664393 C1,4.2304051 4.23104679,1 8.21621729,1 C12.2016653,1 15.4327121,4.2304051 15.4327121,8.21664393 C15.4327121,10.0186537 14.7488105,11.6455144 13.6571768,12.9104187 L18.6049167,17.8584511 C18.8108644,18.0649661 18.8108644,18.3994426 18.6046392,18.6062352 L18.6046392,18.6062352 Z M14.3222046,8.21664393 C14.3222046,4.84467615 11.5882633,2.11001804 8.21593973,2.11001804 C4.84389374,2.11001804 2.10995242,4.84467615 2.10995242,8.21664393 C2.10995242,11.5894444 4.84389374,14.323825 8.21593973,14.323825 C11.5882633,14.323825 14.3222046,11.589722 14.3222046,8.21664393 L14.3222046,8.21664393 Z" id="Shape" fill="#000000"></path>
    </g>
</svg>