<?xml version="1.0" encoding="UTF-8"?>
<svg width="20px" height="20px" viewBox="0 0 20 20" version="1.1" xmlns="http://www.w3.org/2000/svg" xmlns:xlink="http://www.w3.org/1999/xlink">
    <!-- Generator: Sketch 52.5 (67469) - http://www.bohemiancoding.com/sketch -->
    <title>icon/folder-check</title>
    <desc>Created with Sketch.</desc>
    <g id="icon/folder-check" stroke="none" stroke-width="1" fill="none" fill-rule="evenodd">
        <path d="M17.6534496,18.7644523 L2.11022998,18.7644523 C1.49710547,18.7644523 1,18.2673174 1,17.6541567 L1,6.55120051 L1,5.44090489 L1,4.33060928 L1,2.11029562 C1,1.49741244 1.49710547,1 2.11022998,1 L7.66137986,1 C8.27450436,1 8.77160983,1.49741244 8.77160983,2.11029562 L8.77160983,3.22003609 L17.6534496,3.22003609 C18.2662966,3.22003609 18.7636796,3.71744852 18.7636796,4.33060928 L18.7636796,6.55120051 L18.7636796,17.6541567 C18.7634021,18.2673174 18.2662966,18.7644523 17.6534496,18.7644523 L17.6534496,18.7644523 Z M17.0983347,4.33060928 L15.9881047,4.33060928 L7.66137986,4.33060928 L7.66137986,3.77546147 L7.66137986,3.22031366 L7.66137986,2.66516585 C7.66137986,2.35927941 7.41268834,2.11029562 7.10626487,2.11029562 L2.66534496,2.11029562 C2.35892149,2.11029562 2.11022998,2.35927941 2.11022998,2.66516585 L2.11022998,3.22031366 L2.11022998,3.77546147 L2.11022998,4.33060928 L2.11022998,5.44090489 L15.9881047,5.44090489 L17.0983347,5.44090489 C17.4047581,5.44090489 17.6534496,5.19247625 17.6534496,4.88547951 C17.6534496,4.57903792 17.4047581,4.33060928 17.0983347,4.33060928 L17.0983347,4.33060928 Z M17.6534496,7.66149613 L17.6534496,7.10662589 L17.6534496,6.55120051 L17.0983347,6.55120051 L2.66534496,6.55120051 L2.11022998,6.55120051 L2.11022998,7.10662589 L2.11022998,7.66149613 L2.11022998,17.0992864 C2.11022998,17.405728 2.35892149,17.6541567 2.66534496,17.6541567 L17.0983347,17.6541567 C17.4047581,17.6541567 17.6534496,17.405728 17.6534496,17.0992864 L17.6534496,7.66149613 L17.6534496,7.66149613 Z M9.73778747,15.2409292 C9.72918319,15.2509218 9.73279144,15.2656332 9.72335448,15.2750707 C9.61344171,15.3855452 9.46911182,15.4291243 9.32478192,15.4230176 C9.18128469,15.4230176 9.03750991,15.3688907 8.92815226,15.2589715 C8.92038065,15.2511994 8.92371134,15.2387086 8.91649485,15.2309365 L5.59857256,12.4590835 C5.39040444,12.2509031 5.39040444,11.9139283 5.59857256,11.7057479 C5.80674068,11.4972899 6.14397304,11.4972899 6.35214116,11.7057479 L9.26066614,14.1353523 L14.4668121,8.92889857 C14.6852498,8.70989276 15.0394132,8.70989276 15.2581285,8.92889857 C15.4768438,9.14707166 15.4768438,9.50208869 15.2581285,9.71970663 L9.73778747,15.2409292 L9.73778747,15.2409292 Z" id="Shape" fill="#000000"></path>
    </g>
</svg>