<?xml version="1.0" encoding="UTF-8"?>
<svg width="20px" height="20px" viewBox="0 0 20 20" version="1.1"
  xmlns="http://www.w3.org/2000/svg"
  xmlns:xlink="http://www.w3.org/1999/xlink">
  <!-- Generator: Sketch 57.1 (83088) - https://sketch.com -->
  <title>icon/flow</title>
  <desc>Created with Sketch.</desc>
  <g id="icon/flow" stroke="none" stroke-width="1" fill="none" fill-rule="evenodd">
    <path d="M6.6,12.6288 C6.90375661,12.6288 7.15,12.8750434 7.15,13.1788 L7.15,13.1788 L7.15,17.1788 C7.15,17.4825566 6.90375661,17.7288 6.6,17.7288 L6.6,17.7288 L2.6,17.7288 C2.29624339,17.7288 2.05,17.4825566 2.05,17.1788 L2.05,17.1788 L2.05,13.1788 C2.05,12.8750434 2.29624339,12.6288 2.6,12.6288 L2.6,12.6288 Z M6.05,13.7288 L3.15,13.7288 L3.15,16.6288 L6.05,16.6288 L6.05,13.7288 Z M7.18964,3.829632 C8.96725266,3.829632 10.4195111,5.22263116 10.5143532,6.97657617 L10.51928,7.159264 L10.51928,13.04952 C10.51928,14.2616814 11.5020026,15.2444 12.714168,15.2444 C13.8736858,15.2444 14.8231656,14.3452978 14.9035372,13.2061975 L14.909048,13.04944 L14.909048,8.856 L16.009048,8.856 L16.009048,13.04944 C16.009048,14.8692069 14.5339143,16.3444 12.714168,16.3444 C10.9572379,16.3444 9.52142824,14.9691797 9.42449598,13.2364871 L9.41928,13.04952 L9.41928,7.159264 C9.41928,5.92787063 8.4210374,4.929632 7.18964,4.929632 C6.01178354,4.929632 5.04724462,5.84295977 4.96559824,7.00004031 L4.96,7.159272 L4.96,11.31912 L3.86,11.31912 L3.86,7.159272 C3.86,5.32036339 5.35073139,3.829632 7.18964,3.829632 Z M13.46,2.450512 L17.46,2.450512 C17.733381,2.450512 17.9601762,2.64996914 18.0028014,2.91129914 L18.01,3.000512 L18.01,7.000512 C18.01,7.27389295 17.8105429,7.50068819 17.5492129,7.54331343 L17.46,7.550512 L13.46,7.550512 C13.186619,7.550512 12.9598238,7.35105486 12.9171986,7.08972486 L12.91,7.000512 L12.91,3.000512 C12.91,2.72713105 13.1094571,2.50033581 13.3707871,2.45771057 L13.46,2.450512 L17.46,2.450512 Z M16.91,3.550512 L14.01,3.550512 L14.01,6.450512 L16.91,6.450512 L16.91,3.550512 Z" id="Flow" fill="#000000"></path>
  </g>
</svg>