<?xml version="1.0" encoding="UTF-8"?>
<svg width="20px" height="20px" viewBox="0 0 20 20" version="1.1" xmlns="http://www.w3.org/2000/svg" xmlns:xlink="http://www.w3.org/1999/xlink">
    <!-- Generator: Sketch 52.5 (67469) - http://www.bohemiancoding.com/sketch -->
    <title>icon/user-cancel</title>
    <desc>Created with Sketch.</desc>
    <g id="icon/user-cancel" stroke="none" stroke-width="1" fill="none" fill-rule="evenodd">
        <path d="M17.2993358,16.5441386 L18.6080193,17.8528996 C18.8161875,18.06108 18.8161875,18.3983323 18.6080193,18.6070679 C18.3998512,18.8146932 18.0626189,18.8146932 17.8544507,18.6070679 L16.5457672,17.2980294 L15.236806,18.6070679 C15.0286379,18.8146932 14.6914055,18.8146932 14.4832374,18.6070679 C14.2750693,18.3983323 14.2750693,18.06108 14.4832374,17.8528996 L15.791921,16.5441386 L14.4832374,15.2353777 C14.2750693,15.0274748 14.2750693,14.6896674 14.4832374,14.481487 C14.6914055,14.2733065 15.0286379,14.2733065 15.236806,14.481487 L16.5457672,15.7905255 L17.8544507,14.481487 C18.0626189,14.2733065 18.3998512,14.2733065 18.6080193,14.481487 C18.8161875,14.6896674 18.8161875,15.0274748 18.6080193,15.2353777 L17.2993358,16.5441386 L17.2993358,16.5441386 Z M11.8181304,12.2850446 C12.3893437,12.4274401 13.2225713,12.6417271 14.0488599,12.8737789 C13.6602795,13.138862 13.3285982,13.4738937 13.0418814,13.8452876 C12.3704698,13.6648645 11.6657513,13.4841639 10.9946173,13.323171 L10.9946173,11.5644628 C12.3868457,10.6168255 13.2117465,8.55833741 13.2117465,6.6874893 C13.2117465,4.15740316 12.5644825,2.10613201 9.32788453,2.10613201 C6.09128659,2.10613201 5.44402252,4.15740316 5.44402252,6.6874893 C5.44402252,8.56000285 6.27003362,10.6201564 7.66392735,11.566961 L7.66392735,13.3395479 C5.56503758,13.8333519 3.12780523,14.5095219 2.56713909,14.8165187 C2.20437145,15.2734053 1.88740079,16.7392731 2.11277747,17.6555445 L12.2616672,17.6555445 C12.364086,18.0502546 12.5195182,18.4199831 12.7196371,18.7636196 L1.50131831,18.7636196 C0.633118471,17.4323751 0.984783816,14.7682208 1.85326122,13.8810946 C2.26682188,13.4586271 5.36686153,12.6592143 6.85096145,12.2953149 C5.28387184,11.0781533 4.32824139,8.8200896 4.32824139,6.6672264 C4.32824139,3.53730306 5.23724218,1 9.32788453,1 C13.4185269,1 14.3275277,3.53730306 14.3275277,6.6672264 C14.3272501,8.81398298 13.3768933,11.0653849 11.8181304,12.2850446 L11.8181304,12.2850446 Z" id="Shape" fill="#000000"></path>
    </g>
</svg>