<?xml version="1.0" encoding="UTF-8" standalone="no"?>
<svg width="64px" height="65px" viewBox="0 0 64 65" version="1.1" xmlns="http://www.w3.org/2000/svg" xmlns:xlink="http://www.w3.org/1999/xlink" xmlns:sketch="http://www.bohemiancoding.com/sketch/ns">
    <!-- Generator: Sketch 3.4 (15588) - http://www.bohemiancoding.com/sketch -->
    <title>github</title>
    <desc>Created with Sketch.</desc>
    <defs></defs>
    <g id="Page-1" stroke="none" stroke-width="1" fill="none" fill-rule="evenodd" sketch:type="MSPage">
        <g id="github" sketch:type="MSLayerGroup" fill="#000000">
            <path d="M8.43769499e-15,32.25 C8.43769499e-15,36.563 0.875,40.75 2.563,44.625 C5.938,52.625 11.563,58.313 19.501,61.75 C23.439,63.438 27.564,64.313 31.939,64.313 C36.314,64.313 40.439,63.438 44.377,61.75 C52.19,58.375 57.877,52.687 61.315,44.625 C63.003,40.625 63.878,36.437 63.878,32.25 C63.878,28 63.003,23.875 61.315,19.812 C57.877,11.812 52.19,6.187 44.377,2.874 C40.439,1.124 36.314,0.311 31.939,0.311 C27.564,0.311 23.439,1.124 19.501,2.874 C11.563,6.249 5.938,11.874 2.563,19.812 C0.875,23.75 0,27.875 0,32.25 L8.43769499e-15,32.25 Z M5,32.25 C5,28.625 5.688,25.125 7.125,21.75 C8.563,18.5 10.5,15.625 12.875,13.187 C15.375,10.749 18.25,8.812 21.438,7.437 C24.938,5.999 28.438,5.312 31.938,5.312 C35.501,5.312 38.938,6 42.376,7.437 C45.689,8.875 48.564,10.75 50.939,13.187 C53.439,15.625 55.314,18.5 56.689,21.75 C58.127,25.125 58.814,28.625 58.814,32.25 C58.814,38.188 57.064,43.563 53.564,48.25 C50.001,53 45.439,56.313 39.939,58.313 L39.939,53.188 C39.939,50.688 39.064,48.813 37.314,47.625 C39.439,47.437 41.377,47 43.127,46.375 C45.252,45.625 46.94,44.562 48.19,43.187 C50.565,40.749 51.69,37.124 51.69,32.374 C51.69,29.186 50.627,26.436 48.502,24.186 C49.44,21.623 49.377,18.936 48.189,15.998 L47.439,15.935 C46.814,15.81 45.876,16.06 44.501,16.56 C43.001,17.123 41.501,17.998 39.813,19.123 C37.188,18.435 34.563,18.06 32.063,18.06 C29.563,18.06 27,18.435 24.375,19.123 C22.312,17.748 20.5,16.81 18.812,16.31 C18.187,16.06 17.624,15.997 17.187,15.997 L15.937,15.997 C14.749,18.935 14.624,21.622 15.624,24.185 C13.499,26.435 12.436,29.185 12.436,32.373 C12.436,38.498 14.374,42.748 18.249,45.123 C19.749,46.061 21.624,46.748 23.812,47.123 C24.937,47.373 25.937,47.561 26.812,47.623 C25.124,48.748 24.249,50.623 24.249,53.186 L24.249,58.311 C18.561,56.311 13.936,52.998 10.374,48.373 C6.811,43.623 4.999,38.248 4.999,32.248 L5,32.25 Z" id="Shape" sketch:type="MSShapeGroup"></path>
        </g>
    </g>
</svg>