<?xml version="1.0" encoding="UTF-8"?>
<svg width="20px" height="20px" viewBox="0 0 20 20" version="1.1" xmlns="http://www.w3.org/2000/svg" xmlns:xlink="http://www.w3.org/1999/xlink">
    <!-- Generator: Sketch 52.5 (67469) - http://www.bohemiancoding.com/sketch -->
    <title>icon/application-cancel</title>
    <desc>Created with Sketch.</desc>
    <g id="icon/application-cancel" stroke="none" stroke-width="1" fill="none" fill-rule="evenodd">
        <path d="M17.8483347,18.6541567 L2.30511499,18.6541567 C1.99869151,18.6541567 1.75,18.405728 1.75,18.0990089 L1.75,2.55514781 C1.75,2.24870622 1.99869151,2 2.30511499,2 L17.8483347,2 C18.1547581,2 18.4034496,2.24870622 18.4034496,2.55514781 L18.4034496,18.0990089 C18.4034496,18.4060056 18.1550357,18.6541567 17.8483347,18.6541567 L17.8483347,18.6541567 Z M17.2934972,3.665721 C17.2934972,3.35872426 17.0448057,3.10974047 16.7383822,3.10974047 L3.41562252,3.10974047 C3.10919905,3.10974047 2.86050753,3.35844669 2.86050753,3.665721 L2.86050753,6.44173761 L17.2934972,6.44173761 L17.2934972,3.665721 L17.2934972,3.665721 Z M17.2934972,7.55147808 L2.86050753,7.55147808 L2.86050753,16.9884357 C2.86050753,17.2954324 3.10919905,17.5446938 3.41562252,17.5446938 L16.7383822,17.5446938 C17.0448057,17.5446938 17.2934972,17.29571 17.2934972,16.9884357 L17.2934972,7.55147808 L17.2934972,7.55147808 Z M12.0171293,15.3193838 L10.0772799,13.3794198 L8.13743061,15.3188286 L7.30586836,14.4883275 L9.24571768,12.5480859 L7.30586836,10.6083995 L8.13715305,9.77678807 L10.0770024,11.7164745 L12.0171293,9.77678807 L12.848414,10.6083995 L10.9085646,12.5480859 L12.848414,14.4883275 L12.0171293,15.3193838 L12.0171293,15.3193838 Z M5.08068993,5.33088685 L3.97045995,5.33088685 L3.97045995,4.22059123 L5.08068993,4.22059123 L5.08068993,5.33088685 L5.08068993,5.33088685 Z M7.30114988,5.33088685 L6.1909199,5.33088685 L6.1909199,4.22059123 L7.30114988,4.22059123 L7.30114988,5.33088685 L7.30114988,5.33088685 Z M9.52188739,5.33088685 L8.41165741,5.33088685 L8.41165741,4.22059123 L9.52188739,4.22059123 L9.52188739,5.33088685 L9.52188739,5.33088685 Z" id="Shape" fill="#000000"></path>
    </g>
</svg>