<?xml version="1.0" encoding="UTF-8"?>
<svg width="20px" height="20px" viewBox="0 0 20 20" version="1.1" xmlns="http://www.w3.org/2000/svg" xmlns:xlink="http://www.w3.org/1999/xlink">
    <!-- Generator: Sketch 51.3 (57544) - http://www.bohemiancoding.com/sketch -->
    <title>buddicons/notes</title>
    <desc>Created with Sketch.</desc>
    <defs>
        <path d="M16.4329897,16.4335654 L5.33068993,16.4335654 C4.71756542,16.4335654 4.22045995,15.9372633 4.22045995,15.3235474 L4.22045995,3.11029562 C4.22045995,2.49685729 4.71756542,2 5.33068993,2 L16.4329897,2 C17.0461142,2 17.5432197,2.49685729 17.5432197,3.11029562 L17.5432197,15.3235474 C17.5432197,15.9375409 17.0461142,16.4335654 16.4329897,16.4335654 L16.4329897,16.4335654 Z M16.4329897,3.665721 C16.4329897,3.35900183 16.1845757,3.11057319 15.8778747,3.11057319 L5.88580492,3.11057319 C5.57938144,3.11057319 5.33068993,3.35900183 5.33068993,3.665721 L5.33068993,14.7686772 C5.33068993,15.0748412 5.57938144,15.323825 5.88580492,15.323825 L15.8778747,15.323825 C16.1845757,15.323825 16.4329897,15.0751188 16.4329897,14.7686772 L16.4329897,3.665721 L16.4329897,3.665721 Z M15.3227597,18.6547118 L3.11022998,18.6547118 C2.49710547,18.6547118 2,18.157577 2,17.5441386 L2,5.33116442 C2,4.71800367 2.49710547,4.22142396 3.11022998,4.22142396 L3.11022998,17.5441386 L16.4329897,17.5441386 C16.4329897,18.157577 15.9358842,18.6547118 15.3227597,18.6547118 Z M14.7676447,13.1032337 L6.99603489,13.1032337 C6.68933386,13.1032337 6.4409199,12.8545275 6.4409199,12.5475308 C6.4409199,12.2410892 6.68961142,11.992383 6.99603489,11.992383 L14.7676447,11.992383 C15.0740682,11.992383 15.3227597,12.2410892 15.3227597,12.5475308 C15.3227597,12.8545275 15.0743458,13.1032337 14.7676447,13.1032337 Z M14.7676447,9.77206932 L6.99603489,9.77206932 C6.68933386,9.77206932 6.4409199,9.5233631 6.4409199,9.21692151 C6.4409199,8.91047992 6.68961142,8.6617737 6.99603489,8.6617737 L14.7676447,8.6617737 C15.0740682,8.6617737 15.3227597,8.91047992 15.3227597,9.21692151 C15.3227597,9.5233631 15.0743458,9.77206932 14.7676447,9.77206932 Z M11.4369548,6.44118247 L6.99603489,6.44118247 C6.68933386,6.44118247 6.4409199,6.19275382 6.4409199,5.88631223 C6.4409199,5.57959307 6.68961142,5.33116442 6.99603489,5.33116442 L11.4369548,5.33116442 C11.7433783,5.33116442 11.9920698,5.57959307 11.9920698,5.88631223 C11.9920698,6.19275382 11.7436558,6.44118247 11.4369548,6.44118247 Z" id="path-1"></path>
    </defs>
    <g id="buddicons/notes" stroke="none" stroke-width="1" fill="none" fill-rule="evenodd">
        <mask id="mask-2" fill="white">
            <use xlink:href="#path-1"></use>
        </mask>
        <use id="Shape" fill="#000000" xlink:href="#path-1"></use>
    </g>
</svg>