<?xml version="1.0" encoding="UTF-8"?>
<svg width="20px" height="20px" viewBox="0 0 20 20" version="1.1" xmlns="http://www.w3.org/2000/svg" xmlns:xlink="http://www.w3.org/1999/xlink">
    <!-- Generator: Sketch 52.5 (67469) - http://www.bohemiancoding.com/sketch -->
    <title>icon/compass</title>
    <desc>Created with Sketch.</desc>
    <g id="icon/compass" stroke="none" stroke-width="1" fill="none" fill-rule="evenodd">
        <path d="M9.88183981,1 C4.97656622,1 1,4.97680133 1,9.88236493 C1,14.7884837 4.97656622,18.7655626 9.88183981,18.7655626 C14.787391,18.7655626 18.7631245,14.7884837 18.7631245,9.88236493 C18.7634021,4.97680133 14.7876685,1 9.88183981,1 L9.88183981,1 Z M9.88183981,17.6544343 C5.58941316,17.6544343 2.11022998,14.1750454 2.11022998,9.88236493 C2.11022998,5.59051723 5.58941316,2.11029562 9.88183981,2.11029562 C14.1734338,2.11029562 17.6528945,5.59051723 17.6528945,9.88236493 C17.6531721,14.1750454 14.1737113,17.6544343 9.88183981,17.6544343 L9.88183981,17.6544343 Z M5.44869151,14.3318746 L11.3592784,11.3721041 L14.3147105,5.44867696 L8.40412371,8.40983537 L5.44869151,14.3318746 L5.44869151,14.3318746 Z M12.4683981,7.30037248 L10.8877082,10.1499462 L9.62176844,8.88365403 L12.4683981,7.30037248 L12.4683981,7.30037248 Z M10.1524584,10.8913461 L7.2961142,12.481567 L8.88180016,9.62227819 L10.1524584,10.8913461 L10.1524584,10.8913461 Z" id="Shape" fill="#000000"></path>
    </g>
</svg>