<?xml version="1.0" encoding="UTF-8"?>
<svg width="20px" height="20px" viewBox="0 0 20 20" version="1.1" xmlns="http://www.w3.org/2000/svg" xmlns:xlink="http://www.w3.org/1999/xlink">
    <!-- Generator: Sketch 54.1 (76490) - https://sketchapp.com -->
    <title>icon/page-check</title>
    <desc>Created with Sketch.</desc>
    <g id="icon/page-check" stroke="none" stroke-width="1" fill="none" fill-rule="evenodd">
        <path d="M17.4329897,5.44312548 L17.4329897,18.2098596 C17.4329897,18.5165788 17.1842982,18.7650074 16.8778747,18.7650074 L3.55511499,18.7650074 C3.24841396,18.7650074 3,18.5165788 3,18.2098596 L3,1.55570296 C3,1.24842864 3.24869151,1 3.55511499,1 L12.9920698,1 L12.9920698,1.00138787 L12.9920698,1.0011103 L17.4316019,5.44146004 L17.4329897,5.44146004 L17.4329897,5.44257034 L17.4329897,5.44312548 L17.4329897,5.44312548 L17.4329897,5.44312548 Z M12.9923473,2.36816177 L12.9923473,5.44146004 L16.0654639,5.44146004 L12.9923473,2.36816177 L12.9923473,2.36816177 Z M16.3230373,6.55175566 L12.9923473,6.55175566 L11.8821174,6.55175566 L11.8821174,5.44146004 L11.8821174,2.11029562 L4.66562252,2.11029562 C4.35919905,2.11029562 4.11050753,2.35872426 4.11050753,2.665721 L4.11050753,17.0990089 C4.11050753,17.4062832 4.35919905,17.6544343 4.66562252,17.6544343 L15.7679223,17.6544343 C16.0743458,17.6544343 16.3230373,17.4062832 16.3230373,17.0990089 L16.3230373,6.55175566 L16.3230373,6.55175566 Z M10.2137193,13.5824251 L9.47486122,14.3213268 L9.41185567,14.2585951 L9.33913561,14.3310419 L8.54421094,13.5357927 L8.61665345,13.4633459 L6.88858049,11.7354483 L7.62743854,10.9959914 L9.3555115,12.7244441 L13.314314,8.76540754 L14.1092387,9.56121193 L10.1509913,13.5196934 L10.2137193,13.5824251 L10.2137193,13.5824251 Z" id="Shape" fill="#000000"></path>
    </g>
</svg>