<?xml version="1.0" encoding="UTF-8"?>
<svg width="20px" height="20px" viewBox="0 0 20 20" version="1.1" xmlns="http://www.w3.org/2000/svg" xmlns:xlink="http://www.w3.org/1999/xlink">
    <!-- Generator: Sketch 52.5 (67469) - http://www.bohemiancoding.com/sketch -->
    <title>icon/wrench</title>
    <desc>Created with Sketch.</desc>
    <g id="icon/wrench" stroke="none" stroke-width="1" fill="none" fill-rule="evenodd">
        <path d="M12.4952121,3.11334893 L11.751358,3.85696942 L11.3297482,4.27860418 L11.4468775,4.86428512 L11.8418418,6.84061131 L11.9870044,7.56813252 L12.7125397,7.7130261 L14.6881939,8.10773619 L15.2685666,8.22348451 L15.6876784,7.80434791 L16.4393041,7.05267778 C16.4345856,8.05943833 16.0443398,9.04815657 15.3077022,9.78511529 C14.5774485,10.5151347 13.6021114,10.9176168 12.5615484,10.9176168 C12.130224,10.9176168 11.7036182,10.8482233 11.2942209,10.7119346 L10.6452914,10.4957045 L10.1612312,10.9797934 L5.03363402,16.1082488 C4.82046987,16.3208704 4.53708366,16.4380066 4.23537867,16.4380066 C3.93367367,16.4380066 3.65028747,16.3208704 3.43767843,16.1085264 C3.22534695,15.8964599 3.1087728,15.615 3.1087728,15.3160529 C3.1087728,15.0162731 3.22534695,14.7348131 3.43740087,14.5230243 L8.56555313,9.39456881 L9.05294409,8.90770418 L8.8347839,8.25318491 C8.35988303,6.82867564 8.71460151,5.29396952 9.76043814,4.24807105 C10.4898592,3.5188844 11.4607554,3.11584709 12.4952121,3.11334893 L12.4952121,3.11334893 Z M12.5071471,2 C11.2292724,2 9.95417328,2.48381131 8.97772601,3.45976116 C7.58438739,4.85345973 7.19997026,6.85587788 7.78311856,8.60625892 L2.65468874,13.7347144 C1.78177042,14.6079619 1.78177042,16.0235888 2.65468874,16.8968363 C3.09128668,17.3329049 3.66333267,17.551078 4.23537867,17.551078 C4.80742466,17.551078 5.37974822,17.3329049 5.8160686,16.8968363 L10.9442209,11.7681033 C11.4688045,11.9429748 12.0150377,12.0306882 12.5615484,12.0306882 C13.8394231,12.0306882 15.1147998,11.5496526 16.0906919,10.5737028 C17.6366872,9.02678338 17.9467189,6.73152477 17.0582573,4.86317482 L14.9049663,7.01659317 L12.9290345,6.6216055 L12.5337926,4.64500173 L14.6870837,2.49241611 C13.9987411,2.16515647 13.252389,2 12.5071471,2 L12.5071471,2 L12.5071471,2 Z" id="Shape" fill="#000000"></path>
    </g>
</svg>