<?xml version="1.0" encoding="UTF-8"?>
<svg width="20px" height="20px" viewBox="0 0 20 20" version="1.1" xmlns="http://www.w3.org/2000/svg" xmlns:xlink="http://www.w3.org/1999/xlink">
    <!-- Generator: Sketch 52.3 (67297) - http://www.bohemiancoding.com/sketch -->
    <title>icon/chevron-up</title>
    <desc>Created with Sketch.</desc>
    <defs>
        <path d="M16.1592784,6.90253155 L10.0902062,13.520171 C10.0713323,13.5479284 10.0777161,13.5842906 10.053291,13.6089946 C9.94365583,13.7189139 9.79849326,13.7663791 9.65499603,13.7597173 C9.5128866,13.7652688 9.36966693,13.7172485 9.26086439,13.6087171 C9.23671689,13.5842906 9.24337827,13.5484835 9.22478192,13.5215589 L3.15487708,6.90364185 C2.94837431,6.69684929 2.94837431,6.36237273 3.15487708,6.15558017 C3.36137986,5.94934276 3.69583664,5.94934276 3.90261697,6.15558017 L9.65638382,12.4295831 L15.4109833,6.1553026 C15.6174861,5.94823247 15.9522205,5.94823247 16.1587232,6.1553026 C16.3655036,6.36126244 16.3655036,6.69601656 16.1592784,6.90253155 L16.1592784,6.90253155 Z" id="path-1"></path>
    </defs>
    <g id="icon/chevron-up" stroke="none" stroke-width="1" fill="none" fill-rule="evenodd">
        <mask id="mask-2" fill="white">
            <use xlink:href="#path-1"></use>
        </mask>
        <use id="Shape" fill="#000000" transform="translate(9.656939, 9.880165) scale(1, -1) translate(-9.656939, -9.880165) " xlink:href="#path-1"></use>
    </g>
</svg>