<?xml version="1.0" encoding="UTF-8"?>
<svg width="20px" height="20px" viewBox="0 0 20 20" version="1.1" xmlns="http://www.w3.org/2000/svg" xmlns:xlink="http://www.w3.org/1999/xlink">
    <!-- Generator: Sketch 52.5 (67469) - http://www.bohemiancoding.com/sketch -->
    <title>icon/folder-sync</title>
    <desc>Created with Sketch.</desc>
    <g id="icon/folder-sync" stroke="none" stroke-width="1" fill="none" fill-rule="evenodd">
        <path d="M17.6534496,18.7644523 L2.11022998,18.7644523 C1.49710547,18.7644523 1,18.2673174 1,17.6541567 L1,6.55120051 L1,5.44090489 L1,4.33060928 L1,2.11029562 C1,1.49741244 1.49710547,1 2.11022998,1 L7.66137986,1 C8.27450436,1 8.77160983,1.49741244 8.77160983,2.11029562 L8.77160983,3.22003609 L17.6534496,3.22003609 C18.2665741,3.22003609 18.7636796,3.71744852 18.7636796,4.33060928 L18.7636796,6.55120051 L18.7636796,17.6541567 C18.7636796,18.2673174 18.2665741,18.7644523 17.6534496,18.7644523 L17.6534496,18.7644523 Z M17.0983347,4.33060928 L15.9881047,4.33060928 L7.66137986,4.33060928 L7.66137986,3.77546147 L7.66137986,3.22031366 L7.66137986,2.66516585 C7.66137986,2.35927941 7.41268834,2.11029562 7.10626487,2.11029562 L2.66534496,2.11029562 C2.35892149,2.11029562 2.11022998,2.35927941 2.11022998,2.66516585 L2.11022998,3.22031366 L2.11022998,3.77546147 L2.11022998,4.33060928 L2.11022998,5.44090489 L15.9881047,5.44090489 L17.0983347,5.44090489 C17.4050357,5.44090489 17.6534496,5.19247625 17.6534496,4.88547951 C17.6534496,4.57903792 17.4050357,4.33060928 17.0983347,4.33060928 L17.0983347,4.33060928 Z M17.6534496,7.66149613 L17.6534496,7.10662589 L17.6534496,6.55120051 L17.0983347,6.55120051 L2.66534496,6.55120051 L2.11022998,6.55120051 L2.11022998,7.10662589 L2.11022998,7.66149613 L2.11022998,17.0992864 C2.11022998,17.405728 2.35892149,17.6541567 2.66534496,17.6541567 L17.0983347,17.6541567 C17.4050357,17.6541567 17.6534496,17.405728 17.6534496,17.0992864 L17.6534496,7.66149613 L17.6534496,7.66149613 Z M13.7676447,16.5435835 C13.4612213,16.5435835 13.2125297,16.2951548 13.2125297,15.9884357 L13.2125297,14.9589141 C12.4053925,15.9137683 11.2327121,16.5435835 9.88183981,16.5435835 C7.61974623,16.5435835 5.77315623,14.8453863 5.49698652,12.6586591 L6.60721649,12.6586591 C6.87283902,14.2322256 8.23259318,15.433843 9.88183981,15.433843 C10.8549564,15.433843 11.7023394,14.9911126 12.3076923,14.3235474 L11.5471848,14.3235474 C11.2407613,14.3235474 10.9920698,14.0748412 10.9920698,13.768122 C10.9920698,13.461958 11.2407613,13.2132518 11.5471848,13.2132518 L13.0088025,13.2132518 L13.7676447,13.2132518 L14.1659397,13.2132518 C14.1540048,13.2596066 14.1323553,13.3015203 14.118755,13.3478751 C14.1775971,13.3964506 14.2261697,13.4552962 14.2605868,13.5244121 C14.2625297,13.5280206 14.2655829,13.5305188 14.2672482,13.5341272 C14.3011102,13.6057413 14.3230373,13.6837396 14.3230373,13.7678444 L14.3230373,15.9884357 C14.3227597,16.2951548 14.0743458,16.5435835 13.7676447,16.5435835 L13.7676447,16.5435835 Z M9.88211737,8.77179174 C8.90844568,8.77179174 8.06106265,9.21479969 7.45570975,9.88236493 L8.2167724,9.88236493 C8.52347343,9.88236493 8.77188739,10.1307936 8.77188739,10.4375127 C8.77188739,10.7433992 8.52319588,10.9926606 8.2167724,10.9926606 L6.7554322,10.9926606 L5.99631245,10.9926606 L5.59801745,10.9926606 C5.60995242,10.9463057 5.6316019,10.9035593 5.64520222,10.8580372 C5.58636003,10.8086291 5.53778747,10.7503385 5.50337034,10.6809451 C5.50142744,10.6773366 5.49865186,10.6748384 5.49698652,10.6715075 C5.4631245,10.5998935 5.44119746,10.5218952 5.44119746,10.4375127 L5.44119746,8.21692151 C5.44119746,7.91047992 5.68961142,7.66149613 5.99631245,7.66149613 C6.30273592,7.66149613 6.55142744,7.91020234 6.55142744,8.21692151 L6.55142744,9.24672069 C7.35884219,8.29158889 8.5315226,7.66149613 9.88211737,7.66149613 C12.1444885,7.66149613 13.9910785,9.35997085 14.2669707,11.5478084 L13.1567407,11.5478084 C12.8911182,9.97396432 11.531364,8.77179174 9.88211737,8.77179174 L9.88211737,8.77179174 Z" id="Shape" fill="#000000"></path>
    </g>
</svg>