<?xml version="1.0" encoding="UTF-8" standalone="no"?>
<svg width="65px" height="36px" viewBox="0 0 65 36" version="1.1" xmlns="http://www.w3.org/2000/svg" xmlns:xlink="http://www.w3.org/1999/xlink" xmlns:sketch="http://www.bohemiancoding.com/sketch/ns">
    <!-- Generator: Sketch 3.4 (15588) - http://www.bohemiancoding.com/sketch -->
    <title>box</title>
    <desc>Created with Sketch.</desc>
    <defs></defs>
    <g id="Page-1" stroke="none" stroke-width="1" fill="none" fill-rule="evenodd" sketch:type="MSPage">
        <g id="box" sketch:type="MSLayerGroup" fill="#000000">
            <path d="M34.563,10.875 C41.438,10.875 47.001,16.438 47.001,23.25 C47.001,30.125 41.438,35.688 34.563,35.688 C29.813,35.688 25.688,33 23.563,29.063 C21.5,33.001 17.375,35.688 12.625,35.688 C5.812,35.688 0.312,30.25 0.187,23.5 L0.187,23.5 L0.187,2.875 C0.25,1.5 1.312,0.437 2.687,0.437 C4.062,0.437 5.125,1.5 5.187,2.875 L5.187,2.875 L5.187,13.313 C7.25,11.75 9.812,10.875 12.625,10.875 C17.375,10.875 21.5,13.5 23.563,17.438 C25.688,13.5 29.813,10.875 34.563,10.875 L34.563,10.875 Z M12.625,30.688 C16.75,30.688 20.063,27.375 20.063,23.25 C20.063,19.187 16.75,15.812 12.625,15.812 C8.5,15.812 5.187,19.187 5.187,23.25 C5.187,27.375 8.5,30.688 12.625,30.688 L12.625,30.688 Z M34.563,30.688 C38.688,30.688 42.001,27.375 42.001,23.25 C42.001,19.187 38.688,15.812 34.563,15.812 C30.438,15.812 27.125,19.187 27.125,23.25 C27.125,27.375 30.438,30.688 34.563,30.688 L34.563,30.688 Z M63.688,31.75 L63.688,31.813 C64.438,32.876 64.251,34.376 63.188,35.188 C62.063,36.063 60.563,35.813 59.688,34.75 L54.25,27.437 L48.75,34.75 C47.875,35.813 46.375,36.063 45.312,35.188 C44.187,34.375 43.999,32.875 44.749,31.813 L51.124,23.25 L44.749,14.75 C43.999,13.687 44.186,12.125 45.312,11.312 C46.375,10.499 47.875,10.749 48.75,11.812 L54.25,19.125 L59.688,11.812 C60.563,10.749 62.063,10.499 63.188,11.312 C64.251,12.125 64.438,13.687 63.688,14.75 L57.313,23.25 L63.688,31.75 Z" id="Shape" sketch:type="MSShapeGroup"></path>
        </g>
    </g>
</svg>