<?xml version="1.0" encoding="UTF-8"?>
<svg width="20px" height="20px" viewBox="0 0 20 20" version="1.1" xmlns="http://www.w3.org/2000/svg" xmlns:xlink="http://www.w3.org/1999/xlink">
    <!-- Generator: Sketch 52.5 (67469) - http://www.bohemiancoding.com/sketch -->
    <title>icon/bug</title>
    <desc>Created with Sketch.</desc>
    <g id="icon/bug" stroke="none" stroke-width="1" fill="none" fill-rule="evenodd">
        <path d="M18.7636796,10.992383 L18.7636796,12.102401 L16.5432197,12.102401 C16.5432197,12.9800897 16.36364,13.8136441 16.0552736,14.5814136 L17.6509516,15.5354351 L17.0913957,16.5388647 L15.5268041,15.6037182 C14.3516257,17.4951068 12.2718874,18.7650074 9.88183981,18.7650074 C7.49179223,18.7650074 5.41205393,17.4953844 4.23659794,15.6037182 L2.6722839,16.5388647 L2.11272799,15.5354351 L3.70840603,14.5814136 C3.40003965,13.8136441 3.22045995,12.9800897 3.22045995,12.102401 L1,12.102401 L1,10.992383 L3.33009516,10.992383 C3.4722046,10.1971337 3.75059477,9.44934964 4.14361618,8.77373476 L2.11300555,7.56018165 L2.67256146,6.55647441 L4.80808882,7.8330368 C5.83394132,6.61532008 7.28973037,5.81035576 8.93620143,5.57053191 L6.55614592,1.55015148 L7.47180809,1 L9.88211737,5.0717316 L12.2924266,1 L13.2080888,1.55015148 L10.8396907,5.55110173 C12.4825535,5.79619949 13.9311261,6.61670795 14.9558684,7.83331437 L17.0916733,6.55675199 L17.6512292,7.56045923 L15.6206186,8.77401233 C16.01364,9.44990479 16.2917526,10.1974113 16.433862,10.9926606 L18.7636796,10.9926606 L18.7636796,10.992383 Z M9.88183981,6.55147808 C8.07160983,6.55147808 6.47926249,7.43083221 5.46590008,8.77206932 L14.297502,8.77206932 C13.2841396,7.43083221 11.6917922,6.55147808 9.88183981,6.55147808 L9.88183981,6.55147808 Z M14.9644726,9.88236493 L4.79920698,9.88236493 C4.50138779,10.5629761 4.33068993,11.311593 4.33068993,12.102401 C4.33068993,15.1687599 6.81593973,17.6544343 9.88183981,17.6544343 C12.9474623,17.6544343 15.4329897,15.1687599 15.4329897,12.102401 C15.4329897,11.311593 15.2622918,10.5629761 14.9644726,9.88236493 L14.9644726,9.88236493 Z" id="Shape" fill="#000000"></path>
    </g>
</svg>