<?xml version="1.0" encoding="UTF-8"?>
<svg width="20px" height="20px" viewBox="0 0 20 20" version="1.1" xmlns="http://www.w3.org/2000/svg" xmlns:xlink="http://www.w3.org/1999/xlink">
    <!-- Generator: Sketch 52.5 (67469) - http://www.bohemiancoding.com/sketch -->
    <title>icon/command</title>
    <desc>Created with Sketch.</desc>
    <g id="icon/command" stroke="none" stroke-width="1" fill="none" fill-rule="evenodd">
        <path d="M15.4329897,7.66232885 L13.2128073,7.66232885 L13.2128073,12.1032337 L15.4329897,12.1032337 C17.2726408,12.1032337 18.7636796,13.5943608 18.7636796,15.433843 C18.7636796,17.2738804 17.2726408,18.7655626 15.4329897,18.7655626 C13.5936162,18.7655626 12.1025773,17.2738804 12.1022998,15.4343982 L12.1022998,15.4343982 L12.1022998,13.2132518 L7.66137986,13.2132518 L7.66137986,15.4343982 L7.66137986,15.4343982 C7.6611023,17.2738804 6.170341,18.7655626 4.33068993,18.7655626 C2.49131642,18.7655626 1,17.2738804 1,15.433843 C1,13.5943608 2.49131642,12.1032337 4.33068993,12.1032337 L6.55114988,12.1032337 L6.55114988,7.66232885 L4.33068993,7.66232885 C2.49131642,7.66232885 1,6.17147941 1,4.33116442 C1,2.49195973 2.49131642,1 4.33068993,1 C6.170341,1 7.66137986,2.49195973 7.66137986,4.33116442 L7.66137986,6.55203323 L12.1022998,6.55203323 L12.1022998,4.33116442 C12.1022998,2.49195973 13.5936162,1 15.4329897,1 C17.2726408,1 18.7636796,2.49195973 18.7636796,4.33116442 C18.7636796,6.17147941 17.2726408,7.66232885 15.4329897,7.66232885 L15.4329897,7.66232885 Z M13.2128073,15.433843 C13.2128073,16.6607197 14.2064631,17.655267 15.4329897,17.655267 C16.6595163,17.655267 17.6534496,16.6607197 17.6534496,15.433843 C17.6534496,14.2075215 16.6595163,13.2132518 15.4329897,13.2132518 L13.2128073,13.2132518 L13.2128073,15.433843 L13.2128073,15.433843 Z M6.55114988,4.33116442 C6.55114988,3.10456534 5.55721649,2.11057319 4.33068993,2.11057319 C3.10444092,2.11057319 2.11022998,3.10456534 2.11022998,4.33116442 C2.11022998,5.55831865 3.10444092,6.55203323 4.33068993,6.55203323 L6.55114988,6.55203323 L6.55114988,4.33116442 L6.55114988,4.33116442 Z M6.55114988,13.2132518 L4.33068993,13.2132518 C3.10444092,13.2132518 2.11022998,14.2075215 2.11022998,15.433843 C2.11022998,16.6607197 3.10444092,17.655267 4.33068993,17.655267 C5.55721649,17.655267 6.55114988,16.6607197 6.55114988,15.433843 L6.55114988,13.2132518 L6.55114988,13.2132518 Z M12.1022998,7.66232885 L7.66137986,7.66232885 L7.66137986,12.1032337 L12.1022998,12.1032337 L12.1022998,7.66232885 L12.1022998,7.66232885 Z M15.4329897,2.11057319 C14.2064631,2.11057319 13.2128073,3.10456534 13.2128073,4.33116442 L13.2128073,6.55203323 L15.4329897,6.55203323 C16.6595163,6.55203323 17.6534496,5.55831865 17.6534496,4.33116442 C17.6534496,3.10456534 16.6595163,2.11057319 15.4329897,2.11057319 L15.4329897,2.11057319 Z" id="Shape" fill="#000000"></path>
    </g>
</svg>