<?xml version="1.0" encoding="UTF-8"?>
<svg width="20px" height="20px" viewBox="0 0 20 20" version="1.1" xmlns="http://www.w3.org/2000/svg" xmlns:xlink="http://www.w3.org/1999/xlink">
    <!-- Generator: Sketch 52.5 (67469) - http://www.bohemiancoding.com/sketch -->
    <title>icon/tv</title>
    <desc>Created with Sketch.</desc>
    <g id="icon/tv" stroke="none" stroke-width="1" fill="none" fill-rule="evenodd">
        <path d="M17.0432197,15.3232698 L10.3818398,15.3232698 L10.3818398,17.5438611 L12.0471848,17.5438611 C12.3538858,17.5438611 12.6022998,17.7925673 12.6022998,18.099564 C12.6022998,18.4054505 12.3538858,18.6541567 12.0471848,18.6541567 L7.60626487,18.6541567 C7.29956384,18.6541567 7.05114988,18.4054505 7.05114988,18.099564 C7.05114988,17.7925673 7.2998414,17.5438611 7.60626487,17.5438611 L9.27160983,17.5438611 L9.27160983,15.3232698 L2.61022998,15.3232698 C1.99710547,15.3232698 1.5,14.8266901 1.5,14.2129742 L1.5,3.11001804 C1.5,2.49713486 1.99710547,2 2.61022998,2 L17.0432197,2 C17.6563442,2 18.1534496,2.49713486 18.1534496,3.11001804 L18.1534496,14.2129742 C18.1534496,14.8266901 17.6563442,15.3232698 17.0432197,15.3232698 L17.0432197,15.3232698 Z M17.0432197,3.665721 C17.0432197,3.35872426 16.7948057,3.11001804 16.4881047,3.11001804 L3.16534496,3.11001804 C2.85864393,3.11001804 2.61022998,3.35872426 2.61022998,3.665721 L2.61022998,13.6578264 C2.61022998,13.9648231 2.85864393,14.2129742 3.16534496,14.2129742 L9.27160983,14.2129742 L10.3818398,14.2129742 L16.4881047,14.2129742 C16.7948057,14.2129742 17.0432197,13.9648231 17.0432197,13.6578264 L17.0432197,3.665721 L17.0432197,3.665721 Z" id="Shape" fill="#000000"></path>
    </g>
</svg>