<?xml version="1.0" encoding="UTF-8"?>
<svg width="20px" height="20px" viewBox="0 0 20 20" version="1.1" xmlns="http://www.w3.org/2000/svg" xmlns:xlink="http://www.w3.org/1999/xlink">
    <!-- Generator: Sketch 52.5 (67469) - http://www.bohemiancoding.com/sketch -->
    <title>icon/application-plus</title>
    <desc>Created with Sketch.</desc>
    <g id="icon/application-plus" stroke="none" stroke-width="1" fill="none" fill-rule="evenodd">
        <path d="M17.8483347,18.6541567 L2.30511499,18.6541567 C1.99869151,18.6541567 1.75,18.405728 1.75,18.0990089 L1.75,2.55514781 C1.75,2.24870622 1.99869151,2 2.30511499,2 L17.8483347,2 C18.1547581,2 18.4034496,2.24870622 18.4034496,2.55514781 L18.4034496,18.0990089 C18.4034496,18.4060056 18.1547581,18.6541567 17.8483347,18.6541567 L17.8483347,18.6541567 Z M17.2932197,3.665721 C17.2932197,3.35872426 17.0445282,3.10974047 16.7381047,3.10974047 L3.41534496,3.10974047 C3.10892149,3.10974047 2.86022998,3.35844669 2.86022998,3.665721 L2.86022998,6.44173761 L17.2932197,6.44173761 L17.2932197,3.665721 L17.2932197,3.665721 Z M17.2932197,7.55147808 L2.86022998,7.55147808 L2.86022998,16.9884357 C2.86022998,17.2954324 3.10892149,17.5446938 3.41534496,17.5446938 L16.7381047,17.5446938 C17.0445282,17.5446938 17.2932197,17.29571 17.2932197,16.9884357 L17.2932197,7.55147808 L17.2932197,7.55147808 Z M10.6315623,15.3229923 L9.52133228,15.3229923 L9.52133228,13.1029562 L7.30087232,13.1029562 L7.30087232,11.9926606 L9.52133228,11.9926606 L9.52133228,9.77206932 L10.6315623,9.77206932 L10.6315623,11.9926606 L12.8520222,11.9926606 L12.8520222,13.1029562 L10.6315623,13.1029562 L10.6315623,15.3229923 L10.6315623,15.3229923 Z M5.08041237,5.33088685 L3.97018239,5.33088685 L3.97018239,4.22059123 L5.08041237,4.22059123 L5.08041237,5.33088685 L5.08041237,5.33088685 Z M7.30087232,5.33088685 L6.19064235,5.33088685 L6.19064235,4.22059123 L7.30087232,4.22059123 L7.30087232,5.33088685 L7.30087232,5.33088685 Z M9.52160983,5.33088685 L8.41137986,5.33088685 L8.41137986,4.22059123 L9.52160983,4.22059123 L9.52160983,5.33088685 L9.52160983,5.33088685 Z" id="Shape" fill="#000000"></path>
    </g>
</svg>