<?xml version="1.0" encoding="UTF-8"?>
<svg width="20px" height="20px" viewBox="0 0 20 20" version="1.1" xmlns="http://www.w3.org/2000/svg" xmlns:xlink="http://www.w3.org/1999/xlink">
    <!-- Generator: Sketch 48.2 (47327) - http://www.bohemiancoding.com/sketch -->
    <title>buddicons/notificiations</title>
    <desc>Created with Sketch.</desc>
    <defs></defs>
    <g id="Icons" stroke="none" stroke-width="1" fill="none" fill-rule="evenodd">
        <g id="buddicons/notificiations" fill="#000000">
            <path d="M12.4528152,15.433843 C12.4922284,15.6164866 12.5471848,15.7941339 12.5471848,15.9889908 C12.5471848,17.5214764 11.3042823,18.7647299 9.77188739,18.7647299 C8.23893735,18.7647299 6.99631245,17.5214764 6.99631245,15.9889908 C6.99631245,15.7941339 7.05099128,15.6164866 7.09040444,15.433843 L2,15.433843 C2,15.433843 4.22045995,12.6947437 4.22045995,10.9290961 L4.22045995,9.88236493 L4.22045995,8.77179174 L4.22045995,7.66094098 L4.22045995,6.55147808 C4.22045995,3.48539674 6.70570975,1 9.77188739,1 C12.8375099,1 15.3227597,3.48539674 15.3227597,6.55147808 L15.3227597,7.66094098 L15.3227597,8.77179174 L15.3227597,9.88236493 L15.3227597,10.9629601 C15.3227597,12.7158393 17.5432197,15.4335654 17.5432197,15.4335654 L12.4528152,15.4335654 L12.4528152,15.433843 Z M9.77188739,17.6544343 C10.6914354,17.6544343 11.4369548,16.9085932 11.4369548,15.9889908 C11.4369548,15.7921909 11.3875496,15.6089922 11.3250991,15.433843 L8.2183981,15.433843 C8.15594766,15.6089922 8.10654243,15.7921909 8.10654243,15.9889908 C8.10626487,16.9088707 8.85206186,17.6544343 9.77188739,17.6544343 L9.77188739,17.6544343 Z M14.2125297,6.55175566 C14.2125297,4.09855749 12.2243854,2.11057319 9.77188739,2.11057319 C7.31883426,2.11057319 5.33068993,4.09855749 5.33068993,6.55175566 L5.33068993,7.66121855 L14.2125297,7.66121855 L14.2125297,6.55175566 L14.2125297,6.55175566 Z M5.33068993,8.77206932 L5.33068993,9.88264251 L14.2125297,9.88264251 L14.2125297,8.77206932 L5.33068993,8.77206932 L5.33068993,8.77206932 Z M14.2150278,10.9926606 L5.32624901,10.9926606 C5.29988105,12.7333265 4.22073751,14.3235474 4.22073751,14.3235474 L15.3230373,14.3235474 C15.3227597,14.3235474 14.2272403,12.7341592 14.2150278,10.9926606 L14.2150278,10.9926606 Z" id="Shape"></path>
        </g>
    </g>
</svg>