<?xml version="1.0" encoding="UTF-8"?>
<svg width="20px" height="20px" viewBox="0 0 20 20" version="1.1" xmlns="http://www.w3.org/2000/svg" xmlns:xlink="http://www.w3.org/1999/xlink">
    <!-- Generator: Sketch 52.5 (67469) - http://www.bohemiancoding.com/sketch -->
    <title>icon/page-cancel</title>
    <desc>Created with Sketch.</desc>
    <g id="icon/page-cancel" stroke="none" stroke-width="1" fill="none" fill-rule="evenodd">
        <path d="M17.4329897,5.44312548 L17.4329897,18.2098596 C17.4329897,18.5165788 17.1842982,18.7650074 16.8778747,18.7650074 L3.55511499,18.7650074 C3.24869151,18.7650074 3,18.5165788 3,18.2098596 L3,1.55570296 C3,1.24842864 3.24869151,1 3.55511499,1 L12.9920698,1 L12.9920698,1.00138787 L12.9920698,1.0011103 L17.4316019,5.44146004 L17.4329897,5.44146004 L17.4329897,5.44257034 L17.4329897,5.44312548 L17.4329897,5.44312548 L17.4329897,5.44312548 Z M12.9917922,2.36816177 L12.9917922,5.44146004 L16.0649088,5.44146004 L12.9917922,2.36816177 L12.9917922,2.36816177 Z M16.3224822,6.55175566 L12.9917922,6.55175566 L11.8815623,6.55175566 L11.8815623,5.44146004 L11.8815623,2.11029562 L4.66506741,2.11029562 C4.35836638,2.11029562 4.10995242,2.35872426 4.10995242,2.665721 L4.10995242,17.0990089 C4.10995242,17.4062832 4.35864393,17.6544343 4.66506741,17.6544343 L15.7673672,17.6544343 C16.0740682,17.6544343 16.3224822,17.4062832 16.3224822,17.0990089 L16.3224822,6.55175566 L16.3224822,6.55175566 Z M12.1563442,13.2096433 L10.2162173,11.2694017 L8.2760904,13.2096433 L7.44480571,12.3785871 L9.38493259,10.4383455 L7.44480571,8.4978263 L8.2760904,7.66677003 L10.2162173,9.60701162 L12.1563442,7.66677003 L12.9876289,8.4978263 L11.047502,10.4383455 L12.9876289,12.3785871 L12.1563442,13.2096433 L12.1563442,13.2096433 Z" id="Shape" fill="#000000"></path>
    </g>
</svg>