<?xml version="1.0" encoding="UTF-8"?>
<svg width="20px" height="20px" viewBox="0 0 20 20" version="1.1" xmlns="http://www.w3.org/2000/svg" xmlns:xlink="http://www.w3.org/1999/xlink">
    <!-- Generator: Sketch 52.5 (67469) - http://www.bohemiancoding.com/sketch -->
    <title>icon/upload</title>
    <desc>Created with Sketch.</desc>
    <g id="icon/upload" stroke="none" stroke-width="1" fill="none" fill-rule="evenodd">
        <path d="M18.0983347,17.4306264 L2.55511499,17.4306264 C2.24869151,17.4306264 2,17.1819202 2,16.8749235 L2,12.433741 C2,12.1272994 2.24869151,11.8794259 2.55511499,11.8794259 C2.86181602,11.8794259 3.11022998,12.127577 3.11022998,12.433741 L3.11022998,16.3197757 L17.5432197,16.3197757 L17.5432197,12.433741 C17.5432197,12.1272994 17.7919112,11.8794259 18.0983347,11.8794259 C18.4047581,11.8794259 18.6534496,12.127577 18.6534496,12.433741 L18.6534496,16.8749235 C18.6531721,17.1819202 18.4047581,17.4306264 18.0983347,17.4306264 L18.0983347,17.4306264 Z M13.2593973,7.83184326 L10.8815623,5.05721451 L10.8815623,13.5443142 C10.8815623,13.8504782 10.6328707,14.0989069 10.3264473,14.0989069 C10.0197462,14.0989069 9.77133228,13.8502006 9.77133228,13.5443142 L9.77133228,5.05721451 L7.39349722,7.83184326 C7.17450436,8.05084907 6.82006344,8.05084907 6.60134814,7.83184326 C6.38235527,7.61367017 6.38235527,7.25837557 6.60134814,7.03992491 L9.92898493,3.15666599 C10.0433386,3.04286069 10.1932197,2.99511798 10.3428232,3.00039188 L10.3464314,3.00039188 C10.4843775,3.00566579 10.6084457,3.06007027 10.7028152,3.14778362 C10.7089215,3.1533351 10.7183584,3.15055936 10.7241872,3.15638842 L14.0518239,7.03964733 C14.2705393,7.25782042 14.2705393,7.61311502 14.0518239,7.83156568 C13.8331086,8.05084907 13.4783902,8.05084907 13.2593973,7.83184326 L13.2593973,7.83184326 Z" id="Shape" fill="#000000"></path>
    </g>
</svg>