<?xml version="1.0" encoding="UTF-8"?>
<svg width="20px" height="20px" viewBox="0 0 20 20" version="1.1" xmlns="http://www.w3.org/2000/svg" xmlns:xlink="http://www.w3.org/1999/xlink">
    <!-- Generator: Sketch 52.3 (67297) - http://www.bohemiancoding.com/sketch -->
    <title>icon/user-add</title>
    <desc>Created with Sketch.</desc>
    <g id="icon/user-add" stroke="none" stroke-width="1" fill="none" fill-rule="evenodd">
        <path d="M18.0983347,16.4330103 L16.4329897,16.4330103 L16.4329897,18.0984537 C16.4329897,18.4048953 16.1845757,18.6536015 15.8778747,18.6536015 C15.5711737,18.6536015 15.3227597,18.4048953 15.3227597,18.0984537 L15.3227597,16.4330103 L13.6574148,16.4330103 C13.3509913,16.4330103 13.1022998,16.1845817 13.1022998,15.8775849 C13.1022998,15.5711433 13.3509913,15.3224371 13.6574148,15.3224371 L15.3227597,15.3224371 L15.3227597,13.6572713 C15.3227597,13.3505521 15.5714512,13.1012907 15.8778747,13.1012907 C16.1842982,13.1012907 16.4329897,13.3502745 16.4329897,13.6572713 L16.4329897,15.3224371 L18.0983347,15.3224371 C18.4047581,15.3224371 18.6534496,15.5711433 18.6534496,15.8775849 C18.6534496,16.1848592 18.4047581,16.4330103 18.0983347,16.4330103 L18.0983347,16.4330103 Z M11.1055511,11.3522976 C12.0567407,11.7281326 12.8966297,12.3185323 13.5752577,13.0602098 C13.2871531,13.3047524 13.0231959,13.5748318 12.8053132,13.8843267 C11.788065,12.7335053 10.3181205,11.9932157 8.66137986,11.9932157 C5.59547978,11.9932157 3.11022998,14.4783349 3.11022998,17.5441386 L3.11022998,18.6544343 L2,18.6544343 L2,17.5441386 C2,14.7292617 3.74888977,12.3271371 6.21720856,11.35202 C4.69536082,10.4951493 3.66534496,8.86717839 3.66534496,6.99633028 C3.66534496,4.23780082 5.90218081,2 8.66137986,2 C11.4203013,2 13.6574148,4.23780082 13.6574148,6.99633028 C13.6574148,8.86745596 12.6273989,10.4957045 11.1055511,11.3522976 L11.1055511,11.3522976 Z M8.66137986,3.11112834 C6.51530531,3.11112834 4.77557494,4.85096157 4.77557494,6.99660785 C4.77557494,9.14280928 6.51530531,10.8831977 8.66137986,10.8831977 C10.8071768,10.8831977 12.5471848,9.14280928 12.5471848,6.99660785 C12.5471848,4.85096157 10.8071768,3.11112834 8.66137986,3.11112834 L8.66137986,3.11112834 Z" id="Shape" fill="#000000"></path>
    </g>
</svg>