<?xml version="1.0" encoding="UTF-8"?>
<svg width="20px" height="20px" viewBox="0 0 20 20" version="1.1" xmlns="http://www.w3.org/2000/svg" xmlns:xlink="http://www.w3.org/1999/xlink">
    <!-- Generator: Sketch 52.5 (67469) - http://www.bohemiancoding.com/sketch -->
    <title>icon/user-minus</title>
    <desc>Created with Sketch.</desc>
    <g id="icon/user-minus" stroke="none" stroke-width="1" fill="none" fill-rule="evenodd">
        <path d="M18.2110315,16.5444162 L13.7701116,16.5444162 C13.4636881,16.5444162 13.2149966,16.2954324 13.2149966,15.9889908 C13.2149966,15.6822717 13.4636881,15.433843 13.7701116,15.433843 L18.2110315,15.433843 C18.5177325,15.433843 18.7661465,15.6822717 18.7661465,15.9889908 C18.7664241,16.2954324 18.5177325,16.5444162 18.2110315,16.5444162 L18.2110315,16.5444162 Z M11.8183273,12.2850446 C12.3892631,12.4274401 13.2227682,12.6417271 14.0490569,12.8737789 C13.6604764,13.138862 13.3287952,13.4738937 13.0420783,13.8452876 C12.3706667,13.6648645 11.6659482,13.4841639 10.9948142,13.323171 L10.9948142,11.5644628 C12.3870426,10.6168255 13.2119435,8.55833741 13.2119435,6.68721172 C13.2119435,4.15740316 12.5644019,2.10613201 9.32808148,2.10613201 C6.09148354,2.10613201 5.44421946,4.15740316 5.44421946,6.68721172 C5.44421946,8.56000285 6.27023057,10.6201564 7.6641243,11.566961 L7.6641243,13.3395479 C5.56523453,13.8333519 3.12800217,14.5095219 2.56733604,14.8165187 C2.20456839,15.2734053 1.88759773,16.7392731 2.11297442,17.6555445 L12.2618642,17.6555445 C12.3640053,18.0502546 12.5197151,18.4199831 12.7195565,18.7636196 L1.5012377,18.7636196 C0.633037861,17.4323751 0.984980763,14.7682208 1.8531806,13.8810946 C2.26674127,13.4586271 5.36678092,12.6592143 6.85060329,12.2953149 C5.28379123,11.0781533 4.32816078,8.8200896 4.32816078,6.6672264 C4.32816078,3.53730306 5.23716157,1 9.32780392,1 C13.4181687,1 14.3271695,3.53730306 14.3271695,6.6672264 C14.3274471,8.81398298 13.3770902,11.0653849 11.8183273,12.2850446 L11.8183273,12.2850446 Z" id="Shape" fill="#000000"></path>
    </g>
</svg>