<?xml version="1.0" encoding="UTF-8" standalone="no"?>
<svg width="64px" height="65px" viewBox="0 0 64 65" version="1.1" xmlns="http://www.w3.org/2000/svg" xmlns:xlink="http://www.w3.org/1999/xlink" xmlns:sketch="http://www.bohemiancoding.com/sketch/ns">
    <!-- Generator: Sketch 3.4 (15588) - http://www.bohemiancoding.com/sketch -->
    <title>salesforce</title>
    <desc>Created with Sketch.</desc>
    <defs></defs>
    <g id="Page-1" stroke="none" stroke-width="1" fill="none" fill-rule="evenodd" sketch:type="MSPage">
        <g id="salesforce" sketch:type="MSLayerGroup" fill="#000000">
            <path d="M0,15.875 C0,16.125 0.063,16.5 0.125,17 L10.625,61 C10.875,62.063 11.438,62.938 12.313,63.625 C13.188,64.25 14.188,64.625 15.251,64.625 C15.876,64.625 16.564,64.562 17.251,64.375 C18.001,64.25 18.814,64.062 19.751,63.75 C20.689,63.5 21.314,63.312 21.751,63.187 C18.001,61.937 14.938,60.624 12.563,59.312 L17.626,47.874 C19.376,49.499 21.626,50.749 24.314,51.749 C27.002,52.687 29.564,53.187 32.064,53.187 C34.002,53.187 35.689,52.624 37.189,51.624 C38.689,50.624 39.439,49.186 39.439,47.311 C39.439,46.123 39.064,44.936 38.314,43.811 C37.564,42.686 36.564,41.686 35.376,40.811 C34.126,39.936 33.001,39.248 31.876,38.686 C30.751,38.061 29.626,37.561 28.438,37.123 C17.625,32.935 12.25,26.873 12.25,18.998 C12.25,14.873 13.563,11.31 16.25,8.248 L3.625,11.248 C2.562,11.498 1.687,12.061 1,12.936 C0.313,13.811 0,14.811 0,15.874 L0,15.875 Z M26.813,18.813 C26.813,22.313 30.438,25.313 37.751,27.751 C42.626,29.376 46.564,31.689 49.564,34.751 C52.564,37.813 54.064,41.689 54.064,46.439 C54.064,49.939 53.064,53.189 51.064,56.189 L60.377,54.001 C61.44,53.751 62.315,53.188 63.002,52.313 C63.689,51.438 64.002,50.438 64.002,49.375 C64.002,49.125 63.939,48.75 63.877,48.25 L53.377,4.25 C53.127,3.187 52.564,2.312 51.689,1.625 C50.814,0.938 49.814,0.625 48.751,0.625 C48.188,0.625 47.251,0.75 46.063,1 C44.813,1.25 43.313,1.625 41.5,2.188 C39.625,2.688 38.687,2.938 38.562,2.938 C42.687,3.563 46.625,4.938 50.5,6.938 L46.562,17.813 C45.437,16.625 43.562,15.625 40.937,14.875 C38.374,14.125 35.999,13.75 33.937,13.75 C32.187,13.75 30.562,14.188 29.062,15.063 C27.562,15.938 26.812,17.188 26.812,18.813 L26.813,18.813 Z" id="Shape" sketch:type="MSShapeGroup"></path>
        </g>
    </g>
</svg>