<?xml version="1.0" encoding="UTF-8"?>
<svg width="20px" height="20px" viewBox="0 0 20 20" version="1.1" xmlns="http://www.w3.org/2000/svg" xmlns:xlink="http://www.w3.org/1999/xlink">
    <!-- Generator: Sketch 52.5 (67469) - http://www.bohemiancoding.com/sketch -->
    <title>icon/cube</title>
    <desc>Created with Sketch.</desc>
    <g id="icon/cube" stroke="none" stroke-width="1" fill="none" fill-rule="evenodd">
        <path d="M17.3594321,6.65019631 C17.4202172,6.78759539 17.4571324,6.9374853 17.4571324,7.09764544 L17.4571324,13.2042713 C17.4571324,13.8174321 17.5151419,14.3142894 16.9020174,14.3142894 L10.7957525,18.200324 C10.5889722,18.200324 10.4063394,18.1284324 10.2406375,18.0304488 C10.0746582,18.12871 9.89202532,18.200324 9.68552255,18.200324 L4.13437267,14.3142894 C3.5209706,14.3142894 3.02386513,13.8174321 3.02386513,13.2042713 L3.02386513,7.09764544 C3.02386513,6.93359927 3.06383341,6.78121119 3.12739408,6.64131395 C2.91256458,6.22356522 2.96557806,5.70450202 3.31585562,5.35420375 L9.7132783,1.78043974 C10.5342934,1.38545207 10.0008279,1.42819845 10.7283061,1.78043974 L17.1770769,5.35420375 C17.5298524,5.70700018 17.5800904,6.23133729 17.3594321,6.65019631 L17.3594321,6.65019631 Z M4.13437267,13.2042713 L9.68552255,17.0900284 L9.68552255,10.6086778 L9.68552255,10.6084002 L4.13437267,7.09764544 L4.13437267,13.2042713 L4.13437267,13.2042713 Z M10.228425,2.56569631 L4.13437267,5.9876274 L10.0510658,9.57193923 C10.1190674,9.59636573 10.177632,9.63272791 10.237862,9.67020039 C10.3053084,9.6296746 10.3716447,9.59414514 10.4476954,9.56833077 L16.3344123,5.9951219 L16.3463473,5.9876274 L10.228425,2.56569631 L10.228425,2.56569631 Z M10.7957525,10.6086778 L10.7957525,17.090306 L16.3469024,13.2042713 L16.3469024,7.09764544 L10.7957525,10.6086778 L10.7957525,10.6086778 Z" id="Shape" fill="#000000"></path>
    </g>
</svg>