<?xml version="1.0" encoding="UTF-8"?>
<svg width="20px" height="20px" viewBox="0 0 20 20" version="1.1" xmlns="http://www.w3.org/2000/svg" xmlns:xlink="http://www.w3.org/1999/xlink">
    <!-- Generator: Sketch 52.5 (67469) - http://www.bohemiancoding.com/sketch -->
    <title>icon/backspace</title>
    <desc>Created with Sketch.</desc>
    <g id="icon/backspace" stroke="none" stroke-width="1" fill="none" fill-rule="evenodd">
        <path d="M18.2085646,16.2135294 L5.44064235,16.2135294 C5.44064235,16.2135294 1,11.2169215 1,10.1069035 C1,8.99688542 5.44064235,4 5.44064235,4 L18.2085646,4 C18.5149881,4 18.7636796,4.24870622 18.7636796,4.55570296 L18.7636796,15.6578264 C18.7636796,15.9651007 18.5149881,16.2135294 18.2085646,16.2135294 L18.2085646,16.2135294 Z M17.6531721,5.10974047 L5.99603489,5.10974047 C5.44064235,5.10974047 2.10995242,10.1069035 2.10995242,10.1069035 C2.10995242,10.1069035 5.44064235,15.1035113 5.99603489,15.1035113 L17.6531721,15.1035113 L17.6531721,5.10974047 L17.6531721,5.10974047 Z M10.1716098,10.0885836 L8.95035686,8.86698084 C8.72386994,8.64103568 8.72386994,8.27352783 8.95035686,8.04702752 C9.17684377,7.82052722 9.5443299,7.82052722 9.77081681,8.04702752 L10.9917922,9.26807513 L12.2133228,8.04702752 C12.4395321,7.82052722 12.8070182,7.82052722 13.0335052,8.04702752 C13.2599921,8.27352783 13.2599921,8.64103568 13.0335052,8.86698084 L11.8122522,10.0885836 L13.0518239,11.3282286 C13.2783109,11.5552841 13.2783109,11.9222368 13.0518239,12.1487371 C12.825337,12.375515 12.4578509,12.375515 12.2316416,12.1487371 L10.9917922,10.9088145 L9.75222046,12.1487371 C9.5260111,12.375515 9.15852498,12.375515 8.93203807,12.1487371 C8.70555115,11.9222368 8.70555115,11.5552841 8.93203807,11.3282286 L10.1716098,10.0885836 L10.1716098,10.0885836 Z" id="Shape" fill="#000000"></path>
    </g>
</svg>