<?xml version="1.0" encoding="UTF-8" standalone="no"?>
<svg width="62px" height="53px" viewBox="0 0 62 53" version="1.1" xmlns="http://www.w3.org/2000/svg" xmlns:xlink="http://www.w3.org/1999/xlink" xmlns:sketch="http://www.bohemiancoding.com/sketch/ns">
    <!-- Generator: Sketch 3.4 (15588) - http://www.bohemiancoding.com/sketch -->
    <title>yammer</title>
    <desc>Created with Sketch.</desc>
    <defs></defs>
    <g id="Page-1" stroke="none" stroke-width="1" fill="none" fill-rule="evenodd" sketch:type="MSPage">
        <g id="yammer" sketch:type="MSLayerGroup" fill="#000000">
            <path d="M0.5,3.5 C0.375,4.25 0.5,4.938 0.75,5.625 C5.125,16.313 9.563,27 14,37.75 C14.125,38.063 14.313,38.375 14.375,38.75 C14.062,39.5 13.625,40.25 13.375,41.063 C12.75,42.626 12,44.251 10.625,45.376 C9.437,46.376 7.812,46.751 6.25,46.689 C5.437,46.689 4.562,46.439 3.75,46.689 C2.687,47.002 1.875,47.939 1.687,49.002 C1.437,50.502 2.5,52.065 4,52.315 C6.438,52.628 9,52.628 11.375,51.877 C13.188,51.314 14.813,50.127 16,48.627 C17.625,46.564 18.688,44.064 19.625,41.689 C24.5,29.564 29.313,17.439 34.25,5.376 C34.75,3.813 33.875,1.938 32.375,1.438 C30.875,0.813 29,1.563 28.312,3.001 C24.999,12.001 21.499,21.001 18.062,29.939 C18.062,30.127 17.937,30.252 17.812,30.377 L6.937,2.814 C6.374,1.564 5.062,0.751 3.749,0.814 C2.186,0.814 0.749,2.002 0.499,3.502 L0.5,3.5 Z M50.563,7.25 C49.125,8 47.875,9 46.5,9.875 C44.187,11.5 41.937,13.125 39.75,14.938 C38.5,15.938 37.25,16.938 36.187,18.188 C35.999,18.501 35.687,18.813 35.687,19.251 C35.687,19.439 36,19.501 36.187,19.564 C37,19.689 37.875,19.439 38.687,19.251 C40.5,18.688 42.187,18.001 43.937,17.313 C47.125,15.938 50.25,14.375 53.25,12.75 C54.5,11.937 54.875,10.187 54.25,8.875 C53.625,7.563 51.937,6.812 50.562,7.25 L50.563,7.25 Z M56.375,24.25 C52.875,24.563 49.437,25 46,25.625 C44.5,25.875 43,26.188 41.562,26.688 C41.062,26.876 40.499,27.001 40.187,27.501 C40.375,27.751 40.562,28.001 40.812,28.126 C41.5,28.501 42.187,28.689 42.937,28.876 C44.812,29.314 46.75,29.564 48.687,29.751 C52,30.064 55.25,30.126 58.5,30.189 C60,30.252 61.375,29.001 61.5,27.501 C61.75,26.001 60.687,24.376 59.125,24.063 C58.187,24 57.312,24.188 56.375,24.251 L56.375,24.25 Z M35.938,35.063 C35.625,35.188 35.625,35.626 35.813,35.813 C36.126,36.438 36.626,36.876 37.126,37.376 C39.001,39.189 41.064,40.751 43.126,42.314 C45.376,43.939 47.689,45.564 50.064,47.064 C50.752,47.564 51.689,47.564 52.502,47.252 C53.627,46.877 54.502,45.752 54.565,44.502 C54.628,43.377 54.002,42.127 52.94,41.627 C49.315,39.752 45.627,37.939 41.815,36.439 C40.377,35.876 38.877,35.314 37.315,35.064 C36.815,35.001 36.377,34.939 35.94,35.064 L35.938,35.063 Z" id="Shape" sketch:type="MSShapeGroup"></path>
        </g>
    </g>
</svg>