<?xml version="1.0" encoding="UTF-8"?>
<svg width="20px" height="20px" viewBox="0 0 20 20" version="1.1" xmlns="http://www.w3.org/2000/svg" xmlns:xlink="http://www.w3.org/1999/xlink">
    <!-- Generator: Sketch 48.2 (47327) - http://www.bohemiancoding.com/sketch -->
    <title>buddicons/settings</title>
    <desc>Created with Sketch.</desc>
    <defs></defs>
    <g id="Icons" stroke="none" stroke-width="1" fill="none" fill-rule="evenodd">
        <g id="buddicons/settings" fill="#000000">
            <path d="M17.6528945,11.5469756 L16.2337431,11.7834686 C16.1027359,12.2203699 15.931483,12.6350653 15.7185964,13.0289427 L16.554322,14.1994719 C16.9881443,14.6330423 16.9881443,15.3364146 16.554322,15.769985 L15.7696669,16.554964 C15.3358446,16.9885345 14.6327914,16.9885345 14.1992466,16.554964 L13.0287867,15.7189114 C12.634655,15.931533 12.2202617,16.1030737 11.7836638,16.2343662 L11.5469072,17.6536015 C11.5469072,18.2664847 11.0498017,18.7638971 10.4366772,18.7638971 L9.32644726,18.7638971 C8.7130452,18.7638971 8.21621729,18.2664847 8.21621729,17.6536015 L7.97946075,16.2343662 C7.54286281,16.1030737 7.12846947,15.931533 6.73433783,15.7189114 L5.56387787,16.554964 C5.13005551,16.9885345 4.42700238,16.9885345 3.99373513,16.554964 L3.20852498,15.769985 C2.77498017,15.3364146 2.77498017,14.6330423 3.20852498,14.1994719 L4.04480571,13.0289427 C3.83164155,12.6350653 3.66011102,12.2203699 3.52938144,11.7834686 L2.11022998,11.5469756 C1.49710547,11.5469756 1,11.0498408 1,10.4361249 L1,9.32693955 C1,8.71350122 1.49710547,8.21608879 2.11022998,8.21608879 L3.529659,7.97931825 C3.66038858,7.54241692 3.83191911,7.12827666 4.04480571,6.73412171 L3.20852498,5.56359256 C2.77498017,5.13002212 2.77498017,4.42720499 3.20852498,3.99335698 L3.99373513,3.20837798 C4.42727994,2.77508512 5.13033307,2.77508512 5.56387787,3.20837798 L6.73433783,4.04470815 C7.12846947,3.83180897 7.54286281,3.6602683 7.97946075,3.52925341 L8.21621729,2.11029562 C8.21621729,1.49713486 8.7130452,1 9.32644726,1 L10.4366772,1 C11.0498017,1 11.5469072,1.49713486 11.5469072,2.11029562 L11.7836638,3.52925341 C12.2202617,3.6602683 12.634655,3.83180897 13.0287867,4.04470815 L14.1992466,3.20837798 C14.633069,2.77508512 15.3361221,2.77508512 15.7696669,3.20837798 L16.554322,3.99335698 C16.9881443,4.42720499 16.9881443,5.13002212 16.554322,5.56359256 L15.7183188,6.73412171 C15.9317605,7.12827666 16.1030135,7.5426945 16.2337431,7.97931825 L17.6528945,8.21608879 C18.266019,8.21608879 18.7631245,8.71350122 18.7631245,9.32693955 L18.7631245,10.4361249 C18.7631245,11.0498408 18.266019,11.5469756 17.6528945,11.5469756 L17.6528945,11.5469756 Z M17.0977795,9.32693955 L15.354996,9.03631967 C15.2164948,8.13753537 14.8620539,7.31230815 14.3474623,6.61198919 L15.3769231,5.17082548 C15.5934179,4.95431784 15.5934179,4.6026317 15.3769231,4.38612406 C15.1598731,4.16906126 14.8084853,4.16906126 14.5917129,4.38612406 L13.1492466,5.41620082 C12.4495242,4.90518726 11.6251784,4.55350112 10.7283902,4.41526932 L10.4363997,2.66433313 C10.4363997,2.35816911 10.1877082,2.10974047 9.88128469,2.10974047 C9.57486122,2.10974047 9.32616971,2.35816911 9.32616971,2.66433313 L9.03445678,4.41526932 C8.13766852,4.55350112 7.3130452,4.90546483 6.61332276,5.41620082 L5.17085646,4.38612406 C4.95408406,4.16906126 4.60269627,4.16906126 4.38592387,4.38612406 C4.16915147,4.6026317 4.16915147,4.95431784 4.38592387,5.17082548 L5.41510706,6.61198919 C4.90051546,7.31203058 4.54607454,8.13753537 4.40757335,9.03631967 L2.66478985,9.32693955 C2.35836638,9.32693955 2.10967486,9.57509062 2.10967486,9.88153221 C2.10967486,10.1879738 2.35836638,10.4361249 2.66478985,10.4361249 L4.40757335,10.7270223 C4.54607454,11.6255291 4.90051546,12.4504787 5.41510706,13.1507977 L4.38592387,14.5914062 C4.16915147,14.8087466 4.16915147,15.1598776 4.38592387,15.3766628 C4.60269627,15.5940032 4.95408406,15.5940032 5.17085646,15.3766628 L6.61332276,14.3460309 C7.3130452,14.857322 8.13739096,15.2090082 9.03445678,15.34724 L9.32616971,17.0984537 C9.32616971,17.4043402 9.57486122,17.653324 9.88128469,17.653324 C10.1877082,17.653324 10.4363997,17.4043402 10.4363997,17.0984537 L10.7283902,15.34724 C11.6249009,15.2090082 12.4492466,14.857322 13.1492466,14.3460309 L14.5917129,15.3766628 C14.8084853,15.5940032 15.1598731,15.5940032 15.3769231,15.3766628 C15.5934179,15.1598776 15.5934179,14.8087466 15.3769231,14.5914062 L14.3474623,13.1507977 C14.8620539,12.4507563 15.2164948,11.6252515 15.354996,10.7270223 L17.0977795,10.4361249 C17.404203,10.4361249 17.6528945,10.1879738 17.6528945,9.88153221 C17.6528945,9.57509062 17.4044806,9.32693955 17.0977795,9.32693955 L17.0977795,9.32693955 Z M9.88128469,12.6569937 C8.34861221,12.6569937 7.10570975,11.4137402 7.10570975,9.88125464 C7.10570975,8.34821397 8.34861221,7.10523802 9.88128469,7.10523802 C11.4139572,7.10523802 12.6568596,8.34849154 12.6568596,9.88125464 C12.6568596,11.4140177 11.4139572,12.6569937 9.88128469,12.6569937 L9.88128469,12.6569937 Z M9.88128469,8.21581121 C8.96173672,8.21581121 8.21593973,8.96109715 8.21593973,9.88125464 C8.21593973,10.800857 8.96173672,11.5466981 9.88128469,11.5466981 C10.8008327,11.5466981 11.5466297,10.800857 11.5466297,9.88125464 C11.5466297,8.96109715 10.8011102,8.21581121 9.88128469,8.21581121 L9.88128469,8.21581121 Z" id="Shape"></path>
        </g>
    </g>
</svg>