<?xml version="1.0" encoding="UTF-8"?>
<svg width="20px" height="20px" viewBox="0 0 20 20" version="1.1" xmlns="http://www.w3.org/2000/svg" xmlns:xlink="http://www.w3.org/1999/xlink">
    <!-- Generator: Sketch 48.2 (47327) - http://www.bohemiancoding.com/sketch -->
    <title>buddicons/resize-vertical</title>
    <desc>Created with Sketch.</desc>
    <defs></defs>
    <g id="Icons" stroke="none" stroke-width="1" fill="none" fill-rule="evenodd">
        <g id="buddicons/resize-vertical" fill="#000000">
            <path d="M13.6131939,5.28268777 C13.4016951,5.49475423 13.058634,5.49475423 12.8465801,5.28268777 L10.4409893,2.87695474 L10.4409893,16.8880527 L12.8465801,14.4820421 C13.058634,14.2699756 13.4016951,14.2699756 13.6131939,14.4820421 C13.8252478,14.6941086 13.8252478,15.0369123 13.6131939,15.2489788 L10.3355174,18.5265715 C10.3171987,18.552941 10.3063739,18.582919 10.282504,18.6062352 C10.2625198,18.6264981 10.2317109,18.6201139 10.2092288,18.6364907 C10.1273493,18.7017206 10.0329798,18.7472427 9.92223434,18.7558475 C9.91196471,18.7558475 9.9041931,18.7627869 9.89364592,18.7627869 C9.89059278,18.7627869 9.88864988,18.7650074 9.88587431,18.7650074 C9.88309873,18.7650074 9.88060071,18.7630644 9.87782514,18.7630644 C9.87060864,18.7630644 9.86505749,18.7591784 9.85811856,18.7589008 C9.72572363,18.7519615 9.60720658,18.7003327 9.51561261,18.616783 C9.50811856,18.6098436 9.4967387,18.6128969 9.4895222,18.6059576 C9.46676249,18.582919 9.45649286,18.5537737 9.43845163,18.5285145 L6.15883228,15.2489788 C5.94705591,15.0369123 5.94705591,14.6941086 6.15883228,14.4820421 C6.37033109,14.2699756 6.71366971,14.2699756 6.92544607,14.4820421 L9.33103688,16.8880527 L9.33103688,2.87695474 L6.92544607,5.28268777 C6.71366971,5.49475423 6.37033109,5.49475423 6.15883228,5.28268777 C5.94705591,5.0706213 5.94705591,4.72781753 6.15883228,4.51575107 L9.43872918,1.23566024 C9.45621531,1.20984587 9.46676249,1.18097819 9.4895222,1.15793955 C9.49701626,1.15044506 9.50950634,1.15349837 9.51838818,1.14655902 C9.60942704,1.063842 9.7265563,1.01332355 9.85728588,1.00582905 C9.86477994,1.00555148 9.8708862,1.00166544 9.87838025,1.00166544 C9.88115583,1.00166544 9.88365385,1 9.88615186,1 C9.88864988,1 9.89087034,1.00222059 9.89364592,1.00222059 C9.9041931,1.00166544 9.91224227,1.00860479 9.92306701,1.00943751 C10.0329798,1.01748716 10.1267942,1.06217655 10.2083961,1.12740642 C10.2311558,1.14378328 10.2619647,1.13739908 10.282504,1.15766198 C10.3060964,1.18125576 10.3169211,1.21067859 10.3349623,1.23677054 L13.6131939,4.51575107 C13.8249703,4.72781753 13.8249703,5.0706213 13.6131939,5.28268777 L13.6131939,5.28268777 Z" id="Shape"></path>
        </g>
    </g>
</svg>