<?xml version="1.0" encoding="UTF-8"?>
<svg width="20px" height="20px" viewBox="0 0 20 20" version="1.1" xmlns="http://www.w3.org/2000/svg" xmlns:xlink="http://www.w3.org/1999/xlink">
    <!-- Generator: Sketch 48.2 (47327) - http://www.bohemiancoding.com/sketch -->
    <title>buddicons/icon-extensions</title>
    <desc>Created with Sketch.</desc>
    <defs></defs>
    <g id="Icons" stroke="none" stroke-width="1" fill="none" fill-rule="evenodd">
        <g id="buddicons/icon-extensions" fill="#000000">
            <path d="M18.7636796,14.3232698 L18.7636796,15.433843 L16.5429421,15.433843 L16.5429421,16.5438611 L15.4329897,16.5438611 L15.4329897,18.7650074 L14.3224822,18.7650074 L14.3224822,16.5438611 L12.1020222,16.5438611 L12.1020222,18.7650074 L10.9920698,18.7650074 L10.9920698,16.5438611 L8.77133228,16.5438611 L8.77133228,18.7650074 L7.66137986,18.7650074 L7.66137986,16.5438611 L5.44064235,16.5438611 L5.44064235,18.7650074 L4.33041237,18.7650074 L4.33041237,16.5438611 L3.22018239,16.5438611 L3.22018239,15.433843 L1,15.433843 L1,14.3232698 L3.22018239,14.3232698 L3.22018239,12.102401 L1,12.102401 L1,10.9926606 L3.22018239,10.9926606 L3.22018239,8.77206932 L1,8.77206932 L1,7.66205127 L3.22018239,7.66205127 L3.22018239,5.44090489 L1,5.44090489 L1,4.3303317 L3.22018239,4.3303317 L3.22018239,3.22059123 L4.33041237,3.22059123 L4.33041237,1 L5.44064235,1 L5.44064235,3.22059123 L7.66137986,3.22059123 L7.66137986,1 L8.77133228,1 L8.77133228,3.22059123 L10.9920698,3.22059123 L10.9920698,1 L12.1020222,1 L12.1020222,3.22059123 L14.3224822,3.22059123 L14.3224822,1 L15.4329897,1 L15.4329897,3.22059123 L16.5429421,3.22059123 L16.5429421,4.3303317 L18.7636796,4.3303317 L18.7636796,5.44090489 L16.5429421,5.44090489 L16.5429421,7.66205127 L18.7636796,7.66205127 L18.7636796,8.77206932 L16.5429421,8.77206932 L16.5429421,10.9926606 L18.7636796,10.9926606 L18.7636796,12.102401 L16.5429421,12.102401 L16.5429421,14.3232698 L18.7636796,14.3232698 L18.7636796,14.3232698 Z M15.4329897,4.3303317 L14.3224822,4.3303317 L12.1020222,4.3303317 L10.9920698,4.3303317 L8.77133228,4.3303317 L7.66137986,4.3303317 L5.44064235,4.3303317 L4.33041237,4.3303317 L4.33041237,5.44090489 L4.33041237,7.66205127 L4.33041237,8.77206932 L4.33041237,10.9926606 L4.33041237,12.102401 L4.33041237,14.3232698 L4.33041237,15.433843 L5.44064235,15.433843 L7.66137986,15.433843 L8.77133228,15.433843 L10.9920698,15.433843 L12.1020222,15.433843 L14.3224822,15.433843 L15.4329897,15.433843 L15.4329897,14.3232698 L15.4329897,12.102401 L15.4329897,10.9926606 L15.4329897,8.77206932 L15.4329897,7.66205127 L15.4329897,5.44090489 L15.4329897,4.3303317 L15.4329897,4.3303317 Z" id="Shape"></path>
        </g>
    </g>
</svg>