<?xml version="1.0" encoding="UTF-8"?>
<svg width="20px" height="20px" viewBox="0 0 20 20" version="1.1" xmlns="http://www.w3.org/2000/svg" xmlns:xlink="http://www.w3.org/1999/xlink">
    <!-- Generator: Sketch 52.5 (67469) - http://www.bohemiancoding.com/sketch -->
    <title>icon/clock</title>
    <desc>Created with Sketch.</desc>
    <g id="icon/clock" stroke="none" stroke-width="1" fill="none" fill-rule="evenodd">
        <path d="M9.88183981,18.7655626 C4.97628866,18.7655626 1,14.7887613 1,9.88292008 C1,4.97763405 4.97628866,1 9.88183981,1 C14.7871134,1 18.7636796,4.97763405 18.7636796,9.88292008 C18.7636796,14.7887613 14.7871134,18.7655626 9.88183981,18.7655626 L9.88183981,18.7655626 Z M9.88183981,2.11057319 C5.58941316,2.11057319 2.11022998,5.5907948 2.11022998,9.88292008 C2.11022998,14.1750454 5.58941316,17.6558221 9.88183981,17.6558221 C14.1737113,17.6558221 17.6531721,14.1750454 17.6531721,9.88292008 C17.6531721,5.5907948 14.1737113,2.11057319 9.88183981,2.11057319 L9.88183981,2.11057319 Z M14.321927,10.9890521 L9.34698652,10.9890521 C9.33977002,10.9890521 9.33366376,10.9929381 9.32672482,10.9929381 C9.14131642,10.9929381 8.9853291,10.89662 8.88429818,10.7572779 C8.8168517,10.6659561 8.76883426,10.5602004 8.76883426,10.438623 C8.76883426,10.4341819 8.77133228,10.430851 8.77160983,10.4266874 L8.77160983,5.44229276 C8.77160983,5.13585117 9.02002379,4.88714495 9.32672482,4.88714495 C9.6331483,4.88714495 9.88183981,5.13585117 9.88183981,5.44229276 L9.88183981,9.88874913 L14.321927,9.88874913 C14.6300159,9.88874913 14.8800952,10.134402 14.8800952,10.438623 C14.8800952,10.7422889 14.6300159,10.9890521 14.321927,10.9890521 L14.321927,10.9890521 Z" id="Shape" fill="#000000"></path>
    </g>
</svg>