<?xml version="1.0" encoding="UTF-8"?>
<svg width="20px" height="20px" viewBox="0 0 20 20" version="1.1" xmlns="http://www.w3.org/2000/svg" xmlns:xlink="http://www.w3.org/1999/xlink">
    <!-- Generator: Sketch 52.5 (67469) - http://www.bohemiancoding.com/sketch -->
    <title>icon/reload</title>
    <desc>Created with Sketch.</desc>
    <g id="icon/reload" stroke="none" stroke-width="1" fill="none" fill-rule="evenodd">
        <path d="M9.89016653,18.7650074 C6.60444092,18.7650074 3.7425456,16.9760436 2.20598731,14.3232698 L3.52438541,14.3232698 C4.929659,16.3331825 7.25198255,17.6547118 9.89016653,17.6547118 C14.1823156,17.6547118 17.6620539,14.1753229 17.6620539,9.88236493 C17.6620539,5.58996208 14.1823156,2.11029562 9.89016653,2.11029562 C6.79567803,2.11029562 4.14639175,3.93229072 2.89571768,6.55009021 L7.11181602,6.55009021 C7.41879461,6.55009021 7.66748612,6.79907401 7.66748612,7.10579317 C7.66748612,7.41278991 7.41879461,7.66205127 7.11181602,7.66205127 L4.33929421,7.66205127 L2.479659,7.66205127 L1.30309278,7.66205127 C1.30808882,7.64289867 1.30947661,7.62291335 1.31447264,7.60403833 C1.23425852,7.56295739 1.16986519,7.50161356 1.11823949,7.42833405 C1.10352895,7.40918145 1.0907613,7.39086157 1.07854877,7.36976595 C1.04801745,7.31119786 1.03025377,7.24791101 1.02192704,7.17879511 C1.01776368,7.15298073 1,7.13299541 1,7.1055156 C1,7.08997146 1.00749405,7.07720306 1.00860428,7.06193649 L1.00860428,1.55792355 C1.00860428,1.25148196 1.25757335,1.00277574 1.56427439,1.00277574 C1.87125297,1.00277574 2.12022205,1.25148196 2.12022205,1.55792355 L2.12022205,5.61994006 C3.6295797,2.87251356 6.53366376,1 9.89016653,1 C14.7954401,1 18.7720063,4.97624618 18.7720063,9.88208736 C18.7720063,14.7887613 14.7954401,18.7650074 9.89016653,18.7650074 L9.89016653,18.7650074 Z" id="Shape" fill="#000000" transform="translate(9.886003, 9.882504) scale(-1, 1) translate(-9.886003, -9.882504) "></path>
    </g>
</svg>