<?xml version="1.0" encoding="UTF-8"?>
<svg width="20px" height="20px" viewBox="0 0 20 20" version="1.1" xmlns="http://www.w3.org/2000/svg" xmlns:xlink="http://www.w3.org/1999/xlink">
    <!-- Generator: Sketch 52.5 (67469) - http://www.bohemiancoding.com/sketch -->
    <title>icon/plane</title>
    <desc>Created with Sketch.</desc>
    <g id="icon/plane" stroke="none" stroke-width="1" fill="none" fill-rule="evenodd">
        <path d="M17.22357,2.11529195 L17.22357,2.11529195 C17.4050926,2.11529195 17.5324915,2.14915596 17.5991053,2.17386004 C17.6790419,2.3870368 17.7859015,3.15092018 16.9987485,3.93923007 L13.3374876,7.60792436 L12.984712,7.96183109 L13.013578,8.46090897 C13.074363,9.50569715 13.1873289,11.3771004 13.2847516,12.9812 C13.3705169,14.4095953 13.4521188,15.7586045 13.4573924,15.8732425 C13.4604455,15.9517959 13.4612782,15.9706709 13.388003,16.0594946 C13.2239665,16.2587927 12.9178206,16.5977104 12.6596922,16.8788928 C12.2594542,15.79802 11.4181775,13.5160849 10.9538238,12.2389674 L10.3570752,10.5951747 L9.12249945,11.832044 L6.8523567,14.019604 L6.53621872,14.3363158 L6.52650421,14.7832098 C6.51901015,15.1398923 6.5206755,15.7808104 6.52150817,16.3462284 C6.5226184,16.7395507 6.52372863,17.0970659 6.52095306,17.2938657 C6.51595702,17.3030257 6.59700381,17.3138511 6.58950976,17.326897 C6.54093719,17.2488988 6.48903394,17.1656266 6.4338,17.0776357 C5.97610769,16.3467836 5.34272149,15.3353043 5.14926392,15.0197028 L5.00798716,14.7882061 L4.77622665,14.6477537 C3.93245187,14.1372953 2.9984709,13.5482835 2.42809025,13.1796653 C2.44751927,13.1671745 2.46389516,13.2279632 2.47694037,13.2210239 L2.51413307,13.2210239 C2.69343521,13.2210239 2.98986662,13.2246323 3.32210294,13.2299062 C3.75648041,13.2357353 4.24997764,13.242397 4.62745583,13.242397 C4.77178573,13.242397 4.90057241,13.2412867 5.00354624,13.2396213 L5.44985869,13.2290735 L5.76571911,12.9126392 L7.95148438,10.6534652 L9.18161919,9.4210371 L7.54902601,8.81897931 C6.32194433,8.36681142 3.97158747,7.48773486 2.87218224,7.07387217 C3.15418065,6.814063 3.49418858,6.50484567 3.69236463,6.33996677 C3.74759857,6.29472222 3.79061999,6.27085087 3.8205962,6.27085087 L3.8597318,6.27196116 C3.98241221,6.27779021 5.50564774,6.37827197 6.97781269,6.47403496 C8.54129405,6.57729246 10.3054495,6.69165291 11.3088198,6.7554949 L11.8100887,6.78658318 L12.1653623,6.43101101 L15.8257905,2.76342701 C16.3892322,2.19911927 16.943237,2.11529195 17.22357,2.11529195 L17.22357,2.11529195 Z M17.22357,1 C16.5663139,1 15.7600094,1.2531474 15.038915,1.9753947 L11.3784868,5.64353384 C9.31651214,5.51279653 4.03598081,5.16277584 3.90497367,5.15888981 C3.88165884,5.15805708 3.85279287,5.15722436 3.82031864,5.15722436 C3.64184917,5.15722436 3.33403791,5.19108838 2.98376035,5.48143068 C2.5726977,5.82229144 1.71476749,6.62975392 1.71476749,6.62975392 C1.50798716,6.83821193 1.40307042,7.09607808 1.4280506,7.33784495 C1.44331626,7.4841264 1.5226977,7.75031978 1.88130198,7.89132732 C2.09918462,7.9776528 5.56448993,9.27586595 7.16460888,9.86598807 L4.97884362,12.1248845 C4.88225361,12.1271051 4.76207122,12.1287705 4.62690072,12.1287705 C3.96020762,12.1287705 2.92713862,12.1073973 2.51357796,12.1073973 C2.45862157,12.1073973 2.41448993,12.1073973 2.38368105,12.1082301 C2.25739239,12.1121161 1.9967659,12.049662 1.30870087,12.626183 L1.2595732,12.6714275 C1.05334798,12.8784977 1.00505298,13.0844575 1.0003345,13.2210239 C0.995893579,13.3614762 1.0336414,13.5635501 1.23625837,13.7262084 C1.35782855,13.8247471 2.91964457,14.8267889 4.20029485,15.6020528 C4.50727344,16.1036288 5.92004108,18.3533653 5.99414893,18.476053 C6.10156368,18.6581415 6.27753513,18.7616766 6.48820127,18.7683383 L6.50568739,18.7683383 C6.71052482,18.7683383 6.92063585,18.6664687 7.12658351,18.4663379 C7.70889913,17.7837837 7.62840746,17.501491 7.63090547,17.3821343 C7.64006487,17.0101852 7.62452165,15.4335654 7.63784441,14.808469 L9.90798716,12.6211866 C10.4880823,14.2177917 11.7562425,17.6538791 11.8411751,17.8728849 C11.9821743,18.2326207 12.2486295,18.3108965 12.3946247,18.325608 C12.4184947,18.3289388 12.4429197,18.329494 12.4667897,18.329494 C12.6863377,18.329494 12.9136573,18.2265141 13.1001759,18.0394293 C13.1001759,18.0394293 13.9039824,17.1847792 14.2456557,16.7689735 C14.5878841,16.3528902 14.5742837,15.9978732 14.5676224,15.8302186 C14.5648468,15.7141927 14.2428801,10.4527793 14.1232528,8.39706697 L17.7845137,4.72837268 C19.0823726,3.42710622 18.8758698,1.85936881 18.39403,1.37805566 C18.1805883,1.16321346 17.749819,1 17.22357,1 L17.22357,1 L17.22357,1 Z" id="Shape" fill="#000000"></path>
    </g>
</svg>