<?xml version="1.0" encoding="UTF-8"?>
<svg width="20px" height="20px" viewBox="0 0 20 20" version="1.1" xmlns="http://www.w3.org/2000/svg" xmlns:xlink="http://www.w3.org/1999/xlink">
    <!-- Generator: Sketch 55.2 (78181) - https://sketchapp.com -->
    <title>icon/groups</title>
    <desc>Created with Sketch.</desc>
    <g id="icon/groups" stroke="none" stroke-width="1" fill="none" fill-rule="evenodd">
        <path d="M10.55,8.45 L15,8.45 C15.8560414,8.45 16.55,9.14395864 16.55,10 L16.55,13 C16.55,13.3037566 16.3037566,13.55 16,13.55 C15.6962434,13.55 15.45,13.3037566 15.45,13 L15.45,10 C15.45,9.75147186 15.2485281,9.55 15,9.55 L10.55,9.55 L10.55,13 C10.55,13.3037566 10.3037566,13.55 10,13.55 C9.69624339,13.55 9.45,13.3037566 9.45,13 L9.45,9.55 L5,9.55 C4.75147186,9.55 4.55,9.75147186 4.55,10 L4.55,13 C4.55,13.3037566 4.30375661,13.55 4,13.55 C3.69624339,13.55 3.45,13.3037566 3.45,13 L3.45,10 C3.45,9.14395864 4.14395864,8.45 5,8.45 L9.45,8.45 L9.45,7 C9.45,6.69624339 9.69624339,6.45 10,6.45 C10.3037566,6.45 10.55,6.69624339 10.55,7 L10.55,8.45 Z M10,6 C8.8954305,6 8,5.1045695 8,4 C8,2.8954305 8.8954305,2 10,2 C11.1045695,2 12,2.8954305 12,4 C12,5.1045695 11.1045695,6 10,6 Z M10,4.9 C10.4970563,4.9 10.9,4.49705627 10.9,4 C10.9,3.50294373 10.4970563,3.1 10,3.1 C9.50294373,3.1 9.1,3.50294373 9.1,4 C9.1,4.49705627 9.50294373,4.9 10,4.9 Z M4,18 C2.8954305,18 2,17.1045695 2,16 C2,14.8954305 2.8954305,14 4,14 C5.1045695,14 6,14.8954305 6,16 C6,17.1045695 5.1045695,18 4,18 Z M4,16.9 C4.49705627,16.9 4.9,16.4970563 4.9,16 C4.9,15.5029437 4.49705627,15.1 4,15.1 C3.50294373,15.1 3.1,15.5029437 3.1,16 C3.1,16.4970563 3.50294373,16.9 4,16.9 Z M10,18 C8.8954305,18 8,17.1045695 8,16 C8,14.8954305 8.8954305,14 10,14 C11.1045695,14 12,14.8954305 12,16 C12,17.1045695 11.1045695,18 10,18 Z M10,16.9 C10.4970563,16.9 10.9,16.4970563 10.9,16 C10.9,15.5029437 10.4970563,15.1 10,15.1 C9.50294373,15.1 9.1,15.5029437 9.1,16 C9.1,16.4970563 9.50294373,16.9 10,16.9 Z M16,18 C14.8954305,18 14,17.1045695 14,16 C14,14.8954305 14.8954305,14 16,14 C17.1045695,14 18,14.8954305 18,16 C18,17.1045695 17.1045695,18 16,18 Z M16,16.9 C16.4970563,16.9 16.9,16.4970563 16.9,16 C16.9,15.5029437 16.4970563,15.1 16,15.1 C15.5029437,15.1 15.1,15.5029437 15.1,16 C15.1,16.4970563 15.5029437,16.9 16,16.9 Z" id="Combined-Shape" fill="#000000"></path>
    </g>
</svg>