<?xml version="1.0" encoding="UTF-8"?>
<svg width="20px" height="20px" viewBox="0 0 20 20" version="1.1" xmlns="http://www.w3.org/2000/svg" xmlns:xlink="http://www.w3.org/1999/xlink">
    <!-- Generator: Sketch 54.1 (76490) - https://sketchapp.com -->
    <title>icon/reload-check</title>
    <desc>Created with Sketch.</desc>
    <g id="icon/reload-check" stroke="none" stroke-width="1" fill="none" fill-rule="evenodd">
        <path d="M11,17.5744059 L11,18.6950886 C10.6338345,18.7412286 10.2606539,18.7650074 9.88183981,18.7650074 C4.97656622,18.7650074 1,14.7887613 1,9.88208736 C1,4.97624618 4.97656622,1 9.88183981,1 C13.2383426,1 16.1424266,2.87251356 17.6517843,5.61994006 L17.6517843,1.55792355 C17.6517843,1.25148196 17.9007534,1.00277574 18.207732,1.00277574 C18.514433,1.00277574 18.7634021,1.25148196 18.7634021,1.55792355 L18.7634021,7.06193649 C18.7645123,7.07720306 18.7720063,7.08997146 18.7720063,7.1055156 C18.7720063,7.13299541 18.7542427,7.15298073 18.7500793,7.17879511 C18.7417526,7.24791101 18.7239889,7.31119786 18.6934576,7.36976595 C18.681245,7.39086157 18.6684774,7.40918145 18.6537669,7.42833405 C18.6021412,7.50161356 18.5377478,7.56295739 18.4575337,7.60403833 C18.4625297,7.62291335 18.4639175,7.64289867 18.4689136,7.66205127 L17.2923473,7.66205127 L15.4327121,7.66205127 L12.6601903,7.66205127 C12.3532117,7.66205127 12.1045202,7.41278991 12.1045202,7.10579317 C12.1045202,6.79907401 12.3532117,6.55009021 12.6601903,6.55009021 L16.8762887,6.55009021 C15.6256146,3.93229072 12.9763283,2.11029562 9.88183981,2.11029562 C5.58969072,2.11029562 2.10995242,5.58996208 2.10995242,9.88236493 C2.10995242,14.1753229 5.58969072,17.6547118 9.88183981,17.6547118 C10.2617067,17.6547118 10.635025,17.6273132 11,17.5744059 Z" id="Combined-Shape" fill="#000000"></path>
        <path d="M13.0759715,15.4192635 L14.8581681,17.2218284 L17.7822363,14.2631682 C18.0053925,14.0375006 18.3667724,14.0375006 18.5899286,14.2631682 C18.8128073,14.4891134 18.8128073,14.8549558 18.5899286,15.0797906 L15.3597145,18.3479458 C15.2228787,18.4867327 15.0352498,18.5300343 14.8578906,18.4981133 C14.6805313,18.5300343 14.49318,18.4864552 14.3560666,18.3479458 L12.2682791,16.2350532 C12.0454005,16.0096632 12.0454005,15.6443759 12.2682791,15.4189859 C12.4911578,15.1933184 12.8528152,15.1933184 13.0759715,15.4192635 L13.0759715,15.4192635 Z" id="Shape" fill="#000000"></path>
    </g>
</svg>