<?xml version="1.0" encoding="UTF-8"?>
<svg width="20px" height="20px" viewBox="0 0 20 20" version="1.1" xmlns="http://www.w3.org/2000/svg" xmlns:xlink="http://www.w3.org/1999/xlink">
    <!-- Generator: Sketch 52.5 (67469) - http://www.bohemiancoding.com/sketch -->
    <title>icon/folder-plus</title>
    <desc>Created with Sketch.</desc>
    <g id="icon/folder-plus" stroke="none" stroke-width="1" fill="none" fill-rule="evenodd">
        <path d="M17.6534496,18.7644523 L2.11022998,18.7644523 C1.49710547,18.7644523 1,18.2673174 1,17.6541567 L1,6.55120051 L1,5.44090489 L1,4.33060928 L1,2.11001804 C1,1.49713486 1.49710547,1 2.11022998,1 L7.66137986,1 C8.27450436,1 8.77160983,1.49713486 8.77160983,2.11001804 L8.77160983,3.22031366 L17.6534496,3.22031366 C18.2665741,3.22031366 18.7636796,3.7177261 18.7636796,4.33088685 L18.7636796,6.55147808 L18.7636796,17.6544343 C18.7636796,18.2673174 18.2665741,18.7644523 17.6534496,18.7644523 L17.6534496,18.7644523 Z M17.0986122,4.33060928 L15.9883822,4.33060928 L7.66165741,4.33060928 L7.66165741,3.77546147 L7.66165741,3.22031366 L7.66165741,2.66516585 C7.66165741,2.35927941 7.41324346,2.11001804 7.10654243,2.11001804 L2.66562252,2.11001804 C2.35919905,2.11001804 2.11050753,2.35927941 2.11050753,2.66516585 L2.11050753,3.22031366 L2.11050753,3.77546147 L2.11050753,4.33060928 L2.11050753,5.44090489 L15.9883822,5.44090489 L17.0986122,5.44090489 C17.4050357,5.44090489 17.6537272,5.19247625 17.6537272,4.88520194 C17.6534496,4.57903792 17.4050357,4.33060928 17.0986122,4.33060928 L17.0986122,4.33060928 Z M17.6534496,7.66149613 L17.6534496,7.10662589 L17.6534496,6.55120051 L17.0983347,6.55120051 L2.66534496,6.55120051 L2.11022998,6.55120051 L2.11022998,7.10662589 L2.11022998,7.66149613 L2.11022998,17.1001192 C2.11022998,17.4065608 2.35892149,17.6544343 2.66534496,17.6544343 L17.0983347,17.6544343 C17.4047581,17.6544343 17.6534496,17.4065608 17.6534496,17.1001192 L17.6534496,7.66149613 L17.6534496,7.66149613 Z M13.2164948,12.9420152 L10.4409199,12.9420152 L10.4409199,15.7177542 C10.4409199,16.0241958 10.1922284,16.2726245 9.88580492,16.2726245 C9.57938144,16.2726245 9.33068993,16.0241958 9.33068993,15.7177542 L9.33068993,12.9420152 L6.55511499,12.9420152 C6.24869151,12.9420152 6,12.693309 6,12.3865898 C6,12.0798706 6.24869151,11.831442 6.55511499,11.831442 L9.33068993,11.831442 L9.33068993,9.05570296 C9.33068993,8.74953894 9.57938144,8.5 9.88580492,8.5 C10.1922284,8.5 10.4409199,8.74953894 10.4409199,9.05570296 L10.4409199,11.831442 L13.2164948,11.831442 C13.5231959,11.831442 13.7716098,12.0798706 13.7716098,12.3865898 C13.7716098,12.693309 13.5231959,12.9420152 13.2164948,12.9420152 L13.2164948,12.9420152 Z" id="Shape" fill="#000000"></path>
    </g>
</svg>