<?xml version="1.0" encoding="UTF-8" standalone="no"?>
<svg width="88px" height="52px" viewBox="0 0 88 52" version="1.1" xmlns="http://www.w3.org/2000/svg" xmlns:xlink="http://www.w3.org/1999/xlink" xmlns:sketch="http://www.bohemiancoding.com/sketch/ns">
    <!-- Generator: Sketch 3.4 (15588) - http://www.bohemiancoding.com/sketch -->
    <title>yahoo</title>
    <desc>Created with Sketch.</desc>
    <defs></defs>
    <g id="Page-1" stroke="none" stroke-width="1" fill="none" fill-rule="evenodd" sketch:type="MSPage">
        <g id="yahoo" sketch:type="MSLayerGroup" fill="#000000">
            <path d="M0,7.688 L0,7.188 C0.063,6.938 0.313,6.75 0.625,6.75 L32.125,6.75 C32.188,6.75 32.313,6.75 32.375,6.875 C32.5,6.938 32.5,7.063 32.5,7.188 L32.5,8.063 C32.5,8.313 32.437,8.501 32.375,8.626 C32.25,8.814 32.125,8.939 32.062,8.939 C31.999,9.002 31.937,9.002 31.874,9.002 L27.499,10.377 C27.124,10.565 26.686,10.69 26.124,10.627 L23.499,10.627 L38.062,29.252 L51.312,16.752 L43.937,16.752 L42.812,16.314 L41.374,14.876 L41.186,14.626 C41.061,14.438 40.998,14.251 40.873,14.001 C40.748,13.688 40.748,13.438 40.748,13.188 L41.186,12.813 L69.249,12.813 C69.312,12.813 69.374,12.813 69.437,12.876 C69.5,12.939 69.562,13.064 69.625,13.189 L69.625,14.064 C69.625,14.564 69.5,14.939 69.25,15.252 L68.187,16.44 C67.749,16.753 67.374,16.878 66.999,16.878 L58.499,16.878 C47.686,27.066 42.061,32.378 41.624,32.816 L41.436,33.004 C41.248,33.192 41.186,33.317 41.061,33.504 C40.936,33.629 40.936,33.817 40.936,33.942 L40.936,46.88 C40.936,47.505 41.124,47.818 41.561,47.818 L50.874,47.818 C50.937,47.818 51.062,47.881 51.187,47.943 C51.25,48.006 51.312,48.131 51.312,48.256 L51.312,51.944 L18.312,51.944 L18.312,48.381 C18.312,48.006 18.5,47.818 18.937,47.818 C20.25,47.693 23.25,47.63 28.062,47.63 L28.25,47.63 C28.375,47.567 28.5,47.505 28.563,47.317 C28.688,47.129 28.751,46.879 28.751,46.567 L28.751,34.254 C28.751,33.691 28.501,33.191 28.063,32.629 L9.688,10.629 L2.563,10.629 L1.375,10.004 L1.187,9.879 L0.874,9.566 C0.686,9.378 0.561,9.191 0.374,8.878 L0,7.688 Z M76.188,0.688 L78.813,37.251 L82.688,37.439 L88.001,1.189 L76.188,0.688 Z M77,49.563 L84.063,49.813 L84.313,42.75 L77.25,42.5 L77,49.563 Z" id="Shape" sketch:type="MSShapeGroup"></path>
        </g>
    </g>
</svg>