<?xml version="1.0" encoding="UTF-8"?>
<svg width="20px" height="20px" viewBox="0 0 20 20" version="1.1" xmlns="http://www.w3.org/2000/svg" xmlns:xlink="http://www.w3.org/1999/xlink">
    <!-- Generator: Sketch 52.5 (67469) - http://www.bohemiancoding.com/sketch -->
    <title>icon/gamepad</title>
    <desc>Created with Sketch.</desc>
    <g id="icon/gamepad" stroke="none" stroke-width="1" fill="none" fill-rule="evenodd">
        <path d="M15.4329897,16.2129742 L4.33068993,16.2129742 C2.49131642,16.2129742 1,14.7221248 1,12.8823649 L1,7.33060928 C1,5.49112701 2.49131642,4 4.33068993,4 L15.4329897,4 C17.2723632,4 18.7636796,5.49112701 18.7636796,7.33060928 L18.7636796,12.8823649 C18.7634021,14.7221248 17.2723632,16.2129742 15.4329897,16.2129742 L15.4329897,16.2129742 Z M17.6534496,7.33060928 C17.6534496,6.10401019 16.6592387,5.10974047 15.4329897,5.10974047 L4.33068993,5.10974047 C3.10444092,5.10974047 2.11022998,6.10401019 2.11022998,7.33060928 L2.11022998,12.8823649 C2.11022998,14.1084089 3.10444092,15.1026786 4.33068993,15.1026786 L15.4329897,15.1026786 C16.6592387,15.1026786 17.6534496,14.1084089 17.6534496,12.8823649 L17.6534496,7.33060928 L17.6534496,7.33060928 Z M15.4329897,9.55120051 L16.5432197,9.55120051 L16.5432197,10.660941 L15.4329897,10.660941 L15.4329897,9.55120051 L15.4329897,9.55120051 Z M15.4329897,7.33088685 L16.5432197,7.33088685 L16.5432197,8.44090489 L15.4329897,8.44090489 L15.4329897,7.33088685 L15.4329897,7.33088685 Z M6.55114988,13.9926606 L5.4409199,13.9926606 L5.4409199,12.8823649 L5.4409199,7.33060928 L5.4409199,6.22086881 L6.55114988,6.22086881 L13.2125297,6.22086881 L14.3227597,6.22086881 L14.3227597,7.33060928 L14.3227597,12.8823649 L14.3227597,13.9926606 L13.2125297,13.9926606 L6.55114988,13.9926606 L6.55114988,13.9926606 Z M13.2122522,7.33060928 L6.55087232,7.33060928 L6.55087232,12.8823649 L13.2122522,12.8823649 L13.2122522,7.33060928 L13.2122522,7.33060928 Z M3.22045995,9.55120051 L4.33068993,9.55120051 L4.33068993,10.660941 L3.22045995,10.660941 L3.22045995,9.55120051 L3.22045995,9.55120051 Z M3.22045995,7.33088685 L4.33068993,7.33088685 L4.33068993,8.44090489 L3.22045995,8.44090489 L3.22045995,7.33088685 L3.22045995,7.33088685 Z" id="Shape" fill="#000000"></path>
    </g>
</svg>