<?xml version="1.0" encoding="UTF-8"?>
<svg width="20px" height="20px" viewBox="0 0 20 20" version="1.1" xmlns="http://www.w3.org/2000/svg" xmlns:xlink="http://www.w3.org/1999/xlink">
    <!-- Generator: Sketch 52.5 (67469) - http://www.bohemiancoding.com/sketch -->
    <title>icon/desktop</title>
    <desc>Created with Sketch.</desc>
    <g id="icon/desktop" stroke="none" stroke-width="1" fill="none" fill-rule="evenodd">
        <path d="M17.6534496,15.433843 L13.2125297,15.433843 L13.2125297,17.6544343 L14.3227597,17.6544343 L14.3227597,18.7650074 L5.4409199,18.7650074 L5.4409199,17.6544343 L6.55114988,17.6544343 L6.55114988,15.433843 L2.11022998,15.433843 C1.49710547,15.433843 1,14.9369857 1,14.3232698 L1,2.11001804 C1,1.49713486 1.49710547,1 2.11022998,1 L17.6534496,1 C18.2665741,1 18.7636796,1.49713486 18.7636796,2.11001804 L18.7636796,14.3232698 C18.7636796,14.9369857 18.2665741,15.433843 17.6534496,15.433843 L17.6534496,15.433843 Z M7.66137986,17.6544343 L12.1022998,17.6544343 L12.1022998,15.433843 L7.66137986,15.433843 L7.66137986,17.6544343 L7.66137986,17.6544343 Z M17.6534496,2.66544343 C17.6534496,2.35872426 17.4047581,2.11001804 17.0983347,2.11001804 L2.66534496,2.11001804 C2.35892149,2.11001804 2.11022998,2.35872426 2.11022998,2.66544343 L2.11022998,10.9926606 L17.6534496,10.9926606 L17.6534496,2.66544343 L17.6534496,2.66544343 Z M17.6534496,12.1026786 L2.11022998,12.1026786 L2.11022998,13.7686772 C2.11022998,14.0748412 2.35864393,14.3232698 2.66534496,14.3232698 L6.55114988,14.3232698 L13.2125297,14.3232698 L17.0983347,14.3232698 C17.4047581,14.3232698 17.6534496,14.0748412 17.6534496,13.7686772 L17.6534496,12.1026786 L17.6534496,12.1026786 Z" id="Shape" fill="#000000"></path>
    </g>
</svg>