<?xml version="1.0" encoding="UTF-8"?>
<svg width="20px" height="20px" viewBox="0 0 20 20" version="1.1" xmlns="http://www.w3.org/2000/svg" xmlns:xlink="http://www.w3.org/1999/xlink">
    <!-- Generator: Sketch 52.5 (67469) - http://www.bohemiancoding.com/sketch -->
    <title>icon/bookmark</title>
    <desc>Created with Sketch.</desc>
    <g id="icon/bookmark" stroke="none" stroke-width="1" fill="none" fill-rule="evenodd">
        <path d="M14.5471848,18.6544343 L10.0454798,13.1029562 L5.66534496,18.6544343 C5.05222046,18.6544343 4,18.157577 4,17.5441386 L4,3.11057319 C4,2.49685729 4.49710547,2 5.11022998,2 L15.1022998,2 C15.7151467,2 16.2125297,2.49685729 16.2125297,3.11057319 L16.2125297,17.5441386 C16.2122522,18.157577 15.1600317,18.6544343 14.5471848,18.6544343 L14.5471848,18.6544343 Z M15.1022998,3.66544343 C15.1022998,3.35900183 14.8536082,3.11057319 14.5471848,3.11057319 L5.66534496,3.11057319 C5.35892149,3.11057319 5.11022998,3.35927941 5.11022998,3.66544343 L5.11022998,16.4332879 C5.11022998,16.7402846 5.35892149,16.9889908 5.66534496,16.9889908 L10.1062649,11.4375127 L14.5471848,16.9889908 C14.8536082,16.9889908 15.1022998,16.7402846 15.1022998,16.4332879 L15.1022998,3.66544343 L15.1022998,3.66544343 Z" id="Shape" fill="#000000"></path>
    </g>
</svg>