<?xml version="1.0" encoding="UTF-8" standalone="no"?>
<svg width="80px" height="64px" viewBox="0 0 80 64" version="1.1" xmlns="http://www.w3.org/2000/svg" xmlns:xlink="http://www.w3.org/1999/xlink" xmlns:sketch="http://www.bohemiancoding.com/sketch/ns">
    <!-- Generator: Sketch 3.4 (15588) - http://www.bohemiancoding.com/sketch -->
    <title>weibu</title>
    <desc>Created with Sketch.</desc>
    <defs></defs>
    <g id="Page-1" stroke="none" stroke-width="1" fill="none" fill-rule="evenodd" sketch:type="MSPage">
        <g id="weibu" sketch:type="MSLayerGroup" transform="translate(-1.000000, 0.000000)" fill="#000000">
            <path d="M1,43 C1,47.188 2.625,50.938 5.938,54.188 C9.188,57.438 13.313,59.876 18.313,61.563 C23.313,63.188 28.563,64.001 34.126,64.001 C39.314,64.001 44.189,63.313 48.751,61.876 C53.376,60.501 57.189,58.688 60.189,56.501 C63.189,54.314 65.564,51.938 67.314,49.313 C69.064,46.688 69.939,44.125 69.939,41.625 C69.939,38.875 69.001,36.562 67.126,34.75 C65.251,32.938 63.001,31.625 60.313,30.812 C59.875,30.687 59.563,30.562 59.375,30.437 C59.25,30.374 59.062,30.187 58.875,29.874 C58.687,29.624 58.75,29.249 59.063,28.811 C59.751,27.123 60.063,25.561 60.063,24.248 C60.063,22.998 59.75,21.873 59.125,20.935 C57.75,19.122 55.5,18.247 52.312,18.247 C49.187,18.247 45.562,19.122 41.437,20.81 L40.812,21.06 C40.437,21.185 40.062,21.185 39.812,20.997 C39.499,20.872 39.437,20.497 39.562,19.934 C40.125,18.184 40.375,16.621 40.375,15.309 C40.375,13.309 39.812,11.809 38.687,10.684 C37.562,9.559 35.999,8.934 34.062,8.934 C32.312,8.934 30.249,9.434 27.874,10.434 C22.811,12.372 17.749,15.872 12.749,20.809 C4.936,28.747 0.999,36.122 0.999,42.997 L1,43 Z M9,46.063 C8.937,45.688 8.937,45.313 8.937,44.938 C8.937,42.563 9.75,40.188 11.375,37.938 C13.25,35.375 15.938,33.25 19.438,31.5 C22.938,29.75 26.813,28.625 31.126,28.25 C32.439,28.125 33.689,28.062 34.939,28.062 C39.939,28.062 44.377,29.062 48.377,31.187 C53.252,33.75 55.94,37.125 56.377,41.437 C56.377,41.812 56.44,42.187 56.44,42.562 C56.44,46.375 54.44,49.937 50.565,53.125 C46.19,56.625 40.752,58.688 34.19,59.313 C32.877,59.438 31.627,59.501 30.377,59.501 C25.377,59.501 20.939,58.501 17.002,56.376 C12.064,53.813 9.439,50.376 9.002,46.063 L9,46.063 Z M19.25,50.063 C20.438,52.813 22.563,54.626 25.688,55.626 C27.126,56.064 28.563,56.314 30.001,56.314 C31.876,56.314 33.751,55.939 35.626,55.126 C38.939,53.688 41.251,51.501 42.626,48.438 C43.251,47.063 43.564,45.688 43.564,44.313 C43.564,42.813 43.189,41.438 42.501,40.063 C41.063,37.438 38.751,35.688 35.501,34.813 C34.376,34.5 33.188,34.375 32.063,34.375 C30.063,34.375 28.125,34.813 26.188,35.625 C23.125,37 20.875,39.063 19.563,41.813 C18.813,43.313 18.438,44.813 18.438,46.251 C18.438,47.564 18.688,48.814 19.251,50.064 L19.25,50.063 Z M22.813,48.813 C22.75,48.563 22.688,48.313 22.688,48 C22.688,47.25 22.938,46.562 23.376,45.875 C24.001,44.937 24.876,44.25 26.001,43.875 C26.564,43.687 27.126,43.562 27.626,43.562 C28.189,43.562 28.751,43.687 29.314,43.937 C30.314,44.312 30.939,45.062 31.189,46.062 C31.314,46.437 31.377,46.75 31.377,47.062 C31.377,47.75 31.189,48.437 30.752,49.062 C30.127,50.125 29.189,50.812 28.002,51.187 C27.502,51.375 27.002,51.437 26.502,51.437 C25.877,51.437 25.314,51.312 24.752,51.062 C23.752,50.624 23.064,49.874 22.814,48.812 L22.813,48.813 Z M31.875,43.75 L31.875,43.375 C31.875,43.125 31.938,42.875 32.063,42.625 C32.251,42.25 32.563,42 33.063,41.812 C33.501,41.687 33.876,41.687 34.251,41.812 C34.689,41.937 34.939,42.25 35.064,42.625 C35.189,43 35.127,43.375 34.939,43.75 C34.689,44.188 34.376,44.438 33.876,44.625 C33.688,44.688 33.501,44.75 33.313,44.75 C33.125,44.75 32.875,44.687 32.688,44.625 C32.25,44.437 32,44.187 31.875,43.75 L31.875,43.75 Z M52.375,4.063 C52.563,4.876 53,5.501 53.688,5.938 C54.188,6.313 54.751,6.438 55.313,6.438 C55.563,6.438 55.751,6.438 56.001,6.375 C57.064,6.187 58.064,6.062 59.126,6.062 C60.626,6.062 62.126,6.312 63.564,6.75 C66.127,7.563 68.314,8.938 70.127,10.938 C71.94,12.938 73.127,15.251 73.69,17.938 C73.878,19.001 73.94,20.001 73.94,21.001 C73.94,22.564 73.752,24.001 73.252,25.501 L73.252,25.564 C73.189,25.814 73.127,26.189 73.127,26.502 C73.127,26.94 73.252,27.377 73.44,27.877 C73.815,28.565 74.378,29.065 75.19,29.315 C75.503,29.378 75.815,29.44 76.128,29.44 C76.628,29.44 77.066,29.315 77.566,29.127 C78.254,28.752 78.754,28.189 79.004,27.377 L79.004,27.314 C79.692,25.314 80.067,23.251 80.067,21.064 C80.067,19.626 79.879,18.189 79.567,16.689 C78.817,13.001 77.192,9.751 74.629,6.939 C72.066,4.127 69.004,2.126 65.441,0.939 C63.378,0.314 61.253,0.001 59.066,0.001 C57.628,0.001 56.128,0.126 54.691,0.439 C53.878,0.689 53.253,1.127 52.816,1.814 C52.503,2.314 52.316,2.814 52.316,3.377 C52.316,3.627 52.379,3.815 52.379,4.065 L52.375,4.063 Z M54.938,14.063 C55.126,14.751 55.501,15.313 56.126,15.688 C56.501,16.001 57.001,16.126 57.439,16.126 C57.627,16.126 57.814,16.126 58.002,16.063 C58.44,16 58.877,15.938 59.315,15.938 C60.69,15.938 61.815,16.501 62.753,17.626 C63.628,18.564 64.128,19.626 64.128,20.814 C64.128,21.314 64.003,21.877 63.878,22.439 C63.753,22.752 63.753,23.002 63.753,23.314 C63.753,23.689 63.816,24.064 64.003,24.439 C64.316,25.064 64.816,25.502 65.503,25.752 C65.753,25.815 66.066,25.877 66.378,25.877 C66.753,25.877 67.128,25.752 67.503,25.564 C68.128,25.251 68.566,24.751 68.753,24.064 C69.128,23.064 69.316,22.001 69.316,21.001 C69.316,20.313 69.253,19.626 69.128,18.876 C68.69,17.063 67.878,15.501 66.69,14.063 C64.627,11.813 62.19,10.688 59.315,10.688 C58.565,10.688 57.752,10.751 56.94,10.938 C56.19,11.126 55.627,11.501 55.252,12.126 C55.002,12.564 54.877,13.001 54.877,13.439 C54.877,13.689 54.94,13.877 54.94,14.064 L54.938,14.063 Z" id="Shape" sketch:type="MSShapeGroup"></path>
        </g>
    </g>
</svg>