<?xml version="1.0" encoding="UTF-8"?>
<svg width="20px" height="20px" viewBox="0 0 20 20" version="1.1" xmlns="http://www.w3.org/2000/svg" xmlns:xlink="http://www.w3.org/1999/xlink">
    <!-- Generator: Sketch 52.5 (67469) - http://www.bohemiancoding.com/sketch -->
    <title>icon/lock-open</title>
    <desc>Created with Sketch.</desc>
    <g id="icon/lock-open" stroke="none" stroke-width="1" fill="none" fill-rule="evenodd">
        <path d="M15.2125297,18.7638971 L5.22045995,18.7638971 C3.99421094,18.7638971 3,17.7696274 3,16.5435835 L3,9.88180979 C3,8.65548828 3.99421094,7.66094098 5.22045995,7.66094098 L5.22045995,7.66094098 L5.22045995,5.99633028 C5.22045995,3.23724567 7.4572958,1 10.2164948,1 C12.7852895,1 14.8769627,2.94607064 15.1564631,5.44062732 L14.0462331,5.44062732 C13.7745044,3.55978654 12.1721649,2.11029562 10.2164948,2.11029562 C8.0704203,2.11029562 6.33068993,3.85040642 6.33068993,5.99633028 L6.33068993,7.66094098 L12.9920698,7.66094098 L14.1022998,7.66094098 L15.2125297,7.66094098 L15.2125297,7.66121855 C16.4387787,7.66121855 17.4329897,8.65548828 17.4329897,9.88180979 L17.4329897,16.5435835 C17.4332672,17.7696274 16.4387787,18.7638971 15.2125297,18.7638971 L15.2125297,18.7638971 Z M16.3230373,9.88180979 C16.3230373,9.26837146 15.8256542,8.7712366 15.2128073,8.7712366 L5.22073751,8.7712366 C4.60789056,8.7712366 4.11050753,9.26837146 4.11050753,9.88180979 L4.11050753,16.5435835 C4.11050753,17.1559115 4.60789056,17.6530464 5.22073751,17.6530464 L15.2128073,17.6530464 C15.8259318,17.6530464 16.3230373,17.1559115 16.3230373,16.5435835 L16.3230373,9.88180979 L16.3230373,9.88180979 Z M8.30487023,12.6571653 L12.2866499,12.6571653 C12.5930915,12.6571653 12.8417978,12.9055792 12.8417978,13.2122803 C12.8417978,13.5189813 12.5930915,13.7673953 12.2866499,13.7673953 L8.30487023,13.7673953 C7.99870622,13.7673953 7.75,13.5189813 7.75,13.2122803 C7.75,12.9058568 7.99870622,12.6571653 8.30487023,12.6571653 Z" id="Shape" fill="#000000"></path>
    </g>
</svg>