<?xml version="1.0" encoding="UTF-8"?>
<svg width="20px" height="20px" viewBox="0 0 20 20" version="1.1" xmlns="http://www.w3.org/2000/svg" xmlns:xlink="http://www.w3.org/1999/xlink">
    <!-- Generator: Sketch 52.5 (67469) - http://www.bohemiancoding.com/sketch -->
    <title>icon/user</title>
    <desc>Created with Sketch.</desc>
    <g id="icon/user" stroke="none" stroke-width="1" fill="none" fill-rule="evenodd">
        <path d="M18.1586914,18.7636196 L2.50111805,18.7636196 C1.63319577,17.4323751 1.98486111,14.7682208 2.85306096,13.8810946 C3.26689918,13.4586271 6.36666127,12.6592143 7.85076119,12.2953149 C6.28367158,11.0781533 5.32831869,8.8200896 5.32831869,6.66694883 C5.32831869,3.53730306 6.23731948,1 10.3279618,1 C14.4183266,1 15.3273274,3.53730306 15.3273274,6.66694883 C15.3273274,8.8137054 14.3772481,11.0653849 12.8182077,12.2850446 C14.268168,12.6467234 17.4148373,13.4680646 17.8159079,13.8810946 C18.6771688,14.7684984 19.0205074,17.4323751 18.1586914,18.7636196 L18.1586914,18.7636196 Z M17.1017525,14.8170738 C16.5327596,14.5120201 14.0830372,13.8244695 11.9946946,13.323171 L11.9946946,11.5644628 C13.386923,10.6168255 14.2118238,8.55833741 14.2118238,6.6874893 C14.2118238,4.15740316 13.5645598,2.10585443 10.3279618,2.10585443 C7.09136389,2.10585443 6.44409981,4.15740316 6.44409981,6.6874893 C6.44409981,8.56000285 7.27011092,10.6201564 8.66400465,11.566961 L8.66400465,13.3395479 C6.56511488,13.8333519 4.12788253,14.5095219 3.56749395,14.8165187 C3.2047263,15.2739604 2.88775564,16.7392731 3.11285477,17.6555445 L17.5458445,17.6555445 C17.7695558,16.7392731 17.4592465,15.2784016 17.1017525,14.8170738 L17.1017525,14.8170738 Z" id="Shape" fill="#000000"></path>
    </g>
</svg>