<?xml version="1.0" encoding="UTF-8"?>
<svg width="20px" height="20px" viewBox="0 0 20 20" version="1.1" xmlns="http://www.w3.org/2000/svg" xmlns:xlink="http://www.w3.org/1999/xlink">
    <!-- Generator: Sketch 52.5 (67469) - http://www.bohemiancoding.com/sketch -->
    <title>icon/calendar</title>
    <desc>Created with Sketch.</desc>
    <g id="icon/calendar" stroke="none" stroke-width="1" fill="none" fill-rule="evenodd">
        <path d="M18.0986122,18.7641747 L2.55511499,18.7641747 C2.24869151,18.7641747 2,18.5154685 2,18.2090269 L2,1.55459266 C2,1.24870622 2.24869151,1 2.55511499,1 L16.9883822,1 L16.9883822,1 L18.0986122,1 C18.4050357,1 18.6534496,1.24870622 18.6534496,1.55459266 L18.6534496,18.2090269 C18.6534496,18.5154685 18.4050357,18.7641747 18.0986122,18.7641747 L18.0986122,18.7641747 Z M17.5434972,2.10974047 L3.11022998,2.10974047 L3.11022998,4.3303317 L17.5434972,4.3303317 L17.5434972,2.10974047 L17.5434972,2.10974047 Z M17.5434972,5.44062732 L3.11022998,5.44062732 L3.11022998,17.6541567 L17.5434972,17.6541567 L17.5434972,5.44062732 L17.5434972,5.44062732 Z M13.1022998,13.2126966 L15.3227597,13.2126966 L15.3227597,15.4335654 L13.1022998,15.4335654 L13.1022998,13.2126966 L13.1022998,13.2126966 Z M13.1022998,8.77151417 L15.3227597,8.77151417 L15.3227597,10.992383 L13.1022998,10.992383 L13.1022998,8.77151417 L13.1022998,8.77151417 Z M9.2167724,13.2126966 L11.4372324,13.2126966 L11.4372324,15.4335654 L9.2167724,15.4335654 L9.2167724,13.2126966 L9.2167724,13.2126966 Z M9.2167724,8.77151417 L11.4372324,8.77151417 L11.4372324,10.992383 L9.2167724,10.992383 L9.2167724,8.77151417 L9.2167724,8.77151417 Z M5.33068993,13.2126966 L7.55114988,13.2126966 L7.55114988,15.4335654 L5.33068993,15.4335654 L5.33068993,13.2126966 L5.33068993,13.2126966 Z M5.33068993,8.77151417 L7.55114988,8.77151417 L7.55114988,10.992383 L5.33068993,10.992383 L5.33068993,8.77151417 L5.33068993,8.77151417 Z" id="Shape" fill="#000000"></path>
    </g>
</svg>