<?xml version="1.0" encoding="UTF-8"?>
<svg width="20px" height="20px" viewBox="0 0 20 20" version="1.1" xmlns="http://www.w3.org/2000/svg" xmlns:xlink="http://www.w3.org/1999/xlink">
    <!-- Generator: Sketch 52.5 (67469) - http://www.bohemiancoding.com/sketch -->
    <title>icon/credit-card</title>
    <desc>Created with Sketch.</desc>
    <g id="icon/credit-card" stroke="none" stroke-width="1" fill="none" fill-rule="evenodd">
        <path d="M16.5432197,17.5441386 L3.22045995,17.5441386 C1.99421094,17.5441386 1,16.5495913 1,15.3227147 L1,9.77206932 L1,5.33005413 L1,4.22031366 C1,2.993437 1.99421094,2 3.22045995,2 L16.5432197,2 C17.7697462,2 18.7636796,2.993437 18.7636796,4.22031366 L18.7636796,5.33005413 L18.7636796,9.77206932 L18.7636796,15.3227147 C18.7636796,16.5495913 17.7697462,17.5441386 16.5432197,17.5441386 L16.5432197,17.5441386 Z M17.6534496,4.22031366 C17.6534496,3.60687533 17.1563442,3.1094629 16.5432197,3.1094629 L3.22045995,3.1094629 C2.60733545,3.1094629 2.11050753,3.60687533 2.11050753,4.22031366 L2.11050753,5.33005413 L17.6534496,5.33005413 L17.6534496,4.22031366 L17.6534496,4.22031366 Z M17.6534496,6.44090489 L2.11050753,6.44090489 L2.11050753,8.66149613 L17.6534496,8.66149613 L17.6534496,6.44090489 L17.6534496,6.44090489 Z M17.6534496,9.77206932 L2.11050753,9.77206932 L2.11050753,15.3227147 C2.11050753,15.936153 2.60733545,16.433843 3.22045995,16.433843 L16.5432197,16.433843 C17.1563442,16.433843 17.6534496,15.936153 17.6534496,15.3227147 L17.6534496,9.77206932 L17.6534496,9.77206932 Z M8.77160983,13.1029562 L12.1022998,13.1029562 L12.1022998,14.2132518 L8.77160983,14.2132518 L8.77160983,13.1029562 L8.77160983,13.1029562 Z M3.22045995,13.1029562 L7.66137986,13.1029562 L7.66137986,14.2132518 L3.22045995,14.2132518 L3.22045995,13.1029562 L3.22045995,13.1029562 Z" id="Shape" fill="#000000"></path>
    </g>
</svg>