<?xml version="1.0" encoding="UTF-8"?>
<svg width="20px" height="20px" viewBox="0 0 20 20" version="1.1" xmlns="http://www.w3.org/2000/svg" xmlns:xlink="http://www.w3.org/1999/xlink">
    <!-- Generator: Sketch 52.5 (67469) - http://www.bohemiancoding.com/sketch -->
    <title>icon/phone-landscape</title>
    <desc>Created with Sketch.</desc>
    <g id="icon/phone-landscape" stroke="none" stroke-width="1" fill="none" fill-rule="evenodd">
        <path d="M16.5434972,15.1035113 L15.4332672,15.1035113 L14.3230373,15.1035113 L7.66137986,15.1035113 L6.55114988,15.1035113 L3.22045995,15.1035113 C1.99421094,15.1035113 1,14.108964 1,12.8826425 L1,6.22114638 C1,4.99482487 1.99421094,4 3.22045995,4 L6.55114988,4 L7.66137986,4 L14.3230373,4 L15.4332672,4 L16.5434972,4 C17.7697462,4 18.7639572,4.9945473 18.7639572,6.22114638 L18.7639572,12.8826425 C18.7639572,14.108964 17.7694687,15.1035113 16.5434972,15.1035113 L16.5434972,15.1035113 Z M3.22073751,5.11085076 C2.60761301,5.11085076 2.11050753,5.60770805 2.11050753,6.22114638 L2.11050753,12.8826425 C2.11050753,13.4958033 2.60761301,13.9929381 3.22073751,13.9929381 L6.55142744,13.9929381 L6.55142744,5.11085076 L3.22073751,5.11085076 L3.22073751,5.11085076 Z M14.3230373,5.11085076 L7.66137986,5.11085076 L7.66137986,13.9929381 L14.3230373,13.9929381 L14.3230373,5.11085076 L14.3230373,5.11085076 Z M17.6537272,6.22114638 C17.6537272,5.60770805 17.1566217,5.11085076 16.5434972,5.11085076 L15.4332672,5.11085076 L15.4332672,13.9929381 L16.5434972,13.9929381 C17.1566217,13.9929381 17.6537272,13.4958033 17.6537272,12.8826425 L17.6537272,6.22114638 L17.6537272,6.22114638 Z M4.33096749,10.6623288 C3.71784298,10.6623288 3.22073751,10.1646388 3.22073751,9.55120051 C3.22073751,8.9385949 3.71784298,8.44146004 4.33096749,8.44146004 C4.94409199,8.44146004 5.44119746,8.9385949 5.44119746,9.55120051 C5.44119746,10.1646388 4.94381443,10.6623288 4.33096749,10.6623288 L4.33096749,10.6623288 Z" id="Shape" fill="#000000"></path>
    </g>
</svg>