<?xml version="1.0" encoding="UTF-8"?>
<svg width="20px" height="20px" viewBox="0 0 20 20" version="1.1" xmlns="http://www.w3.org/2000/svg" xmlns:xlink="http://www.w3.org/1999/xlink">
    <!-- Generator: Sketch 52.3 (67297) - http://www.bohemiancoding.com/sketch -->
    <title>icon/email</title>
    <desc>Created with Sketch.</desc>
    <defs>
        <path d="M18.7292625,16.8787194 C18.7292625,17.185161 18.4808485,17.4338672 18.1752577,17.4338672 L1.55428232,17.4338672 C1.24785884,17.4338672 1,17.185161 1,16.8787194 L1,3.55489444 C1,3.5510084 1.00222046,3.54795509 1.00222046,3.54406905 C1.00222046,3.53685213 1.00638382,3.53130066 1.00666138,3.52352859 C1.01415543,3.39445672 1.06439334,3.2787084 1.14516257,3.18849688 C1.15404441,3.17794908 1.1501586,3.16268251 1.15987312,3.15296742 C1.17208565,3.14075417 1.19095956,3.14547293 1.20400476,3.13436997 C1.28727201,3.0649765 1.38913561,3.02167497 1.50237906,3.01057201 C1.52402855,3.00862899 1.540682,2.99946905 1.56205393,3.0000242 L18.1672086,3.0000242 C18.188858,2.99946905 18.2055115,3.00862899 18.2268834,3.01057201 C18.340682,3.02167497 18.4425456,3.06525407 18.5255353,3.13436997 C18.5385805,3.14547293 18.5574544,3.1404766 18.5696669,3.15296742 C18.5793814,3.16296008 18.5754956,3.17822665 18.5843775,3.18849688 C18.6651467,3.27898598 18.7153846,3.39445672 18.7228787,3.52352859 C18.7231562,3.53102308 18.7273196,3.53657456 18.7273196,3.54406905 C18.7273196,3.54795509 18.72954,3.5510084 18.72954,3.55489444 L18.72954,16.8787194 L18.7292625,16.8787194 Z M2.10800952,15.7684238 C2.10800952,16.0745878 2.35614592,16.3235716 2.66229183,16.3235716 L17.0669707,16.3235716 C17.372839,16.3235716 17.6209754,16.0745878 17.6209754,15.7684238 L17.6209754,4.68545295 L10.2731959,10.5789021 C10.2659794,10.5872293 10.2693101,10.5997201 10.2612609,10.6077698 C10.1516257,10.717689 10.0078509,10.7662645 9.86435369,10.7632112 C9.72002379,10.7662645 9.57652657,10.7179666 9.46689136,10.6077698 C9.45911975,10.5999977 9.46217288,10.5875069 9.45495638,10.5789021 L2.1074544,4.68545295 L2.1074544,15.7684238 L2.10800952,15.7684238 Z M9.8649088,9.51745947 L16.6056701,4.11059739 L3.12386994,4.11059739 L9.8649088,9.51745947 L9.8649088,9.51745947 Z" id="path-1"></path>
    </defs>
    <g id="icon/email" stroke="none" stroke-width="1" fill="none" fill-rule="evenodd">
        <mask id="mask-2" fill="white">
            <use xlink:href="#path-1"></use>
        </mask>
        <use id="Shape" fill="#000000" xlink:href="#path-1"></use>
    </g>
</svg>