<?xml version="1.0" encoding="UTF-8"?>
<svg width="20px" height="20px" viewBox="0 0 20 20" version="1.1" xmlns="http://www.w3.org/2000/svg" xmlns:xlink="http://www.w3.org/1999/xlink">
    <!-- Generator: Sketch 52.5 (67469) - http://www.bohemiancoding.com/sketch -->
    <title>icon/gauge</title>
    <desc>Created with Sketch.</desc>
    <g id="icon/gauge" stroke="none" stroke-width="1" fill="none" fill-rule="evenodd">
        <path d="M4.22573354,3.11251621 L4.22573354,2 C11.4613799,2.28673384 17.2637193,8.08941631 17.5507137,15.3246577 L16.4379857,15.3246577 C16.1523791,8.70424251 10.8468676,3.39841733 4.22573354,3.11251621 L4.22573354,3.11251621 Z M4.22573354,6.97912069 L4.22573354,5.86577176 C4.22573354,5.5590526 4.47442506,5.30951366 4.78195876,5.30951366 C5.08921491,5.30951366 5.33818398,5.55877503 5.33818398,5.86577176 L5.33818398,6.97912069 C5.33818398,7.28583986 5.08921491,7.53510122 4.78195876,7.53510122 C4.47442506,7.53510122 4.22573354,7.28611743 4.22573354,6.97912069 L4.22573354,6.97912069 Z M7.96054718,11.5738015 C8.16816019,11.7805941 8.16816019,12.1172912 7.96054718,12.3246389 L4.22573354,16.0593958 L4.22573354,16.9942647 C4.22573354,17.3009839 3.97648692,17.5502453 3.66923077,17.5502453 L2.55650278,17.5502453 C2.24924663,17.5502453 2,17.3012615 2,16.9942647 L2,15.8814709 C2,15.5744742 2.24896907,15.3243801 2.55650278,15.3243801 L3.4574544,15.3243801 L7.20919905,11.573524 C7.4165345,11.3656211 7.75293418,11.3656211 7.96054718,11.5738015 L7.96054718,11.5738015 Z M9.92287867,10.1678897 C9.73164155,9.97664128 9.73164155,9.66659123 9.92287867,9.47451009 L10.6159397,8.78224077 C10.8071768,8.59043721 11.1177637,8.59043721 11.3090008,8.78224077 C11.5002379,8.97321162 11.5002379,9.28381682 11.3090008,9.47451009 L10.6159397,10.1678897 C10.4247026,10.3594157 10.1143933,10.3594157 9.92287867,10.1678897 L9.92287867,10.1678897 Z M12.5707772,15.3246577 C12.263521,15.3246577 12.0145519,15.0756739 12.0145519,14.7683996 C12.0145519,14.4608477 12.263521,14.2124191 12.5707772,14.2124191 L13.6835052,14.2124191 C13.9907613,14.2124191 14.2397304,14.4608477 14.2397304,14.7683996 C14.2397304,15.0753963 13.9907613,15.3246577 13.6835052,15.3246577 L12.5707772,15.3246577 L12.5707772,15.3246577 Z" id="Shape" fill="#000000"></path>
    </g>
</svg>