<?xml version="1.0" encoding="UTF-8"?>
<svg width="20px" height="20px" viewBox="0 0 20 20" version="1.1" xmlns="http://www.w3.org/2000/svg" xmlns:xlink="http://www.w3.org/1999/xlink">
    <!-- Generator: Sketch 48.2 (47327) - http://www.bohemiancoding.com/sketch -->
    <title>buddicons/icon-hlp</title>
    <desc>Created with Sketch.</desc>
    <defs></defs>
    <g id="Icons" stroke="none" stroke-width="1" fill="none" fill-rule="evenodd">
        <g id="buddicons/icon-hlp" fill="#000000">
            <path d="M15.4329897,17.4343982 L4.33068993,17.4343982 C2.49159397,17.4343982 1,15.9424384 1,14.1029562 L1,6.33088685 C1,4.49140459 2.49159397,3 4.33068993,3 L15.4329897,3 C17.2723632,3 18.7636796,4.49140459 18.7636796,6.33088685 L18.7636796,14.1029562 C18.7636796,15.9424384 17.2720856,17.4343982 15.4329897,17.4343982 L15.4329897,17.4343982 Z M17.6534496,6.33088685 C17.6534496,5.10650836 16.6575734,4.11029562 15.4329897,4.11029562 L4.33068993,4.11029562 C3.10610626,4.11029562 2.11022998,5.10650836 2.11022998,6.33088685 L2.11022998,14.1029562 C2.11022998,15.3278898 3.10610626,16.3241025 4.33068993,16.3241025 L15.4329897,16.3241025 C16.6575734,16.3241025 17.6534496,15.3278898 17.6534496,14.1029562 L17.6534496,6.33088685 L17.6534496,6.33088685 Z M15.9878271,14.1018459 L12.6571372,14.1018459 C12.3507137,14.1018459 12.1020222,13.8528621 12.1020222,13.5466981 C12.1020222,13.2399789 12.3507137,12.9915503 12.6571372,12.9915503 L15.9878271,12.9915503 C16.2942506,12.9915503 16.5429421,13.2399789 16.5429421,13.5466981 C16.5429421,13.8528621 16.2945282,14.1018459 15.9878271,14.1018459 L15.9878271,14.1018459 Z M15.9878271,11.8812546 L12.6571372,11.8812546 C12.3507137,11.8812546 12.1020222,11.632826 12.1020222,11.3258293 C12.1020222,11.0188325 12.3507137,10.7704039 12.6571372,10.7704039 L15.9878271,10.7704039 C16.2942506,10.7704039 16.5429421,11.0188325 16.5429421,11.3258293 C16.5429421,11.632826 16.2945282,11.8812546 15.9878271,11.8812546 L15.9878271,11.8812546 Z M15.9878271,9.6606634 L12.6571372,9.6606634 C12.3507137,9.6606634 12.1020222,9.41195719 12.1020222,9.1055156 C12.1020222,8.79907401 12.3507137,8.55092294 12.6571372,8.55092294 L15.9878271,8.55092294 C16.2942506,8.55092294 16.5429421,8.79907401 16.5429421,9.1055156 C16.5429421,9.41195719 16.2945282,9.6606634 15.9878271,9.6606634 L15.9878271,9.6606634 Z M15.9878271,7.44007217 L12.6571372,7.44007217 C12.3507137,7.44007217 12.1020222,7.19136595 12.1020222,6.88520194 C12.1020222,6.57848277 12.3507137,6.32977655 12.6571372,6.32977655 L15.9878271,6.32977655 C16.2942506,6.32977655 16.5429421,6.57848277 16.5429421,6.88520194 C16.5429421,7.19136595 16.2945282,7.44007217 15.9878271,7.44007217 L15.9878271,7.44007217 Z M7.10598731,14.1018459 C4.95991277,14.1018459 3.22018239,12.3622902 3.22018239,10.2158112 C3.22018239,8.06905464 4.95991277,6.32949898 7.10598731,6.32949898 C9.25206186,6.32949898 10.9917922,8.06933221 10.9917922,10.2158112 C10.9917922,12.3625678 9.25206186,14.1018459 7.10598731,14.1018459 L7.10598731,14.1018459 Z M7.10598731,7.44007217 C5.57331483,7.44007217 4.33041237,8.68304811 4.33041237,10.2160888 C4.33041237,11.7485743 5.57331483,12.9918278 7.10598731,12.9918278 C8.63893735,12.9918278 9.88156225,11.7485743 9.88156225,10.2160888 C9.88156225,8.68277054 8.63893735,7.44007217 7.10598731,7.44007217 L7.10598731,7.44007217 Z" id="Shape"></path>
        </g>
    </g>
</svg>