<?xml version="1.0" encoding="UTF-8"?>
<svg width="20px" height="20px" viewBox="0 0 20 20" version="1.1" xmlns="http://www.w3.org/2000/svg" xmlns:xlink="http://www.w3.org/1999/xlink">
    <!-- Generator: Sketch 52.5 (67469) - http://www.bohemiancoding.com/sketch -->
    <title>icon/clipboard</title>
    <desc>Created with Sketch.</desc>
    <g id="icon/clipboard" stroke="none" stroke-width="1" fill="none" fill-rule="evenodd">
        <path d="M2.5,18.7650074 L2.5,3.22059123 L6.38580492,3.22059123 L6.38580492,2.11085076 L8.05114988,2.11085076 C8.05114988,1.49741244 8.54825535,1 9.16137986,1 L11.3818398,1 C11.9949643,1 12.4920698,1.49741244 12.4920698,2.11085076 L14.1574148,2.11085076 L14.1574148,3.22059123 L18.0432197,3.22059123 L18.0432197,18.7650074 L2.5,18.7650074 L2.5,18.7650074 Z M13.0471848,3.22031366 L11.3818398,3.22031366 L11.3818398,2.66599857 C11.3818398,2.35844669 11.1331483,2.11057319 10.8267248,2.11057319 L9.71649485,2.11057319 C9.41007137,2.11057319 9.16165741,2.35844669 9.16165741,2.66599857 L9.16165741,3.22031366 L7.49603489,3.22031366 L7.49603489,5.44118247 L9.71649485,5.44118247 L10.8267248,5.44118247 L13.0471848,5.44118247 L13.0471848,3.22031366 L13.0471848,3.22031366 Z M16.9329897,4.33088685 L14.1574148,4.33088685 L14.1574148,6.55147808 L6.38552736,6.55147808 L6.38552736,4.33088685 L3.60995242,4.33088685 L3.60995242,17.6544343 L16.9327121,17.6544343 L16.9327121,4.33088685 L16.9329897,4.33088685 Z M14.7125297,9.88264251 L5.83068993,9.88264251 L5.83068993,8.77234689 L14.7125297,8.77234689 L14.7125297,9.88264251 L14.7125297,9.88264251 Z M14.7125297,12.1029562 L5.83068993,12.1029562 L5.83068993,10.9929381 L14.7125297,10.9929381 L14.7125297,12.1029562 L14.7125297,12.1029562 Z M11.3818398,14.3232698 L5.83068993,14.3232698 L5.83068993,13.2132518 L11.3818398,13.2132518 L11.3818398,14.3232698 L11.3818398,14.3232698 Z" id="Shape" fill="#000000"></path>
    </g>
</svg>