<?xml version="1.0" encoding="UTF-8"?>
<svg width="20px" height="20px" viewBox="0 0 20 20" version="1.1" xmlns="http://www.w3.org/2000/svg" xmlns:xlink="http://www.w3.org/1999/xlink">
    <!-- Generator: Sketch 52.5 (67469) - http://www.bohemiancoding.com/sketch -->
    <title>icon/cash</title>
    <desc>Created with Sketch.</desc>
    <g id="icon/cash" stroke="none" stroke-width="1" fill="none" fill-rule="evenodd">
        <path d="M17.6537272,16.323825 L5.44119746,16.323825 C4.82807296,16.323825 4.33068993,15.8264125 4.33068993,15.2132518 L4.33068993,14.1032337 L5.44119746,14.1032337 L5.44119746,14.658104 C5.44119746,14.9648231 5.68961142,15.2132518 5.99603489,15.2132518 L17.0983347,15.2132518 C17.4047581,15.2132518 17.6537272,14.9648231 17.6537272,14.658104 L17.6537272,7.99688542 C17.6537272,7.68988869 17.4050357,7.44118247 17.0983347,7.44118247 L16.5432197,7.44118247 L16.5432197,6.33116442 L17.6537272,6.33116442 C18.2668517,6.33116442 18.7636796,6.82829929 18.7636796,7.44118247 L18.7636796,15.2132518 C18.7636796,15.8264125 18.2668517,16.323825 17.6537272,16.323825 L17.6537272,16.323825 Z M14.3230373,12.9926606 L2.11022998,12.9926606 C1.49710547,12.9926606 1,12.4952481 1,11.8829201 L1,4.11029562 C1,3.49741244 1.49710547,3 2.11022998,3 L14.3230373,3 C14.9361618,3 15.4332672,3.49741244 15.4332672,4.11029562 L15.4332672,11.8829201 C15.4332672,12.4952481 14.9361618,12.9926606 14.3230373,12.9926606 L14.3230373,12.9926606 Z M14.3230373,4.66599857 C14.3230373,4.35872426 14.0743458,4.11029562 13.7676447,4.11029562 L2.66534496,4.11029562 C2.35892149,4.11029562 2.11022998,4.35872426 2.11022998,4.66599857 L2.11022998,11.3272171 C2.11022998,11.6344914 2.35892149,11.8829201 2.66534496,11.8829201 L13.7676447,11.8829201 C14.0740682,11.8829201 14.3230373,11.6344914 14.3230373,11.3272171 L14.3230373,4.66599857 L14.3230373,4.66599857 Z M8.21649485,10.7720693 C6.68382236,10.7720693 5.44119746,9.5288158 5.44119746,7.99688542 C5.44119746,6.46356718 6.68382236,5.22059123 8.21649485,5.22059123 C9.74944489,5.22059123 10.9920698,6.46356718 10.9920698,7.99688542 C10.9920698,9.52909337 9.74944489,10.7720693 8.21649485,10.7720693 L8.21649485,10.7720693 Z M8.21649485,6.33116442 C7.29694687,6.33116442 6.55114988,7.07672793 6.55114988,7.99688542 C6.55114988,8.91621019 7.29694687,9.6617737 8.21649485,9.6617737 C9.13604282,9.6617737 9.88183981,8.91593262 9.88183981,7.99688542 C9.88183981,7.07672793 9.13632038,6.33116442 8.21649485,6.33116442 L8.21649485,6.33116442 Z" id="Shape" fill="#000000"></path>
    </g>
</svg>