<?xml version="1.0" encoding="UTF-8"?>
<svg width="20px" height="20px" viewBox="0 0 20 20" version="1.1" xmlns="http://www.w3.org/2000/svg" xmlns:xlink="http://www.w3.org/1999/xlink">
    <!-- Generator: Sketch 52.5 (67469) - http://www.bohemiancoding.com/sketch -->
    <title>icon/mail-cancel</title>
    <desc>Created with Sketch.</desc>
    <g id="icon/mail-cancel" stroke="none" stroke-width="1" fill="none" fill-rule="evenodd">
        <path d="M17.6442902,12.9941602 L17.6442902,4.66749817 L10.273751,10.5795448 C10.2665345,10.5875944 10.2698652,10.6000852 10.261816,10.6078573 C10.1521808,10.7177766 10.0086836,10.766352 9.8649088,10.7632987 C9.72085646,10.766352 9.57735924,10.7180541 9.46744647,10.6078573 C9.45967486,10.6000852 9.46272799,10.5875944 9.4555115,10.5789896 L2.10717684,4.6852629 L2.10717684,15.7685113 C2.10717684,16.0755081 2.35586836,16.3242143 2.66229183,16.3242143 L9.88183981,16.3242143 L9.88183981,17.4345099 L1.55483743,17.4345099 C1.24841396,17.4345099 1,17.1858037 1,16.8790845 L1,3.55553711 C1,3.55137351 1.00222046,3.54804262 1.00222046,3.54415658 C1.00222046,3.53693966 1.00638382,3.53083304 1.00666138,3.52333854 C1.01415543,3.39482182 1.06439334,3.27962865 1.14460745,3.18913956 C1.15376685,3.17859175 1.14988105,3.16277004 1.15987312,3.15249981 C1.1723632,3.14000898 1.19179223,3.14500531 1.20511499,3.13417993 C1.28782712,3.06506403 1.38913561,3.02204007 1.50182395,3.01093711 C1.52375099,3.00871652 1.54040444,2.99955658 1.56205393,3.00011173 L18.1672086,3.00011173 C18.1816416,2.99955658 18.1924663,3.00122203 18.2066217,3.00177718 C18.5083267,3.00760623 18.7514671,3.25242641 18.7514671,3.55525954 L18.7514671,12.9938826 L17.6442902,12.9938826 L17.6442902,12.9941602 Z M3.12442506,4.11124007 L9.8649088,9.51782458 L16.6048374,4.11124007 L3.12442506,4.11124007 L3.12442506,4.11124007 Z M12.2494052,14.2640608 C12.4750595,14.0375605 12.8417129,14.0375605 13.0673672,14.2640608 L14.8484536,16.0494161 L16.6292625,14.2640608 C16.8551943,14.0375605 17.2215702,14.0375605 17.4472244,14.2640608 C17.6731562,14.4902835 17.6731562,14.8586241 17.4472244,15.0845692 L15.6664155,16.8699246 L17.4472244,18.6555575 C17.6731562,18.882613 17.6731562,19.2495657 17.4472244,19.4757884 C17.2215702,19.7025663 16.8551943,19.7025663 16.6292625,19.4757884 L14.8484536,17.6901555 L13.0673672,19.4757884 C12.8417129,19.7025663 12.4750595,19.7025663 12.2494052,19.4757884 C12.023751,19.2498432 12.023751,18.8828905 12.2494052,18.6555575 L14.0302141,16.8699246 L12.2494052,15.0845692 C12.023751,14.8583465 12.023751,14.4902835 12.2494052,14.2640608 L12.2494052,14.2640608 Z" id="Shape" fill="#000000"></path>
    </g>
</svg>