<?xml version="1.0" encoding="UTF-8"?>
<svg width="20px" height="20px" viewBox="0 0 20 20" version="1.1" xmlns="http://www.w3.org/2000/svg" xmlns:xlink="http://www.w3.org/1999/xlink">
    <!-- Generator: Sketch 52.5 (67469) - http://www.bohemiancoding.com/sketch -->
    <title>icon/application-minus</title>
    <desc>Created with Sketch.</desc>
    <g id="icon/application-minus" stroke="none" stroke-width="1" fill="none" fill-rule="evenodd">
        <path d="M17.8483347,18.6544343 L2.30511499,18.6544343 C1.99869151,18.6544343 1.75,18.4060056 1.75,18.099564 L1.75,2.55487023 C1.75,2.24842864 1.99869151,2 2.30511499,2 L17.8483347,2 C18.1550357,2 18.4034496,2.24870622 18.4034496,2.55487023 L18.4034496,18.099564 C18.4034496,18.4062832 18.1550357,18.6544343 17.8483347,18.6544343 L17.8483347,18.6544343 Z M17.2932197,3.665721 C17.2932197,3.35900183 17.0445282,3.10974047 16.7381047,3.10974047 L3.41534496,3.10974047 C3.10892149,3.10974047 2.86022998,3.35872426 2.86022998,3.665721 L2.86022998,6.44146004 L17.2932197,6.44146004 L17.2932197,3.665721 L17.2932197,3.665721 Z M17.2932197,7.55120051 L2.86022998,7.55120051 L2.86022998,16.9887133 C2.86022998,17.2959876 3.10892149,17.5446938 3.41534496,17.5446938 L16.7381047,17.5446938 C17.0445282,17.5446938 17.2932197,17.2959876 17.2932197,16.9887133 L17.2932197,7.55120051 L17.2932197,7.55120051 Z M7.30142744,11.9926606 L12.8525773,11.9926606 L12.8525773,13.1035113 L7.30142744,13.1035113 L7.30142744,11.9926606 L7.30142744,11.9926606 Z M5.08096749,5.33116442 L3.97073751,5.33116442 L3.97073751,4.22003609 L5.08096749,4.22003609 L5.08096749,5.33116442 L5.08096749,5.33116442 Z M7.30142744,5.33116442 L6.19119746,5.33116442 L6.19119746,4.22003609 L7.30142744,4.22003609 L7.30142744,5.33116442 L7.30142744,5.33116442 Z M9.52160983,5.33116442 L8.41137986,5.33116442 L8.41137986,4.22003609 L9.52160983,4.22003609 L9.52160983,5.33116442 L9.52160983,5.33116442 Z" id="Shape" fill="#000000"></path>
    </g>
</svg>