<?xml version="1.0" encoding="UTF-8"?>
<svg width="20px" height="20px" viewBox="0 0 20 20" version="1.1" xmlns="http://www.w3.org/2000/svg" xmlns:xlink="http://www.w3.org/1999/xlink">
    <!-- Generator: Sketch 48.2 (47327) - http://www.bohemiancoding.com/sketch -->
    <title>buddicons/icon-logs</title>
    <desc>Created with Sketch.</desc>
    <defs></defs>
    <g id="Icons" stroke="none" stroke-width="1" fill="none" fill-rule="evenodd">
        <g id="buddicons/icon-logs" fill="#000000">
            <path d="M14.1431404,17.5446938 C12.1491673,17.5446938 10.3267248,18.6555445 10.3267248,18.6555445 C10.3267248,18.6555445 8.50428232,17.5446938 6.51030928,17.5446938 C4.10249802,17.5446938 2,18.6555445 2,18.6555445 L2,3.11112834 C2,3.11112834 4.02672482,2 6.40622522,2 C8.44044409,2 10.3267248,3.11112834 10.3267248,3.11112834 C10.3267248,3.11112834 12.2132831,2 14.2472244,2 C16.6270024,2 18.6534496,3.11112834 18.6534496,3.11112834 L18.6534496,18.6555445 C18.6531721,18.6555445 16.5506741,17.5446938 14.1431404,17.5446938 L14.1431404,17.5446938 Z M9.77133228,3.94523792 C9.05967486,3.61659042 7.75765266,3.11112834 6.44064235,3.11112834 C4.49773989,3.11112834 3.10995242,4.22114638 3.10995242,4.22114638 L3.10995242,16.9898235 C3.10995242,16.9898235 4.4630452,16.4343982 6.3887391,16.4343982 C7.72323553,16.4343982 9.05023791,16.6889334 9.77133228,16.8535348 L9.77133228,3.94523792 L9.77133228,3.94523792 Z M17.5429421,4.22114638 C17.5429421,4.22114638 16.1551546,3.11112834 14.2122522,3.11112834 C12.8952419,3.11112834 11.5934972,3.61659042 10.8815623,3.94523792 L10.8815623,16.8535348 C11.6029342,16.689211 12.9299366,16.4343982 14.264433,16.4343982 C16.1901269,16.4343982 17.5432197,16.9898235 17.5432197,16.9898235 L17.5432197,4.22114638 L17.5429421,4.22114638 Z M12.5469072,13.1040665 C12.5469072,13.1040665 13.588858,12.5480859 14.6632831,12.5480859 C15.8073751,12.5480859 16.4327121,13.1040665 16.4327121,13.1040665 L16.4327121,14.2143621 C16.4327121,14.2143621 15.8775971,13.6586591 14.7673672,13.6586591 C13.6571372,13.6586591 12.5469072,14.2143621 12.5469072,14.2143621 L12.5469072,13.1040665 L12.5469072,13.1040665 Z M12.5469072,10.8829201 L12.5469072,9.77262446 C12.5469072,9.77262446 13.588858,9.21747666 14.6632831,9.21747666 C15.8073751,9.21747666 16.4327121,9.77262446 16.4327121,9.77262446 L16.4327121,10.8829201 C16.4327121,10.8829201 15.8775971,10.3280498 14.7673672,10.3280498 C13.6571372,10.3280498 12.5469072,10.8829201 12.5469072,10.8829201 L12.5469072,10.8829201 Z M12.5469072,7.55258838 L12.5469072,6.44118247 C12.5469072,6.44118247 13.588858,5.88658981 14.6632831,5.88658981 C15.8073751,5.88658981 16.4327121,6.44118247 16.4327121,6.44118247 L16.4327121,7.55258838 C16.4327121,7.55258838 15.8775971,6.99688542 14.7673672,6.99688542 C13.6571372,6.99688542 12.5469072,7.55258838 12.5469072,7.55258838 L12.5469072,7.55258838 Z M4.22045995,14.2143621 L4.22045995,13.1040665 C4.22045995,13.1040665 4.70701824,12.5480859 5.78172086,12.5480859 C6.92553529,12.5480859 8.10626487,13.1040665 8.10626487,13.1040665 L8.10626487,14.2143621 C8.10626487,14.2143621 6.99603489,13.6586591 5.88580492,13.6586591 C4.77529738,13.6586591 4.22045995,14.2143621 4.22045995,14.2143621 L4.22045995,14.2143621 Z M4.22045995,10.8829201 L4.22045995,9.77262446 C4.22045995,9.77262446 4.70701824,9.21747666 5.78172086,9.21747666 C6.92553529,9.21747666 8.10626487,9.77262446 8.10626487,9.77262446 L8.10626487,10.8829201 C8.10626487,10.8829201 6.99603489,10.3280498 5.88580492,10.3280498 C4.77529738,10.3280498 4.22045995,10.8829201 4.22045995,10.8829201 L4.22045995,10.8829201 Z M4.22045995,7.55258838 L4.22045995,6.44118247 C4.22045995,6.44118247 4.70701824,5.88658981 5.78172086,5.88658981 C6.92553529,5.88658981 8.10626487,6.44118247 8.10626487,6.44118247 L8.10626487,7.55258838 C8.10626487,7.55258838 6.99603489,6.99688542 5.88580492,6.99688542 C4.77529738,6.99688542 4.22045995,7.55258838 4.22045995,7.55258838 L4.22045995,7.55258838 Z" id="Shape"></path>
        </g>
    </g>
</svg>