<?xml version="1.0" encoding="UTF-8"?>
<svg width="20px" height="20px" viewBox="0 0 20 20" version="1.1" xmlns="http://www.w3.org/2000/svg" xmlns:xlink="http://www.w3.org/1999/xlink">
    <!-- Generator: Sketch 51.3 (57544) - http://www.bohemiancoding.com/sketch -->
    <title>buddicons/megaphone</title>
    <desc>Created with Sketch.</desc>
    <defs></defs>
    <g id="buddicons/megaphone" stroke="none" stroke-width="1" fill="none" fill-rule="evenodd">
        <path d="M17.6531721,16.4343982 L17.6531721,15.3241025 L9.88156225,14.2138069 L9.88156225,16.9901011 C9.88156225,17.0309045 9.86629659,17.0675442 9.85769231,17.106127 C9.85519429,17.1180627 9.85880254,17.1294432 9.85519429,17.1416565 C9.8538065,17.1474855 9.84936558,17.1513716 9.84742268,17.156923 C9.82993656,17.2104948 9.8035686,17.2579599 9.77192704,17.3034821 C9.76193497,17.3179159 9.75471848,17.3326273 9.74333862,17.3453957 C9.70808882,17.3867542 9.66617764,17.4186752 9.62065821,17.4480981 C9.60539255,17.4580907 9.59206979,17.4697488 9.57597145,17.478076 C9.53739096,17.4977838 9.49603489,17.5086092 9.45273592,17.5186018 C9.41887391,17.5277618 9.38612213,17.5369217 9.35003965,17.5394199 C9.34199048,17.539975 9.33477399,17.5444162 9.32672482,17.5444162 C9.31090404,17.5444162 9.29785884,17.5369217 9.28287074,17.5355338 C9.24151467,17.5338684 9.20043616,17.5388647 9.15880254,17.5280393 L4.89718477,16.4316224 C4.89302141,16.4316224 4.88996828,16.433843 4.88580492,16.433843 C4.60519429,16.433843 4.38287074,16.2223317 4.34567803,15.9519747 C4.3445678,15.947256 4.34345757,15.9428148 4.34290246,15.938096 C4.34040444,15.9178331 4.33068993,15.8997908 4.33068993,15.8786952 L4.33068993,13.4202231 L2.11050753,13.1026786 C1.49710547,13.1026786 1,12.6055437 1,11.9929381 L1,6.44146004 C1,5.82829929 1.49710547,5.33116442 2.11050753,5.33116442 L17.6537272,3.11057319 L17.6537272,2 L18.7636796,2 L18.7636796,4.22059123 L18.7636796,14.2132518 L18.7636796,16.4335654 L17.6531721,16.4335654 L17.6531721,16.4343982 Z M5.44036479,15.4401284 L8.77133228,16.2969991 L8.77133228,14.0555898 L5.44036479,13.579273 L5.44036479,15.4401284 L5.44036479,15.4401284 Z M2.10995242,6.997163 L2.10995242,11.4380679 C2.10995242,11.7445095 2.35836638,11.9932157 2.66478985,11.9932157 L14.3224822,13.7868983 L14.3224822,4.64861019 L2.66478985,6.44173761 C2.35836638,6.44173761 2.10995242,6.69072141 2.10995242,6.997163 L2.10995242,6.997163 Z M17.6531721,4.77601662 C17.6531721,4.46929745 17.4044806,4.22114638 17.0980571,4.22114638 L15.4327121,4.47762467 L15.4327121,13.9578838 L17.0980571,14.2140845 C17.4044806,14.2140845 17.6531721,13.9656559 17.6531721,13.6586591 L17.6531721,4.77601662 L17.6531721,4.77601662 Z" id="Shape" fill="#000000"></path>
    </g>
</svg>