<?xml version="1.0" encoding="UTF-8"?>
<svg width="20px" height="20px" viewBox="0 0 20 20" version="1.1" xmlns="http://www.w3.org/2000/svg" xmlns:xlink="http://www.w3.org/1999/xlink">
    <!-- Generator: Sketch 54.1 (76490) - https://sketchapp.com -->
    <title>icon/eye-slash</title>
    <desc>Created with Sketch.</desc>
    <g id="icon/eye-slash" stroke="none" stroke-width="1" fill="none" fill-rule="evenodd">
        <path d="M12.7696045,5.02328871 C11.8965701,4.67306925 10.9738997,4.5 10,4.5 C6.86954836,4.5 4.26839939,6.28815612 2.1436376,10 C2.89383091,11.3105471 3.70341047,12.381288 4.57470529,13.2181879 L3.86835063,13.9245426 C2.82070219,12.9138393 1.86458531,11.6056584 1,10 C3.33333333,5.66666667 6.33333333,3.5 10,3.5 C11.2551863,3.5 12.432249,3.75390171 13.5311881,4.26170512 L12.7696045,5.02328871 Z M10.2776494,7.51524381 C10.186487,7.50517106 10.0938474,7.5 10,7.5 C8.61928813,7.5 7.5,8.61928813 7.5,10 C7.5,10.0938474 7.50517106,10.186487 7.51524381,10.2776494 L6.68048263,11.1124106 C6.56342048,10.7629389 6.5,10.3888758 6.5,10 C6.5,8.06700338 8.06700338,6.5 10,6.5 C10.3888758,6.5 10.7629389,6.56342048 11.1124106,6.68048263 L10.2776494,7.51524381 Z M15.3792498,6.73785699 L16.0857162,6.03139061 C17.1513672,7.04803544 18.1227951,8.37090523 19,10 C16.6666667,14.3333333 13.6666667,16.5 10,16.5 C8.72142539,16.5 7.52391292,16.2365481 6.40746258,15.7096442 L7.16641515,14.9506916 C8.05831917,15.3183598 9.00227641,15.5 10,15.5 C13.1304516,15.5 15.7316006,13.7118439 17.8563624,10 C17.0929705,8.66639567 16.2680843,7.58110989 15.3792498,6.73785699 Z M12.4746284,9.64247843 L13.2963654,8.82074134 C13.4281949,9.18920271 13.5,9.58621586 13.5,10 C13.5,11.9329966 11.9329966,13.5 10,13.5 C9.58621586,13.5 9.18920271,13.4281949 8.82074134,13.2963654 L9.64247843,12.4746284 C9.75924297,12.4913485 9.87861115,12.5 10,12.5 C11.3807119,12.5 12.5,11.3807119 12.5,10 C12.5,9.87861115 12.4913485,9.75924297 12.4746284,9.64247843 Z M3.35355339,17.3535534 C3.15829124,17.5488155 2.84170876,17.5488155 2.64644661,17.3535534 C2.45118446,17.1582912 2.45118446,16.8417088 2.64644661,16.6464466 L16.1464466,3.14644661 C16.3417088,2.95118446 16.6582912,2.95118446 16.8535534,3.14644661 C17.0488155,3.34170876 17.0488155,3.65829124 16.8535534,3.85355339 L3.35355339,17.3535534 Z" id="Shape" fill="#000000"></path>
    </g>
</svg>