<?xml version="1.0" encoding="UTF-8"?>
<svg width="20px" height="20px" viewBox="0 0 20 20" version="1.1" xmlns="http://www.w3.org/2000/svg" xmlns:xlink="http://www.w3.org/1999/xlink">
    <!-- Generator: Sketch 52.5 (67469) - http://www.bohemiancoding.com/sketch -->
    <title>icon/chart-pie</title>
    <desc>Created with Sketch.</desc>
    <g id="icon/chart-pie" stroke="none" stroke-width="1" fill="none" fill-rule="evenodd">
        <path d="M12.188065,18.7663953 L10.9923473,18.7647299 L10.9923473,17.655267 L10.9923473,12.1037889 L18.7337034,12.1037889 L18.7639572,12.1037889 L18.7639572,13.2140845 C18.7639572,13.2143621 18.0958763,17.916464 12.188065,18.7663953 L12.188065,18.7663953 Z M12.1025773,13.2143621 L12.1025773,17.6555445 L12.1025773,17.6560997 L12.1081285,17.6560997 C16.4774385,16.9935308 17.4555511,13.9665874 17.6323553,13.2143621 L12.1025773,13.2143621 L12.1025773,13.2143621 Z M17.541594,10.9932157 L9.88211737,10.9932157 L9.88211737,10.9932157 L9.88211737,18.7647299 L9.88211737,18.7647299 L9.88211737,18.7655626 L8.77188739,18.7655626 L8.77188739,18.6875643 C6.95666138,18.461064 5.33183981,17.6658148 4.02704203,16.5152709 L3.99401269,16.5488574 L3.21574148,15.7708177 L3.22878668,15.7583269 C1.84294211,14.1936428 1,12.1376529 1,9.88264251 C1,4.97652375 4.97656622,1 9.88183981,1 C14.7871134,1 18.7636796,4.97680133 18.7636796,9.88264251 L18.7636796,10.9932157 L18.6867962,10.9932157 L17.541594,10.9932157 L17.541594,10.9932157 Z M8.77188739,17.542572 L8.77188739,11.7709778 L4.8166931,15.7264059 C5.91471055,16.6698796 7.26780333,17.3257867 8.77188739,17.542572 L8.77188739,17.542572 Z M9.88183981,2.11029562 C5.58969072,2.11029562 2.11022998,5.59023965 2.11022998,9.88264251 C2.11022998,11.8414815 2.83770817,13.6226733 4.03564631,14.98112 L9.32700238,9.88403038 L9.36141951,9.93094037 L9.38778747,9.88319766 L9.88211737,9.8837528 L9.88211737,9.88292008 L17.6537272,9.88292008 C17.6537272,5.59023965 14.1739889,2.11029562 9.88183981,2.11029562 L9.88183981,2.11029562 Z" id="Shape" fill="#000000"></path>
    </g>
</svg>