<?xml version="1.0" encoding="UTF-8"?>
<svg width="20px" height="20px" viewBox="0 0 20 20" version="1.1" xmlns="http://www.w3.org/2000/svg" xmlns:xlink="http://www.w3.org/1999/xlink">
    <!-- Generator: Sketch 48.2 (47327) - http://www.bohemiancoding.com/sketch -->
    <title>buddicons/quickstarts</title>
    <desc>Created with Sketch.</desc>
    <defs></defs>
    <g id="Icons" stroke="none" stroke-width="1" fill="none" fill-rule="evenodd">
        <g id="buddicons/quickstarts" fill="#000000">
            <path d="M17.5432197,18.7647299 L3.11050753,18.7647299 C2.49710547,18.7647299 2,18.2681502 2,17.6547118 L2,2.11029562 C2,1.49657971 2.49710547,1 3.11050753,1 L17.5432197,1 C18.1563442,1 18.6534496,1.49657971 18.6534496,2.11029562 L18.6534496,17.6547118 C18.6534496,18.2681502 18.1563442,18.7647299 17.5432197,18.7647299 L17.5432197,18.7647299 Z M17.5432197,13.2135294 L4.77557494,13.2135294 C4.46887391,13.2135294 4.22045995,12.9648231 4.22045995,12.658104 C4.22045995,12.3513848 4.46887391,12.102401 4.77557494,12.102401 L17.5432197,12.102401 L17.5432197,7.66205127 L4.77557494,7.66205127 C4.46887391,7.66205127 4.22045995,7.41306748 4.22045995,7.10662589 C4.22045995,6.79990673 4.46887391,6.55203323 4.77557494,6.55203323 L17.5432197,6.55203323 L17.5432197,2.66516585 C17.5432197,2.35872426 17.2948057,2.11029562 16.9881047,2.11029562 L3.66534496,2.11029562 C3.35864393,2.11029562 3.11022998,2.35900183 3.11022998,2.66516585 L3.11022998,17.0990089 C3.11022998,17.405728 3.35864393,17.6547118 3.66534496,17.6547118 L16.9881047,17.6547118 C17.2948057,17.6547118 17.5432197,17.4060056 17.5432197,17.0990089 L17.5432197,13.2135294 L17.5432197,13.2135294 Z M15.6930214,16.5435835 L14.9527756,16.5435835 C14.5439334,16.5435835 14.2125297,16.212993 14.2125297,15.803849 L14.2125297,15.0635594 C14.2125297,14.6544155 14.5439334,14.3235474 14.9527756,14.3235474 L15.6930214,14.3235474 C16.1018636,14.3235474 16.4329897,14.6544155 16.4329897,15.0635594 L16.4329897,15.803849 C16.4329897,16.212993 16.1018636,16.5435835 15.6930214,16.5435835 L15.6930214,16.5435835 Z M14.9527756,8.77151417 L15.6930214,8.77151417 C16.1018636,8.77151417 16.4329897,9.10293741 16.4329897,9.51180377 L16.4329897,10.2526485 C16.4329897,10.6609597 16.1018636,10.9929381 15.6930214,10.9929381 L14.9527756,10.9929381 C14.5439334,10.9929381 14.2125297,10.6609597 14.2125297,10.2526485 L14.2125297,9.51180377 C14.2128073,9.10293741 14.5439334,8.77151417 14.9527756,8.77151417 L14.9527756,8.77151417 Z M14.9527756,3.22086881 L15.6930214,3.22086881 C16.1018636,3.22086881 16.4329897,3.55201448 16.4329897,3.96060326 L16.4329897,4.70061529 C16.4329897,5.10975923 16.1018636,5.44062732 15.6930214,5.44062732 L14.9527756,5.44062732 C14.5439334,5.44062732 14.2125297,5.10975923 14.2125297,4.70061529 L14.2125297,3.96060326 C14.2128073,3.55201448 14.5439334,3.22086881 14.9527756,3.22086881 L14.9527756,3.22086881 Z" id="Shape"></path>
        </g>
    </g>
</svg>