<?xml version="1.0" encoding="UTF-8"?>
<svg width="20px" height="20px" viewBox="0 0 20 20" version="1.1" xmlns="http://www.w3.org/2000/svg" xmlns:xlink="http://www.w3.org/1999/xlink">
    <!-- Generator: Sketch 52.5 (67469) - http://www.bohemiancoding.com/sketch -->
    <title>icon/archive</title>
    <desc>Created with Sketch.</desc>
    <g id="icon/archive" stroke="none" stroke-width="1" fill="none" fill-rule="evenodd">
        <path d="M17.6534496,8.66232885 L17.6534496,17.5441386 C17.6534496,18.1570218 17.1563442,18.6544343 16.5432197,18.6544343 L3.22045995,18.6544343 C2.60733545,18.6544343 2.11022998,18.1570218 2.11022998,17.5441386 L2.11022998,8.66232885 C1.49682791,8.66232885 1,8.16491641 1,7.55147808 L1,3.11029562 C1,2.49685729 1.49710547,2 2.11022998,2 L17.6534496,2 C18.2665741,2 18.7636796,2.49685729 18.7636796,3.11029562 L18.7636796,7.55147808 C18.7634021,8.16519399 18.2662966,8.66232885 17.6534496,8.66232885 L17.6534496,8.66232885 Z M3.22045995,16.9889908 C3.22045995,17.29571 3.46915147,17.5441386 3.77557494,17.5441386 L15.9881047,17.5441386 C16.2945282,17.5441386 16.5432197,17.29571 16.5432197,16.9889908 L16.5432197,9.21664393 C16.5432197,8.91047992 16.2945282,8.66260642 15.9881047,8.66260642 L13.2125297,8.66260642 L13.2125297,10.8823649 C13.2125297,11.4960808 12.7154243,11.9926606 12.1022998,11.9926606 L7.66137986,11.9926606 C7.04825535,11.9926606 6.55114988,11.4960808 6.55114988,10.8823649 L6.55114988,8.66260642 L3.77557494,8.66260642 C3.46915147,8.66260642 3.22045995,8.91047992 3.22045995,9.21664393 L3.22045995,16.9889908 L3.22045995,16.9889908 Z M12.1020222,10.3274947 L12.1020222,9.77179174 L12.1020222,9.21664393 L12.1020222,8.66260642 L11.5469072,8.66260642 L8.21621729,8.66260642 L7.6611023,8.66260642 L7.6611023,9.21664393 L7.6611023,9.77179174 L7.6611023,10.3274947 C7.6611023,10.6339363 7.90979381,10.8823649 8.21621729,10.8823649 L11.5469072,10.8823649 C11.8536082,10.8820874 12.1020222,10.6336587 12.1020222,10.3274947 L12.1020222,10.3274947 Z M17.6534496,3.66544343 C17.6534496,3.35927941 17.4047581,3.11029562 17.0983347,3.11029562 L2.66534496,3.11029562 C2.35892149,3.11029562 2.11022998,3.35900183 2.11022998,3.66544343 L2.11022998,6.99660785 C2.11022998,7.30304944 2.35864393,7.55175566 2.66534496,7.55175566 L7.66137986,7.55175566 L12.1022998,7.55175566 L17.0983347,7.55175566 C17.4047581,7.55175566 17.6534496,7.30304944 17.6534496,6.99660785 L17.6534496,3.66544343 L17.6534496,3.66544343 Z" id="Shape" fill="#000000"></path>
    </g>
</svg>