<?xml version="1.0" encoding="UTF-8"?>
<svg width="20px" height="20px" viewBox="0 0 20 20" version="1.1" xmlns="http://www.w3.org/2000/svg" xmlns:xlink="http://www.w3.org/1999/xlink">
    <!-- Generator: Sketch 54.1 (76490) - https://sketchapp.com -->
    <title>icon/reload-cancel</title>
    <desc>Created with Sketch.</desc>
    <g id="icon/reload-cancel" stroke="none" stroke-width="1" fill="none" fill-rule="evenodd">
        <path d="M10,17.6538271 L10,18.7642354 C9.9606754,18.7647496 9.92128815,18.7650074 9.88183981,18.7650074 C4.97656622,18.7650074 1,14.7887613 1,9.88208736 C1,4.97624618 4.97656622,1 9.88183981,1 C13.2383426,1 16.1424266,2.87251356 17.6517843,5.61994006 L17.6517843,1.55792355 C17.6517843,1.25148196 17.9007534,1.00277574 18.207732,1.00277574 C18.514433,1.00277574 18.7634021,1.25148196 18.7634021,1.55792355 L18.7634021,7.06193649 C18.7645123,7.07720306 18.7720063,7.08997146 18.7720063,7.1055156 C18.7720063,7.13299541 18.7542427,7.15298073 18.7500793,7.17879511 C18.7417526,7.24791101 18.7239889,7.31119786 18.6934576,7.36976595 C18.681245,7.39086157 18.6684774,7.40918145 18.6537669,7.42833405 C18.6021412,7.50161356 18.5377478,7.56295739 18.4575337,7.60403833 C18.4625297,7.62291335 18.4639175,7.64289867 18.4689136,7.66205127 L17.2923473,7.66205127 L15.4327121,7.66205127 L12.6601903,7.66205127 C12.3532117,7.66205127 12.1045202,7.41278991 12.1045202,7.10579317 C12.1045202,6.79907401 12.3532117,6.55009021 12.6601903,6.55009021 L16.8762887,6.55009021 C15.6256146,3.93229072 12.9763283,2.11029562 9.88183981,2.11029562 C5.58969072,2.11029562 2.10995242,5.58996208 2.10995242,9.88236493 C2.10995242,14.1753229 5.58969072,17.6547118 9.88183981,17.6547118 C9.92129787,17.6547118 9.96068527,17.6544162 10,17.6538271 Z" id="Combined-Shape" fill="#000000"></path>
        <path d="M12.2494052,14.2640608 C12.4750595,14.0375605 12.8417129,14.0375605 13.0673672,14.2640608 L14.8484536,16.0494161 L16.6292625,14.2640608 C16.8551943,14.0375605 17.2215702,14.0375605 17.4472244,14.2640608 C17.6731562,14.4902835 17.6731562,14.8586241 17.4472244,15.0845692 L15.6664155,16.8699246 L17.4472244,18.6555575 C17.6731562,18.882613 17.6731562,19.2495657 17.4472244,19.4757884 C17.2215702,19.7025663 16.8551943,19.7025663 16.6292625,19.4757884 L14.8484536,17.6901555 L13.0673672,19.4757884 C12.8417129,19.7025663 12.4750595,19.7025663 12.2494052,19.4757884 C12.023751,19.2498432 12.023751,18.8828905 12.2494052,18.6555575 L14.0302141,16.8699246 L12.2494052,15.0845692 C12.023751,14.8583465 12.023751,14.4902835 12.2494052,14.2640608 L12.2494052,14.2640608 Z" id="Shape" fill="#000000"></path>
    </g>
</svg>