<?xml version="1.0" encoding="UTF-8"?>
<svg width="20px" height="20px" viewBox="0 0 20 20" version="1.1" xmlns="http://www.w3.org/2000/svg" xmlns:xlink="http://www.w3.org/1999/xlink">
    <!-- Generator: Sketch 52.5 (67469) - http://www.bohemiancoding.com/sketch -->
    <title>icon/calendar</title>
    <desc>Created with Sketch.</desc>
    <g id="icon/calendar" stroke="none" stroke-width="1" fill="none" fill-rule="evenodd">
        <path d="M17.5432197,18.7650074 L3.11022998,18.7650074 C2.49710547,18.7650074 2,18.2681502 2,17.6547118 L2,6.55231081 L2,5.44173761 L2,3.22086881 C2,2.60770805 2.49710547,2.11057319 3.11022998,2.11057319 L6.4409199,2.11057319 L6.4409199,1 L7.55114988,1 L7.55114988,2.11057319 L13.1022998,2.11057319 L13.1022998,1 L14.2125297,1 L14.2125297,2.11057319 L18.0983347,2.11057319 C18.7114592,2.11057319 18.6534496,2.60770805 18.6534496,3.22086881 L18.6534496,5.44173761 L18.6534496,6.55231081 L18.6534496,17.6547118 C18.6537272,18.2681502 18.1563442,18.7650074 17.5432197,18.7650074 L17.5432197,18.7650074 Z M17.5432197,3.77657176 C17.5432197,3.46929745 17.2945282,3.22086881 16.9881047,3.22086881 L14.2125297,3.22086881 L14.2125297,4.33171957 L13.1022998,4.33171957 L13.1022998,3.22086881 L7.55114988,3.22086881 L7.55114988,4.33171957 L6.4409199,4.33171957 L6.4409199,3.22086881 L3.66534496,3.22086881 C3.35864393,3.22086881 3.10995242,3.46929745 3.10995242,3.77657176 L3.10995242,5.44173761 L17.5429421,5.44173761 L17.5429421,3.77657176 L17.5432197,3.77657176 Z M17.5432197,6.55231081 L3.11022998,6.55231081 L3.11022998,17.099564 C3.11022998,17.4062832 3.35892149,17.6547118 3.66562252,17.6547118 L16.9881047,17.6547118 C17.2945282,17.6547118 17.5432197,17.4062832 17.5432197,17.099564 L17.5432197,6.55231081 L17.5432197,6.55231081 Z" id="Shape" fill="#000000"></path>
    </g>
</svg>