<?xml version="1.0" encoding="UTF-8"?>
<svg width="20px" height="20px" viewBox="0 0 20 20" version="1.1" xmlns="http://www.w3.org/2000/svg" xmlns:xlink="http://www.w3.org/1999/xlink">
    <!-- Generator: Sketch 52.5 (67469) - http://www.bohemiancoding.com/sketch -->
    <title>icon/note</title>
    <desc>Created with Sketch.</desc>
    <g id="icon/note" stroke="none" stroke-width="1" fill="none" fill-rule="evenodd">
        <path d="M16.9881047,18.7650074 L3.66534496,18.7650074 C2.74579699,18.7650074 2,18.0188888 2,17.0992864 L2,2.665721 C2,1.74584108 2.74579699,1 3.66534496,1 L16.9881047,1 C17.9076527,1 18.6534496,1.74584108 18.6534496,2.665721 L18.6534496,17.0992864 C18.6537272,18.0191664 17.9079302,18.7650074 16.9881047,18.7650074 L16.9881047,18.7650074 Z M17.5434972,2.66599857 C17.5434972,2.35900183 17.2948057,2.11085076 16.9883822,2.11085076 L3.66562252,2.11085076 C3.35919905,2.11085076 3.11050753,2.35900183 3.11050753,2.66599857 L3.11050753,17.099564 C3.11050753,17.4065608 3.35919905,17.6547118 3.66562252,17.6547118 L16.9883822,17.6547118 C17.2950833,17.6547118 17.5434972,17.4065608 17.5434972,17.099564 L17.5434972,2.66599857 L17.5434972,2.66599857 Z M14.7676447,13.2135294 L5.88580492,13.2135294 C5.57910389,13.2135294 5.33068993,12.9651007 5.33068993,12.6583815 C5.33068993,12.3516624 5.57938144,12.1032337 5.88580492,12.1032337 L14.7676447,12.1032337 C15.0743458,12.1032337 15.3227597,12.3513848 15.3227597,12.6583815 C15.3227597,12.9653783 15.0743458,13.2135294 14.7676447,13.2135294 L14.7676447,13.2135294 Z M14.7676447,9.88236493 L5.88580492,9.88236493 C5.57910389,9.88236493 5.33068993,9.63421386 5.33068993,9.32721713 C5.33068993,9.02133068 5.57938144,8.77206932 5.88580492,8.77206932 L14.7676447,8.77206932 C15.0743458,8.77206932 15.3227597,9.02105311 15.3227597,9.32721713 C15.3227597,9.63421386 15.0743458,9.88236493 14.7676447,9.88236493 L14.7676447,9.88236493 Z M14.7676447,6.55175566 L5.88580492,6.55175566 C5.57910389,6.55175566 5.33068993,6.30332701 5.33068993,5.99660785 C5.33068993,5.69016626 5.57938144,5.44146004 5.88580492,5.44146004 L14.7676447,5.44146004 C15.0743458,5.44146004 15.3227597,5.69016626 15.3227597,5.99660785 C15.3227597,6.30332701 15.0743458,6.55175566 14.7676447,6.55175566 L14.7676447,6.55175566 Z" id="Shape" fill="#000000"></path>
    </g>
</svg>