<?xml version="1.0" encoding="UTF-8"?>
<svg width="20px" height="20px" viewBox="0 0 20 20" version="1.1" xmlns="http://www.w3.org/2000/svg" xmlns:xlink="http://www.w3.org/1999/xlink">
    <!-- Generator: Sketch 52.5 (67469) - http://www.bohemiancoding.com/sketch -->
    <title>icon/push-notifications</title>
    <desc>Created with Sketch.</desc>
    <g id="icon/push-notifications" stroke="none" stroke-width="1" fill="none" fill-rule="evenodd">
        <path d="M14.8778747,8.77234689 C12.7320777,8.77234689 10.9920698,7.03195851 10.9920698,4.88603466 C10.9920698,2.73983323 12.7320777,1 14.8778747,1 C17.0239492,1 18.7636796,2.73983323 18.7636796,4.88603466 C18.7636796,7.03223609 17.0239492,8.77234689 14.8778747,8.77234689 L14.8778747,8.77234689 Z M14.8778747,2.11029562 C13.3452022,2.11029562 12.1022998,3.35327156 12.1022998,4.88603466 C12.1022998,6.41935291 13.3452022,7.66205127 14.8778747,7.66205127 C16.4108247,7.66205127 17.6534496,6.41935291 17.6534496,4.88603466 C17.6534496,3.35327156 16.4108247,2.11029562 14.8778747,2.11029562 L14.8778747,2.11029562 Z M2.11050753,5.44146004 L2.11050753,15.4341206 C2.11050753,16.6609972 3.10444092,17.6544343 4.33096749,17.6544343 L14.3227597,17.6544343 C15.5492863,17.6544343 16.5432197,16.6609972 16.5432197,15.4341206 L16.5432197,9.88264251 L17.6534496,9.88264251 L17.6534496,15.4341206 C17.6534496,17.2733253 16.1621332,18.7650074 14.3227597,18.7650074 L4.33096749,18.7650074 C2.49131642,18.7650074 1,17.2733253 1,15.4341206 L1,5.44146004 C1,3.60142263 2.49131642,2.11029562 4.33096749,2.11029562 L9.88183981,2.11029562 L9.88183981,3.22059123 L4.33096749,3.22059123 C3.10444092,3.22059123 2.11050753,4.21486096 2.11050753,5.44146004 L2.11050753,5.44146004 Z" id="Shape" fill="#000000"></path>
    </g>
</svg>