<?xml version="1.0" encoding="UTF-8"?>
<svg width="20px" height="20px" viewBox="0 0 20 20" version="1.1" xmlns="http://www.w3.org/2000/svg" xmlns:xlink="http://www.w3.org/1999/xlink">
    <!-- Generator: Sketch 52.3 (67297) - http://www.bohemiancoding.com/sketch -->
    <title>icon/enterprise</title>
    <desc>Created with Sketch.</desc>
    <g id="icon/enterprise" stroke="none" stroke-width="1" fill="none" fill-rule="evenodd">
        <path d="M14.3230373,18.765285 L12.1022998,18.765285 L10.9920698,18.765285 L8.77160983,18.765285 L7.66165741,18.765285 L5.4409199,18.765285 L1,18.765285 L1,18.2095821 L1,17.6549894 L1,4.33088685 L5.4409199,4.33088685 L5.4409199,1 L14.3230373,1 L14.3230373,4.33088685 L18.7639572,4.33088685 L18.7639572,17.6549894 L18.7639572,18.2095821 L18.7639572,18.765285 L14.3230373,18.765285 L14.3230373,18.765285 Z M5.4409199,5.44173761 L2.11050753,5.44173761 L2.11050753,17.6549894 L5.4409199,17.6549894 L5.4409199,5.44173761 L5.4409199,5.44173761 Z M8.77160983,17.6549894 L10.9920698,17.6549894 L10.9920698,15.4341206 L8.77160983,15.4341206 L8.77160983,17.6549894 L8.77160983,17.6549894 Z M13.2125297,4.33088685 L13.2125297,2.11029562 L6.55114988,2.11029562 L6.55114988,4.33088685 L6.55114988,17.6549894 L7.66165741,17.6549894 L7.66165741,15.4341206 L7.66165741,14.3235474 L8.77160983,14.3235474 L10.9920698,14.3235474 L12.1022998,14.3235474 L12.1022998,15.4341206 L12.1022998,17.6549894 L13.2125297,17.6549894 L13.2125297,4.33088685 L13.2125297,4.33088685 Z M17.6537272,5.44173761 L14.3230373,5.44173761 L14.3230373,17.6549894 L17.6537272,17.6549894 L17.6537272,5.44173761 L17.6537272,5.44173761 Z M16.5434972,8.77234689 L15.4332672,8.77234689 L15.4332672,7.66232885 L16.5434972,7.66232885 L16.5434972,8.77234689 L16.5434972,8.77234689 Z M16.5434972,12.1029562 L15.4332672,12.1029562 L15.4332672,10.9921054 L16.5434972,10.9921054 L16.5434972,12.1029562 L16.5434972,12.1029562 Z M16.5434972,15.4341206 L15.4332672,15.4341206 L15.4332672,14.3235474 L16.5434972,14.3235474 L16.5434972,15.4341206 L16.5434972,15.4341206 Z M7.66165741,10.9921054 L12.1022998,10.9921054 L12.1022998,12.1029562 L7.66165741,12.1029562 L7.66165741,10.9921054 L7.66165741,10.9921054 Z M7.66165741,7.66232885 L12.1022998,7.66232885 L12.1022998,8.77234689 L7.66165741,8.77234689 L7.66165741,7.66232885 L7.66165741,7.66232885 Z M7.66165741,4.33088685 L12.1022998,4.33088685 L12.1022998,5.44173761 L7.66165741,5.44173761 L7.66165741,4.33088685 L7.66165741,4.33088685 Z M4.33068993,8.77234689 L3.22045995,8.77234689 L3.22045995,7.66232885 L4.33068993,7.66232885 L4.33068993,8.77234689 L4.33068993,8.77234689 Z M4.33068993,12.1029562 L3.22045995,12.1029562 L3.22045995,10.9921054 L4.33068993,10.9921054 L4.33068993,12.1029562 L4.33068993,12.1029562 Z M4.33068993,15.4341206 L3.22045995,15.4341206 L3.22045995,14.3235474 L4.33068993,14.3235474 L4.33068993,15.4341206 L4.33068993,15.4341206 Z" id="Shape" fill="#000000"></path>
    </g>
</svg>