<?xml version="1.0" encoding="UTF-8"?>
<svg width="20px" height="20px" viewBox="0 0 20 20" version="1.1" xmlns="http://www.w3.org/2000/svg" xmlns:xlink="http://www.w3.org/1999/xlink">
    <!-- Generator: Sketch 52.5 (67469) - http://www.bohemiancoding.com/sketch -->
    <title>icon/user-check</title>
    <desc>Created with Sketch.</desc>
    <g id="icon/user-check" stroke="none" stroke-width="1" fill="none" fill-rule="evenodd">
        <path d="M18.670865,14.1253596 L15.3687635,17.4273788 C15.3532203,17.4481968 15.3593265,17.4776197 15.3398975,17.4964947 C15.2302623,17.6061364 15.0864875,17.6499931 14.9429903,17.6438864 C14.7992155,17.6497155 14.6551632,17.6058588 14.5458055,17.4964947 C14.526654,17.4776197 14.5327603,17.4481968 14.5172171,17.4271012 L13.4355755,16.3453957 C13.2274074,16.1369377 13.2274074,15.799963 13.4355755,15.5920601 C13.6437436,15.3836021 13.9812536,15.3836021 14.1894217,15.5920601 L14.9432678,16.3456733 L17.9172964,13.3709138 C18.1254645,13.1627333 18.4626969,13.1627333 18.670865,13.3709138 C18.8790331,13.5793718 18.8790331,13.9166241 18.670865,14.1253596 L18.670865,14.1253596 Z M11.880976,12.2850446 C12.4521893,12.4274401 13.2856945,12.6417271 14.1117056,12.8737789 C13.7231251,13.1385844 13.3914439,13.4738937 13.104727,13.8452876 C12.4333154,13.6648645 11.7285969,13.4841639 11.0574629,13.323171 L11.0574629,11.5644628 C12.4496913,10.6168255 13.2745922,8.55833741 13.2745922,6.68721172 C13.2745922,4.15740316 12.6273281,2.10613201 9.39073017,2.10613201 C6.15413223,2.10613201 5.50686815,4.15740316 5.50686815,6.68721172 C5.50686815,8.56000285 6.33287926,10.6201564 7.72677299,11.566961 L7.72677299,13.3395479 C5.62788322,13.8333519 3.19065087,14.5095219 2.62998473,14.8165187 C2.26721708,15.2734053 1.95024643,16.7392731 2.17562311,17.6555445 L12.3247904,17.6555445 C12.4269316,18.0502546 12.5826414,18.4199831 12.7824827,18.7636196 L1.56416395,18.7636196 C0.696241667,17.4323751 1.04790701,14.7682208 1.91610685,13.8810946 C2.32966752,13.4586271 5.42970717,12.6592143 6.91352953,12.2953149 C5.34671748,11.0781533 4.39108703,8.8200896 4.39108703,6.6672264 C4.39108703,3.53730306 5.30008782,1 9.39045261,1 C13.481095,1 14.3900958,3.53730306 14.3900958,6.6672264 C14.3900958,8.81398298 13.4397389,11.0653849 11.880976,12.2850446 L11.880976,12.2850446 Z" id="Shape" fill="#000000"></path>
    </g>
</svg>