<?xml version="1.0" encoding="UTF-8"?>
<svg width="20px" height="20px" viewBox="0 0 20 20" version="1.1" xmlns="http://www.w3.org/2000/svg" xmlns:xlink="http://www.w3.org/1999/xlink">
    <!-- Generator: Sketch 52.5 (67469) - http://www.bohemiancoding.com/sketch -->
    <title>icon/images</title>
    <desc>Created with Sketch.</desc>
    <g id="icon/images" stroke="none" stroke-width="1" fill="none" fill-rule="evenodd">
        <path d="M17.6531721,17.5444162 L6.83564631,17.5444162 L6.83425852,17.5458041 L6.83287074,17.5444162 L5.44036479,17.5444162 C4.82751784,17.5444162 4.33041237,17.0472813 4.33041237,16.4341206 L4.33041237,6.44118247 C4.33041237,5.82857686 4.82751784,5.33116442 5.44036479,5.33116442 L17.6528945,5.33116442 C18.2662966,5.33116442 18.7634021,5.82857686 18.7634021,6.44118247 L18.7634021,16.4341206 C18.7636796,17.0472813 18.2665741,17.5444162 17.6531721,17.5444162 L17.6531721,17.5444162 Z M17.6531721,6.99660785 C17.6531721,6.69016626 17.4047581,6.44118247 17.0980571,6.44118247 L5.99603489,6.44118247 C5.68933386,6.44118247 5.44064235,6.69016626 5.44064235,6.99660785 L5.44064235,15.8784176 C5.44064235,16.1848592 5.68933386,16.4341206 5.99603489,16.4341206 L6.27858842,16.4341206 L10.4533307,12.2483061 L10.4339017,12.2291535 L11.2232752,11.4427866 L11.2404837,11.4599962 L11.2640761,11.43668 L12.0961935,12.2713448 L12.0756542,12.2916076 L13.4967486,13.706957 L14.9075734,12.2954937 L14.8870341,12.2752308 L15.7152657,11.4469503 L15.7358049,11.4672131 L15.767724,11.4358473 L16.5457177,12.213887 L16.5140761,12.245808 L17.6534496,13.3849713 L17.6534496,6.99660785 L17.6531721,6.99660785 Z M17.6531721,14.4775021 L17.3708961,14.7597948 L15.6852895,13.0740885 L14.2761301,14.4833312 L14.3255353,14.5327393 L13.5367169,15.3188286 L13.4884219,15.2708084 L13.4331879,15.3266007 L12.6549167,14.5488386 L12.7087629,14.4947117 L11.2885012,13.0807503 L7.94310071,16.4346757 L17.0977795,16.4346757 C17.4044806,16.4346757 17.6528945,16.1856919 17.6528945,15.8789728 L17.6528945,14.4775021 L17.6531721,14.4775021 Z M8.21621729,11.9932157 C7.29666931,11.9932157 6.55114988,11.2473746 6.55114988,10.3274947 C6.55114988,9.40761478 7.29666931,8.66205127 8.21621729,8.66205127 C9.13576527,8.66205127 9.88183981,9.40761478 9.88183981,10.3274947 C9.88183981,11.2473746 9.13604282,11.9932157 8.21621729,11.9932157 L8.21621729,11.9932157 Z M8.21621729,9.77179174 C7.90979381,9.77179174 7.66137986,10.0210531 7.66137986,10.3272171 C7.66137986,10.6339363 7.90979381,10.8823649 8.21621729,10.8823649 C8.52264076,10.8823649 8.77160983,10.6336587 8.77160983,10.3272171 C8.77160983,10.0210531 8.52291832,9.77179174 8.21621729,9.77179174 L8.21621729,9.77179174 Z M15.4329897,3.66544343 C15.4329897,3.35927941 15.1842982,3.11029562 14.8778747,3.11029562 L2.66534496,3.11029562 C2.35864393,3.11029562 2.10995242,3.35900183 2.10995242,3.66544343 L2.10995242,13.6583815 C2.10995242,13.9648231 2.35864393,14.2135294 2.66534496,14.2135294 L3.22045995,14.2135294 L3.22045995,15.3241025 L2.10995242,15.3241025 C1.49710547,15.3241025 1,14.8269677 1,14.2135294 L1,3.11057319 C1,2.49769001 1.49710547,2 2.10995242,2 L15.4329897,2 C16.0461142,2 16.5429421,2.49796758 16.5429421,3.11057319 L16.5429421,4.22059123 L15.4329897,4.22059123 L15.4329897,3.66544343 L15.4329897,3.66544343 Z" id="Shape" fill="#000000"></path>
    </g>
</svg>