<?xml version="1.0" encoding="UTF-8"?>
<svg width="20px" height="20px" viewBox="0 0 20 20" version="1.1" xmlns="http://www.w3.org/2000/svg" xmlns:xlink="http://www.w3.org/1999/xlink">
    <!-- Generator: Sketch 52.5 (67469) - http://www.bohemiancoding.com/sketch -->
    <title>icon/clipboard-check</title>
    <desc>Created with Sketch.</desc>
    <g id="icon/clipboard-check" stroke="none" stroke-width="1" fill="none" fill-rule="evenodd">
        <path d="M2.5,18.7650074 L2.5,3.22059123 L6.38580492,3.22059123 L6.38580492,2.11085076 L8.05114988,2.11085076 C8.05114988,1.49741244 8.54825535,1 9.16137986,1 L11.3818398,1 C11.9949643,1 12.4920698,1.49741244 12.4920698,2.11085076 L14.1574148,2.11085076 L14.1574148,3.22059123 L18.0432197,3.22059123 L18.0432197,18.7650074 L2.5,18.7650074 L2.5,18.7650074 Z M13.0471848,3.22031366 L11.3818398,3.22031366 L11.3818398,2.66599857 C11.3818398,2.35844669 11.1331483,2.11057319 10.8267248,2.11057319 L9.71649485,2.11057319 C9.40979381,2.11057319 9.16137986,2.35844669 9.16137986,2.66599857 L9.16137986,3.22031366 L7.49603489,3.22031366 L7.49603489,5.44118247 L9.71649485,5.44118247 L10.8267248,5.44118247 L13.0471848,5.44118247 L13.0471848,3.22031366 L13.0471848,3.22031366 Z M16.9329897,4.33088685 L14.1574148,4.33088685 L14.1574148,6.55147808 L6.38580492,6.55147808 L6.38580492,4.33088685 L3.61022998,4.33088685 L3.61022998,17.6544343 L16.9329897,17.6544343 L16.9329897,4.33088685 L16.9329897,4.33088685 Z M7.85241872,12.2611733 L9.64238699,14.0509698 L13.7335845,8.93028644 C13.9550753,8.70878247 14.3145123,8.70878247 14.5362807,8.93028644 C14.7580492,9.15206799 14.7580492,9.51124862 14.5362807,9.73303017 L10.1220063,15.2581387 C10.1217288,15.2584163 10.1208961,15.2581387 10.1206186,15.2586939 C10.1161776,15.2634126 10.1183981,15.2711847 10.1136796,15.2756259 C9.9055115,15.4843615 9.56827914,15.4843615 9.36011102,15.2756259 L9.35844568,15.274238 C9.34706582,15.2645229 9.33041237,15.2686865 9.31986519,15.2581387 C9.309318,15.2470358 9.31348136,15.2306589 9.30404441,15.2192784 L7.09940523,13.0153416 C6.89123711,12.806606 6.89123711,12.4693537 7.09940523,12.2611733 C7.30701824,12.0527153 7.64425059,12.0527153 7.85241872,12.2611733 L7.85241872,12.2611733 Z" id="Shape" fill="#000000"></path>
    </g>
</svg>