<?xml version="1.0" encoding="UTF-8" standalone="no"?>
<svg width="90px" height="39px" viewBox="0 0 90 39" version="1.1" xmlns="http://www.w3.org/2000/svg" xmlns:xlink="http://www.w3.org/1999/xlink" xmlns:sketch="http://www.bohemiancoding.com/sketch/ns">
    <!-- Generator: Sketch 3.4 (15588) - http://www.bohemiancoding.com/sketch -->
    <title>ebay</title>
    <desc>Created with Sketch.</desc>
    <defs></defs>
    <g id="Page-1" stroke="none" stroke-width="1" fill="none" fill-rule="evenodd" sketch:type="MSPage">
        <g id="ebay" sketch:type="MSLayerGroup" transform="translate(-1.000000, 0.000000)" fill="#000000">
            <path d="M1,23.688 C1,25.626 1.188,27.188 1.625,28.501 C2,29.751 2.813,30.939 4,32.064 C5.187,33.189 7.063,34.002 9.563,34.564 C12.063,35.064 15.313,35.377 19.251,35.377 C22.751,35.377 25.939,35.064 28.814,34.377 C30.064,34.127 31.252,33.752 32.439,33.189 L32.439,27.501 L24.689,27.501 C24.689,30.064 22.876,31.376 19.251,31.376 C17.938,31.376 16.876,31.188 16.063,30.813 C15.25,30.438 14.688,29.875 14.375,29.063 C14.062,28.313 13.875,27.688 13.812,27.125 C13.687,26.625 13.687,25.875 13.687,25 L32.437,25 L32.437,14.687 C31.624,14.249 30.374,13.874 28.687,13.562 C26.124,12.999 22.999,12.687 19.249,12.687 C16.061,12.687 13.311,12.875 10.999,13.312 C8.749,13.687 6.936,14.25 5.686,14.875 C4.373,15.438 3.373,16.313 2.686,17.313 C1.999,18.313 1.561,19.313 1.311,20.313 C1.123,21.251 0.998,22.376 0.998,23.688 L1,23.688 Z M13.688,21.563 C13.688,20.875 13.688,20.313 13.751,19.938 C13.814,19.625 14.001,19.063 14.314,18.438 C14.627,17.75 15.189,17.25 16.002,16.938 C16.815,16.626 17.94,16.5 19.252,16.5 C20.627,16.5 21.815,16.625 22.69,16.938 C23.565,17.251 24.128,17.688 24.44,18.313 C24.753,19.001 24.878,19.501 24.94,19.813 C25.065,20.188 25.065,20.751 25.065,21.563 L13.69,21.563 L13.688,21.563 Z M32.438,33.188 C32.501,33.188 32.626,33.125 32.688,33.063 C35.813,31.5 37.376,29.688 37.438,27.5 L32.438,27.5 L32.438,33.188 L32.438,33.188 Z M32.438,33.188 L32.438,38.251 L39.001,38.251 L39.001,35.563 L39.064,35.563 C40.252,37.688 42.189,38.751 44.877,38.751 C46.252,38.751 47.44,38.501 48.315,37.938 C49.253,37.438 49.94,36.625 50.44,35.625 C50.878,34.562 51.19,33.562 51.378,32.625 C51.566,31.625 51.691,30.5 51.753,29.125 C48.503,28.375 46.878,25.75 46.878,21.312 C46.878,18.249 47.753,16.062 49.441,14.812 C48.316,13.687 46.878,13.124 45.066,13.124 C42.628,13.124 40.753,14.062 39.378,15.937 L39.253,15.937 L39.253,2.999 L32.44,2.999 L32.44,14.687 C34.69,15.687 36.19,17 36.815,18.625 C37.378,20 37.69,21.625 37.69,23.5 C37.69,24 37.627,24.5 37.627,25 L32.439,25 L32.439,27.5 L37.439,27.5 C37.376,29.688 35.814,31.5 32.689,33.063 C32.626,33.126 32.501,33.188 32.439,33.188 L32.438,33.188 Z M32.438,25 L37.626,25 C37.626,24.5 37.689,24 37.689,23.5 C37.689,21.625 37.376,20 36.814,18.625 C36.189,17 34.689,15.687 32.439,14.687 L32.439,25 L32.438,25 Z M39.25,25.688 C39.25,24.125 39.313,22.938 39.313,22.25 C39.376,21.5 39.501,20.687 39.626,19.812 C39.751,18.937 40.064,18.249 40.439,17.937 C40.877,17.562 41.377,17.374 42.064,17.374 C42.814,17.374 43.377,17.562 43.814,17.874 C44.189,18.249 44.502,18.812 44.627,19.687 C44.815,20.562 44.94,21.375 44.94,22.062 C45.003,22.75 45.065,23.875 45.065,25.375 L45.065,25.688 C45.065,29.001 44.815,31.251 44.44,32.563 C44.065,33.875 43.315,34.501 42.065,34.501 C40.94,34.501 40.19,33.876 39.815,32.563 C39.44,31.25 39.252,29 39.252,25.688 L39.25,25.688 Z M46.875,21.313 C46.875,25.751 48.5,28.376 51.75,29.126 L51.75,25.813 C51.813,24 51.813,22.625 51.75,21.75 C51.687,20.875 51.5,19.687 51.125,18.187 C50.75,16.687 50.187,15.562 49.437,14.812 C47.749,16.062 46.874,18.25 46.874,21.312 L46.875,21.313 Z M47.375,11.188 L54.25,11.188 C54.25,9.938 54.375,9 54.688,8.313 C55.001,7.626 55.688,7.313 56.813,7.313 C57.938,7.313 58.688,7.626 59.063,8.251 C59.438,8.814 59.626,9.751 59.626,11.001 L59.626,12.939 L58.063,12.939 C53.938,12.939 51.063,13.564 49.438,14.814 C50.188,15.564 50.751,16.689 51.126,18.189 C51.501,19.689 51.689,20.877 51.751,21.752 L51.751,29.127 C52.064,29.19 52.626,29.19 53.439,29.19 C56.252,29.19 58.439,28.002 59.814,25.502 L59.939,25.502 L60.252,28.815 L66.69,28.815 C66.69,28.44 66.627,27.752 66.565,26.627 C66.44,25.564 66.44,24.752 66.44,24.189 L66.44,17.626 L59.565,3.688 C57.627,3.563 56.627,3.5 56.44,3.5 C53.565,3.5 51.44,4.063 49.94,5.125 C48.252,6.188 47.377,8.25 47.377,11.188 L47.375,11.188 Z M53.625,21 C53.187,20.625 53.187,20.187 53.688,19.75 C54.189,19.313 54.251,18.937 54.001,18.75 C53.688,18.562 53.876,18.312 54.439,18.062 C54.939,17.812 55.189,17.624 55.002,17.562 C54.877,17.437 55.065,17.312 55.69,17.187 C56.315,17.062 56.565,16.999 56.565,16.999 L57.503,16.874 C57.628,16.874 58.003,16.874 58.566,16.811 L59.629,16.811 L59.629,18.061 C59.692,18.749 59.692,19.249 59.629,19.624 C59.629,19.937 59.629,20.437 59.566,21.124 C59.503,21.749 59.441,22.312 59.253,22.624 C59.128,22.999 58.94,23.374 58.69,23.812 C58.44,24.187 58.065,24.5 57.69,24.687 C57.252,24.875 56.815,25 56.252,25 C54.502,25 53.627,23.687 53.627,21 L53.625,21 Z M57.875,0.375 L59.563,3.688 C62.313,4.063 64.126,4.938 65.063,6.251 C65.938,7.626 66.438,9.439 66.438,11.814 L66.438,17.627 L69.188,23.315 L69.188,35.503 L78.188,35.503 L78.188,23.315 L90.251,0.377 L81.126,0.377 L74.126,15.19 L67.751,0.377 L57.876,0.377 L57.875,0.375 Z M59.563,3.688 L66.438,17.626 L66.438,11.813 C66.438,9.438 65.938,7.625 65.063,6.25 C64.125,4.937 62.313,4.062 59.563,3.687 L59.563,3.688 Z" id="Shape" sketch:type="MSShapeGroup"></path>
        </g>
    </g>
</svg>