<?xml version="1.0" encoding="UTF-8"?>
<svg width="20px" height="20px" viewBox="0 0 20 20" version="1.1" xmlns="http://www.w3.org/2000/svg" xmlns:xlink="http://www.w3.org/1999/xlink">
    <!-- Generator: Sketch 52.5 (67469) - http://www.bohemiancoding.com/sketch -->
    <title>icon/mail-plus</title>
    <desc>Created with Sketch.</desc>
    <g id="icon/mail-plus" stroke="none" stroke-width="1" fill="none" fill-rule="evenodd">
        <path d="M17.6437351,4.6672206 L10.2731959,10.5792672 C10.2659794,10.5873168 10.2693101,10.5998077 10.2612609,10.6075797 C10.1516257,10.717499 10.0078509,10.7660744 9.86407613,10.7630211 C9.72030135,10.7660744 9.57680412,10.7177766 9.46689136,10.6075797 C9.45911975,10.5998077 9.46217288,10.5873168 9.45495638,10.578712 L2.10662173,4.68498533 L2.10662173,15.7687889 C2.10662173,16.0755081 2.35531324,16.3236591 2.66173672,16.3236591 L9.88183981,16.3236591 L9.88183981,17.4342323 L1.55455987,17.4342323 C1.2481364,17.4342323 1,17.1855261 1,16.8788069 L1,3.55498197 C1,3.55109593 1.0019429,3.54832019 1.0019429,3.54415658 C1.0019429,3.53693966 1.00610626,3.53083304 1.00638382,3.52333854 C1.01415543,3.39482182 1.06411578,3.27962865 1.1443299,3.18913956 C1.15348929,3.17859175 1.14960349,3.16277004 1.15959556,3.15249981 C1.17208565,3.14000898 1.19151467,3.14500531 1.20483743,3.13417993 C1.28754956,3.06506403 1.38885805,3.02204007 1.50154639,3.01093711 C1.52347343,3.0089941 1.54012688,2.99955658 1.56205393,3.00011173 L18.166931,3.00011173 C18.1810864,2.99955658 18.1921887,3.00122203 18.2063442,3.00177718 C18.5077716,3.00760623 18.7511895,3.25242641 18.7511895,3.55498197 L18.7511895,12.9938826 L17.6440127,12.9938826 L17.6440127,4.6672206 L17.6437351,4.6672206 Z M3.12386994,4.11068492 L9.86407613,9.517547 L16.6042823,4.11068492 L3.12386994,4.11068492 L3.12386994,4.11068492 Z M13.7557098,16.3236591 L15.4268834,16.3236591 L15.4268834,14.6582157 C15.4268834,14.3517741 15.6761301,14.1030679 15.9839413,14.1030679 C16.2917526,14.1030679 16.5409992,14.3517741 16.5409992,14.6582157 L16.5409992,16.3236591 L18.2121729,16.3236591 C18.519429,16.3236591 18.7692308,16.5723654 18.7692308,16.8788069 C18.7692308,17.1858037 18.5197066,17.4342323 18.2121729,17.4342323 L16.5409992,17.4342323 L16.5409992,19.0993982 C16.5409992,19.4061173 16.2917526,19.654546 15.9839413,19.654546 C15.6761301,19.654546 15.4268834,19.4061173 15.4268834,19.0993982 L15.4268834,17.4342323 L13.7557098,17.4342323 C13.4484536,17.4342323 13.1986519,17.1855261 13.1986519,16.8788069 C13.1986519,16.5720878 13.4484536,16.3236591 13.7557098,16.3236591 L13.7557098,16.3236591 Z" id="Shape" fill="#000000"></path>
    </g>
</svg>