<?xml version="1.0" encoding="UTF-8"?>
<svg width="20px" height="20px" viewBox="0 0 20 20" version="1.1" xmlns="http://www.w3.org/2000/svg" xmlns:xlink="http://www.w3.org/1999/xlink">
    <!-- Generator: Sketch 52.5 (67469) - http://www.bohemiancoding.com/sketch -->
    <title>icon/moon</title>
    <desc>Created with Sketch.</desc>
    <g id="icon/moon" stroke="none" stroke-width="1" fill="none" fill-rule="evenodd">
        <path d="M10.0294211,3.16358981 C9.13291039,4.44403823 8.63247423,5.97430316 8.63247423,7.55147808 C8.63247423,11.2806835 11.3103489,14.4042226 14.8700238,15.1536722 C13.7281523,15.9744582 12.3386994,16.4341206 10.885686,16.4341206 C7.15864393,16.4341206 4.12660587,13.4457599 4.12660587,9.77234689 C4.12632831,6.38455739 6.70511499,3.57939551 10.0294211,3.16358981 L10.0294211,3.16358981 Z M10.8854084,2 C6.53025377,2 3,5.47966646 3,9.77234689 C3,14.0650273 6.52997621,17.5444162 10.8854084,17.5444162 C13.6049167,17.5444162 16.000793,16.1879125 17.4188343,14.1247057 C17.1207375,14.1635661 16.8259715,14.2135294 16.5178826,14.2135294 C12.7852895,14.2135294 9.7590801,11.2307202 9.7590801,7.55147808 C9.7590801,5.33949164 10.8657018,3.39286585 12.5499207,2.18125576 C12.0117367,2.06745046 11.4571768,2 10.8854084,2 L10.8854084,2 L10.8854084,2 Z" id="Shape" fill="#000000"></path>
    </g>
</svg>