<?xml version="1.0" encoding="UTF-8"?>
<svg width="20px" height="20px" viewBox="0 0 20 20" version="1.1" xmlns="http://www.w3.org/2000/svg" xmlns:xlink="http://www.w3.org/1999/xlink">
    <!-- Generator: Sketch 52.5 (67469) - http://www.bohemiancoding.com/sketch -->
    <title>icon/flag</title>
    <desc>Created with Sketch.</desc>
    <g id="icon/flag" stroke="none" stroke-width="1" fill="none" fill-rule="evenodd">
        <path d="M17.5432197,15.433843 L11.9920698,15.433843 L11.9920698,14.3232698 L16.9881047,14.3232698 C17.2945282,14.3232698 17.5432197,14.0745636 17.5432197,13.768122 L17.5432197,7.10662589 C17.5432197,6.79962915 17.2945282,6.55092294 16.9881047,6.55092294 L11.9920698,6.55092294 L11.9920698,5.44146004 L17.5432197,5.44146004 C18.1563442,5.44146004 18.6534496,5.93803976 18.6534496,6.55092294 L18.6534496,14.3232698 C18.6534496,14.9367082 18.1560666,15.433843 17.5432197,15.433843 L17.5432197,15.433843 Z M11.9920698,12.102401 L11.9920698,12.102401 L11.9920698,13.2135294 L11.9920698,13.2135294 L11.9920698,15.433843 L10.8818398,15.433843 L10.8818398,13.2135294 L5.33068993,13.2135294 L5.33068993,17.6541567 C5.33068993,18.2673174 4.83358446,18.7641747 4.22045995,18.7641747 L3.11022998,18.7641747 C2.49710547,18.7641747 2,18.2673174 2,17.6541567 L2,12.102401 L2,4.33005413 L2,2.10974047 C2,1.49685729 2.49710547,1 3.11022998,1 L4.22045995,1 C4.83358446,1 5.33068993,1.49685729 5.33068993,2.10974047 L5.33068993,3.22031366 L10.8818398,3.22031366 L11.9920698,3.22031366 L11.9920698,3.22031366 L11.9920698,4.33005413 L11.9920698,4.33005413 L11.9920698,12.102401 L11.9920698,12.102401 Z M4.22045995,2.66488828 C4.22045995,2.35844669 3.97176844,2.10974047 3.66534496,2.10974047 C3.35892149,2.10974047 3.11022998,2.35844669 3.11022998,2.66488828 L3.11022998,17.0992864 C3.11022998,17.405728 3.35892149,17.6541567 3.66534496,17.6541567 C3.97176844,17.6541567 4.22045995,17.4054505 4.22045995,17.0992864 L4.22045995,2.66488828 L4.22045995,2.66488828 Z M5.33041237,4.33005413 L5.33041237,12.102401 L10.8815623,12.102401 L10.8815623,4.33005413 L5.33041237,4.33005413 L5.33041237,4.33005413 Z" id="Shape" fill="#000000"></path>
    </g>
</svg>