<?xml version="1.0" encoding="UTF-8"?>
<svg width="20px" height="20px" viewBox="0 0 20 20" version="1.1" xmlns="http://www.w3.org/2000/svg" xmlns:xlink="http://www.w3.org/1999/xlink">
    <!-- Generator: Sketch 52 (66869) - http://www.bohemiancoding.com/sketch -->
    <title>buddicons/undo</title>
    <desc>Created with Sketch.</desc>
    <g id="buddicons/undo" stroke="none" stroke-width="1" fill="none" fill-rule="evenodd">
        <path d="M4.87802283,6 L13.5508749,6 C15.5114858,6 17.1008749,7.58938914 17.1008749,9.55 L17.1008749,13.55 C17.1008749,15.5106109 15.5114858,17.1 13.5508749,17.1 L8.5508749,17.1 C8.24711828,17.1 8.0008749,16.8537566 8.0008749,16.55 C8.0008749,16.2462434 8.24711828,16 8.5508749,16 L13.5508749,16 C14.9039725,16 16.0008749,14.9030976 16.0008749,13.55 L16.0008749,9.55 C16.0008749,8.19690236 14.9039725,7.1 13.5508749,7.1 L4.87802283,7.1 L7.9397411,10.1610487 C8.15455294,10.3758136 8.15459102,10.7240544 7.93982615,10.9388662 C7.72506128,11.153678 7.37682054,11.1537161 7.1620087,10.9389513 L3.1611338,6.93895125 C2.94628873,6.72415317 2.94628873,6.37584683 3.1611338,6.16104875 L7.1620087,2.16104875 C7.37682054,1.94628387 7.72506128,1.94632195 7.93982615,2.1611338 C8.15459102,2.37594565 8.15455294,2.72418638 7.9397411,2.93895125 L4.87802283,6 Z" id="icn_undo" fill="#000000" fill-rule="nonzero"></path>
    </g>
</svg>