<?xml version="1.0" encoding="UTF-8"?>
<svg width="20px" height="20px" viewBox="0 0 20 20" version="1.1" xmlns="http://www.w3.org/2000/svg" xmlns:xlink="http://www.w3.org/1999/xlink">
    <!-- Generator: Sketch 52.5 (67469) - http://www.bohemiancoding.com/sketch -->
    <title>icon/mail-minus</title>
    <desc>Created with Sketch.</desc>
    <g id="icon/mail-minus" stroke="none" stroke-width="1" fill="none" fill-rule="evenodd">
        <path d="M17.6440127,4.66769497 L10.2734734,10.5791864 C10.2662569,10.5875136 10.2695876,10.6000045 10.261816,10.6080541 C10.1519033,10.7179734 10.0081285,10.7665488 9.86463125,10.7634955 C9.72057891,10.7665488 9.57680412,10.7182509 9.46716891,10.6080541 C9.4593973,10.600282 9.46245044,10.5877912 9.4555115,10.5791864 L2.10717684,4.6854597 L2.10717684,15.768153 C2.10717684,16.0751497 2.3555908,16.3233008 2.66201427,16.3233008 L9.88211737,16.3233008 L9.88211737,17.4341515 L1.55483743,17.4341515 C1.24841396,17.4341515 1,17.1848902 1,16.8790037 L1,3.55490119 C1,3.55157031 1.00222046,3.54823942 1.00222046,3.54435338 C1.00222046,3.53713646 1.00638382,3.53102984 1.00666138,3.52353534 C1.01415543,3.39474105 1.06439334,3.27954788 1.14488501,3.18905879 C1.15376685,3.17851098 1.14988105,3.16296684 1.15987312,3.15269661 C1.1723632,3.14020578 1.19151467,3.14575726 1.20483743,3.13437673 C1.28754956,3.06526083 1.38885805,3.02223687 1.50182395,3.01113391 C1.52375099,3.00891332 1.54040444,2.99975338 1.56205393,3.00003096 L18.1672086,3.00003096 C18.1816416,2.99975338 18.1924663,3.00141883 18.2066217,3.00197398 C18.5083267,3.00752545 18.7514671,3.25206806 18.7514671,3.55462362 L18.7514671,12.9940794 L17.6442902,12.9940794 L17.6442902,4.66769497 L17.6440127,4.66769497 Z M3.12359239,4.11088172 L9.86435369,9.5177438 L16.605115,4.11088172 L3.12359239,4.11088172 L3.12359239,4.11088172 Z M13.7559873,16.3241335 L18.212728,16.3241335 C18.5199841,16.3241335 18.7695083,16.5722846 18.7695083,16.8792813 C18.7695083,17.1851678 18.5202617,17.4344291 18.212728,17.4344291 L13.7559873,17.4344291 C13.4484536,17.4344291 13.199207,17.1851678 13.199207,16.8792813 C13.199207,16.572007 13.4484536,16.3241335 13.7559873,16.3241335 L13.7559873,16.3241335 Z" id="Shape" fill="#000000"></path>
    </g>
</svg>