<?xml version="1.0" encoding="UTF-8"?>
<svg width="20px" height="20px" viewBox="0 0 20 20" version="1.1" xmlns="http://www.w3.org/2000/svg" xmlns:xlink="http://www.w3.org/1999/xlink">
    <!-- Generator: Sketch 52.3 (67297) - http://www.bohemiancoding.com/sketch -->
    <title>icon/block</title>
    <desc>Created with Sketch.</desc>
    <g id="icon/block" stroke="none" stroke-width="1" fill="none" fill-rule="evenodd">
        <path d="M16.5348929,4.01139929 C17.9174068,5.57719368 18.7634021,7.62846483 18.7634021,9.88153221 C18.7634021,14.7873734 14.7868358,18.763342 9.88156225,18.763342 C7.62835052,18.763342 5.57747819,17.9175743 4.01149881,16.5352563 L4.00927835,16.5374769 L3.95765266,16.4864033 C3.71950833,16.2723938 3.49302141,16.046171 3.27902458,15.8077351 L3.2260111,15.7547185 L3.22878668,15.7522203 C1.8462728,14.1864259 1,12.1354323 1,9.88180979 C1,4.9759686 4.97656622,1 9.88183981,1 C12.1350515,1 14.186479,1.84576769 15.7519033,3.22808573 L15.7546788,3.22586514 L15.8063045,3.27749388 C16.045004,3.49150336 16.272046,3.71883639 16.4865979,3.95782752 L16.5376685,4.00890112 L16.5348929,4.01139929 L16.5348929,4.01139929 Z M9.88156225,17.6536015 C14.1737113,17.6536015 17.6534496,14.1739351 17.6534496,9.88153221 C17.6534496,7.93573914 16.9129262,6.17814118 15.7310864,4.81469817 L4.81530531,15.7311247 C6.17866772,16.9133119 7.93560666,17.6536015 9.88156225,17.6536015 L9.88156225,17.6536015 Z M9.88156225,2.1094629 C5.58941316,2.1094629 2.11022998,5.58885178 2.11022998,9.88153221 C2.11022998,11.8278804 2.85047581,13.5849232 4.03231562,14.9480887 L14.9480967,4.03193976 C13.5847343,2.8497525 11.8275178,2.1094629 9.88156225,2.1094629 L9.88156225,2.1094629 Z" id="Shape" fill="#000000"></path>
    </g>
</svg>