<?xml version="1.0" encoding="UTF-8"?>
<svg width="20px" height="20px" viewBox="0 0 20 20" version="1.1" xmlns="http://www.w3.org/2000/svg" xmlns:xlink="http://www.w3.org/1999/xlink">
    <!-- Generator: Sketch 52.5 (67469) - http://www.bohemiancoding.com/sketch -->
    <title>icon/attachment</title>
    <desc>Created with Sketch.</desc>
    <g id="icon/attachment" stroke="none" stroke-width="1" fill="none" fill-rule="evenodd">
        <path d="M9.62269121,16.2729195 C7.87074831,17.9769457 5.05326219,17.9697288 3.31186647,16.2498809 C1.5701932,14.5294779 1.56325426,11.7465219 3.28799653,10.015571 L3.2868863,10.0141832 L8.83192991,4.53653973 L9.624079,3.75433647 L10.4162281,2.97241078 C11.7287975,1.67586307 13.8565532,1.67586307 15.1691226,2.97241078 C16.481692,4.26840334 16.481692,6.37047051 15.1691226,7.66674065 L14.3769735,8.44949906 L13.5848244,9.23197989 L10.8059188,11.9771858 L9.80754451,12.9634059 L8.03978083,14.7099009 L8.03728281,14.7071252 C7.16047868,15.5462311 5.76242159,15.5409572 4.89616465,14.6851968 C4.02963015,13.8291589 4.024079,12.4482287 4.87396005,11.5821981 L4.87146203,11.5794224 L5.66361112,10.7974967 L6.63922571,9.83320497 L7.63760002,8.84726246 L8.83220747,7.66701822 L9.76258019,6.74852617 L10.6610338,5.86084483 L11.2086547,5.31985329 L12.0008038,6.10316685 L11.2333574,6.86038846 L10.4167832,7.66701822 L8.75338114,9.30970059 L7.89767139,10.1551907 L7.05306393,10.9895779 L6.45603776,11.5794224 L5.66388868,12.3613481 C5.22645807,12.7938082 5.22645807,13.4946823 5.66388868,13.9268649 C6.10131929,14.3587699 6.81047868,14.3587699 7.24818685,13.9268649 L8.63763967,12.554262 L9.48224712,11.7204299 L10.3376793,10.875495 L11.2089323,10.0144607 L12.609765,8.63130996 L12.7932305,8.44977663 L13.5853796,7.66701822 L14.3775286,6.88453739 L14.3755857,6.88287194 C14.38419,6.87537745 14.393627,6.86816052 14.4022313,6.86066603 C15.2770925,5.99630089 15.2770925,4.59483025 14.4022313,3.73074269 C13.5270925,2.86609997 12.1084961,2.86609997 11.2336349,3.73074269 C11.2253082,3.73934748 11.2189244,3.74822984 11.2108752,3.75711221 L11.2089323,3.75461404 L10.4167832,4.53765003 L9.62463412,5.32040844 L9.44116861,5.50138662 L8.04033594,6.88481496 L6.19541128,8.70736521 L4.0795905,10.7977743 C2.76702111,12.0934893 2.76702111,14.1955564 4.0795905,15.4923817 C5.39188233,16.7886519 7.51963808,16.789207 8.83220747,15.4923817 L10.9480282,13.4022502 L15.9612717,8.44977663 L16.7534208,7.66701822 L17.5455699,8.44977663 L16.7536984,9.23225747 L9.62435656,16.2748626 L9.62269121,16.2729195 L9.62269121,16.2729195 Z" id="Shape" fill="#000000"></path>
    </g>
</svg>