<?xml version="1.0" encoding="UTF-8"?>
<svg width="20px" height="20px" viewBox="0 0 20 20" version="1.1" xmlns="http://www.w3.org/2000/svg" xmlns:xlink="http://www.w3.org/1999/xlink">
    <!-- Generator: Sketch 52.3 (67297) - http://www.bohemiancoding.com/sketch -->
    <title>icon/usage</title>
    <desc>Created with Sketch.</desc>
    <g id="icon/usage" stroke="none" stroke-width="1" fill="none" fill-rule="evenodd">
        <path d="M16.4327121,16.3780507 L16.4327121,17.5444162 L15.3227597,17.5444162 L15.3227597,16.3780507 C14.0559873,16.1204621 13.1022998,15.000729 13.1022998,13.658104 C13.1022998,12.315479 14.0559873,11.1954683 15.3227597,10.9381573 L15.3227597,2 L16.4327121,2 L16.4327121,10.9381573 C17.6994845,11.1954683 18.6534496,12.315479 18.6534496,13.658104 C18.6534496,15.000729 17.6994845,16.1207397 16.4327121,16.3780507 L16.4327121,16.3780507 Z M15.8778747,11.9926606 C14.9580492,11.9926606 14.2125297,12.7390568 14.2125297,13.6583815 C14.2125297,14.5779839 14.9580492,15.323825 15.8778747,15.323825 C16.7974227,15.323825 17.5432197,14.5779839 17.5432197,13.6583815 C17.5432197,12.7390568 16.7974227,11.9926606 15.8778747,11.9926606 L15.8778747,11.9926606 Z M10.8818398,8.60625892 L10.8818398,17.5444162 L9.77160983,17.5444162 L9.77160983,8.60625892 C8.50483743,8.34867034 7.55114988,7.22893721 7.55114988,5.88631223 C7.55114988,4.54368726 8.50483743,3.42367655 9.77160983,3.16664312 L9.77160983,2.00027757 L10.8818398,2.00027757 L10.8818398,3.16664312 C12.1486122,3.42395413 13.1022998,4.54368726 13.1022998,5.88631223 C13.1022998,7.22893721 12.1486122,8.34867034 10.8818398,8.60625892 L10.8818398,8.60625892 Z M10.3267248,4.22086881 C9.40689929,4.22086881 8.66137986,4.96643231 8.66137986,5.88631223 C8.66137986,6.80591458 9.40689929,7.55147808 10.3267248,7.55147808 C11.2462728,7.55147808 11.9920698,6.80619215 11.9920698,5.88631223 C11.9920698,4.96643231 11.2462728,4.22086881 10.3267248,4.22086881 L10.3267248,4.22086881 Z M5.33068993,14.157737 L5.33068993,17.5444162 L4.22018239,17.5444162 L4.22018239,14.157737 C2.95368755,13.9001484 2,12.7801377 2,11.4380679 C2,10.0948878 2.95368755,8.97487706 4.22018239,8.7181212 L4.22018239,2.00027757 L5.33068993,2.00027757 L5.33068993,8.7181212 C6.59746233,8.97515464 7.55114988,10.0948878 7.55114988,11.4380679 C7.55114988,12.7804153 6.59746233,13.9001484 5.33068993,14.157737 L5.33068993,14.157737 Z M4.77557494,9.77262446 C3.85574941,9.77262446 3.11022998,10.5179104 3.11022998,11.4380679 C3.11022998,12.3573927 3.85574941,13.1029562 4.77557494,13.1029562 C5.69512292,13.1029562 6.4409199,12.3573927 6.4409199,11.4380679 C6.4409199,10.5179104 5.69512292,9.77262446 4.77557494,9.77262446 L4.77557494,9.77262446 Z" id="Shape" fill="#000000"></path>
    </g>
</svg>