<?xml version="1.0" encoding="UTF-8"?>
<svg width="20px" height="20px" viewBox="0 0 20 20" version="1.1" xmlns="http://www.w3.org/2000/svg" xmlns:xlink="http://www.w3.org/1999/xlink">
    <!-- Generator: Sketch 51.3 (57544) - http://www.bohemiancoding.com/sketch -->
    <title>buddicons/user</title>
    <desc>Created with Sketch.</desc>
    <defs></defs>
    <g id="buddicons/user" stroke="none" stroke-width="1" fill="none" fill-rule="evenodd">
        <path d="M15.7125297,17.0444162 C15.7125297,13.9780573 13.2270024,11.4932157 10.1613799,11.4932157 C7.09575734,11.4932157 4.61022998,13.9780573 4.61022998,17.0444162 L4.61022998,18.1544343 L3.5,18.1544343 L3.5,17.0444162 C3.5,14.2289841 5.24861221,11.826582 7.71720856,10.8517424 C6.19536082,9.99514934 5.16534496,8.36745596 5.16534496,6.49660785 C5.16534496,3.73752324 7.40218081,1.5 10.1613799,1.5 C12.9205789,1.5 15.1574148,3.73752324 15.1574148,6.49660785 C15.1574148,8.36745596 14.1273989,9.99514934 12.6055511,10.8517424 C15.0738699,11.826582 16.8227597,14.2289841 16.8227597,17.0444162 L16.8227597,18.1544343 L15.7125297,18.1544343 L15.7125297,17.0444162 L15.7125297,17.0444162 Z M14.0471848,6.49660785 C14.0471848,4.350684 12.3074544,2.61057319 10.1613799,2.61057319 C8.01530531,2.61057319 6.27557494,4.350684 6.27557494,6.49660785 C6.27557494,8.64280928 8.01530531,10.3826425 10.1613799,10.3826425 C12.3071768,10.3826425 14.0471848,8.64308685 14.0471848,6.49660785 L14.0471848,6.49660785 Z" id="Shape" fill="#000000"></path>
    </g>
</svg>