<?xml version="1.0" encoding="UTF-8"?>
<svg width="20px" height="20px" viewBox="0 0 20 20" version="1.1" xmlns="http://www.w3.org/2000/svg" xmlns:xlink="http://www.w3.org/1999/xlink">
    <!-- Generator: Sketch 48.2 (47327) - http://www.bohemiancoding.com/sketch -->
    <title>buddicons/plus</title>
    <desc>Created with Sketch.</desc>
    <defs></defs>
    <g id="Icons" stroke="none" stroke-width="1" fill="none" fill-rule="evenodd">
        <g id="buddicons/plus" fill="#000000">
            <path d="M16.9881047,10.3280498 L10.3267248,10.3280498 L10.3267248,16.989546 C10.3267248,17.2959876 10.0780333,17.5441386 9.77160983,17.5441386 C9.46518636,17.5441386 9.21649485,17.2959876 9.21649485,16.989546 L9.21649485,10.3280498 L2.55483743,10.3280498 C2.24841396,10.3280498 2,10.0793436 2,9.77206932 C2,9.46562773 2.24869151,9.21692151 2.55483743,9.21692151 L9.21649485,9.21692151 L9.21649485,2.55514781 C9.21649485,2.24870622 9.46518636,2 9.77160983,2 C10.0780333,2 10.3267248,2.24870622 10.3267248,2.55514781 L10.3267248,9.21692151 L16.9881047,9.21692151 C17.2945282,9.21692151 17.5432197,9.46562773 17.5432197,9.77206932 C17.5432197,10.0793436 17.2945282,10.3280498 16.9881047,10.3280498 L16.9881047,10.3280498 Z" id="Shape"></path>
        </g>
    </g>
</svg>