<?xml version="1.0" encoding="UTF-8"?>
<svg width="20px" height="20px" viewBox="0 0 20 20" version="1.1" xmlns="http://www.w3.org/2000/svg" xmlns:xlink="http://www.w3.org/1999/xlink">
    <!-- Generator: Sketch 54.1 (76490) - https://sketchapp.com -->
    <title>icon/compress-arrows</title>
    <desc>Created with Sketch.</desc>
    <g id="icon/compress-arrows" stroke="none" stroke-width="1" fill="none" fill-rule="evenodd">
        <path d="M18.6070331,1.9413919 L12.8846303,7.66413308 L17.1007286,7.66413308 C17.4074296,7.66413308 17.6561212,7.91311687 17.6561212,8.21900331 C17.6561212,8.5265552 17.4074296,8.77498384 17.1007286,8.77498384 L11.5495787,8.77498384 C11.5495787,8.77498384 11.5495787,8.7744287 11.5493012,8.7744287 C11.5409744,8.77498384 11.5345906,8.77054266 11.5265415,8.76998751 C11.3916485,8.76415846 11.2700783,8.71114185 11.176819,8.62537151 C11.1704352,8.61954246 11.159888,8.62176305 11.1535042,8.61537885 C11.1471204,8.6095498 11.1501735,8.59927956 11.1440672,8.59317294 C11.0585795,8.49935296 11.0052885,8.37860831 10.9994598,8.24259709 C10.9991822,8.23454745 10.9944637,8.22788568 10.9947413,8.21983603 C10.9947413,8.21955846 10.9944637,8.21900331 10.9944637,8.21872574 L10.9944637,2.66808038 C10.9944637,2.36163879 11.2431553,2.11237742 11.5495787,2.11237742 C11.8560022,2.11237742 12.1049713,2.36136121 12.1049713,2.66808038 L12.1049713,6.88470556 L17.8273741,1.16113165 C18.0424812,0.94628945 18.3916485,0.94628945 18.6070331,1.16113165 C18.8221402,1.37736172 18.8221402,1.72654969 18.6070331,1.9413919 L18.6070331,1.9413919 Z M8.77428134,11.5501677 L8.77428134,11.5501677 L8.77428134,17.1016458 C8.77428134,17.4086426 8.52558983,17.6570712 8.21916635,17.6570712 C7.91246532,17.6570712 7.66405136,17.4086426 7.66405136,17.1016458 L7.66405136,12.8855758 L1.9410934,18.608317 C1.72626389,18.8234367 1.37681901,18.8234367 1.16143439,18.608317 C0.946049779,18.3931972 0.946327336,18.0442868 1.16143439,17.8286119 L6.88355969,12.1058707 L2.66801647,12.1058707 C2.36131544,12.1058707 2.11290148,11.8571645 2.11290148,11.5501677 C2.11290148,11.2437261 2.36131544,10.9950199 2.66801647,10.9950199 L8.21916635,10.9950199 C8.21916635,10.9950199 8.21944391,10.9952975 8.21972147,10.9952975 C8.22721552,10.9952975 8.23332179,10.9997387 8.24081584,10.9997387 C8.37681901,11.0050126 8.49894431,11.0591395 8.59275874,11.1449098 C8.59914256,11.1507389 8.60913463,11.1482407 8.61496334,11.1540698 C8.62134716,11.160454 8.61857159,11.1704466 8.62412274,11.1765533 C8.71044312,11.2700957 8.76401171,11.3919506 8.76928531,11.5276843 C8.76984042,11.5354563 8.77428134,11.5421181 8.77428134,11.5501677 L8.77428134,11.5501677 Z" id="Shape" fill="#000000"></path>
    </g>
</svg>