<?xml version="1.0" encoding="UTF-8"?>
<svg width="20px" height="20px" viewBox="0 0 20 20" version="1.1" xmlns="http://www.w3.org/2000/svg" xmlns:xlink="http://www.w3.org/1999/xlink">
    <!-- Generator: Sketch 52.1 (67048) - http://www.bohemiancoding.com/sketch -->
    <title>buddicons/icon-more</title>
    <desc>Created with Sketch.</desc>
    <g id="buddicons/icon-more" stroke="none" stroke-width="1" fill="none" fill-rule="evenodd">
        <path d="M16.5432197,12.4420152 C15.3169707,12.4420152 14.3227597,11.4477455 14.3227597,10.2205912 C14.3227597,8.99426972 15.3169707,8 16.5432197,8 C17.7697462,8 18.7636796,8.99426972 18.7636796,10.2205912 C18.7636796,11.4477455 17.7697462,12.4420152 16.5432197,12.4420152 L16.5432197,12.4420152 Z M16.5432197,9.11029562 C15.9298176,9.11029562 15.4329897,9.60798563 15.4329897,10.2205912 C15.4329897,10.8348623 15.9298176,11.3317196 16.5432197,11.3317196 C17.1563442,11.3317196 17.6534496,10.8348623 17.6534496,10.2205912 C17.6534496,9.60798563 17.1563442,9.11029562 16.5432197,9.11029562 L16.5432197,9.11029562 Z M9.88183981,12.4420152 C8.65531324,12.4420152 7.66137986,11.4477455 7.66137986,10.2205912 C7.66137986,8.99426972 8.65531324,8 9.88183981,8 C11.1083664,8 12.1022998,8.99426972 12.1022998,10.2205912 C12.1022998,11.4477455 11.1083664,12.4420152 9.88183981,12.4420152 L9.88183981,12.4420152 Z M9.88183981,9.11029562 C9.26871531,9.11029562 8.77160983,9.60798563 8.77160983,10.2205912 C8.77160983,10.8348623 9.26871531,11.3317196 9.88183981,11.3317196 C10.4952419,11.3317196 10.9920698,10.8348623 10.9920698,10.2205912 C10.9920698,9.60798563 10.4952419,9.11029562 9.88183981,9.11029562 L9.88183981,9.11029562 Z M3.22045995,12.4420152 C1.99421094,12.4420152 1,11.4477455 1,10.2205912 C1,8.99426972 1.99421094,8 3.22045995,8 C4.44698652,8 5.4409199,8.99426972 5.4409199,10.2205912 C5.4409199,11.4477455 4.44698652,12.4420152 3.22045995,12.4420152 L3.22045995,12.4420152 Z M3.22045995,9.11029562 C2.60733545,9.11029562 2.11022998,9.60798563 2.11022998,10.2205912 C2.11022998,10.8348623 2.60733545,11.3317196 3.22045995,11.3317196 C3.83386201,11.3317196 4.33068993,10.8348623 4.33068993,10.2205912 C4.33068993,9.60798563 3.83386201,9.11029562 3.22045995,9.11029562 L3.22045995,9.11029562 Z" id="Shape" fill="#000000"></path>
    </g>
</svg>