<?xml version="1.0" encoding="UTF-8"?>
<svg width="20px" height="20px" viewBox="0 0 20 20" version="1.1" xmlns="http://www.w3.org/2000/svg" xmlns:xlink="http://www.w3.org/1999/xlink">
    <!-- Generator: Sketch 51.3 (57544) - http://www.bohemiancoding.com/sketch -->
    <title>buddicons/chevron-right</title>
    <desc>Created with Sketch.</desc>
    <defs></defs>
    <g id="buddicons/chevron-right" stroke="none" stroke-width="1" fill="none" fill-rule="evenodd">
        <path d="M13.7590504,9.95878978 C13.7646015,10.10063 13.7165841,10.2441358 13.6080591,10.3529447 C13.5839116,10.3768161 13.5481067,10.3704319 13.5211836,10.3881966 L6.90338025,16.4595706 C6.69687748,16.665808 6.36214314,16.665808 6.15564036,16.4595706 C5.94913759,16.2530556 5.94913759,15.9183015 6.15564036,15.7112314 L12.4289948,9.95712434 L6.15508525,4.20218458 C5.94830492,3.9956696 5.94830492,3.6606379 6.15508525,3.45467806 C6.36158803,3.24844065 6.69632236,3.24844065 6.90282514,3.45467806 L13.5189631,9.52327633 C13.5469964,9.54215135 13.5839116,9.53576715 13.6086142,9.5607488 C13.7182494,9.66983535 13.7654342,9.8150065 13.7590504,9.95878978 L13.7590504,9.95878978 Z" id="Shape" fill="#000000"></path>
    </g>
</svg>