<?xml version="1.0" encoding="UTF-8"?>
<svg width="20px" height="20px" viewBox="0 0 20 20" version="1.1" xmlns="http://www.w3.org/2000/svg" xmlns:xlink="http://www.w3.org/1999/xlink">
    <!-- Generator: Sketch 52.5 (67469) - http://www.bohemiancoding.com/sketch -->
    <title>icon/download</title>
    <desc>Created with Sketch.</desc>
    <g id="icon/download" stroke="none" stroke-width="1" fill="none" fill-rule="evenodd">
        <path d="M18.0983347,17.4330103 L2.55511499,17.4330103 C2.24841396,17.4330103 2,17.1848592 2,16.8778625 L2,12.4369576 C2,12.130516 2.24841396,11.8818098 2.55511499,11.8818098 C2.86153846,11.8818098 3.11022998,12.130516 3.11022998,12.4369576 L3.11022998,16.3227147 L17.5432197,16.3227147 L17.5432197,12.4369576 C17.5432197,12.130516 17.7919112,11.8818098 18.0983347,11.8818098 C18.4047581,11.8818098 18.6534496,12.130516 18.6534496,12.4369576 L18.6534496,16.8778625 C18.6534496,17.1851368 18.4047581,17.4330103 18.0983347,17.4330103 L18.0983347,17.4330103 Z M10.7241872,13.9414082 C10.718636,13.9472372 10.7097542,13.944739 10.7039255,13.9500129 C10.6090008,14.0388366 10.4838224,14.0940738 10.3447661,14.098515 C10.3433783,14.098515 10.342268,14.098515 10.3411578,14.0990701 C10.1921094,14.1035113 10.0427835,14.055491 9.92898493,13.9414082 L6.60162569,10.0592595 C6.38291039,9.84080887 6.38291039,9.48579185 6.60162569,9.26678603 C6.820341,9.04833537 7.17505948,9.04833537 7.39377478,9.26678603 L9.77160983,12.0416924 L9.77160983,3.55487023 C9.77160983,3.24842864 10.0203013,3 10.3267248,3 C10.6334259,3 10.8818398,3.24870622 10.8818398,3.55487023 L10.8818398,12.0416924 L13.2596749,9.26678603 C13.4783902,9.04833537 13.8331086,9.04833537 14.0518239,9.26678603 C14.2705393,9.48579185 14.2705393,9.84080887 14.0518239,10.0592595 L10.7241872,13.9414082 L10.7241872,13.9414082 Z" id="Shape" fill="#000000"></path>
    </g>
</svg>