<?xml version="1.0" encoding="UTF-8" standalone="no"?>
<svg width="65px" height="55px" viewBox="0 0 65 55" version="1.1" xmlns="http://www.w3.org/2000/svg" xmlns:xlink="http://www.w3.org/1999/xlink" xmlns:sketch="http://www.bohemiancoding.com/sketch/ns">
    <!-- Generator: Sketch 3.4 (15588) - http://www.bohemiancoding.com/sketch -->
    <title>thirtysevensignals</title>
    <desc>Created with Sketch.</desc>
    <defs></defs>
    <g id="Page-1" stroke="none" stroke-width="1" fill="none" fill-rule="evenodd" sketch:type="MSPage">
        <g id="thirtysevensignals" sketch:type="MSLayerGroup" fill="#000000">
            <path d="M0.5,42.125 C0.437,42 0.375,41.937 0.312,41.812 C0.249,41.687 0.249,41.624 0.249,41.437 L0.249,40.499 C0.249,39.874 0.374,39.311 0.499,38.686 C1.249,34.061 2.437,29.561 4.124,25.248 C5.749,21.185 7.874,17.248 10.499,13.748 C12.999,10.498 15.999,7.498 19.374,5.123 C21.124,3.935 22.999,2.873 24.937,2.123 C25.937,1.748 26.937,1.435 28,1.185 C28.5,1.06 29.063,0.935 29.563,0.872 C29.813,0.809 30.126,0.747 30.376,0.747 C30.689,0.684 31.001,0.684 31.314,0.684 L34.314,0.684 C34.564,0.684 34.877,0.809 35.127,0.809 C36.19,1.059 37.19,1.309 38.19,1.622 C40.065,2.185 41.878,2.935 43.628,3.872 C46.878,5.622 49.691,8.06 52.128,10.81 C54.691,13.81 56.941,17.123 58.753,20.623 C60.941,24.748 62.503,29.186 63.503,33.748 C63.628,34.123 63.691,34.498 63.816,34.936 C64.066,35.936 64.379,36.999 64.566,38.061 C64.754,39.061 64.941,40.061 64.816,40.999 C64.753,41.874 64.378,42.562 63.878,43.249 C63.315,44.062 62.628,44.749 61.878,45.374 C59.065,47.937 55.815,49.874 52.315,51.312 C48.377,52.875 44.19,53.75 39.94,54.187 C35.44,54.687 30.815,54.687 26.19,54.312 C22.315,53.937 18.377,53.312 14.565,52.062 C11.315,50.999 8.19,49.499 5.502,47.374 C4.189,46.374 3.064,45.249 2.002,44.061 C1.439,43.436 1.002,42.748 0.502,42.123 L0.5,42.125 Z M4.75,39.25 C4.687,39.375 4.75,39.438 4.813,39.563 C4.813,39.626 4.876,39.751 4.938,39.813 C5.313,40.501 5.688,41.188 6.188,41.813 C8.251,44.438 11.251,46.188 14.313,47.376 C18.063,48.814 22.001,49.501 25.938,49.876 C30.251,50.314 34.688,50.314 39.063,50.001 C43.251,49.751 47.501,49.001 51.438,47.438 C54.751,46.188 58.063,44.25 59.938,41.125 C60.001,41 60.063,40.937 60.126,40.812 C61.126,38.687 60.063,36.499 59.063,34.624 C57.875,32.624 56.875,30.499 55.625,28.499 C54.625,26.811 53.437,25.311 52.25,23.811 C51,22.311 49.687,20.811 48.312,19.436 C46.749,17.811 45.062,16.248 43.249,14.873 C42.999,14.685 42.749,14.56 42.561,14.31 C42.373,14.122 42.186,13.997 41.936,13.872 C41.498,13.684 40.998,13.622 40.561,13.809 C39.561,14.122 38.811,15.059 38.123,15.809 C36.435,17.559 35.06,19.559 33.56,21.559 C32.185,23.309 30.81,25.122 29.06,26.559 C28.435,27.059 27.685,27.684 26.872,27.747 C26.247,27.747 25.684,27.622 25.184,27.372 C23.996,26.872 23.121,25.872 22.309,24.997 C20.809,23.372 18.934,20.684 16.371,21.497 C14.621,22.122 13.183,23.685 12.058,25.122 C11.37,25.997 10.745,26.935 10.183,27.872 C9.558,28.81 8.995,29.747 8.37,30.685 C7.245,32.623 6.12,34.56 5.37,36.685 C5.182,37.248 5.057,37.81 4.932,38.373 C4.869,38.623 4.807,38.936 4.744,39.248 L4.75,39.25 Z" id="Shape" sketch:type="MSShapeGroup"></path>
        </g>
    </g>
</svg>