<?xml version="1.0" encoding="UTF-8"?>
<svg width="20px" height="20px" viewBox="0 0 20 20" version="1.1" xmlns="http://www.w3.org/2000/svg" xmlns:xlink="http://www.w3.org/1999/xlink">
    <!-- Generator: Sketch 52.5 (67469) - http://www.bohemiancoding.com/sketch -->
    <title>icon/folder</title>
    <desc>Created with Sketch.</desc>
    <g id="icon/folder" stroke="none" stroke-width="1" fill="none" fill-rule="evenodd">
        <path d="M17.6534496,18.7644523 L2.11022998,18.7644523 C1.49710547,18.7644523 1,18.2673174 1,17.6541567 L1,6.55120051 L1,5.44090489 L1,4.33060928 L1,2.11001804 C1,1.49713486 1.49710547,1 2.11022998,1 L7.66137986,1 C8.27450436,1 8.77160983,1.49713486 8.77160983,2.11001804 L8.77160983,3.22031366 L17.6534496,3.22031366 C18.2665741,3.22031366 18.7636796,3.7177261 18.7636796,4.33088685 L18.7636796,6.55147808 L18.7636796,17.6544343 C18.7636796,18.2673174 18.2662966,18.7644523 17.6534496,18.7644523 L17.6534496,18.7644523 Z M17.0980571,4.33060928 L15.9878271,4.33060928 L7.6611023,4.33060928 L7.6611023,3.77546147 L7.6611023,3.22031366 L7.6611023,2.66516585 C7.6611023,2.35927941 7.41241079,2.11001804 7.10598731,2.11001804 L2.66506741,2.11001804 C2.35864393,2.11001804 2.10995242,2.35927941 2.10995242,2.66516585 L2.10995242,3.22031366 L2.10995242,3.77546147 L2.10995242,4.33060928 L2.10995242,5.44090489 L15.9878271,5.44090489 L17.0980571,5.44090489 C17.4047581,5.44090489 17.6531721,5.19247625 17.6531721,4.88520194 C17.6534496,4.57903792 17.4047581,4.33060928 17.0980571,4.33060928 L17.0980571,4.33060928 Z M17.6534496,7.66149613 L17.6534496,7.10662589 L17.6534496,6.55120051 L17.0983347,6.55120051 L2.66534496,6.55120051 L2.11022998,6.55120051 L2.11022998,7.10662589 L2.11022998,7.66149613 L2.11022998,17.1001192 C2.11022998,17.4065608 2.35892149,17.6544343 2.66534496,17.6544343 L17.0983347,17.6544343 C17.4050357,17.6544343 17.6534496,17.4065608 17.6534496,17.1001192 L17.6534496,7.66149613 L17.6534496,7.66149613 Z" id="Shape" fill="#000000"></path>
    </g>
</svg>