<?xml version="1.0" encoding="UTF-8"?>
<svg width="20px" height="20px" viewBox="0 0 20 20" version="1.1" xmlns="http://www.w3.org/2000/svg" xmlns:xlink="http://www.w3.org/1999/xlink">
    <!-- Generator: Sketch 52.5 (67469) - http://www.bohemiancoding.com/sketch -->
    <title>icon/store</title>
    <desc>Created with Sketch.</desc>
    <g id="icon/store" stroke="none" stroke-width="1" fill="none" fill-rule="evenodd">
        <path d="M17.6592784,10.5063511 L17.6592784,14.323825 L17.6592784,14.323825 L17.6592784,15.4341206 L17.6592784,15.4341206 L17.6592784,18.7650074 L2.11578113,18.7650074 L2.11578113,15.4341206 L2.11578113,14.323825 L2.11578113,10.3281486 C1.42216495,9.69028379 1.00360825,8.67880449 1,7.66205127 L1.00555115,7.66205127 L3.2260111,1 L16.5487708,1 L18.7692308,7.66205127 L18.7747819,7.66205127 C18.7711737,8.78400499 18.5033307,9.89374546 17.6592784,10.5063511 L17.6592784,10.5063511 Z M3.2260111,17.6544343 L16.5487708,17.6544343 L16.5487708,15.4341206 L3.2260111,15.4341206 L3.2260111,17.6544343 L3.2260111,17.6544343 Z M3.2260111,14.323825 L16.5487708,14.323825 L16.5487708,10.9379785 C16.3722443,10.9646256 16.1971055,10.992383 15.9939334,10.992383 C15.1601507,10.992383 14.2850119,10.5738015 13.7734734,9.88264251 C13.3249405,10.5660295 12.7234734,10.992383 11.8419508,10.992383 C11.0478588,10.992383 10.3478588,10.4544448 9.88766852,9.88264251 C9.42692308,10.4544448 8.72747819,10.992383 7.93310864,10.992383 C7.05158604,10.992383 6.45011895,10.5660295 6.0018636,9.88264251 C5.49004758,10.5738015 4.57882633,10.992383 3.74532117,10.992383 C3.56463125,10.992383 3.39310071,10.9651807 3.2260111,10.9263204 L3.2260111,14.323825 L3.2260111,14.323825 Z M15.8088025,2.11057319 L3.96625694,2.11057319 L2.48576527,6.55175566 L17.2890167,6.55175566 L15.8088025,2.11057319 L15.8088025,2.11057319 Z M2.12938144,7.66205127 C2.31617764,8.6180158 2.96566217,9.88264251 3.74532117,9.88264251 C4.52498017,9.88264251 5.44674861,9.88264251 5.44674861,8.77234689 L6.55697859,8.77234689 C6.55697859,8.77234689 6.55697859,9.88264251 7.93310864,9.88264251 C9.33255353,9.88264251 9.30118953,8.77234689 9.30118953,8.77234689 L10.4741475,8.77234689 C10.4741475,8.77234689 10.4430611,9.88264251 11.8422284,9.88264251 C13.218636,9.88264251 13.2100317,8.77234689 13.2100317,8.77234689 L14.3285884,8.77234689 C14.3285884,8.77234689 14.3285884,9.88264251 16.0297383,9.88264251 C17.6592784,9.88264251 17.645678,7.66205127 17.645678,7.66205127 L2.12938144,7.66205127 L2.12938144,7.66205127 Z" id="Shape" fill="#000000"></path>
    </g>
</svg>