<?xml version="1.0" encoding="UTF-8"?>
<svg width="20px" height="20px" viewBox="0 0 20 20" version="1.1" xmlns="http://www.w3.org/2000/svg" xmlns:xlink="http://www.w3.org/1999/xlink">
    <!-- Generator: Sketch 52.5 (67469) - http://www.bohemiancoding.com/sketch -->
    <title>icon/experiment</title>
    <desc>Created with Sketch.</desc>
    <g id="icon/experiment" stroke="none" stroke-width="1" fill="none" fill-rule="evenodd">
        <path d="M15.4729893,18.765285 L5.03849282,18.765285 C3.81030091,18.765285 3.81030091,18.765285 4.32517006,17.773791 C5.41375055,15.6792183 7.33944445,10.9937708 7.33944445,10.9937708 L12.8905943,10.9937708 C12.8905943,10.9937708 14.8590321,15.5198909 15.9734254,17.6635942 C16.5454714,18.765285 15.9687069,18.765285 15.4729893,18.765285 L15.4729893,18.765285 Z M8.08052296,12.1037889 C7.95534453,12.4030136 7.7949163,12.7852328 7.61311614,13.2132518 L12.6571685,13.2132518 C12.4653762,12.7835674 12.2960662,12.4010705 12.165059,12.1037889 L8.08052296,12.1037889 L8.08052296,12.1037889 Z M13.1570495,14.323825 L7.13627236,14.323825 C6.65054675,15.4460563 6.09904001,16.6854238 5.62691471,17.6549894 L14.7238616,17.6549894 C14.2403564,16.6854238 13.6655349,15.4452235 13.1570495,14.323825 L13.1570495,14.323825 Z M13.4365499,6.55203323 L12.8814349,6.55203323 L12.8814349,10.9929381 L7.33028505,10.9929381 L7.33028505,6.55203323 L6.77517006,6.55203323 C6.46846903,6.55203323 6.22005507,6.30360459 6.22005507,5.99633028 C6.22005507,5.69016626 6.46846903,5.44146004 6.77517006,5.44146004 L13.4365499,5.44146004 C13.7429734,5.44146004 13.9916649,5.69016626 13.9916649,5.99633028 C13.9916649,6.30388216 13.7429734,6.55203323 13.4365499,6.55203323 L13.4365499,6.55203323 Z M11.771205,6.55175566 L8.44051503,6.55175566 L8.44051503,10.992383 L11.771205,10.992383 L11.771205,6.55175566 L11.771205,6.55175566 Z M12.8814349,3.22086881 C12.2683104,3.22086881 11.771205,2.72345637 11.771205,2.11029562 C11.771205,1.49685729 12.2683104,1 12.8814349,1 C13.4945594,1 13.9916649,1.49685729 13.9916649,2.11029562 C13.9916649,2.72345637 13.4942819,3.22086881 12.8814349,3.22086881 L12.8814349,3.22086881 Z M9.550745,4.33171957 C8.9376205,4.33171957 8.44051503,3.83402956 8.44051503,3.22086881 C8.44051503,2.60743048 8.9376205,2.11029562 9.550745,2.11029562 C10.1638695,2.11029562 10.660975,2.60743048 10.660975,3.22086881 C10.660975,3.83402956 10.1635919,4.33171957 9.550745,4.33171957 L9.550745,4.33171957 Z" id="Shape" fill="#000000"></path>
    </g>
</svg>