<?xml version="1.0" encoding="UTF-8"?>
<svg width="20px" height="20px" viewBox="0 0 20 20" version="1.1" xmlns="http://www.w3.org/2000/svg" xmlns:xlink="http://www.w3.org/1999/xlink">
    <!-- Generator: Sketch 52.5 (67469) - http://www.bohemiancoding.com/sketch -->
    <title>icon/crop</title>
    <desc>Created with Sketch.</desc>
    <g id="icon/crop" stroke="none" stroke-width="1" fill="none" fill-rule="evenodd">
        <path d="M18.2085646,16.5446938 L16.5432197,16.5446938 L16.5432197,18.2095821 C16.5432197,18.5165788 16.2945282,18.7655626 15.9881047,18.7655626 C15.6816812,18.7655626 15.4329897,18.5168564 15.4329897,18.2095821 L15.4329897,16.5446938 L3.78084853,16.5446938 L3.78029342,16.5446938 L3.77557494,16.5446938 C3.46915147,16.5446938 3.22073751,16.2962651 3.22073751,15.9889908 L3.22073751,15.9837169 L3.22073751,15.9834393 L3.22073751,4.33116442 L1.55511499,4.33116442 C1.24869151,4.33116442 1,4.08245821 1,3.77629419 C1,3.46957503 1.24869151,3.22059123 1.55511499,3.22059123 L3.22073751,3.22059123 L3.22073751,1.55570296 C3.22073751,1.24898379 3.46915147,1 3.77557494,1 C4.08199841,1 4.33068993,1.24870622 4.33068993,1.55570296 L4.33068993,3.22059123 L15.219548,3.22059123 L16.1352102,2.26434913 C16.3536479,2.04617604 16.7080888,2.04617604 16.9268041,2.26434913 C17.1452419,2.48391009 17.1452419,2.83948226 16.9268041,3.05793293 L16.3689136,3.64083812 C16.4752181,3.88538073 16.5432197,4.1729473 16.5432197,4.33116442 L16.5432197,15.433843 L18.2085646,15.433843 C18.5149881,15.433843 18.7636796,15.6825492 18.7636796,15.9889908 C18.7636796,16.2965427 18.5152657,16.5446938 18.2085646,16.5446938 L18.2085646,16.5446938 Z M4.33068993,4.33116442 L4.33068993,14.5983456 L14.1570579,4.33116442 L4.33068993,4.33116442 L4.33068993,4.33116442 Z M5.08176051,15.433843 L15.4329897,15.433843 L15.4329897,4.61873099 L5.08176051,15.433843 L5.08176051,15.433843 Z" id="Shape" fill="#000000"></path>
    </g>
</svg>