<?xml version="1.0" encoding="UTF-8"?>
<svg width="20px" height="20px" viewBox="0 0 20 20" version="1.1" xmlns="http://www.w3.org/2000/svg" xmlns:xlink="http://www.w3.org/1999/xlink">
    <!-- Generator: Sketch 48.2 (47327) - http://www.bohemiancoding.com/sketch -->
    <title>buddicons/icon-rules</title>
    <desc>Created with Sketch.</desc>
    <defs></defs>
    <g id="Icons" stroke="none" stroke-width="1" fill="none" fill-rule="evenodd">
        <g id="buddicons/icon-rules" fill="#000000">
            <path d="M11.7942109,7.4461094 L18.1025377,7.4461094 L18.2099524,7.4461094 C18.5166534,7.4461094 18.7647898,7.19684804 18.7647898,6.89040645 C18.7647898,6.73690808 18.7009516,6.59784355 18.5999207,6.49708423 C18.5727201,6.45100696 18.5807692,6.39465945 18.5413561,6.35524396 L15.378866,3.18757057 C15.1293418,2.93747648 14.7249405,2.93747648 14.4756939,3.18757057 C14.2264473,3.43738708 14.2264473,3.84153468 14.4756939,4.09190635 L16.7141951,6.33581379 L11.5613402,6.33581379 C11.4666931,6.33581379 11.3820381,6.36606934 11.3029342,6.40742785 C11.1980174,6.43102164 11.0958763,6.471825 11.0134417,6.54788025 L9.78969072,7.79724039 L10.6276368,8.63606873 L11.7942109,7.4461094 L11.7942109,7.4461094 Z M5.75067407,11.9200456 L1.60452022,11.9200456 C1.27061856,11.9200456 1,12.169307 1,12.475471 C1,12.7821901 1.27061856,13.0311739 1.60452022,13.0311739 L5.93386201,13.0311739 C5.94357653,13.0311739 5.95162569,13.0256225 5.96106265,13.0256225 C6.14480571,13.0472732 6.33604282,13.003139 6.47676447,12.8729568 L7.72216495,11.6013907 L6.88477399,10.7620073 L5.75067407,11.9200456 L5.75067407,11.9200456 Z M18.3712133,11.9527993 C18.2149485,11.8745235 11.7919905,11.9200456 11.7919905,11.9200456 L6.47704203,6.49430849 C6.33632038,6.36523662 6.14674861,6.32054722 5.96411578,6.34136527 C5.9535686,6.34053254 5.94468676,6.33581379 5.93413957,6.33581379 L1.60479778,6.33581379 C1.27089611,6.33581379 1.00027756,6.58368728 1.00027756,6.89040645 C1.00027756,7.19684804 1.27089611,7.4461094 1.60479778,7.4461094 L5.05789056,7.4461094 C5.05789056,7.4461094 5.69988105,7.40086486 5.78342585,7.47747525 L11.0134417,12.8191075 C11.0969865,12.896273 11.1988501,12.9370764 11.3062649,12.9592823 C11.3831483,13.0006408 11.4678033,13.0314515 11.5613402,13.0314515 L16.6742268,13.0314515 L14.4756939,15.2337229 C14.2264473,15.4843721 14.2264473,15.8885197 14.4756939,16.1386138 C14.724663,16.3887079 15.1290642,16.3887079 15.378866,16.1386138 L18.5413561,12.9717731 C18.565226,12.9476242 18.5580095,12.9115396 18.577161,12.8846149 C18.6901269,12.783578 18.7647898,12.640905 18.7647898,12.4757485 C18.7645123,12.2264872 18.5977002,12.0233031 18.3712133,11.9527993 L18.3712133,11.9527993 Z" id="Shape"></path>
        </g>
    </g>
</svg>