<?xml version="1.0" encoding="UTF-8"?>
<svg width="20px" height="20px" viewBox="0 0 20 20" version="1.1" xmlns="http://www.w3.org/2000/svg" xmlns:xlink="http://www.w3.org/1999/xlink">
    <!-- Generator: Sketch 52.5 (67469) - http://www.bohemiancoding.com/sketch -->
    <title>icon/building</title>
    <desc>Created with Sketch.</desc>
    <g id="icon/building" stroke="none" stroke-width="1" fill="none" fill-rule="evenodd">
        <path d="M16.4329897,18.7650074 L13.1022998,18.7650074 L7.55142744,18.7650074 L4.22045995,18.7650074 L2,18.7650074 L2,17.6547118 L4.22045995,17.6547118 L4.22045995,1 L16.4329897,1 L16.4329897,17.6547118 L18.6537272,17.6547118 L18.6537272,18.7650074 L16.4329897,18.7650074 L16.4329897,18.7650074 Z M8.66137986,17.6547118 L11.9920698,17.6547118 L11.9920698,13.2132518 L8.66137986,13.2132518 L8.66137986,17.6547118 L8.66137986,17.6547118 Z M15.3230373,2.11029562 L5.33068993,2.11029562 L5.33068993,17.6547118 L7.55142744,17.6547118 L7.55142744,12.1032337 L13.1022998,12.1032337 L13.1022998,17.6547118 L15.3230373,17.6547118 L15.3230373,2.11029562 L15.3230373,2.11029562 Z M10.8821174,7.66232885 L14.2125297,7.66232885 L14.2125297,10.992383 L10.8821174,10.992383 L10.8821174,7.66232885 L10.8821174,7.66232885 Z M11.9920698,9.88264251 L13.1022998,9.88264251 L13.1022998,8.77206932 L11.9920698,8.77206932 L11.9920698,9.88264251 L11.9920698,9.88264251 Z M10.8821174,3.22031366 L14.2125297,3.22031366 L14.2125297,6.55203323 L10.8821174,6.55203323 L10.8821174,3.22031366 L10.8821174,3.22031366 Z M11.9920698,5.44173761 L13.1022998,5.44173761 L13.1022998,4.33060928 L11.9920698,4.33060928 L11.9920698,5.44173761 L11.9920698,5.44173761 Z M6.4409199,7.66232885 L9.77188739,7.66232885 L9.77188739,10.992383 L6.4409199,10.992383 L6.4409199,7.66232885 L6.4409199,7.66232885 Z M7.55142744,9.88264251 L8.66137986,9.88264251 L8.66137986,8.77206932 L7.55142744,8.77206932 L7.55142744,9.88264251 L7.55142744,9.88264251 Z M6.4409199,3.22031366 L9.77188739,3.22031366 L9.77188739,6.55203323 L6.4409199,6.55203323 L6.4409199,3.22031366 L6.4409199,3.22031366 Z M7.55142744,5.44173761 L8.66137986,5.44173761 L8.66137986,4.33060928 L7.55142744,4.33060928 L7.55142744,5.44173761 L7.55142744,5.44173761 Z" id="Shape" fill="#000000"></path>
    </g>
</svg>