<?xml version="1.0" encoding="UTF-8"?>
<svg width="20px" height="20px" viewBox="0 0 20 20" version="1.1" xmlns="http://www.w3.org/2000/svg" xmlns:xlink="http://www.w3.org/1999/xlink">
    <!-- Generator: Sketch 52.5 (67469) - http://www.bohemiancoding.com/sketch -->
    <title>icon/user-plus</title>
    <desc>Created with Sketch.</desc>
    <g id="icon/user-plus" stroke="none" stroke-width="1" fill="none" fill-rule="evenodd">
        <path d="M18.2110315,16.5441386 L16.5456866,16.5441386 L16.5456866,18.2095821 C16.5456866,18.5160236 16.296995,18.7650074 15.9905716,18.7650074 C15.6841481,18.7650074 15.4354566,18.5163012 15.4354566,18.2095821 L15.4354566,16.5441386 L13.7701116,16.5441386 C13.4636881,16.5441386 13.2149966,16.29571 13.2149966,15.9889908 C13.2149966,15.6822717 13.4636881,15.433843 13.7701116,15.433843 L15.4354566,15.433843 L15.4354566,13.7686772 C15.4354566,13.4616804 15.6841481,13.2126966 15.9905716,13.2126966 C16.2972726,13.2126966 16.5456866,13.4614029 16.5456866,13.7686772 L16.5456866,15.433843 L18.2110315,15.433843 C18.517455,15.433843 18.7661465,15.6822717 18.7661465,15.9889908 C18.7661465,16.29571 18.517455,16.5441386 18.2110315,16.5441386 L18.2110315,16.5441386 Z M11.8180498,12.2850446 C12.3892631,12.4274401 13.2224907,12.6417271 14.0487793,12.8737789 C13.6601988,13.138862 13.3285176,13.4738937 13.0418007,13.8452876 C12.3703892,13.6648645 11.6656707,13.4841639 10.9948142,13.323171 L10.9948142,11.5644628 C12.3867651,10.6168255 13.2116659,8.55833741 13.2116659,6.6874893 C13.2116659,4.15740316 12.5644019,2.10585443 9.32780392,2.10585443 C6.09120598,2.10585443 5.44394191,4.15740316 5.44394191,6.6874893 C5.44394191,8.56000285 6.26995301,10.6201564 7.66384674,11.566961 L7.66384674,13.3395479 C5.56495697,13.8333519 3.12772462,14.5095219 2.56705848,14.8165187 C2.20429083,15.2739604 1.88732018,16.7392731 2.11269686,17.6555445 L12.2618642,17.6555445 C12.3640053,18.0502546 12.5197151,18.4199831 12.7195565,18.7641747 L1.5012377,18.7641747 C0.633037861,17.4320976 0.984980763,14.7682208 1.8531806,13.8810946 C2.26674127,13.4586271 5.36678092,12.6592143 6.85060329,12.2953149 C5.28351367,11.0781533 4.32816078,8.8200896 4.32816078,6.6672264 C4.32816078,3.53730306 5.23716157,1 9.32780392,1 C13.4181687,1 14.3271695,3.53730306 14.3271695,6.6672264 C14.3271695,8.81398298 13.3768126,11.0653849 11.8180498,12.2850446 L11.8180498,12.2850446 Z" id="Shape" fill="#000000"></path>
    </g>
</svg>