<?xml version="1.0" encoding="UTF-8"?>
<svg width="20px" height="20px" viewBox="0 0 20 20" version="1.1" xmlns="http://www.w3.org/2000/svg" xmlns:xlink="http://www.w3.org/1999/xlink">
    <!-- Generator: Sketch 54.1 (76490) - https://sketchapp.com -->
    <title>icon/key</title>
    <desc>Created with Sketch.</desc>
    <g id="icon/key" stroke="none" stroke-width="1" fill="none" fill-rule="evenodd">
        <path d="M15.8883822,11.0144901 C13.9507534,12.9522335 10.8948454,13.0446656 8.82093577,11.3400843 L6.70872324,13.2642266 L9.10904044,15.6696821 L8.33354481,16.4466114 L5.89631245,14.0047938 L4.38251388,15.3832258 L6.89496431,17.8899957 L6.11586043,18.6666475 L3,15.5586525 L3.03913561,15.5197922 C2.97446471,15.3363158 3.01554322,15.1286905 3.17513878,14.9829642 L8.04210944,10.5495538 C6.39425059,8.47690948 6.50499603,5.46384475 8.42208565,3.54636422 C10.4840603,1.48454526 13.8266852,1.48454526 15.8883822,3.54636422 C17.9500793,5.60846075 17.9500793,8.95239358 15.8883822,11.0144901 L15.8883822,11.0144901 Z M15.1048374,4.33856014 C13.4800159,2.71308736 10.8454401,2.71308736 9.22061856,4.33856014 C7.59579699,5.9632002 7.59579699,8.5979317 9.22061856,10.2225718 C10.8454401,11.847767 13.4800159,11.847767 15.1048374,10.2225718 C16.729659,8.5979317 16.729659,5.96292263 15.1048374,4.33856014 L15.1048374,4.33856014 Z" id="Shape" fill="#000000"></path>
    </g>
</svg>