<?xml version="1.0" encoding="UTF-8"?>
<svg width="20px" height="20px" viewBox="0 0 20 20" version="1.1" xmlns="http://www.w3.org/2000/svg" xmlns:xlink="http://www.w3.org/1999/xlink">
    <!-- Generator: Sketch 48.2 (47327) - http://www.bohemiancoding.com/sketch -->
    <title>buddicons/icon-multifactor</title>
    <desc>Created with Sketch.</desc>
    <defs></defs>
    <g id="Icons" stroke="none" stroke-width="1" fill="none" fill-rule="evenodd">
        <g id="buddicons/icon-multifactor" fill="#000000">
            <path d="M13.3818398,18.7641747 L6.72045995,18.7641747 C5.49421094,18.7641747 4.5,17.769905 4.5,16.5433059 L4.5,13.2129742 L4.5,12.1026786 L4.5,5.44118247 L4.5,4.3303317 L4.5,3.22059123 C4.5,1.99399215 5.49421094,1 6.72045995,1 L13.3818398,1 C14.6080888,1 15.6022998,1.99399215 15.6022998,3.22059123 L15.6022998,4.3303317 L15.6022998,5.44118247 L15.6022998,12.1026786 L15.6022998,13.2129742 L15.6022998,16.5433059 C15.6022998,17.769905 14.6078113,18.7641747 13.3818398,18.7641747 L13.3818398,18.7641747 Z M14.4917922,3.22059123 C14.4917922,2.60659776 13.9946868,2.10974047 13.3815623,2.10974047 L6.72018239,2.10974047 C6.10705789,2.10974047 5.60995242,2.60659776 5.60995242,3.22059123 L5.60995242,4.3303317 L14.4917922,4.3303317 L14.4917922,3.22059123 L14.4917922,3.22059123 Z M14.4917922,5.44118247 L5.60995242,5.44118247 L5.60995242,12.1026786 L14.4917922,12.1026786 L14.4917922,5.44118247 L14.4917922,5.44118247 Z M5.61022998,13.2129742 L5.61022998,16.5433059 C5.61022998,17.1564667 6.10733545,17.6541567 6.72045995,17.6541567 L13.3818398,17.6541567 C13.9949643,17.6541567 14.4920698,17.1564667 14.4920698,16.5433059 L14.4920698,13.2129742 L5.61022998,13.2129742 L5.61022998,13.2129742 Z M10.0511499,16.5430283 C9.43802538,16.5430283 8.9409199,16.0464486 8.9409199,15.433843 C8.9409199,14.8204047 9.43802538,14.3229923 10.0511499,14.3229923 C10.6642744,14.3229923 11.1613799,14.8204047 11.1613799,15.433843 C11.1613799,16.0467262 10.6639968,16.5430283 10.0511499,16.5430283 L10.0511499,16.5430283 Z" id="Shape"></path>
        </g>
    </g>
</svg>