<?xml version="1.0" encoding="UTF-8" standalone="no"?>
<svg width="64px" height="65px" viewBox="0 0 64 65" version="1.1" xmlns="http://www.w3.org/2000/svg" xmlns:xlink="http://www.w3.org/1999/xlink" xmlns:sketch="http://www.bohemiancoding.com/sketch/ns">
    <!-- Generator: Sketch 3.4 (15588) - http://www.bohemiancoding.com/sketch -->
    <title>wordpress</title>
    <desc>Created with Sketch.</desc>
    <defs></defs>
    <g id="Page-1" stroke="none" stroke-width="1" fill="none" fill-rule="evenodd" sketch:type="MSPage">
        <g id="wordpress" sketch:type="MSLayerGroup" fill="#000000">
            <path d="M7.99360578e-15,32.813 C7.99360578e-15,38.626 1.438,44.001 4.313,48.876 C7.126,53.814 11.001,57.689 15.938,60.501 C20.813,63.376 26.188,64.814 32.001,64.814 C37.814,64.814 43.189,63.376 48.064,60.501 C53.002,57.688 56.877,53.813 59.689,48.876 C62.564,44.001 64.002,38.626 64.002,32.813 C64.002,27 62.564,21.625 59.689,16.75 C56.876,11.812 53.001,7.937 48.064,5.125 C43.189,2.25 37.814,0.812 32.001,0.812 C26.188,0.812 20.813,2.25 15.938,5.125 C11,7.938 7.125,11.813 4.313,16.75 C1.438,21.625 0,27 0,32.813 L7.99360578e-15,32.813 Z M2.5,32.813 C2.5,28.563 3.375,24.563 5.063,20.75 L19.126,59.375 C14.126,57 10.126,53.375 7.063,48.625 C4,43.812 2.5,38.562 2.5,32.812 L2.5,32.813 Z M7.313,16.625 C10.001,12.5 13.501,9.312 17.876,6.875 C22.189,4.5 26.939,3.312 32.001,3.312 C39.751,3.312 46.376,5.875 51.939,11.062 C51.939,11.062 51.876,11.062 51.751,10.999 L51.563,10.999 C50.188,10.999 49,11.499 48.063,12.562 C47.063,13.625 46.563,14.812 46.563,16.25 C46.563,16.688 46.626,17.125 46.751,17.563 C46.814,18.001 47.001,18.501 47.251,19.063 C47.501,19.688 47.689,20.063 47.814,20.313 C47.939,20.563 48.252,21.063 48.689,21.813 C49.126,22.563 49.377,23.001 49.502,23.126 C51.127,25.876 51.94,28.626 51.94,31.314 C51.94,32.689 51.19,35.877 49.69,40.877 L46.752,50.752 L36.127,19.002 L39.44,18.689 C39.94,18.626 40.253,18.376 40.44,17.939 C40.628,17.564 40.565,17.126 40.377,16.751 C40.127,16.376 39.752,16.188 39.252,16.251 C36.064,16.501 33.439,16.626 31.377,16.626 L23.627,16.251 C23.127,16.188 22.752,16.376 22.502,16.751 C22.252,17.126 22.252,17.564 22.377,17.939 C22.565,18.377 22.94,18.627 23.44,18.689 C24.44,18.752 25.503,18.877 26.503,19.002 L31.128,31.627 L24.628,50.94 L13.878,19.002 L17.253,18.689 C17.816,18.626 18.128,18.376 18.316,17.939 C18.504,17.564 18.441,17.126 18.191,16.751 C18.003,16.376 17.628,16.188 17.066,16.251 C13.878,16.501 11.253,16.626 9.191,16.626 L7.316,16.626 L7.313,16.625 Z M23.688,61.188 L32.501,35.375 L41.626,60.25 L41.814,60.625 C38.689,61.75 35.439,62.313 32.001,62.313 C29.126,62.313 26.313,61.938 23.688,61.188 L23.688,61.188 Z M46.875,58.375 L55.875,32.25 C57.375,27.875 58.125,24.375 58.125,21.687 C58.125,20.562 58.062,19.562 57.937,18.687 C60.312,23 61.5,27.687 61.5,32.812 C61.5,38.125 60.187,43.062 57.562,47.625 C54.874,52.188 51.312,55.75 46.874,58.375 L46.875,58.375 Z" id="Shape" sketch:type="MSShapeGroup"></path>
        </g>
    </g>
</svg>