<?xml version="1.0" encoding="UTF-8"?>
<svg width="20px" height="20px" viewBox="0 0 20 20" version="1.1" xmlns="http://www.w3.org/2000/svg" xmlns:xlink="http://www.w3.org/1999/xlink">
    <!-- Generator: Sketch 61 (89581) - https://sketch.com -->
    <title>icon/fill/danger</title>
    <desc>Created with Sketch.</desc>
    <defs>
        <path d="M10,1 C14.9705627,1 19,5.02943725 19,10 C19,14.9705627 14.9705627,19 10,19 C5.02943725,19 1,14.9705627 1,10 C1,5.02943725 5.02943725,1 10,1 Z M10,13.75 C9.58592881,13.75 9.25,14.0859288 9.25,14.5 L9.25,14.5 L9.25,15.5 C9.25,15.9140712 9.58592881,16.25 10,16.25 C10.4140712,16.25 10.75,15.9140712 10.75,15.5 L10.75,15.5 L10.75,14.5 C10.75,14.0859288 10.4140712,13.75 10,13.75 Z M10.0371953,4.5 C9.60266347,4.5 9.25,4.88345832 9.25,5.35795042 L9.25,5.35795042 L9.25,11.369615 C9.25,11.8436777 9.60226988,12.2284243 10.0371953,12.2284243 C10.471727,12.2284243 10.8243905,11.8441071 10.8243905,11.369615 L10.8243905,11.369615 L10.8243905,5.35795042 C10.8243905,4.88345832 10.471727,4.5 10.0371953,4.5 Z" id="path-1"></path>
    </defs>
    <g id="icon/fill/danger" stroke="none" stroke-width="1" fill="none" fill-rule="evenodd">
        <mask id="mask-2" fill="white">
            <use xlink:href="#path-1"></use>
        </mask>
        <use id="Shape" fill="#000000" xlink:href="#path-1"></use>
    </g>
</svg>