<?xml version="1.0" encoding="UTF-8"?>
<svg width="20px" height="20px" viewBox="0 0 20 20" version="1.1" xmlns="http://www.w3.org/2000/svg" xmlns:xlink="http://www.w3.org/1999/xlink">
    <!-- Generator: Sketch 52.5 (67469) - http://www.bohemiancoding.com/sketch -->
    <title>icon/home</title>
    <desc>Created with Sketch.</desc>
    <g id="icon/home" stroke="none" stroke-width="1" fill="none" fill-rule="evenodd">
        <path d="M15.4332672,10.9929381 L15.4332672,18.765285 L10.9920698,18.765285 L10.9920698,18.2095821 L10.9920698,17.6549894 L10.9920698,14.8789728 C10.9920698,14.571976 10.7433783,14.3235474 10.4372324,14.3235474 L9.32672482,14.3235474 C9.02030135,14.3235474 8.77160983,14.571976 8.77160983,14.8789728 L8.77160983,17.6549894 L8.77160983,18.2095821 L8.77160983,18.765285 L4.33096749,18.765285 L4.33096749,10.9929381 L1,10.9929381 L9.88183981,1 L18.7636796,10.9929381 L15.4332672,10.9929381 L15.4332672,10.9929381 Z M3.22045995,9.88292008 L5.44119746,9.88292008 L5.44119746,17.6549894 L7.66137986,17.6549894 L7.66137986,14.3235474 C7.66137986,13.7103866 8.15848533,13.2129742 8.77160983,13.2129742 L10.9920698,13.2129742 C11.6054718,13.2129742 12.1022998,13.7103866 12.1022998,14.3235474 L12.1022998,17.6549894 L14.3230373,17.6549894 L14.3230373,9.88292008 L16.5434972,9.88292008 L9.88183981,2.66599857 L3.22045995,9.88292008 L3.22045995,9.88292008 Z" id="Shape" fill="#000000"></path>
    </g>
</svg>