<?xml version="1.0" encoding="UTF-8"?>
<svg width="20px" height="20px" viewBox="0 0 20 20" version="1.1" xmlns="http://www.w3.org/2000/svg" xmlns:xlink="http://www.w3.org/1999/xlink">
    <!-- Generator: Sketch 51.3 (57544) - http://www.bohemiancoding.com/sketch -->
    <title>buddicons/lock-fill</title>
    <desc>Created with Sketch.</desc>
    <defs></defs>
    <g id="buddicons/lock-fill" stroke="none" stroke-width="1" fill="none" fill-rule="evenodd">
        <path d="M15.2125297,18.7638971 L5.22045995,18.7638971 C3.99421094,18.7638971 3,17.7696274 3,16.5435835 L3,9.88180979 C3,8.65548828 3.99421094,7.66094098 5.22045995,7.66094098 L5.22045995,7.66094098 L5.22045995,5.99633028 C5.22045995,3.23724567 7.4572958,1 10.2164948,1 C12.9756939,1 15.2125297,3.23724567 15.2125297,5.99633028 L15.2125297,7.66121855 C16.4387787,7.66121855 17.4329897,8.65548828 17.4329897,9.88180979 L17.4329897,16.5435835 C17.4329897,17.7696274 16.4387787,18.7638971 15.2125297,18.7638971 L15.2125297,18.7638971 Z M13.4797276,6.16146606 C13.4797276,4.2284261 12.0186229,2.66094098 10.2167724,2.66094098 C8.41492191,2.66094098 6.95381716,4.2284261 6.95381716,6.16146606 L6.95381716,7.66094098 L13.4797276,7.66094098 L13.4797276,6.16146606 L13.4797276,6.16146606 Z M10.2164948,15.4327327 C9.84703569,15.4327327 9.54718477,15.1840265 9.54718477,14.8778625 L9.54718477,11.5469756 C9.54718477,11.240534 9.84670103,10.9918278 10.2164948,10.9918278 C10.5862887,10.9918278 10.8858049,11.240534 10.8858049,11.5469756 L10.8858049,14.8778625 C10.8858049,15.1840265 10.5862887,15.4327327 10.2164948,15.4327327 L10.2164948,15.4327327 Z" id="Shape" fill="#000000"></path>
    </g>
</svg>