<?xml version="1.0" encoding="UTF-8"?>
<svg width="20px" height="20px" viewBox="0 0 20 20" version="1.1" xmlns="http://www.w3.org/2000/svg" xmlns:xlink="http://www.w3.org/1999/xlink">
    <!-- Generator: Sketch 48.2 (47327) - http://www.bohemiancoding.com/sketch -->
    <title>buddicons/icon-authorization</title>
    <desc>Created with Sketch.</desc>
    <defs></defs>
    <g id="Icons" stroke="none" stroke-width="1" fill="none" fill-rule="evenodd">
        <g id="buddicons/icon-authorization" fill="#000000" fill-rule="nonzero">
            <path d="M4.81875248,9.8424233 C4.14356203,9.50211834 3.68063025,8.79547906 3.68063025,7.98100535 C3.68063025,6.83565535 4.59609007,5.9035508 5.72991597,5.9035508 C6.86374186,5.9035508 7.77920168,6.83565535 7.77920168,7.98100535 C7.77920168,8.79554114 7.31619933,9.50222605 6.64092507,9.84250111 C7.79257979,10.0694011 8.66445378,11.1023151 8.66445378,12.3321925 L8.66445378,14.9752513 L2.795,14.9752513 L2.795,12.3321925 C2.795,11.1023315 3.66723866,10.0691834 4.81875248,9.8424233 Z M10.0294118,3.61764706 L10.0294118,2 L11.0294118,2 L11.0294118,3.61764706 L19.5,3.61764706 L19.5,17.3235294 L0.5,17.3235294 L0.5,3.61764706 L10.0294118,3.61764706 Z M10.0294118,4.61764706 L1.5,4.61764706 L1.5,16.3235294 L18.5,16.3235294 L18.5,4.61764706 L11.0294118,4.61764706 L11.0294118,6 L10.0294118,6 L10.0294118,4.61764706 Z M10.5294118,8.79411765 L10.5294118,7.79411765 L15.8235294,7.79411765 L15.8235294,8.79411765 L10.5294118,8.79411765 Z M10.5294118,10.9705882 L10.5294118,9.97058824 L15.8235294,9.97058824 L15.8235294,10.9705882 L10.5294118,10.9705882 Z M10.5294118,13.0882353 L10.5294118,12.0882353 L15.8235294,12.0882353 L15.8235294,13.0882353 L10.5294118,13.0882353 Z M5.72991597,9.05845989 C6.30738382,9.05845989 6.77920168,8.57806352 6.77920168,7.98100535 C6.77920168,7.38394717 6.30738382,6.9035508 5.72991597,6.9035508 C5.15244811,6.9035508 4.68063025,7.38394717 4.68063025,7.98100535 C4.68063025,8.57806352 5.15244811,9.05845989 5.72991597,9.05845989 Z M7.66445378,12.3321925 C7.66445378,11.4858652 6.9869873,10.7961711 6.16441176,10.7961711 L5.29466387,10.7961711 C4.47265556,10.7961711 3.795,11.4860577 3.795,12.3321925 L3.795,13.9752513 L7.66445378,13.9752513 L7.66445378,12.3321925 Z" id="Shape"></path>
        </g>
    </g>
</svg>