<?xml version="1.0" encoding="UTF-8"?>
<svg width="20px" height="20px" viewBox="0 0 20 20" version="1.1" xmlns="http://www.w3.org/2000/svg" xmlns:xlink="http://www.w3.org/1999/xlink">
    <!-- Generator: Sketch 53.2 (72643) - https://sketchapp.com -->
    <title>icon/tv</title>
    <desc>Created with Sketch.</desc>
    <g id="icon/tv" stroke="none" stroke-width="1" fill="none" fill-rule="evenodd">
        <path d="M10.3818398,15.3232698 L10.3818398,17.5438611 L13.9000188,17.5438611 C14.2067198,17.5438611 14.4551338,17.7925673 14.4551338,18.099564 C14.4551338,18.4054505 14.2067198,18.6541567 13.9000188,18.6541567 L5.99705827,18.6541567 C5.69035724,18.6541567 5.44194328,18.4054505 5.44194328,18.099564 C5.44194328,17.7925673 5.6906348,17.5438611 5.99705827,17.5438611 L9.27160983,17.5438611 L9.27160983,15.3232698 L2.61022998,15.3232698 C1.99710547,15.3232698 1.5,14.8266901 1.5,14.2129742 L1.5,3.11001804 C1.5,2.49713486 1.99710547,2 2.61022998,2 L17.0432197,2 C17.6563442,2 18.1534496,2.49713486 18.1534496,3.11001804 L18.1534496,14.2129742 C18.1534496,14.8266901 17.6563442,15.3232698 17.0432197,15.3232698 L10.3818398,15.3232698 Z M17.0432197,3.665721 C17.0432197,3.35872426 16.7948057,3.11001804 16.4881047,3.11001804 L3.16534496,3.11001804 C2.85864393,3.11001804 2.61022998,3.35872426 2.61022998,3.665721 L2.61022998,13.6578264 C2.61022998,13.9648231 2.85864393,14.2129742 3.16534496,14.2129742 L9.27160983,14.2129742 L10.3818398,14.2129742 L16.4881047,14.2129742 C16.7948057,14.2129742 17.0432197,13.9648231 17.0432197,13.6578264 L17.0432197,3.665721 L17.0432197,3.665721 Z M8.39004758,6.38309519 L8.39004758,10.6169048 L11.9182223,8.5 L8.39004758,6.38309519 Z M13.1472955,8.92874646 L8.14729546,11.9287465 C7.8140332,12.1287038 7.39004758,11.8886472 7.39004758,11.5 L7.39004758,5.5 C7.39004758,5.11135276 7.8140332,4.87129618 8.14729546,5.07125354 L13.1472955,8.07125354 C13.470965,8.26545523 13.470965,8.73454477 13.1472955,8.92874646 Z" id="Shape-Copy" fill="#000000"></path>
    </g>
</svg>