<?xml version="1.0" encoding="UTF-8"?>
<svg width="20px" height="20px" viewBox="0 0 20 20" version="1.1" xmlns="http://www.w3.org/2000/svg" xmlns:xlink="http://www.w3.org/1999/xlink">
    <!-- Generator: Sketch 48.2 (47327) - http://www.bohemiancoding.com/sketch -->
    <title>buddicons/code</title>
    <desc>Created with Sketch.</desc>
    <defs></defs>
    <g id="Icons" stroke="none" stroke-width="1" fill="none" fill-rule="evenodd">
        <g id="buddicons/code" fill="#000000">
            <path d="M18.5854877,9.41990016 L15.3605472,12.9656292 C15.1224029,13.1457747 14.7360428,13.1457747 14.4976209,12.9656292 C14.259199,12.7860389 14.259199,12.4945863 14.4976209,12.3138857 L17.3281523,9.20172707 L14.4976209,6.08929089 C14.259199,5.909423 14.259199,5.61713768 14.4976209,5.43726979 C14.7357653,5.25712432 15.1221253,5.25712432 15.3605472,5.43726979 L18.3120936,8.68210873 C18.4078509,8.70320434 18.5097145,8.71097641 18.5854877,8.76787906 C18.823632,8.9483021 18.823632,9.23947712 18.5854877,9.41990016 L18.5854877,9.41990016 Z M6.45539255,17.2669144 C6.30162569,17.5314424 5.96161776,17.6219315 5.69544013,17.469821 C5.42954005,17.3166002 5.33822363,16.9790703 5.49199048,16.7142648 L13.2705393,2.27875633 C13.4254163,2.01200781 13.7681998,1.92096357 14.0363204,2.07473951 C14.3044409,2.22823788 14.3960349,2.56937621 14.2414354,2.8364023 L6.45539255,17.2669144 L6.45539255,17.2669144 Z M2.4130452,9.21477305 L5.23164155,12.3138857 C5.46978588,12.4943087 5.46978588,12.7857613 5.23164155,12.9656292 C4.99349722,13.1457747 4.60685964,13.1457747 4.36871531,12.9656292 L1.40523394,9.70718915 C1.32696273,9.68470567 1.24036479,9.6833178 1.17735924,9.63529751 C0.940880254,9.45487447 0.940880254,9.16342187 1.17735924,8.98355399 L4.37676447,5.43754736 C4.61324346,5.2574019 4.99682791,5.2574019 5.2333069,5.43754736 C5.46978588,5.61713768 5.46978588,5.909423 5.2333069,6.08956846 L2.4130452,9.21477305 L2.4130452,9.21477305 Z" id="Shape"></path>
        </g>
    </g>
</svg>