<?xml version="1.0" encoding="UTF-8"?>
<svg width="20px" height="20px" viewBox="0 0 20 20" version="1.1" xmlns="http://www.w3.org/2000/svg" xmlns:xlink="http://www.w3.org/1999/xlink">
    <!-- Generator: Sketch 51.3 (57544) - http://www.bohemiancoding.com/sketch -->
    <title>buddicons/warning</title>
    <desc>Created with Sketch.</desc>
    <defs></defs>
    <g id="buddicons/warning" stroke="none" stroke-width="1" fill="none" fill-rule="evenodd">
        <path d="M2,17.5441386 L10.3267248,2 L18.6534496,17.5441386 L2,17.5441386 L2,17.5441386 Z M3.66506741,16.433843 L16.9878271,16.433843 L10.3264473,3.66544343 L3.66506741,16.433843 L3.66506741,16.433843 Z M9.77133228,14.7683996 L9.77133228,13.6578264 L10.8815623,13.6578264 L10.8815623,14.7683996 L9.77133228,14.7683996 L9.77133228,14.7683996 Z M10.3267248,12.5475308 C10.0200238,12.5475308 9.77160983,12.2988246 9.77160983,11.992383 L9.77160983,8.10634832 C9.77160983,7.79962915 10.0203013,7.55175566 10.3267248,7.55175566 C10.6331483,7.55175566 10.8818398,7.79962915 10.8818398,8.10634832 L10.8818398,11.992383 C10.8818398,12.2991021 10.6331483,12.5475308 10.3267248,12.5475308 L10.3267248,12.5475308 Z" id="Shape" fill="#000000"></path>
    </g>
</svg>