<?xml version="1.0" encoding="UTF-8"?>
<svg width="20px" height="20px" viewBox="0 0 20 20" version="1.1" xmlns="http://www.w3.org/2000/svg" xmlns:xlink="http://www.w3.org/1999/xlink">
    <!-- Generator: Sketch 51.3 (57544) - http://www.bohemiancoding.com/sketch -->
    <title>buddicons/danger</title>
    <desc>Created with Sketch.</desc>
    <defs></defs>
    <g id="buddicons/danger" stroke="none" stroke-width="1" fill="none" fill-rule="evenodd">
        <path d="M10,19 C5.02943725,19 1,14.9705627 1,10 C1,5.02943725 5.02943725,1 10,1 C14.9705627,1 19,5.02943725 19,10 C19,14.9705627 14.9705627,19 10,19 Z M10,18 C14.418278,18 18,14.418278 18,10 C18,5.581722 14.418278,2 10,2 C5.581722,2 2,5.581722 2,10 C2,14.418278 5.581722,18 10,18 Z M10,13.75 C10.4140712,13.75 10.75,14.0859288 10.75,14.5 L10.75,15.5 C10.75,15.9140712 10.4140712,16.25 10,16.25 C9.58592881,16.25 9.25,15.9140712 9.25,15.5 L9.25,14.5 C9.25,14.0859288 9.58592881,13.75 10,13.75 Z M10.0371953,12.2284243 C9.60226988,12.2284243 9.25,11.8436777 9.25,11.369615 L9.25,5.35795042 C9.25,4.88345832 9.60266347,4.5 10.0371953,4.5 C10.471727,4.5 10.8243905,4.88345832 10.8243905,5.35795042 L10.8243905,11.369615 C10.8243905,11.8441071 10.471727,12.2284243 10.0371953,12.2284243 Z" id="Shape" fill="#000000" fill-rule="nonzero"></path>
    </g>
</svg>