<?xml version="1.0" encoding="UTF-8"?>
<svg width="20px" height="20px" viewBox="0 0 20 20" version="1.1" xmlns="http://www.w3.org/2000/svg" xmlns:xlink="http://www.w3.org/1999/xlink">
    <!-- Generator: Sketch 54.1 (76490) - https://sketchapp.com -->
    <title>icon/eye-slash</title>
    <desc>Created with Sketch.</desc>
    <g id="icon/eye-slash" stroke="none" stroke-width="1" fill="none" fill-rule="evenodd">
        <path d="M13.4136775,4.20850499 L12.5691242,5.05305831 C11.7559336,4.74979316 10.9000377,4.6 10,4.6 C6.92279339,4.6 4.36157623,6.35099114 2.25894508,10 C2.97204639,11.2375509 3.73789461,12.2567903 4.558729,13.0634535 L3.78191098,13.8402716 C2.76805308,12.8414823 1.84074942,11.5613918 1,10 C3.33333333,5.66666667 6.33333333,3.5 10,3.5 C11.2105597,3.5 12.3484522,3.73616833 13.4136775,4.20850499 Z M16.218089,6.15972844 C17.2319469,7.15851769 18.1592506,8.43860821 19,10 C16.6666667,14.3333333 13.6666667,16.5 10,16.5 C8.78944031,16.5 7.65154779,16.2638317 6.58632245,15.791495 L7.43087576,14.9469417 C8.24406637,15.2502068 9.09996235,15.4 10,15.4 C13.0772066,15.4 15.6384238,13.6490089 17.7410549,10 C17.0279536,8.76244914 16.2621054,7.74320974 15.441271,6.93654646 L16.218089,6.15972844 Z M13.3602412,9.01757628 C13.4512146,9.3292581 13.5,9.65893183 13.5,10 C13.5,11.9329966 11.9329966,13.5 10,13.5 C9.65893183,13.5 9.3292581,13.4512146 9.01757628,13.3602412 L9.9779161,12.3999014 C9.98527013,12.3999668 9.99263119,12.4 10,12.4 C11.3254834,12.4 12.4,11.3254834 12.4,10 C12.4,9.99263119 12.3999668,9.98527013 12.3999005,9.97791698 L13.3602412,9.01757628 Z M10.9824237,6.63975883 L10.0220841,7.6000984 C10.0147299,7.60003321 10.0073688,7.6 10,7.6 C8.6745166,7.6 7.6,8.6745166 7.6,10 C7.6,10.0073688 7.60003321,10.0147299 7.60009949,10.022083 L6.63975883,10.9824237 C6.54878543,10.6707419 6.5,10.3410682 6.5,10 C6.5,8.06700338 8.06700338,6.5 10,6.5 C10.3410682,6.5 10.6707419,6.54878543 10.9824237,6.63975883 Z M3.88890873,16.8889087 C3.67412037,17.1036971 3.32587963,17.1036971 3.11109127,16.8889087 C2.89630291,16.6741204 2.89630291,16.3258796 3.11109127,16.1110913 L16.1110913,3.11109127 C16.3258796,2.89630291 16.6741204,2.89630291 16.8889087,3.11109127 C17.1036971,3.32587963 17.1036971,3.67412037 16.8889087,3.88890873 L3.88890873,16.8889087 Z" id="Shape" fill="#000000"></path>
    </g>
</svg>