<?xml version="1.0" encoding="UTF-8"?>
<svg width="20px" height="20px" viewBox="0 0 20 20" version="1.1" xmlns="http://www.w3.org/2000/svg" xmlns:xlink="http://www.w3.org/1999/xlink">
    <!-- Generator: Sketch 52.3 (67297) - http://www.bohemiancoding.com/sketch -->
    <title>icon/message</title>
    <desc>Created with Sketch.</desc>
    <g id="icon/message" stroke="none" stroke-width="1" fill="none" fill-rule="evenodd">
        <path d="M15.4329897,14.3232698 L15.4327121,18.7644523 L10.5474227,14.3232698 L4.33068993,14.3232698 C2.49103886,14.3232698 1,13.3875682 1,11.5478084 L1,4.33060928 C1,2.49140459 2.49103886,1 4.33068993,1 L15.4327121,1 C17.2723632,1 18.7636796,2.49112701 18.7636796,4.33060928 L18.7636796,10.9929381 C18.7636796,12.8324204 17.2723632,14.3232698 15.4329897,14.3232698 L15.4329897,14.3232698 Z M17.6531721,4.33060928 C17.6531721,3.10456534 16.6592387,2.11001804 15.4327121,2.11001804 L4.33068993,2.11001804 C3.10416336,2.11001804 2.10995242,3.10428777 2.10995242,4.33060928 L2.10995242,11.5478084 C2.10995242,12.7744074 3.10416336,13.2132518 4.33068993,13.2132518 L10.9917922,13.2132518 L14.3224822,16.2968203 L14.3224822,13.2132518 L15.4327121,13.2132518 C16.6592387,13.2132518 17.6531721,12.2192596 17.6531721,10.9929381 L17.6531721,4.33060928 L17.6531721,4.33060928 Z M13.7673672,6.55120051 L5.99575734,6.55120051 C5.68933386,6.55120051 5.44064235,6.30249429 5.44064235,5.99633028 C5.44064235,5.68988869 5.68933386,5.44118247 5.99575734,5.44118247 L13.7673672,5.44118247 C14.0737906,5.44118247 14.3224822,5.68988869 14.3224822,5.99633028 C14.3224822,6.30277187 14.0740682,6.55120051 13.7673672,6.55120051 L13.7673672,6.55120051 Z M7.10598731,8.77206932 L12.6571372,8.77206932 C12.9638382,8.77206932 13.2122522,9.02077554 13.2122522,9.3274947 C13.2122522,9.63393629 12.9638382,9.88236493 12.6571372,9.88236493 L7.10598731,9.88236493 C6.79956384,9.88236493 6.55087232,9.63393629 6.55087232,9.3274947 C6.55087232,9.02049796 6.7998414,8.77206932 7.10598731,8.77206932 L7.10598731,8.77206932 Z" id="Shape" fill="#000000"></path>
    </g>
</svg>