<?xml version="1.0" encoding="UTF-8"?>
<svg width="20px" height="20px" viewBox="0 0 20 20" version="1.1" xmlns="http://www.w3.org/2000/svg" xmlns:xlink="http://www.w3.org/1999/xlink">
    <!-- Generator: Sketch 52.5 (67469) - http://www.bohemiancoding.com/sketch -->
    <title>icon/paper-plane</title>
    <desc>Created with Sketch.</desc>
    <g id="icon/paper-plane" stroke="none" stroke-width="1" fill="none" fill-rule="evenodd">
        <path d="M18.7431388,1.72277469 L10.4988486,18.3397365 C10.4957955,18.3500067 10.4883014,18.356946 10.4849707,18.3669387 C10.4325123,18.5476393 10.2998399,18.6986395 10.1036067,18.7480477 C10.0045187,18.7727518 9.90654089,18.7610937 9.81300402,18.7347241 C9.81022844,18.7338914 9.80745287,18.7350017 9.80523241,18.7338914 C9.79884859,18.7325035 9.79413011,18.7275072 9.78746873,18.7255642 C9.73112456,18.7064116 9.67838863,18.6828178 9.62981607,18.6481211 C9.60539101,18.6309115 9.58540687,18.6112037 9.5643125,18.5906633 C9.53516897,18.5620732 9.50741322,18.5337606 9.48409839,18.499619 C9.46522448,18.4713065 9.45190172,18.4413285 9.4383014,18.4099627 C9.42636643,18.3835931 9.40721496,18.36222 9.39888824,18.3330747 L6.46732599,12.7641095 L1.42854724,10.3617073 C1.40023637,10.3533801 1.37886445,10.3350602 1.3530516,10.3231245 C1.32113249,10.3092458 1.29060116,10.2961999 1.26201274,10.2770473 C1.22759561,10.2537311 1.19956231,10.2262512 1.17125144,10.1965508 C1.15098974,10.1754552 1.13072805,10.1557475 1.11351948,10.1307658 C1.0788248,10.0827455 1.05495485,10.0302841 1.03608094,9.973659 C1.0344156,9.96699722 1.029142,9.96255604 1.02747666,9.95617184 C1.02692154,9.95311853 1.02747666,9.95034279 1.02692154,9.94784462 C1.00055358,9.85430222 0.988896168,9.7565962 1.01359878,9.65750232 C1.06328158,9.46042485 1.21455041,9.32774452 1.3955179,9.27528305 C1.40467729,9.27250731 1.41189379,9.26501282 1.42188586,9.26251465 L18.0378652,1.01801455 C18.2121713,0.970826988 18.3839794,1.01995757 18.5174846,1.12321506 C18.5416321,1.14014707 18.5610611,1.15985482 18.5818779,1.18011771 C18.601307,1.20093575 18.6212911,1.21953321 18.637667,1.24340456 C18.7406408,1.37636246 18.790046,1.54845828 18.7431388,1.72277469 L18.7431388,1.72277469 Z M2.83187793,9.80322862 L6.75876135,11.675187 L15.2231547,3.65468907 L2.83187793,9.80322862 L2.83187793,9.80322862 Z M7.54841242,12.4596109 L9.92985572,16.9837879 L16.2778732,4.18790854 L7.54841242,12.4596109 L7.54841242,12.4596109 Z" id="Shape" fill="#000000"></path>
    </g>
</svg>