<?xml version="1.0" encoding="UTF-8"?>
<svg width="20px" height="20px" viewBox="0 0 20 20" version="1.1" xmlns="http://www.w3.org/2000/svg" xmlns:xlink="http://www.w3.org/1999/xlink">
    <!-- Generator: Sketch 52.5 (67469) - http://www.bohemiancoding.com/sketch -->
    <title>icon/image</title>
    <desc>Created with Sketch.</desc>
    <g id="icon/image" stroke="none" stroke-width="1" fill="none" fill-rule="evenodd">
        <path d="M17.6557395,18.7641747 L2.11251983,18.7641747 C1.49939532,18.7641747 1.00228985,18.267595 1.00228985,17.6541567 L1.00228985,14.8925739 C0.999236717,14.8600978 0.999236717,14.8292871 1.00228985,14.7968109 L1.00228985,2.11001804 C1.00228985,1.49685729 1.49939532,1 2.11251983,1 L17.6557395,1 C18.2691416,1 18.7659695,1.49685729 18.7659695,2.11001804 L18.7659695,17.6541567 C18.7659695,18.267595 18.268864,18.7641747 17.6557395,18.7641747 L17.6557395,18.7641747 Z M2.11251983,17.0992864 C2.11251983,17.4051729 2.36121134,17.6541567 2.66763481,17.6541567 L12.5139869,17.6541567 L6.98309873,11.2588539 L2.11279738,15.2223317 L2.11279738,17.0992864 L2.11251983,17.0992864 Z M17.6557395,2.66488828 C17.6557395,2.35844669 17.4073255,2.11001804 17.1006245,2.11001804 L2.66763481,2.11001804 C2.36121134,2.11001804 2.11251983,2.35872426 2.11251983,2.66488828 L2.11251983,13.6737469 L6.57370143,10.0433578 C6.656136,9.96702497 6.767159,9.95453415 6.87235329,9.9295525 C6.88872918,9.922058 6.90510508,9.91706167 6.92175852,9.91067747 C6.96783307,9.90373812 7.00363799,9.88208736 7.04999009,9.88403038 C7.21735726,9.86626565 7.3894429,9.91706167 7.51767446,10.0539056 L9.24491475,12.0507723 L14.4360726,7.8075 C14.5615285,7.69397227 14.7266753,7.65761009 14.8907117,7.66982334 C15.0733446,7.65761009 15.2570876,7.69286198 15.396699,7.80500183 L17.6554619,10.2479298 L17.6554619,2.66488828 L17.6557395,2.66488828 Z M17.6557395,11.9497354 C17.6507435,11.9461269 17.6429718,11.9477924 17.6379758,11.9436287 L14.8277062,8.90391692 L9.96295599,12.8807182 L14.0916237,17.6541567 L17.1011796,17.6541567 C17.4076031,17.6541567 17.6562946,17.4051729 17.6562946,17.0992864 L17.6562946,11.9497354 L17.6557395,11.9497354 Z M5.44320975,7.66149613 C4.21696075,7.66149613 3.2227498,6.66694883 3.2227498,5.44090489 C3.2227498,4.21375066 4.21696075,3.21948094 5.44320975,3.21948094 C6.66945876,3.21948094 7.66366971,4.21375066 7.66366971,5.44090489 C7.66366971,6.66694883 6.66945876,7.66149613 5.44320975,7.66149613 L5.44320975,7.66149613 Z M5.44348731,4.33255229 C4.83036281,4.33255229 4.33325734,4.82968716 4.33325734,5.44284791 C4.33325734,6.05545352 4.83036281,6.55314353 5.44348731,6.55314353 C6.05661182,6.55314353 6.55371729,6.05545352 6.55371729,5.44284791 C6.55371729,4.82968716 6.05661182,4.33255229 5.44348731,4.33255229 L5.44348731,4.33255229 Z" id="Shape" fill="#000000"></path>
    </g>
</svg>