<?xml version="1.0" encoding="UTF-8"?>
<svg width="20px" height="20px" viewBox="0 0 20 20" version="1.1" xmlns="http://www.w3.org/2000/svg" xmlns:xlink="http://www.w3.org/1999/xlink">
    <!-- Generator: Sketch 51.3 (57544) - http://www.bohemiancoding.com/sketch -->
    <title>icon-help-fill</title>
    <desc>Created with Sketch.</desc>
    <defs></defs>
    <g id="icon-help-fill" stroke="none" stroke-width="1" fill="none" fill-rule="evenodd">
        <path d="M10,19 C5.02943725,19 1,14.9705627 1,10 C1,5.02943725 5.02943725,1 10,1 C14.9705627,1 19,5.02943725 19,10 C19,14.9705627 14.9705627,19 10,19 Z M10,13.75 C9.58592881,13.75 9.25,14.0859288 9.25,14.5 L9.25,15.5 C9.25,15.9140712 9.58592881,16.25 10,16.25 C10.4140712,16.25 10.75,15.9140712 10.75,15.5 L10.75,14.5 C10.75,14.0859288 10.4140712,13.75 10,13.75 Z M7.44602797,7.00840795 C7.70183743,7.25753714 8.10651816,7.24288687 8.34430812,6.97664469 C8.37464531,6.942716 8.3966452,6.91733701 8.4509827,6.85387905 C8.95464189,6.26656725 9.29734347,6.04432624 9.99886636,6.04432624 C10.8637371,6.04432624 11.4898925,6.60350223 11.4898925,7.20921986 C11.4898925,7.72394911 11.3399618,7.93628043 10.5397676,8.63250173 L10.4889962,8.67678221 C9.55678049,9.48871662 9.26904851,10.1297297 9.26904851,11.6028369 C9.26904851,11.9577395 9.54871876,12.25 9.89910225,12.25 C10.2494857,12.25 10.529156,11.9577395 10.529156,11.6028369 C10.529156,10.5063848 10.651035,10.2326065 11.3041712,9.66375587 L11.3545877,9.61981768 C11.4924828,9.49983595 11.5526299,9.44709869 11.626867,9.38045409 C12.4142339,8.67361435 12.75,8.11192852 12.75,7.20921986 C12.75,5.89760772 11.5676754,4.75 9.99886636,4.75 C9.15610945,4.75 8.50302109,5.0313952 7.95979598,5.52006423 C7.80057163,5.66329769 7.69214076,5.78051274 7.50525534,5.9983049 C7.45726301,6.0542769 7.45726301,6.0542769 7.41525018,6.10221413 C7.18354149,6.36169368 7.19684328,6.76510741 7.44602797,7.00840795 Z" id="Shape" fill="#000000" fill-rule="nonzero"></path>
    </g>
</svg>