<?xml version="1.0" encoding="UTF-8"?>
<svg width="20px" height="20px" viewBox="0 0 20 20" version="1.1" xmlns="http://www.w3.org/2000/svg" xmlns:xlink="http://www.w3.org/1999/xlink">
    <!-- Generator: Sketch 52.5 (67469) - http://www.bohemiancoding.com/sketch -->
    <title>icon/certificates</title>
    <desc>Created with Sketch.</desc>
    <g id="icon/certificates" stroke="none" stroke-width="1" fill="none" fill-rule="evenodd">
        <path d="M17.6534496,18.7647299 L2.11022998,18.7647299 C1.49710547,18.7647299 1,18.2673174 1,17.6541567 L1,2.11029562 C1,1.49741244 1.49710547,1 2.11022998,1 L17.6534496,1 C18.2665741,1 18.7636796,1.49741244 18.7636796,2.11029562 L18.7636796,17.6541567 C18.7639572,18.2673174 18.2665741,18.7647299 17.6534496,18.7647299 L17.6534496,18.7647299 Z M14.3230373,15.433843 L14.3230373,13.2132518 L14.3230373,10.9934933 L14.3230373,8.77234689 L14.3230373,6.55175566 L14.3230373,4.33088685 L14.3230373,2.11029562 L2.66562252,2.11029562 C2.35919905,2.11029562 2.11050753,2.35900183 2.11050753,2.66544343 L2.11050753,17.099564 C2.11050753,17.405728 2.35919905,17.6541567 2.66562252,17.6541567 L14.3230373,17.6541567 L14.3230373,15.433843 L14.3230373,15.433843 Z M17.6534496,2.66516585 C17.6534496,2.35872426 17.4050357,2.11001804 17.0983347,2.11001804 L15.4329897,2.11001804 L15.4329897,4.33060928 L16.5432197,4.33060928 L16.5432197,6.55147808 L15.4329897,6.55147808 L15.4329897,8.77206932 L16.5432197,8.77206932 L16.5432197,10.9932157 L15.4329897,10.9932157 L15.4329897,13.2129742 L16.5432197,13.2129742 L16.5432197,15.4335654 L15.4329897,15.4335654 L15.4329897,17.6538791 L17.0983347,17.6538791 C17.4047581,17.6538791 17.6534496,17.4054505 17.6534496,17.0992864 L17.6534496,2.66516585 L17.6534496,2.66516585 Z M4.33096749,4.33060928 L12.1025773,4.33060928 C12.7157018,4.33060928 13.2128073,4.82746656 13.2128073,5.44090489 L13.2128073,8.77206932 C13.2128073,9.3849525 12.7157018,9.88180979 12.1025773,9.88180979 L4.33096749,9.88180979 C3.71784298,9.88180979 3.22073751,9.38467492 3.22073751,8.77206932 L3.22073751,5.44090489 C3.22045995,4.82746656 3.71756542,4.33060928 4.33096749,4.33060928 L4.33096749,4.33060928 Z M4.33096749,8.21747666 C4.33096749,8.52391825 4.579659,8.77234689 4.88608247,8.77234689 L11.5474623,8.77234689 C11.8538858,8.77234689 12.1025773,8.52391825 12.1025773,8.21747666 L12.1025773,5.99633028 C12.1025773,5.68988869 11.8538858,5.44118247 11.5474623,5.44118247 L4.88608247,5.44118247 C4.579659,5.44118247 4.33096749,5.68988869 4.33096749,5.99633028 L4.33096749,8.21747666 L4.33096749,8.21747666 Z M3.77557494,12.1029562 L12.6574148,12.1029562 C12.9638382,12.1029562 13.2125297,12.3516624 13.2125297,12.658104 C13.2125297,12.9648231 12.9638382,13.2129742 12.6574148,13.2129742 L3.77557494,13.2129742 C3.46915147,13.2129742 3.22045995,12.9651007 3.22045995,12.658104 C3.22045995,12.3516624 3.46915147,12.1029562 3.77557494,12.1029562 L3.77557494,12.1029562 Z M3.77557494,14.3232698 L12.6574148,14.3232698 C12.9638382,14.3232698 13.2125297,14.571976 13.2125297,14.8789728 C13.2125297,15.1851368 12.9638382,15.4335654 12.6574148,15.4335654 L3.77557494,15.4335654 C3.46915147,15.4335654 3.22045995,15.1848592 3.22045995,14.8789728 C3.22045995,14.571976 3.46915147,14.3232698 3.77557494,14.3232698 L3.77557494,14.3232698 Z" id="Shape" fill="#000000"></path>
    </g>
</svg>