<?xml version="1.0" encoding="UTF-8"?>
<svg width="20px" height="20px" viewBox="0 0 20 20" version="1.1" xmlns="http://www.w3.org/2000/svg" xmlns:xlink="http://www.w3.org/1999/xlink">
    <!-- Generator: Sketch 52.5 (67469) - http://www.bohemiancoding.com/sketch -->
    <title>icon/sun</title>
    <desc>Created with Sketch.</desc>
    <g id="icon/sun" stroke="none" stroke-width="1" fill="none" fill-rule="evenodd">
        <path d="M16.4327121,10.3826425 L16.4327121,9.27151417 L18.6531721,9.27151417 L18.6531721,10.3826425 L16.4327121,10.3826425 L16.4327121,10.3826425 Z M14.2511102,5.1165104 L15.821253,3.54682997 L16.6064631,4.3315314 L15.0365979,5.90232212 L14.2511102,5.1165104 L14.2511102,5.1165104 Z M10.3264473,14.8241025 C7.56724822,14.8241025 5.33041237,12.5871345 5.33041237,9.82721713 C5.33041237,7.06785494 7.56697066,4.8303317 10.3264473,4.8303317 C13.0859239,4.8303317 15.3224822,7.06785494 15.3224822,9.82721713 C15.3224822,12.587412 13.0856463,14.8241025 10.3264473,14.8241025 L10.3264473,14.8241025 Z M10.3264473,5.94812181 C8.18398097,5.94812181 6.44730373,7.68545688 6.44730373,9.8274947 C6.44730373,11.9698101 8.18398097,13.7068676 10.3264473,13.7068676 C12.4689136,13.7068676 14.2058684,11.9698101 14.2058684,9.8274947 C14.2058684,7.68517931 12.4689136,5.94812181 10.3264473,5.94812181 L10.3264473,5.94812181 Z M9.77133228,1.5 L10.8815623,1.5 L10.8815623,3.72003609 L9.77133228,3.72003609 L9.77133228,1.5 L9.77133228,1.5 Z M4.04559873,4.3315314 L4.83080888,3.54682997 L6.40095163,5.1165104 L5.61574148,5.90204455 L4.04559873,4.3315314 L4.04559873,4.3315314 Z M4.22045995,10.3826425 L2,10.3826425 L2,9.27151417 L4.22045995,9.27151417 L4.22045995,10.3826425 L4.22045995,10.3826425 Z M6.40095163,14.5382014 L4.83080888,16.108437 L4.04532117,15.3229029 L5.61546392,13.7529449 L6.40095163,14.5382014 L6.40095163,14.5382014 Z M10.8815623,18.1544343 L9.77133228,18.1544343 L9.77133228,15.933843 L10.8815623,15.933843 L10.8815623,18.1544343 L10.8815623,18.1544343 Z M16.6064631,15.3229029 L15.821253,16.108437 L14.2513878,14.5382014 L15.0363204,13.7529449 L16.6064631,15.3229029 L16.6064631,15.3229029 Z" id="Shape" fill="#000000"></path>
    </g>
</svg>