<?xml version="1.0" encoding="UTF-8" standalone="no"?>
<svg width="91px" height="36px" viewBox="0 0 91 36" version="1.1" xmlns="http://www.w3.org/2000/svg" xmlns:xlink="http://www.w3.org/1999/xlink" xmlns:sketch="http://www.bohemiancoding.com/sketch/ns">
    <!-- Generator: Sketch 3.4 (15588) - http://www.bohemiancoding.com/sketch -->
    <title>aol</title>
    <desc>Created with Sketch.</desc>
    <defs></defs>
    <g id="Page-1" stroke="none" stroke-width="1" fill="none" fill-rule="evenodd" sketch:type="MSPage">
        <g id="aol" sketch:type="MSLayerGroup" fill="#000000">
            <path d="M49.938,7.75 C58.001,7.75 64.063,14 64.063,21.75 C64.063,29.875 57.75,35.688 49.938,35.688 C42.188,35.688 35.875,29.875 35.875,21.75 C35.875,14 41.938,7.75 49.938,7.75 L49.938,7.75 Z M49.938,15.188 C46.5,15.188 43.625,18.063 43.625,21.751 C43.625,25.376 46.5,28.314 49.938,28.314 C53.438,28.314 56.251,25.376 56.251,21.751 C56.251,18.063 53.438,15.126 49.938,15.188 L49.938,15.188 Z M90.125,30.813 C90.125,28.125 87.937,25.938 85.25,25.938 C82.563,25.938 80.375,28.126 80.375,30.813 C80.375,33.5 82.563,35.688 85.25,35.688 C87.937,35.688 90.125,33.5 90.125,30.813 L90.125,30.813 Z M75.938,34.813 L75.938,0.125 L68.25,0.125 L68.25,34.813 L75.938,34.813 L75.938,34.813 Z M0.688,34.813 L10.501,34.813 L12.126,29.875 L24.251,29.875 L25.876,34.813 L35.626,34.813 L21.876,0.125 L14.688,0.125 L0.688,34.813 Z M21.875,22.688 L18.312,11.063 L14.687,22.688 L21.875,22.688 L21.875,22.688 Z" id="Shape" sketch:type="MSShapeGroup"></path>
        </g>
    </g>
</svg>