<?xml version="1.0" encoding="UTF-8"?>
<svg width="20px" height="20px" viewBox="0 0 20 20" version="1.1" xmlns="http://www.w3.org/2000/svg" xmlns:xlink="http://www.w3.org/1999/xlink">
    <!-- Generator: Sketch 52.3 (67297) - http://www.bohemiancoding.com/sketch -->
    <title>icon/protocol</title>
    <desc>Created with Sketch.</desc>
    <g id="icon/protocol" stroke="none" stroke-width="1" fill="none" fill-rule="evenodd">
        <path d="M16.4329897,18.7650074 L14.2125297,17.099564 L11.9920698,18.7650074 L9.77160983,17.099564 L7.53810468,18.7650074 L5.33068993,17.099564 L3.11022998,18.7650074 L2,18.7650074 L2,1 L17.5432197,1 L17.5432197,18.7650074 L16.4329897,18.7650074 L16.4329897,18.7650074 Z M16.4329897,2.10974047 L3.11022998,2.10974047 L3.11022998,17.6544343 L5.33068993,15.9889908 L7.55114988,17.6544343 L9.77160983,15.9889908 L11.9920698,17.6544343 L14.2125297,15.9889908 L16.4329897,17.6544343 L16.4329897,2.10974047 L16.4329897,2.10974047 Z M11.9920698,12.1029562 L14.2125297,12.1029562 L14.2125297,13.2132518 L11.9920698,13.2132518 L11.9920698,12.1029562 L11.9920698,12.1029562 Z M11.9920698,9.88236493 L14.2125297,9.88236493 L14.2125297,10.9929381 L11.9920698,10.9929381 L11.9920698,9.88236493 L11.9920698,9.88236493 Z M11.9920698,7.66232885 L14.2125297,7.66232885 L14.2125297,8.77151417 L11.9920698,8.77151417 L11.9920698,7.66232885 L11.9920698,7.66232885 Z M5.33096749,4.33088685 L14.2125297,4.33088685 L14.2125297,5.44062732 L5.33096749,5.44062732 L5.33096749,4.33088685 L5.33096749,4.33088685 Z M9.77160983,8.77151417 L5.33096749,8.77151417 L5.33096749,7.66232885 L9.77160983,7.66232885 L9.77160983,8.77151417 L9.77160983,8.77151417 Z M9.77160983,10.9929381 L5.33096749,10.9929381 L5.33096749,9.88236493 L9.77160983,9.88236493 L9.77160983,10.9929381 L9.77160983,10.9929381 Z M9.77160983,13.2132518 L5.33096749,13.2132518 L5.33096749,12.1029562 L9.77160983,12.1029562 L9.77160983,13.2132518 L9.77160983,13.2132518 Z" id="Shape" fill="#000000"></path>
    </g>
</svg>