<?xml version="1.0" encoding="UTF-8"?>
<svg width="20px" height="20px" viewBox="0 0 20 20" version="1.1" xmlns="http://www.w3.org/2000/svg" xmlns:xlink="http://www.w3.org/1999/xlink">
    <!-- Generator: Sketch 52.5 (67469) - http://www.bohemiancoding.com/sketch -->
    <title>icon/login</title>
    <desc>Created with Sketch.</desc>
    <g id="icon/login" stroke="none" stroke-width="1" fill="none" fill-rule="evenodd">
        <path d="M17.6540048,18.6544343 L4.33096749,18.6544343 C3.71812054,18.6544343 3.22101507,18.157577 3.22101507,17.5438611 L3.22101507,14.2129742 L4.33096749,14.2129742 L4.33096749,16.9887133 C4.33096749,17.2951548 4.579659,17.5438611 4.88608247,17.5438611 L17.0986122,17.5438611 C17.4050357,17.5438611 17.6540048,17.2951548 17.6540048,16.9887133 L17.6540048,3.66544343 C17.6540048,3.35844669 17.4053132,3.11001804 17.0986122,3.11001804 L4.88608247,3.11001804 C4.579659,3.11001804 4.33096749,3.35844669 4.33096749,3.66544343 L4.33096749,6.44173761 L3.22101507,6.44173761 L3.22101507,3.11001804 C3.22101507,2.49657971 3.71812054,2 4.33096749,2 L17.6540048,2 C18.2671293,2 18.7639572,2.49657971 18.7639572,3.11001804 L18.7639572,17.5438611 C18.7639572,18.157577 18.2671293,18.6544343 17.6540048,18.6544343 L17.6540048,18.6544343 Z M11.1508327,6.2557631 C10.9393339,6.04425178 10.9393339,5.70117044 11.1508327,5.4888264 C11.3623315,5.27731509 11.7056701,5.27731509 11.9174465,5.4888264 L16.3247819,9.89614485 C16.3292228,9.90030846 16.3311657,9.90641509 16.3364393,9.91030112 C16.3508723,9.92195923 16.3716891,9.9169629 16.3850119,9.93056402 C16.4055511,9.95054934 16.3991673,9.98136004 16.4155432,10.003566 C16.4807692,10.0854503 16.5265662,10.180103 16.5346154,10.2914101 C16.5351705,10.3014028 16.5415543,10.3088972 16.5415543,10.3191675 C16.5415543,10.3222208 16.5434972,10.3241638 16.5434972,10.3269396 C16.5434972,10.3297153 16.5418319,10.332491 16.5418319,10.3352668 C16.5418319,10.3422061 16.5379461,10.3477576 16.5376685,10.3549745 C16.5307296,10.4873773 16.4791039,10.6056238 16.3955591,10.6975007 C16.3891753,10.7049952 16.3919508,10.7158206 16.3847343,10.7235927 C16.378073,10.7302544 16.3669707,10.7274787 16.3597542,10.7338629 C16.3539255,10.7388592 16.3444885,10.7380265 16.3392149,10.7424677 L11.9171689,15.1650527 C11.7053925,15.3760089 11.3620539,15.3760089 11.1505551,15.1650527 C10.9390563,14.9529862 10.9390563,14.6096273 11.1505551,14.398116 L14.6660983,10.8823649 L1.55511499,10.8823649 C1.24869151,10.8823649 1,10.6336587 1,10.326662 C1,10.0202204 1.24869151,9.77151417 1.55511499,9.77151417 L14.6666534,9.77151417 L11.1508327,6.2557631 L11.1508327,6.2557631 Z" id="Shape" fill="#000000"></path>
    </g>
</svg>