<?xml version="1.0" encoding="UTF-8"?>
<svg width="20px" height="20px" viewBox="0 0 20 20" version="1.1" xmlns="http://www.w3.org/2000/svg" xmlns:xlink="http://www.w3.org/1999/xlink">
    <!-- Generator: Sketch 52.5 (67469) - http://www.bohemiancoding.com/sketch -->
    <title>icon/safe</title>
    <desc>Created with Sketch.</desc>
    <g id="icon/safe" stroke="none" stroke-width="1" fill="none" fill-rule="evenodd">
        <path d="M15.4332672,3.22059123 C16.0463918,3.22059123 16.5432197,3.71800367 16.5432197,4.33199715 L16.5432197,15.4343982 C16.5432197,16.0478365 16.0463918,16.5446938 15.4332672,16.5446938 L4.33068993,16.5446938 C3.71756542,16.5446938 3.22073751,16.0478365 3.22073751,15.4343982 L3.22073751,4.33199715 C3.22073751,3.71800367 3.71756542,3.22059123 4.33068993,3.22059123 L15.4332672,3.22059123 L15.4332672,3.22059123 Z M4.33068993,14.8792504 C4.33068993,15.1859695 4.57938144,15.4343982 4.88608247,15.4343982 L14.8781523,15.4343982 C15.1845757,15.4343982 15.4332672,15.1859695 15.4332672,14.8792504 L15.4332672,4.88658981 C15.4332672,4.57987064 15.1845757,4.33199715 14.8781523,4.33199715 L4.88608247,4.33199715 C4.57938144,4.33199715 4.33068993,4.57987064 4.33068993,4.88658981 L4.33068993,14.8792504 L4.33068993,14.8792504 Z M9.88211737,5.44201519 C12.3346154,5.44201519 14.3230373,7.42999949 14.3230373,9.88292008 C14.3230373,12.3358407 12.3346154,14.323825 9.88211737,14.323825 C7.42934179,14.323825 5.44119746,12.3358407 5.44119746,9.88292008 C5.44119746,7.42999949 7.42934179,5.44201519 9.88211737,5.44201519 L9.88211737,5.44201519 Z M9.88211737,13.2138069 C11.7214909,13.2138069 13.2125297,11.7224023 13.2125297,9.88292008 C13.2125297,8.04371539 11.7214909,6.55258838 9.88211737,6.55258838 C8.0424663,6.55258838 6.55142744,8.04371539 6.55142744,9.88292008 C6.55142744,11.7224023 8.0424663,13.2138069 9.88211737,13.2138069 L9.88211737,13.2138069 Z M16.5432197,18.765285 L3.22073751,18.765285 C1.99421094,18.765285 1,17.7710153 1,16.5446938 L1,13.2138069 L2.11050753,13.2138069 L2.11050753,16.5446938 C2.11050753,17.1581321 2.60733545,17.655267 3.22073751,17.655267 L16.5432197,17.655267 C17.1566217,17.655267 17.6537272,17.1581321 17.6537272,16.5446938 L17.6537272,3.22059123 C17.6537272,2.60770805 17.1566217,2.11057319 16.5432197,2.11057319 L3.22073751,2.11057319 C2.60733545,2.11057319 2.11050753,2.60770805 2.11050753,3.22059123 L2.11050753,6.55258838 L1,6.55258838 L1,3.22059123 C1,1.99482487 1.99421094,1 3.22073751,1 L16.5432197,1 C17.7697462,1 18.7636796,1.99482487 18.7636796,3.22059123 L18.7636796,16.5446938 C18.7636796,17.7710153 17.7697462,18.765285 16.5432197,18.765285 L16.5432197,18.765285 Z M2.11050753,10.9926606 L1,10.9926606 L1,8.77290204 L2.11050753,8.77290204 L2.11050753,10.9926606 L2.11050753,10.9926606 Z" id="Shape" fill="#000000"></path>
    </g>
</svg>