<?xml version="1.0" encoding="UTF-8"?>
<svg width="20px" height="20px" viewBox="0 0 20 20" version="1.1" xmlns="http://www.w3.org/2000/svg" xmlns:xlink="http://www.w3.org/1999/xlink">
    <!-- Generator: Sketch 52.5 (67469) - http://www.bohemiancoding.com/sketch -->
    <title>icon/external-link</title>
    <desc>Created with Sketch.</desc>
    <g id="icon/external-link" stroke="none" stroke-width="1" fill="none" fill-rule="evenodd">
        <path d="M18.6226408,2.55752384 L18.657613,8.09484566 C18.6587232,8.38380009 18.4097542,8.61807246 18.1016653,8.61973791 C17.793299,8.62140335 17.5421094,8.38824127 17.5407216,8.09956441 L17.5143537,3.87877562 L8.4834655,12.943229 C8.27168914,13.1561282 7.92668517,13.1577937 7.71324346,12.9465599 C7.49952419,12.7353262 7.4981364,12.3919673 7.70991277,12.1793457 L16.7346947,3.12016614 L12.4863997,3.14653567 C12.1969072,3.14820111 11.9609833,2.90060519 11.9598731,2.59333087 C11.9584853,2.28661171 12.1921887,2.03651762 12.4819588,2.03485218 L18.0589215,2.00071059 C18.0600317,2.00071059 18.061142,2.00015544 18.0622522,2.00015544 C18.06364,1.99960029 18.0650278,2.00071059 18.0664155,2.00071059 L18.0966693,2.00071059 C18.22046,2.00015544 18.32954,2.05178419 18.4194687,2.12700672 C18.4333466,2.13810967 18.4497224,2.14532659 18.4622125,2.15753985 C18.4730373,2.1686428 18.4796987,2.18335422 18.4899683,2.1952899 C18.5682395,2.28466869 18.6223632,2.39486553 18.6229183,2.51949622 L18.6229183,2.55030692 C18.6229183,2.55141722 18.623751,2.55252751 18.623751,2.55391538 C18.623751,2.55530325 18.6226408,2.55641355 18.6226408,2.55752384 L18.6226408,2.55752384 Z M3.11022998,4.77006543 L3.11022998,16.9838724 C3.11022998,17.2900364 3.35864393,17.5387426 3.66534496,17.5387426 L15.8775971,17.5387426 C16.1842982,17.5387426 16.4327121,17.2900364 16.4327121,16.9838724 L16.4327121,9.76639571 L17.5432197,9.76639571 L17.5432197,17.5387426 C17.5432197,18.1516258 17.0458366,18.6490382 16.4327121,18.6490382 L3.11022998,18.6490382 C2.49682791,18.6490382 2,18.1516258 2,17.5387426 L2,4.2151952 C2,3.60175687 2.49682791,3.10462201 3.11022998,3.10462201 L10.8815623,3.10462201 L10.8815623,4.2151952 L3.66534496,4.2151952 C3.35864393,4.2151952 3.11022998,4.46362384 3.11022998,4.77006543 L3.11022998,4.77006543 Z" id="Shape" fill="#000000"></path>
    </g>
</svg>