<?xml version="1.0" encoding="UTF-8"?>
<svg width="20px" height="20px" viewBox="0 0 20 20" version="1.1" xmlns="http://www.w3.org/2000/svg" xmlns:xlink="http://www.w3.org/1999/xlink">
    <!-- Generator: Sketch 52.5 (67469) - http://www.bohemiancoding.com/sketch -->
    <title>icon/address-book</title>
    <desc>Created with Sketch.</desc>
    <g id="icon/address-book" stroke="none" stroke-width="1" fill="none" fill-rule="evenodd">
        <path d="M16.4329897,18.7647299 L4.22045995,18.7647299 C3.60733545,18.7647299 3.11022998,18.2678726 3.11022998,17.6544343 L3.11022998,15.4341206 L2.55511499,15.4341206 C2.24869151,15.4341206 2,15.1854144 2,14.8786952 C2,14.571976 2.24869151,14.3232698 2.55511499,14.3232698 L3.11022998,14.3232698 L3.11022998,12.1029562 L2.55511499,12.1029562 C2.24869151,12.1029562 2,11.8545275 2,11.5483635 C2,11.2410892 2.24869151,10.9926606 2.55511499,10.9926606 L3.11022998,10.9926606 L3.11022998,8.77206932 L2.55511499,8.77206932 C2.24869151,8.77206932 2,8.52364067 2,8.21664393 C2,7.91047992 2.24869151,7.6617737 2.55511499,7.6617737 L3.11022998,7.6617737 L3.11022998,5.44146004 L2.55511499,5.44146004 C2.24869151,5.44146004 2,5.19275382 2,4.88603466 C2,4.57959307 2.24869151,4.33088685 2.55511499,4.33088685 L3.11022998,4.33088685 L3.11022998,2.10974047 C3.11022998,1.49713486 3.60733545,1 4.22045995,1 L16.4329897,1 C17.0461142,1 17.5432197,1.49713486 17.5432197,2.10974047 L17.5432197,17.6544343 C17.5432197,18.2678726 17.0458366,18.7647299 16.4329897,18.7647299 L16.4329897,18.7647299 Z M13.1022998,2.10974047 L4.77557494,2.10974047 C4.46887391,2.10974047 4.22045995,2.35872426 4.22045995,2.66516585 L4.22045995,4.33088685 L4.77557494,4.33088685 C5.08199841,4.33088685 5.33068993,4.57959307 5.33068993,4.88603466 C5.33068993,5.19275382 5.08199841,5.44146004 4.77557494,5.44146004 L4.22045995,5.44146004 L4.22045995,7.6617737 L4.77557494,7.6617737 C5.08199841,7.6617737 5.33068993,7.91047992 5.33068993,8.21664393 C5.33068993,8.52364067 5.08199841,8.77206932 4.77557494,8.77206932 L4.22045995,8.77206932 L4.22045995,10.9926606 L4.77557494,10.9926606 C5.08199841,10.9926606 5.33068993,11.2410892 5.33068993,11.5483635 C5.33068993,11.8548051 5.08199841,12.1029562 4.77557494,12.1029562 L4.22045995,12.1029562 L4.22045995,14.3232698 L4.77557494,14.3232698 C5.08199841,14.3232698 5.33068993,14.571976 5.33068993,14.8786952 C5.33068993,15.1854144 5.08199841,15.4341206 4.77557494,15.4341206 L4.22045995,15.4341206 L4.22045995,17.0987313 C4.22045995,17.4060056 4.46887391,17.6544343 4.77557494,17.6544343 L13.1022998,17.6544343 L13.1022998,2.10974047 L13.1022998,2.10974047 Z M16.4329897,2.66516585 C16.4329897,2.35872426 16.1842982,2.10974047 15.8778747,2.10974047 L14.2125297,2.10974047 L14.2125297,17.6544343 L15.8778747,17.6544343 C16.1845757,17.6544343 16.4329897,17.4060056 16.4329897,17.0987313 L16.4329897,2.66516585 L16.4329897,2.66516585 Z" id="Shape" fill="#000000"></path>
    </g>
</svg>