<?xml version="1.0" encoding="UTF-8"?>
<svg width="20px" height="20px" viewBox="0 0 20 20" version="1.1" xmlns="http://www.w3.org/2000/svg" xmlns:xlink="http://www.w3.org/1999/xlink">
    <!-- Generator: Sketch 54.1 (76490) - https://sketchapp.com -->
    <title>icon/page-minus</title>
    <desc>Created with Sketch.</desc>
    <g id="icon/page-minus" stroke="none" stroke-width="1" fill="none" fill-rule="evenodd">
        <path d="M17.4329897,5.44312548 L17.4329897,18.2098596 C17.4329897,18.5165788 17.1842982,18.7650074 16.8778747,18.7650074 L3.55511499,18.7650074 C3.24869151,18.7650074 3,18.5165788 3,18.2098596 L3,1.55570296 C3,1.24842864 3.24869151,1 3.55511499,1 L12.9920698,1 L12.9920698,1.00138787 L12.9920698,1.0011103 L17.4316019,5.44146004 L17.4329897,5.44146004 L17.4329897,5.44257034 L17.4329897,5.44312548 L17.4329897,5.44312548 L17.4329897,5.44312548 Z M12.9917922,2.36816177 L12.9917922,5.44146004 L16.0651864,5.44146004 L12.9917922,2.36816177 L12.9917922,2.36816177 Z M16.3227597,6.55175566 L12.9920698,6.55175566 L11.8818398,6.55175566 L11.8818398,5.44146004 L11.8818398,2.11029562 L4.66534496,2.11029562 C4.35864393,2.11029562 4.11022998,2.35872426 4.11022998,2.665721 L4.11022998,17.0990089 C4.11022998,17.4062832 4.35864393,17.6544343 4.66534496,17.6544343 L15.7676447,17.6544343 C16.0740682,17.6544343 16.3227597,17.4062832 16.3227597,17.0990089 L16.3227597,6.55175566 L16.3227597,6.55175566 Z M7.44064235,9.88264251 L12.9917922,9.88264251 L12.9917922,10.9929381 L7.44064235,10.9929381 L7.44064235,9.88264251 L7.44064235,9.88264251 Z" id="Shape" fill="#000000"></path>
    </g>
</svg>