<?xml version="1.0" encoding="UTF-8"?>
<svg width="20px" height="20px" viewBox="0 0 20 20" version="1.1" xmlns="http://www.w3.org/2000/svg" xmlns:xlink="http://www.w3.org/1999/xlink">
    <!-- Generator: Sketch 52.5 (67469) - http://www.bohemiancoding.com/sketch -->
    <title>icon/globe</title>
    <desc>Created with Sketch.</desc>
    <g id="icon/globe" stroke="none" stroke-width="1" fill="none" fill-rule="evenodd">
        <path d="M9.88183981,18.7638971 C4.97656622,18.7638971 1,14.787651 1,9.88208736 C1,4.97680133 4.97656622,1 9.88183981,1 C14.7871134,1 18.7636796,4.97680133 18.7636796,9.88208736 C18.7636796,14.787651 14.7871134,18.7638971 9.88183981,18.7638971 L9.88183981,18.7638971 Z M15.8088025,14.8784176 L14.9097938,14.8784176 C14.302498,14.7113181 13.5586439,14.5753069 12.7251388,14.4792664 C12.4498017,15.6811614 12.0739889,16.7026333 11.6243458,17.4412575 C13.2885805,17.0590382 14.7413164,16.1363826 15.8088025,14.8784176 L15.8088025,14.8784176 Z M9.88183981,17.6541567 C10.6268041,17.6541567 11.2818398,16.3598296 11.6848533,14.3904427 C11.1075337,14.3504721 10.5110626,14.3227147 9.88183981,14.3227147 C9.25289453,14.3227147 8.65614592,14.3507496 8.07910389,14.3904427 C8.48183981,16.3598296 9.13715305,17.6541567 9.88183981,17.6541567 L9.88183981,17.6541567 Z M12.1025773,9.88208736 L12.1025773,9.88208736 L7.66165741,9.88208736 L7.66165741,9.88208736 C7.66165741,11.118124 7.7518636,12.2706108 7.89841396,13.3081821 C8.53402062,13.2498915 9.1943299,13.2129742 9.88211737,13.2129742 C10.5699048,13.2129742 11.2302141,13.2498915 11.8658208,13.3081821 C12.0123711,12.2708884 12.1025773,11.118124 12.1025773,9.88208736 L12.1025773,9.88208736 Z M12.0703807,8.77179174 C12.0365186,7.94656453 11.9604679,7.1746315 11.8588818,6.45377207 C11.2260508,6.51345046 10.5674068,6.55064536 9.88183981,6.55064536 C9.1962728,6.55064536 8.53790642,6.51345046 7.90479778,6.45377207 C7.80348929,7.1746315 7.72716098,7.94656453 7.69329897,8.77179174 L12.0703807,8.77179174 L12.0703807,8.77179174 Z M8.13988898,17.4415351 C7.68996828,16.7029109 7.31415543,15.6814389 7.03909596,14.4795439 C6.20586836,14.5755845 5.46201427,14.7115957 4.85444092,14.8786952 L3.95515464,14.8786952 C5.02264076,16.1363826 6.47509913,17.0590382 8.13988898,17.4415351 L8.13988898,17.4415351 Z M2.11050753,9.88208736 C2.11050753,11.5525271 2.65868358,13.0811266 3.55658208,14.344643 C4.39369548,13.9457693 5.51891356,13.6304454 6.83370341,13.4355885 C6.65440127,12.3466661 6.55114988,11.1486571 6.55114988,9.88208736 L6.55114988,9.88208736 L2.11050753,9.88208736 L2.11050753,9.88208736 L2.11050753,9.88208736 Z M3.57712133,5.38455739 C2.87462331,6.36911203 2.38750991,7.51799042 2.20681998,8.77179174 L6.57862807,8.77179174 C6.61915147,7.90825933 6.711023,7.09052661 6.83758921,6.32331233 C5.52141158,6.12207125 4.40035686,5.79536677 3.57712133,5.38455739 L3.57712133,5.38455739 Z M3.97347343,4.88547951 L4.92660587,4.88547951 C5.51530531,5.04952569 6.23612213,5.18276116 7.0407613,5.27880173 C7.31526566,4.07857217 7.69052339,3.05987594 8.13961142,2.32208451 C6.47759715,2.70430377 5.03596352,3.62890245 3.97347343,4.88547951 L3.97347343,4.88547951 Z M9.88183981,2.10974047 C9.1388184,2.10974047 8.49072165,3.4071209 8.09048374,5.37234414 C8.66363997,5.41286993 9.25650278,5.44146004 9.88183981,5.44146004 C10.5074544,5.44146004 11.1000397,5.41259235 11.6731959,5.37234414 C11.272958,3.4071209 10.6251388,2.10974047 9.88183981,2.10974047 L9.88183981,2.10974047 Z M11.6240682,2.32208451 C12.0731562,3.05987594 12.448414,4.07857217 12.7226408,5.27880173 C13.5272799,5.18276116 14.2483743,5.04952569 14.8370738,4.88547951 L15.7902062,4.88547951 C14.7277161,3.62890245 13.28636,2.70430377 11.6240682,2.32208451 L11.6240682,2.32208451 Z M16.1865583,5.38455739 C15.3633228,5.79536677 14.242268,6.12207125 12.9260904,6.32331233 C13.0529342,7.09080418 13.1445282,7.90825933 13.1850515,8.77179174 L17.5568596,8.77179174 C17.3761697,7.51799042 16.8893339,6.36911203 16.1865583,5.38455739 L16.1865583,5.38455739 Z M13.2125297,9.88208736 L13.2125297,9.88208736 C13.2125297,11.1486571 13.1098335,12.3466661 12.9299762,13.4355885 C14.2447661,13.6304454 15.3702617,13.9460469 16.2073751,14.344643 C17.1052736,13.0811266 17.6534496,11.5522495 17.6534496,9.88208736 C17.6534496,9.88208736 17.6534496,9.88208736 17.6534496,9.88153221 L17.6534496,9.88208736 L13.2125297,9.88208736 L13.2125297,9.88208736 Z" id="Shape" fill="#000000"></path>
    </g>
</svg>