<?xml version="1.0" encoding="UTF-8"?>
<svg width="20px" height="20px" viewBox="0 0 20 20" version="1.1" xmlns="http://www.w3.org/2000/svg" xmlns:xlink="http://www.w3.org/1999/xlink">
    <!-- Generator: Sketch 54.1 (76490) - https://sketchapp.com -->
    <title>icon/eye</title>
    <desc>Created with Sketch.</desc>
    <g id="icon/eye" stroke="none" stroke-width="1" fill="none" fill-rule="evenodd">
        <path d="M10,3.5 C13.6666667,3.5 16.6666667,5.66666667 19,10 C16.6666667,14.3333333 13.6666667,16.5 10,16.5 C6.33333333,16.5 3.33333333,14.3333333 1,10 C3.33333333,5.66666667 6.33333333,3.5 10,3.5 Z M10,4.6 C6.92279339,4.6 4.36157623,6.35099114 2.25894508,10 C4.36157623,13.6490089 6.92279339,15.4 10,15.4 C13.0772066,15.4 15.6384238,13.6490089 17.7410549,10 C15.6384238,6.35099114 13.0772066,4.6 10,4.6 Z M10,13.5 C8.06700338,13.5 6.5,11.9329966 6.5,10 C6.5,8.06700338 8.06700338,6.5 10,6.5 C11.9329966,6.5 13.5,8.06700338 13.5,10 C13.5,11.9329966 11.9329966,13.5 10,13.5 Z M10,12.4 C11.3254834,12.4 12.4,11.3254834 12.4,10 C12.4,8.6745166 11.3254834,7.6 10,7.6 C8.6745166,7.6 7.6,8.6745166 7.6,10 C7.6,11.3254834 8.6745166,12.4 10,12.4 Z" id="Shape" fill="#000000"></path>
    </g>
</svg>