<?xml version="1.0" encoding="UTF-8"?>
<svg width="20px" height="20px" viewBox="0 0 20 20" version="1.1" xmlns="http://www.w3.org/2000/svg" xmlns:xlink="http://www.w3.org/1999/xlink">
    <!-- Generator: Sketch 52.5 (67469) - http://www.bohemiancoding.com/sketch -->
    <title>icon/cloud-sun</title>
    <desc>Created with Sketch.</desc>
    <g id="icon/cloud-sun" stroke="none" stroke-width="1" fill="none" fill-rule="evenodd">
        <path d="M12.1022998,18.6538791 L5.99603489,18.6538791 C3.23683584,18.6538791 1,16.4177437 1,13.6583815 C1,12.694645 1.28588422,11.8025224 1.75856463,11.0394718 C1.27894528,10.1687224 1,9.17167696 1,8.10690347 C1,4.73410296 3.73394132,2 7.10626487,2 C9.49131642,2 11.5352498,3.38120775 12.5402855,5.37529867 C16.011142,5.60485229 18.7636796,8.46414108 18.7636796,11.9926606 C18.7634021,15.6716251 15.7810468,18.6538791 12.1022998,18.6538791 L12.1022998,18.6538791 Z M7.10626487,3.11085076 C4.34706582,3.11085076 2.11022998,5.34698614 2.11022998,8.10690347 C2.11022998,8.80833272 2.26927042,9.46646045 2.53128469,10.069351 C3.43001586,9.20165494 4.64793814,8.6617737 5.99603489,8.6617737 C6.1128866,8.6617737 6.22252181,8.6884208 6.33743061,8.69619286 C7.36217288,6.92638165 9.17323553,5.67008216 11.3023791,5.41193843 C10.41364,4.03045311 8.87069786,3.11085076 7.10626487,3.11085076 L7.10626487,3.11085076 Z M12.1022998,6.44146004 C9.77498017,6.44146004 7.78850119,7.87734985 6.96360032,9.9083581 C6.65245837,9.82869439 6.33215702,9.77206932 5.99603489,9.77206932 C3.84996035,9.77206932 2.11022998,11.5119025 2.11022998,13.6583815 C2.11022998,15.6141673 3.56019033,17.2166014 5.4409199,17.4880687 L5.4409199,17.5441386 L13.2125297,17.5441386 L13.2125297,17.4322764 C15.7460745,16.9179319 17.6534496,14.6790208 17.6534496,11.9926606 C17.6534496,8.92741193 15.1679223,6.44146004 12.1022998,6.44146004 L12.1022998,6.44146004 Z" id="Shape" fill="#000000"></path>
    </g>
</svg>