<?xml version="1.0" encoding="UTF-8"?>
<svg width="20px" height="20px" viewBox="0 0 20 20" version="1.1" xmlns="http://www.w3.org/2000/svg" xmlns:xlink="http://www.w3.org/1999/xlink">
    <!-- Generator: Sketch 52.5 (67469) - http://www.bohemiancoding.com/sketch -->
    <title>icon/paint-brush</title>
    <desc>Created with Sketch.</desc>
    <g id="icon/paint-brush" stroke="none" stroke-width="1" fill="none" fill-rule="evenodd">
        <path d="M18.3206582,4.66776279 L9.94314036,13.034673 C9.89484536,13.0829708 9.83378271,13.1054543 9.77993656,13.1432044 C10.0125297,13.7977236 10.1135607,14.5618846 9.77188739,15.3005088 C8.49734338,18.0504334 2,17.5149934 2,17.5149934 C5.33068993,15.8537136 2.36554322,13.7671905 4.22045995,11.9760061 C5.39369548,10.843227 6.57498017,10.7463537 7.44678826,10.9156738 C7.49286281,10.8385083 7.53005551,10.7571791 7.59639175,10.6902838 L9.16098335,9.12809786 L9.16098335,9.12782029 L9.94314036,8.34700489 L9.94341792,8.34700489 L15.9741872,2.32392875 C16.4063442,1.89202375 17.1063442,1.89202375 17.5385012,2.32392875 L18.3206582,3.10502171 C18.7525377,3.53637156 18.7525377,4.23558022 18.3206582,4.66776279 L18.3206582,4.66776279 Z M7.59639175,12.25358 C7.42125297,12.078986 7.33604282,11.8569269 7.30301348,11.6293163 C6.81950833,11.5724137 6.1425456,11.720083 5.33068993,12.5303212 C3.91542427,13.9428948 5.33068993,15.3005088 4.22045995,16.4074735 C4.22045995,16.4074735 7.82981761,16.544595 8.66137986,15.3005088 C9.13572561,14.5899196 9.09381443,13.8887679 8.90118953,13.3078057 C8.71078509,13.2614509 8.52731959,13.1828975 8.37854877,13.034673 L7.59639175,12.25358 L7.59639175,12.25358 Z M8.76990484,11.0813854 C8.55396511,11.2965052 8.55396511,11.647081 8.76990484,11.8624784 C8.98584457,12.0787085 9.33612213,12.0787085 9.55206186,11.8624784 L10.7255749,10.6908389 L9.94341792,9.9094684 L8.76990484,11.0813854 L8.76990484,11.0813854 Z M17.1471451,3.4955682 C16.9312054,3.27933812 16.5809278,3.27933812 16.3649881,3.4955682 L10.7255749,9.12782029 L11.507732,9.9094684 L17.1471451,4.27693874 C17.3633624,4.06070866 17.3633624,3.71124312 17.1471451,3.4955682 L17.1471451,3.4955682 Z" id="Shape" fill="#000000"></path>
    </g>
</svg>