<?xml version="1.0" encoding="UTF-8"?>
<svg width="20px" height="20px" viewBox="0 0 20 20" version="1.1" xmlns="http://www.w3.org/2000/svg" xmlns:xlink="http://www.w3.org/1999/xlink">
    <!-- Generator: Sketch 52.5 (67469) - http://www.bohemiancoding.com/sketch -->
    <title>icon/map-marker</title>
    <desc>Created with Sketch.</desc>
    <g id="icon/map-marker" stroke="none" stroke-width="1" fill="none" fill-rule="evenodd">
        <path d="M3.5,7.6617737 C3.5,3.98225403 6.48235527,1 10.1613799,1 C13.8404044,1 16.8227597,3.98225403 16.8227597,7.6617737 C16.8227597,11.3407382 10.1613799,18.7641747 10.1613799,18.7641747 C10.1613799,18.7641747 3.5,11.3407382 3.5,7.6617737 L3.5,7.6617737 Z M10.1613799,2.11029562 C7.10047581,2.11029562 4.61022998,4.60096626 4.61022998,7.6617737 C4.61022998,9.77827472 7.73691515,14.1939204 10.1613799,17.0706963 C12.5858446,14.1939204 15.7125297,9.77827472 15.7125297,7.6617737 C15.7125297,4.60096626 13.2222839,2.11029562 10.1613799,2.11029562 L10.1613799,2.11029562 Z M7.94064235,6.54953507 C7.94064235,5.32349113 8.93485329,4.32894383 10.1611023,4.32894383 C11.3873513,4.32894383 12.3815623,5.32349113 12.3815623,6.54953507 C12.3815623,7.77613415 11.3873513,8.76984873 10.1611023,8.76984873 C8.93485329,8.76984873 7.94064235,7.77613415 7.94064235,6.54953507 L7.94064235,6.54953507 Z M11.2716098,6.55147808 C11.2716098,5.93803976 10.7745044,5.44118247 10.1613799,5.44118247 C9.54825535,5.44118247 9.05114988,5.93803976 9.05114988,6.55147808 C9.05114988,7.16463884 9.54825535,7.66149613 10.1613799,7.66149613 C10.7745044,7.66149613 11.2716098,7.16463884 11.2716098,6.55147808 L11.2716098,6.55147808 Z" id="Shape" fill="#000000"></path>
    </g>
</svg>