<?xml version="1.0" encoding="UTF-8"?>
<svg width="20px" height="20px" viewBox="0 0 20 20" version="1.1" xmlns="http://www.w3.org/2000/svg" xmlns:xlink="http://www.w3.org/1999/xlink">
    <!-- Generator: Sketch 52.5 (67469) - http://www.bohemiancoding.com/sketch -->
    <title>icon/heart</title>
    <desc>Created with Sketch.</desc>
    <g id="icon/heart" stroke="none" stroke-width="1" fill="none" fill-rule="evenodd">
        <path d="M9.88183981,18.7697262 C9.88183981,18.7697262 1,9.49514934 1,6.20145739 C1,2.69569898 2.6239889,1 5.99603489,1 C7.66137986,1 9.88183981,3.86567299 9.88183981,3.86567299 C9.88183981,3.86567299 12.1022998,1 13.7679223,1 C17.1399683,1 18.7639572,2.69569898 18.7639572,6.20145739 C18.7639572,9.49514934 9.88183981,18.7697262 9.88183981,18.7697262 L9.88183981,18.7697262 Z M13.7679223,2.14610265 C12.8925059,2.14610265 9.88183981,5.01094292 9.88183981,5.01094292 C9.88183981,5.01094292 6.87145123,2.14610265 5.99603489,2.14610265 C3.04532117,2.14610265 2.11050753,3.39740581 2.11050753,6.35467819 C2.11050753,9.13402569 9.88183981,17.0493231 9.88183981,17.0493231 C9.88183981,17.0493231 17.6537272,9.13374811 17.6537272,6.35467819 C17.6537272,3.39740581 16.718636,2.14610265 13.7679223,2.14610265 L13.7679223,2.14610265 Z" id="Shape" fill="#000000"></path>
    </g>
</svg>