<?xml version="1.0" encoding="UTF-8"?>
<svg width="20px" height="20px" viewBox="0 0 20 20" version="1.1" xmlns="http://www.w3.org/2000/svg" xmlns:xlink="http://www.w3.org/1999/xlink">
    <!-- Generator: Sketch 51.3 (57544) - http://www.bohemiancoding.com/sketch -->
    <title>buddicons/notes</title>
    <desc>Created with Sketch.</desc>
    <defs>
        <path d="M14.4329897,14.4335654 L3.33068993,14.4335654 C2.71756542,14.4335654 2.22045995,13.9372633 2.22045995,13.3235474 L2.22045995,1.11029562 C2.22045995,0.496857288 2.71756542,0 3.33068993,0 L14.4329897,0 C15.0461142,0 15.5432197,0.496857288 15.5432197,1.11029562 L15.5432197,13.3235474 C15.5432197,13.9375409 15.0461142,14.4335654 14.4329897,14.4335654 L14.4329897,14.4335654 Z M14.4329897,1.665721 C14.4329897,1.35900183 14.1845757,1.11057319 13.8778747,1.11057319 L3.88580492,1.11057319 C3.57938144,1.11057319 3.33068993,1.35900183 3.33068993,1.665721 L3.33068993,12.7686772 C3.33068993,13.0748412 3.57938144,13.323825 3.88580492,13.323825 L13.8778747,13.323825 C14.1845757,13.323825 14.4329897,13.0751188 14.4329897,12.7686772 L14.4329897,1.665721 L14.4329897,1.665721 Z M12.7676447,11.1032337 L4.99603489,11.1032337 C4.68933386,11.1032337 4.4409199,10.8545275 4.4409199,10.5475308 C4.4409199,10.2410892 4.68961142,9.99238298 4.99603489,9.99238298 L12.7676447,9.99238298 C13.0740682,9.99238298 13.3227597,10.2410892 13.3227597,10.5475308 C13.3227597,10.8545275 13.0743458,11.1032337 12.7676447,11.1032337 L12.7676447,11.1032337 Z M12.7676447,7.77206932 L4.99603489,7.77206932 C4.68933386,7.77206932 4.4409199,7.5233631 4.4409199,7.21692151 C4.4409199,6.91047992 4.68961142,6.6617737 4.99603489,6.6617737 L12.7676447,6.6617737 C13.0740682,6.6617737 13.3227597,6.91047992 13.3227597,7.21692151 C13.3227597,7.5233631 13.0743458,7.77206932 12.7676447,7.77206932 L12.7676447,7.77206932 Z M9.4369548,4.44118247 L4.99603489,4.44118247 C4.68933386,4.44118247 4.4409199,4.19275382 4.4409199,3.88631223 C4.4409199,3.57959307 4.68961142,3.33116442 4.99603489,3.33116442 L9.4369548,3.33116442 C9.74337827,3.33116442 9.99206979,3.57959307 9.99206979,3.88631223 C9.99206979,4.19275382 9.74365583,4.44118247 9.4369548,4.44118247 L9.4369548,4.44118247 Z M13.3227597,16.6547118 L1.11022998,16.6547118 C0.497105472,16.6547118 0,16.157577 0,15.5441386 L0,3.33116442 C0,2.71800367 0.497105472,2.22142396 1.11022998,2.22142396 L1.11022998,15.5441386 L14.4329897,15.5441386 C14.4329897,16.157577 13.9358842,16.6547118 13.3227597,16.6547118 L13.3227597,16.6547118 Z" id="path-1"></path>
    </defs>
    <g id="buddicons/notes" stroke="none" stroke-width="1" fill="none" fill-rule="evenodd">
        <g id="color/black" transform="translate(2.000000, 2.000000)">
            <mask id="mask-2" fill="white">
                <use xlink:href="#path-1"></use>
            </mask>
            <use id="Mask" fill="#000000" xlink:href="#path-1"></use>
            <g id="color/gray-900" mask="url(#mask-2)" fill="#212121">
                <g transform="translate(-2.000000, -2.000000)" id="Rectangle">
                    <rect x="0" y="0" width="20" height="20"></rect>
                </g>
            </g>
        </g>
    </g>
</svg>