<?xml version="1.0" encoding="UTF-8"?>
<svg width="20px" height="20px" viewBox="0 0 20 20" version="1.1" xmlns="http://www.w3.org/2000/svg" xmlns:xlink="http://www.w3.org/1999/xlink">
    <!-- Generator: Sketch 52.5 (67469) - http://www.bohemiancoding.com/sketch -->
    <title>icon/bars</title>
    <desc>Created with Sketch.</desc>
    <g id="icon/bars" stroke="none" stroke-width="1" fill="none" fill-rule="evenodd">
        <path d="M16.5432197,18.765285 C15.3169707,18.765285 14.3227597,17.7710153 14.3227597,16.5444162 L14.3227597,7.66260642 C14.3227597,6.43545219 15.3169707,5.44146004 16.5432197,5.44146004 C17.7694687,5.44146004 18.7636796,6.43545219 18.7636796,7.66260642 L18.7636796,16.5444162 C18.7636796,17.7710153 17.7694687,18.765285 16.5432197,18.765285 L16.5432197,18.765285 Z M17.6534496,7.66260642 C17.6534496,7.04889052 17.1563442,6.55175566 16.5432197,6.55175566 C15.9300952,6.55175566 15.4329897,7.04889052 15.4329897,7.66260642 L15.4329897,16.5444162 C15.4329897,17.1578545 15.9300952,17.6549894 16.5432197,17.6549894 C17.1563442,17.6549894 17.6534496,17.1578545 17.6534496,16.5444162 L17.6534496,7.66260642 L17.6534496,7.66260642 Z M9.88211737,18.765285 C8.65586836,18.765285 7.66165741,17.7710153 7.66165741,16.5444162 L7.66165741,3.22059123 C7.66165741,1.9945473 8.65586836,1 9.88211737,1 C11.1083664,1 12.1025773,1.9945473 12.1025773,3.22059123 L12.1025773,16.5444162 C12.1022998,17.7710153 11.1080888,18.765285 9.88211737,18.765285 L9.88211737,18.765285 Z M10.9920698,3.22059123 C10.9920698,2.60715291 10.4949643,2.11057319 9.88183981,2.11057319 C9.26871531,2.11057319 8.77160983,2.60715291 8.77160983,3.22059123 L8.77160983,16.5444162 C8.77160983,17.1578545 9.26871531,17.6549894 9.88183981,17.6549894 C10.4946868,17.6549894 10.9920698,17.1578545 10.9920698,16.5444162 L10.9920698,3.22059123 L10.9920698,3.22059123 Z M3.22045995,18.765285 C1.99421094,18.765285 1,17.7710153 1,16.5444162 L1,12.1026786 C1,10.8774674 1.99421094,9.88292008 3.22045995,9.88292008 C4.44670896,9.88292008 5.4409199,10.8774674 5.4409199,12.1026786 L5.4409199,16.5444162 C5.44119746,17.7710153 4.44670896,18.765285 3.22045995,18.765285 L3.22045995,18.765285 Z M4.33096749,12.1026786 C4.33096749,11.490073 3.83386201,10.9929381 3.22073751,10.9929381 C2.60761301,10.9929381 2.11050753,11.490073 2.11050753,12.1026786 L2.11050753,16.5444162 C2.11050753,17.1578545 2.60761301,17.6549894 3.22073751,17.6549894 C3.83386201,17.6549894 4.33096749,17.1578545 4.33096749,16.5444162 L4.33096749,12.1026786 L4.33096749,12.1026786 Z" id="Shape" fill="#000000"></path>
    </g>
</svg>