<?xml version="1.0" encoding="UTF-8"?>
<svg width="20px" height="20px" viewBox="0 0 20 20" version="1.1"
  xmlns="http://www.w3.org/2000/svg"
  xmlns:xlink="http://www.w3.org/1999/xlink" >
  <!-- Generator: Sketch 57.1 (83088) - https://sketch.com -->
  <title>icon/integration</title>
  <desc>Created with Sketch.</desc>
  <g id="icon/integration" stroke="none" stroke-width="1" fill="none" fill-rule="evenodd">
    <path d="M14.5,2 C14.7761424,2 15,2.22385763 15,2.5 L15,2.5 L15,5 L17.5,5 C17.7454599,5 17.9496084,5.17687516 17.9919443,5.41012437 L18,5.5 C18,5.77614237 17.7761424,6 17.5,6 L17.5,6 L15,6 L15,8.5 C15,8.74545989 14.8231248,8.94960837 14.5898756,8.99194433 L14.5,9 C14.2238576,9 14,8.77614237 14,8.5 L14,8.5 L14,6 L11.5,6 C11.2545401,6 11.0503916,5.82312484 11.0080557,5.58987563 L11,5.5 C11,5.22385763 11.2238576,5 11.5,5 L11.5,5 L14,5 L14,2.5 C14,2.25454011 14.1768752,2.05039163 14.4101244,2.00805567 Z M3,2 L8,2 C8.55228475,2 9,2.44771525 9,3 L9,8 C9,8.55228475 8.55228475,9 8,9 L3,9 C2.44771525,9 2,8.55228475 2,8 L2,3 C2,2.44771525 2.44771525,2 3,2 Z M3.1,3.1 L3.1,7.9 L7.9,7.9 L7.9,3.1 L3.1,3.1 Z M3,11 L8,11 C8.55228475,11 9,11.4477153 9,12 L9,17 C9,17.5522847 8.55228475,18 8,18 L3,18 C2.44771525,18 2,17.5522847 2,17 L2,12 C2,11.4477153 2.44771525,11 3,11 Z M3.1,16.9 L7.9,16.9 L7.9,12.1 L3.1,12.1 L3.1,16.9 Z M12,11 L17,11 C17.5522847,11 18,11.4477153 18,12 L18,17 C18,17.5522847 17.5522847,18 17,18 L12,18 C11.4477153,18 11,17.5522847 11,17 L11,12 C11,11.4477153 11.4477153,11 12,11 Z M12.1,12.1 L12.1,16.9 L16.9,16.9 L16.9,12.1 L12.1,12.1 Z" id="Integration" fill="#000000"></path>
  </g>
</svg>