<?xml version="1.0" encoding="UTF-8"?>
<svg width="20px" height="20px" viewBox="0 0 20 20" version="1.1" xmlns="http://www.w3.org/2000/svg" xmlns:xlink="http://www.w3.org/1999/xlink">
    <!-- Generator: Sketch 51.3 (57544) - http://www.bohemiancoding.com/sketch -->
    <title>buddicons/feature-universal-login</title>
    <desc>Created with Sketch.</desc>
    <defs></defs>
    <g id="buddicons/feature-universal-login" stroke="none" stroke-width="1" fill="none" fill-rule="evenodd">
        <path d="M4.78941176,2.14470588 C4.21243664,2.14470588 3.74470588,2.61243664 3.74470588,3.18941176 L3.74470588,16.7705882 C3.74470588,17.3475634 4.21243664,17.8152941 4.78941176,17.8152941 L15.2364706,17.8152941 C15.8134457,17.8152941 16.2811765,17.3475634 16.2811765,16.7705882 L16.2811765,3.18941176 C16.2811765,2.61243664 15.8134457,2.14470588 15.2364706,2.14470588 L4.78941176,2.14470588 Z M4.78941176,1.1 L15.2364706,1.1 C16.3904208,1.1 17.3258824,2.03546151 17.3258824,3.18941176 L17.3258824,16.7705882 C17.3258824,17.9245385 16.3904208,18.86 15.2364706,18.86 L4.78941176,18.86 C3.63546151,18.86 2.7,17.9245385 2.7,16.7705882 L2.7,3.18941176 C2.7,2.03546151 3.63546151,1.1 4.78941176,1.1 Z M6.87882353,11.5470588 C6.3018484,11.5470588 5.83411765,12.0147896 5.83411765,12.5917647 L5.83411765,14.6811765 C5.83411765,15.2581516 6.3018484,15.7258824 6.87882353,15.7258824 L13.1470588,15.7258824 C13.724034,15.7258824 14.1917647,15.2581516 14.1917647,14.6811765 L14.1917647,12.5917647 C14.1917647,12.0147896 13.724034,11.5470588 13.1470588,11.5470588 L6.87882353,11.5470588 Z M6.87882353,12.5917647 L13.1470588,12.5917647 L13.1470588,14.6811765 L6.87882353,14.6811765 L6.87882353,12.5917647 Z M5.83411765,9.45764706 L14.1917647,9.45764706 L14.1917647,8.41294118 L5.83411765,8.41294118 L5.83411765,9.45764706 Z M5.83411765,6.32352941 L14.1917647,6.32352941 L14.1917647,5.27882353 L5.83411765,5.27882353 L5.83411765,6.32352941 Z" id="Combined-Shape" fill="#000000" fill-rule="nonzero"></path>
    </g>
</svg>