<?xml version="1.0" encoding="UTF-8"?>
<svg width="20px" height="20px" viewBox="0 0 20 20" version="1.1" xmlns="http://www.w3.org/2000/svg" xmlns:xlink="http://www.w3.org/1999/xlink">
    <!-- Generator: Sketch 52.5 (67469) - http://www.bohemiancoding.com/sketch -->
    <title>icon/gem</title>
    <desc>Created with Sketch.</desc>
    <g id="icon/gem" stroke="none" stroke-width="1" fill="none" fill-rule="evenodd">
        <path d="M18.5635057,8.07165158 L10.8468523,17.5852196 L10.8718325,17.6476737 L10.7677484,17.6823704 L10.1160434,18.4856693 C10.0263923,18.6080794 9.9089855,18.6688681 9.79130113,18.6688681 C9.67306163,18.6688681 9.55426703,18.606414 9.46517107,18.4820609 L1.15426703,7.98338308 C0.97663023,7.73523201 0.948041808,7.31165423 1.09126148,7.04240754 L3.50656679,2.49213853 C3.65006401,2.2223367 4.01616235,2.00166544 4.32092048,2.00166544 L9.8032361,2.00166544 C9.80545656,2.00166544 9.80767702,2 9.80961992,2 C9.8123955,2 9.81517107,2.00166544 9.81739153,2.00166544 L15.4012932,2.00166544 C15.7060513,2.00166544 16.071317,2.22316942 16.2123162,2.4935264 L18.6342829,7.13317421 C18.7758372,7.40380877 18.7436405,7.82627625 18.5635057,8.07165158 L18.5635057,8.07165158 Z M9.78325196,14.9291149 L12.7120386,7.55231081 L6.82781976,7.55231081 L9.78325196,14.9291149 L9.78325196,14.9291149 Z M12.3031964,6.44201519 L9.81517107,3.11723496 L7.32714569,6.44201519 L12.3031964,6.44201519 L12.3031964,6.44201519 Z M9.09518693,16.1620982 L5.69538519,7.55897258 L5.38313301,7.55897258 L5.38812904,7.55231081 L2.2181449,7.55231081 L9.09518693,16.1620982 L9.09518693,16.1620982 Z M4.14911239,3.64629083 L2.66501247,6.44173761 L5.25379121,6.44173761 L4.14911239,3.64629083 L4.14911239,3.64629083 Z M6.32627337,6.30073007 L8.71493316,3.11223863 L5.04895378,3.11223863 L6.32627337,6.30073007 L6.32627337,6.30073007 Z M10.9317849,3.11223863 L13.2438388,6.21301672 L14.4748063,3.11223863 L10.9317849,3.11223863 L10.9317849,3.11223863 Z M15.5020466,3.52693405 L14.3446318,6.44201519 L17.0230616,6.44201519 L15.5020466,3.52693405 L15.5020466,3.52693405 Z M14.2424907,7.55231081 L14.2477643,7.55897258 L13.9013725,7.55897258 L10.4535533,16.2431497 L17.5681846,7.55203323 L14.2424907,7.55203323 L14.2424907,7.55231081 Z" id="Shape" fill="#000000"></path>
    </g>
</svg>