<?xml version="1.0" encoding="UTF-8"?>
<svg width="20px" height="20px" viewBox="0 0 20 20" version="1.1" xmlns="http://www.w3.org/2000/svg" xmlns:xlink="http://www.w3.org/1999/xlink">
    <!-- Generator: Sketch 52.5 (67469) - http://www.bohemiancoding.com/sketch -->
    <title>icon/user-circle</title>
    <desc>Created with Sketch.</desc>
    <g id="icon/user-circle" stroke="none" stroke-width="1" fill="none" fill-rule="evenodd">
        <path d="M9.88183981,18.765285 C4.97656622,18.765285 1,14.7879285 1,9.88236493 C1,4.97735647 4.97656622,1 9.88183981,1 C14.787391,1 18.7636796,4.97735647 18.7636796,9.88236493 C18.7639572,14.7879285 14.787391,18.765285 9.88183981,18.765285 L9.88183981,18.765285 Z M9.88183981,17.6549894 C11.5949247,17.6549894 13.1639572,17.0831872 14.4487708,16.1444322 C14.2225615,15.7608251 13.8139968,15.1512728 13.1900476,14.5272866 C12.7284695,14.0654037 12.1672482,13.6029655 11.6693101,13.2174154 C11.1319588,13.5579986 10.5302141,13.7695099 9.88211737,13.7695099 C9.23402062,13.7695099 8.63227597,13.557721 8.09520222,13.2174154 C7.59698652,13.6029655 7.03604282,14.0654037 6.57446471,14.5272866 C5.95051546,15.1512728 5.54195083,15.7608251 5.31574148,16.1444322 C6.6,17.0834647 8.16903251,17.6549894 9.88183981,17.6549894 L9.88183981,17.6549894 Z M12.6576923,9.05103109 C12.6576923,7.05749531 11.4150674,5.44201519 9.88211737,5.44201519 C8.34944489,5.44201519 7.10654243,7.05749531 7.10654243,9.05103109 C7.10654243,11.0437341 8.34944489,12.6589367 9.88211737,12.6589367 C11.4147898,12.6589367 12.6576923,11.0437341 12.6576923,9.05103109 L12.6576923,9.05103109 Z M9.88183981,2.11029562 C5.58996828,2.11029562 2.11022998,5.59051723 2.11022998,9.88236493 C2.11022998,12.0774194 3.02783505,14.0509698 4.49111816,15.4643761 C4.69429025,15.099644 5.09924663,14.4631671 5.75983347,13.8028188 C6.21197462,13.3503733 6.76070579,12.8945969 7.25503569,12.5079365 C6.48592387,11.6457919 5.99631245,10.4219686 5.99631245,9.05103109 C5.99631245,6.44377941 7.73604282,4.33171957 9.88211737,4.33171957 C12.0281919,4.33171957 13.7681998,6.44377941 13.7681998,9.05103109 C13.7681998,10.4219686 13.2783109,11.6457919 12.509199,12.5079365 C13.0035289,12.8945969 13.5519826,13.3503733 14.0044013,13.8028188 C14.6649881,14.4631671 15.0696669,15.099644 15.2731166,15.4643761 C16.7361221,14.0506923 17.6537272,12.0771418 17.6537272,9.88236493 C17.6537272,5.59051723 14.1739889,2.11029562 9.88183981,2.11029562 L9.88183981,2.11029562 Z" id="Shape" fill="#000000"></path>
    </g>
</svg>