<?xml version="1.0" encoding="UTF-8"?>
<svg width="20px" height="20px" viewBox="0 0 20 20" version="1.1" xmlns="http://www.w3.org/2000/svg" xmlns:xlink="http://www.w3.org/1999/xlink">
    <!-- Generator: Sketch 52.5 (67469) - http://www.bohemiancoding.com/sketch -->
    <title>icon/print</title>
    <desc>Created with Sketch.</desc>
    <g id="icon/print" stroke="none" stroke-width="1" fill="none" fill-rule="evenodd">
        <path d="M18.2085646,15.4335654 L14.3227597,15.4335654 L14.3227597,18.7644523 L14.3227597,18.7644523 L5.4409199,18.7644523 L5.4409199,18.7644523 L5.4409199,15.4335654 L1.55511499,15.4335654 C1.24869151,15.4335654 1,15.1851368 1,14.8784176 L1,4.88575708 C1,4.57987064 1.24869151,4.33060928 1.55511499,4.33060928 L6.55114988,4.33060928 L13.2125297,4.33060928 L18.2085646,4.33060928 C18.5149881,4.33060928 18.7636796,4.57959307 18.7636796,4.88575708 L18.7636796,14.8784176 C18.7636796,15.1851368 18.5149881,15.4335654 18.2085646,15.4335654 L18.2085646,15.4335654 Z M6.55114988,17.6547118 L13.2125297,17.6547118 L13.2125297,12.1032337 L6.55114988,12.1032337 L6.55114988,17.6547118 L6.55114988,17.6547118 Z M17.6534496,5.99633028 C17.6534496,5.68988869 17.4047581,5.44118247 17.0983347,5.44118247 L2.66534496,5.44118247 C2.35892149,5.44118247 2.11022998,5.68961111 2.11022998,5.99633028 L2.11022998,13.7683996 C2.11022998,14.0751188 2.35892149,14.323825 2.66534496,14.323825 L5.4409199,14.323825 L5.4409199,10.9929381 L14.3227597,10.9929381 L14.3227597,14.323825 L17.0983347,14.323825 C17.4047581,14.323825 17.6534496,14.0751188 17.6534496,13.7683996 L17.6534496,5.99633028 L17.6534496,5.99633028 Z M6.55114988,7.66232885 C6.55114988,7.66205127 6.55087232,7.6617737 6.55087232,7.6617737 C6.55087232,7.6617737 6.55087232,7.66149613 6.55114988,7.66121855 L6.55114988,6.55286595 L7.65527359,6.55286595 C7.65749405,6.55286595 7.6591594,6.55175566 7.6611023,6.55175566 C7.66332276,6.55175566 7.6649881,6.55286595 7.66693101,6.55286595 L8.77160983,6.55286595 L8.77160983,8.77345719 L6.55114988,8.77345719 L6.55114988,7.66232885 L6.55114988,7.66232885 Z M3.22045995,7.66205127 L3.22018239,7.6617737 L3.22045995,7.66149613 L3.22045995,6.55286595 L4.32486122,6.55286595 C4.32680412,6.55286595 4.32846947,6.55175566 4.33068993,6.55175566 C4.33291039,6.55175566 4.33457573,6.55286595 4.33651864,6.55286595 L5.4409199,6.55286595 L5.4409199,8.77345719 L3.22045995,8.77345719 L3.22045995,7.66205127 L3.22045995,7.66205127 Z M13.2122522,2.11029562 L6.55087232,2.11029562 L6.55087232,4.33088685 L5.44064235,4.33088685 L5.44064235,1 L14.3224822,1 L14.3224822,4.33088685 L13.2119746,4.33088685 L13.2119746,2.11029562 L13.2122522,2.11029562 Z" id="Shape" fill="#000000"></path>
    </g>
</svg>