<?xml version="1.0" encoding="UTF-8"?>
<svg width="20px" height="28px" viewBox="0 0 20 28" version="1.1" xmlns="http://www.w3.org/2000/svg" xmlns:xlink="http://www.w3.org/1999/xlink">
    <!-- Generator: Sketch 44.1 (41455) - http://www.bohemiancoding.com/sketch -->
    <title>daccount</title>
    <desc>Created with Sketch.</desc>
    <defs></defs>
    <g id="Page-1" stroke="none" stroke-width="1" fill="none" fill-rule="evenodd">
        <g id="daccount" fill-rule="nonzero" fill="#000000">
            <path d="M5.14375,17.9175 C5.14375,15.56875 6.69375,13.265 9.555,13.265 C12.41875,13.265 13.91625,15.47 13.96625,17.7975 L13.96625,18.03875 C13.91625,20.3675 12.41875,22.57375 9.555,22.57375 C6.69375,22.57375 5.14375,20.27 5.14375,17.9175 L5.14375,17.9175 Z M13.9,0 L13.9,9.46375 C12.65625,8.7175 11.17,8.27625 9.44625,8.27625 C3.27875,8.27625 0,13.23625 0,17.92375 C0,22.5975 3.27875,27.56125 9.44625,27.56125 C14.07875,27.56125 15.81,25.25 19.04125,23.71875 L19.04125,0 L13.9,0 Z" id="path8077"></path>
        </g>
    </g>
</svg>