<?xml version="1.0" encoding="UTF-8"?>
<svg width="20px" height="20px" viewBox="0 0 20 20" version="1.1" xmlns="http://www.w3.org/2000/svg" xmlns:xlink="http://www.w3.org/1999/xlink">
    <!-- Generator: Sketch 54.1 (76490) - https://sketchapp.com -->
    <title>icon/expand-arrows</title>
    <desc>Created with Sketch.</desc>
    <g id="icon/expand-arrows" stroke="none" stroke-width="1" fill="none" fill-rule="evenodd">
        <path d="M18.1752577,7.6490053 C17.8688343,7.6490053 17.621253,7.40029908 17.621253,7.09524536 L17.621253,2.88666983 L11.9096749,8.59914077 C11.6951229,8.81315025 11.3465107,8.81315025 11.1314036,8.59914077 C10.9165741,8.38346585 10.9165741,8.03483303 11.1314036,7.81999083 L16.8427042,2.1083526 L12.6349326,2.1083526 C12.3285091,2.1083526 12.0806503,1.86020153 12.0806503,1.55403751 C12.0806503,1.24842864 12.3287867,1 12.6349326,1 L18.1747026,1 C18.183862,1 18.1905234,1.00499633 18.1996828,1.00499633 C18.3334655,1.01138053 18.4539255,1.06439715 18.5466297,1.14905719 C18.5535686,1.15516381 18.5641158,1.15238807 18.5704996,1.15877227 C18.5768834,1.1648789 18.5738303,1.17570428 18.5802141,1.18236606 C18.6654243,1.27563089 18.7187153,1.39637554 18.724544,1.53155403 C18.7250991,1.53960367 18.72954,1.54598787 18.72954,1.55431509 L18.72954,1.55431509 L18.72954,7.09552294 C18.7292625,7.40057666 18.4808485,7.6490053 18.1752577,7.6490053 L18.1752577,7.6490053 Z M2.88628073,17.6225133 L7.0943299,17.6225133 C7.40047581,17.6225133 7.64861221,17.8701092 7.64861221,18.1754405 C7.64861221,18.4818821 7.40019826,18.7300331 7.0943299,18.7300331 L1.55400476,18.7300331 L1.5537272,18.7300331 C1.54567803,18.7305883 1.53901665,18.7261471 1.53096749,18.7255919 C1.3963521,18.7197629 1.27505948,18.6667463 1.18207772,18.5809759 C1.17541634,18.5751469 1.16486915,18.5773675 1.15876289,18.5715384 C1.15265662,18.5651542 1.15515464,18.554884 1.14932593,18.5482222 C1.06383822,18.455235 1.01082474,18.3342127 1.00471848,18.1995894 C1.00444092,18.1909846 1,18.1843228 1,18.1762732 L1,18.1751629 L1,12.6347878 C1,12.3294565 1.24785884,12.0813054 1.5537272,12.0813054 C1.85959556,12.0813054 2.10800952,12.329734 2.10800952,12.6347878 L2.10800952,16.8436409 L7.81903251,11.1317251 C8.03413957,10.9177156 8.38219667,10.9177156 8.59758128,11.1317251 C8.81213323,11.3474 8.81213323,11.6952001 8.59758128,11.9100423 L2.88628073,17.6225133 L2.88628073,17.6225133 Z" id="Shape" fill="#000000"></path>
    </g>
</svg>