<?xml version="1.0" encoding="UTF-8"?>
<svg width="20px" height="20px" viewBox="0 0 20 20" version="1.1" xmlns="http://www.w3.org/2000/svg" xmlns:xlink="http://www.w3.org/1999/xlink">
    <!-- Generator: Sketch 54.1 (76490) - https://sketchapp.com -->
    <title>icon/lock-check</title>
    <desc>Created with Sketch.</desc>
    <defs>
        <path d="M11,18.7638971 L5.22045995,18.7638971 C3.99421094,18.7638971 3,17.7696274 3,16.5435835 L3,9.88180979 C3,8.65548828 3.99421094,7.66094098 5.22045995,7.66094098 L5.22045995,5.99633028 C5.22045995,3.23724567 7.4572958,1 10.2164948,1 C12.9756939,1 15.2125297,3.23724567 15.2125297,5.99633028 L15.2125297,7.66121855 C16.4387787,7.66121855 17.4329897,8.65548828 17.4329897,9.88180979 L17.4329897,13 L16.3227597,13 L16.3227597,9.88180979 C16.3227597,9.26837146 15.8256542,8.7712366 15.2125297,8.7712366 L5.22045995,8.7712366 C4.60733545,8.7712366 4.11022998,9.26837146 4.11022998,9.88180979 L4.11022998,16.5435835 C4.11022998,17.1559115 4.60733545,17.6530464 5.22045995,17.6530464 L11,17.6530464 L11,18.7638971 Z M14.1025773,5.99633028 C14.1025773,3.85040642 12.3625694,2.11029562 10.2167724,2.11029562 C8.07097542,2.11029562 6.33096749,3.85040642 6.33096749,5.99633028 L6.33096749,7.66094098 L14.1025773,7.66094098 L14.1025773,5.99633028 Z M10.2164948,15.4327327 C9.91007137,15.4327327 9.66137986,15.1840265 9.66137986,14.8778625 L9.66137986,11.5469756 C9.66137986,11.240534 9.90979381,10.9918278 10.2164948,10.9918278 C10.5231959,10.9918278 10.7716098,11.240534 10.7716098,11.5469756 L10.7716098,14.8778625 C10.7716098,15.1840265 10.5231959,15.4327327 10.2164948,15.4327327 Z M13.0759715,15.4192635 L14.8581681,17.2218284 L17.7822363,14.2631682 C18.0053925,14.0375006 18.3667724,14.0375006 18.5899286,14.2631682 C18.8128073,14.4891134 18.8128073,14.8549558 18.5899286,15.0797906 L15.3597145,18.3479458 C15.2228787,18.4867327 15.0352498,18.5300343 14.8578906,18.4981133 C14.6805313,18.5300343 14.49318,18.4864552 14.3560666,18.3479458 L12.2682791,16.2350532 C12.0454005,16.0096632 12.0454005,15.6443759 12.2682791,15.4189859 C12.4911578,15.1933184 12.8528152,15.1933184 13.0759715,15.4192635 Z" id="path-1"></path>
    </defs>
    <g id="icon/lock-check" stroke="none" stroke-width="1" fill="none" fill-rule="evenodd">
        <mask id="mask-2" fill="white">
            <use xlink:href="#path-1"></use>
        </mask>
        <use id="Combined-Shape" fill="#000000" xlink:href="#path-1"></use>
    </g>
</svg>