<?xml version="1.0" encoding="UTF-8"?>
<svg width="20px" height="20px" viewBox="0 0 20 20" version="1.1" xmlns="http://www.w3.org/2000/svg" xmlns:xlink="http://www.w3.org/1999/xlink">
    <!-- Generator: Sketch 52.5 (67469) - http://www.bohemiancoding.com/sketch -->
    <title>icon/camera</title>
    <desc>Created with Sketch.</desc>
    <g id="icon/camera" stroke="none" stroke-width="1" fill="none" fill-rule="evenodd">
        <path d="M17.6534496,17.5441386 L2.11022998,17.5441386 C1.49710547,17.5441386 1,17.0464486 1,16.433843 L1,5.331442 C1,4.71800367 1.49710547,4.22059123 2.11022998,4.22059123 L4.88580492,4.22059123 L5.4409199,3.11029562 C5.4409199,3.11029562 5.93802538,2 6.55114988,2 L13.2125297,2 C13.8256542,2 14.3227597,3.11029562 14.3227597,3.11029562 L14.8778747,4.22059123 L17.6534496,4.22059123 C18.2665741,4.22059123 18.7636796,4.71800367 18.7636796,5.331442 L18.7636796,16.433843 C18.7634021,17.046171 18.2662966,17.5441386 17.6534496,17.5441386 L17.6534496,17.5441386 Z M17.6534496,5.88631223 C17.6534496,5.57931549 17.4047581,5.331442 17.0983347,5.331442 L14.2869548,5.331442 C14.2994449,5.28508716 14.3227597,5.24123048 14.3227597,5.1920999 L13.4345757,3.8039528 C13.4345757,3.8039528 13.0368358,3.11029562 12.5463918,3.11029562 L7.21728787,3.11029562 C6.72656622,3.11029562 6.32910389,3.8039528 6.32910389,3.8039528 L5.4409199,5.1920999 C5.4409199,5.24123048 5.46423473,5.28508716 5.47700238,5.331442 L2.66534496,5.331442 C2.35892149,5.331442 2.11022998,5.57931549 2.11022998,5.88631223 L2.11022998,15.8789728 C2.11022998,16.1851368 2.35892149,16.433843 2.66534496,16.433843 L17.0983347,16.433843 C17.4050357,16.433843 17.6534496,16.1851368 17.6534496,15.8789728 L17.6534496,5.88631223 L17.6534496,5.88631223 Z M9.88183981,15.3235474 C7.42934179,15.3235474 5.4409199,13.335008 5.4409199,10.8823649 C5.4409199,8.42972192 7.42934179,6.44118247 9.88183981,6.44118247 C12.3343378,6.44118247 14.3227597,8.42972192 14.3227597,10.8823649 C14.3224822,13.335008 12.3343378,15.3235474 9.88183981,15.3235474 L9.88183981,15.3235474 Z M9.88183981,7.55147808 C8.04218874,7.55147808 6.55114988,9.0426051 6.55114988,10.8823649 C6.55114988,12.7218472 8.04218874,14.2132518 9.88183981,14.2132518 C11.7212133,14.2132518 13.2125297,12.7218472 13.2125297,10.8823649 C13.2125297,9.04232752 11.7209358,7.55147808 9.88183981,7.55147808 L9.88183981,7.55147808 Z" id="Shape" fill="#000000"></path>
    </g>
</svg>