<?xml version="1.0" encoding="UTF-8"?>
<svg width="20px" height="20px" viewBox="0 0 20 20" version="1.1" xmlns="http://www.w3.org/2000/svg" xmlns:xlink="http://www.w3.org/1999/xlink">
    <!-- Generator: Sketch 52.5 (67469) - http://www.bohemiancoding.com/sketch -->
    <title>icon/folder-minus</title>
    <desc>Created with Sketch.</desc>
    <g id="icon/folder-minus" stroke="none" stroke-width="1" fill="none" fill-rule="evenodd">
        <path d="M17.6534496,18.7644523 L2.11022998,18.7644523 C1.49738303,18.7644523 1,18.2673174 1,17.6541567 L1,6.55120051 L1,5.44090489 L1,4.33060928 L1,2.11029562 C1,1.49741244 1.49710547,1 2.11022998,1 L7.66137986,1 C8.27450436,1 8.77160983,1.49741244 8.77160983,2.11029562 L8.77160983,3.22003609 L17.6534496,3.22003609 C18.2665741,3.22003609 18.7636796,3.71744852 18.7636796,4.33060928 L18.7636796,6.55120051 L18.7636796,17.6541567 C18.7639572,18.2673174 18.2665741,18.7644523 17.6534496,18.7644523 L17.6534496,18.7644523 Z M17.0983347,4.33060928 L15.9881047,4.33060928 L7.66137986,4.33060928 L7.66137986,3.77546147 L7.66137986,3.22031366 L7.66137986,2.66516585 C7.66137986,2.35927941 7.41268834,2.11029562 7.10626487,2.11029562 L2.66534496,2.11029562 C2.35892149,2.11029562 2.11022998,2.35927941 2.11022998,2.66516585 L2.11022998,3.22031366 L2.11022998,3.77546147 L2.11022998,4.33060928 L2.11022998,5.44090489 L15.9881047,5.44090489 L17.0983347,5.44090489 C17.4047581,5.44090489 17.6534496,5.19247625 17.6534496,4.88547951 C17.6534496,4.57903792 17.4050357,4.33060928 17.0983347,4.33060928 L17.0983347,4.33060928 Z M17.6534496,7.66149613 L17.6534496,7.10662589 L17.6534496,6.55120051 L17.0983347,6.55120051 L2.66534496,6.55120051 L2.11022998,6.55120051 L2.11022998,7.10662589 L2.11022998,7.66149613 L2.11022998,17.0992864 C2.11022998,17.405728 2.35892149,17.6541567 2.66534496,17.6541567 L17.0983347,17.6541567 C17.4047581,17.6541567 17.6534496,17.405728 17.6534496,17.0992864 L17.6534496,7.66149613 L17.6534496,7.66149613 Z M13.7679223,12.6105732 L5.99631245,12.6105732 C5.68961142,12.6105732 5.44119746,12.361867 5.44119746,12.0551478 C5.44119746,11.7484286 5.68961142,11.5 5.99631245,11.5 L13.7679223,11.5 C14.0743458,11.5 14.3230373,11.7487062 14.3230373,12.0551478 C14.3230373,12.3615894 14.0743458,12.6105732 13.7679223,12.6105732 L13.7679223,12.6105732 Z" id="Shape" fill="#000000"></path>
    </g>
</svg>