<?xml version="1.0" encoding="UTF-8"?>
<svg width="20px" height="20px" viewBox="0 0 20 20" version="1.1" xmlns="http://www.w3.org/2000/svg" xmlns:xlink="http://www.w3.org/1999/xlink">
    <!-- Generator: Sketch 52.5 (67469) - http://www.bohemiancoding.com/sketch -->
    <title>icon/location-arrow</title>
    <desc>Created with Sketch.</desc>
    <g id="icon/location-arrow" stroke="none" stroke-width="1" fill="none" fill-rule="evenodd">
        <path d="M18.7500793,1.66207177 C18.7478588,1.6734523 18.7511895,1.68427768 18.7481364,1.69510306 L12.4181602,18.3006843 C12.3879064,18.4508518 12.3024187,18.5752049 12.1783505,18.6568116 C12.1583664,18.6709679 12.13977,18.6859569 12.117843,18.6973374 C12.0928628,18.7095507 12.0662173,18.7156573 12.0392942,18.7239845 C11.9896114,18.7411941 11.9402062,18.7525746 11.8866376,18.7547952 C11.8824742,18.7547952 11.8791435,18.7570158 11.8749802,18.7570158 C11.8666534,18.7570158 11.8597145,18.7531298 11.8516653,18.7520195 C11.806701,18.7514643 11.7625694,18.7553504 11.7173275,18.7434147 C11.6948454,18.7373081 11.6781919,18.7217639 11.6570975,18.7131591 C11.6551546,18.7123264 11.6532117,18.7114937 11.6512688,18.7101058 C11.4411578,18.6215597 11.3109833,18.4219841 11.3109833,18.1988147 C11.3109833,18.1963165 11.3095956,18.1946511 11.3095956,18.1924305 L9.80800952,9.94904068 L1.56510706,8.44764343 C1.56260904,8.44764343 1.56066614,8.44625556 1.55844568,8.44625556 C1.33584457,8.44625556 1.13628073,8.3160734 1.04773989,8.1065051 C1.0463521,8.10400694 1.04496431,8.10150877 1.04385408,8.09901061 C1.03552736,8.07847014 1.0202617,8.06209328 1.01415543,8.03988737 C1.00249802,7.99603069 1.00693894,7.95300673 1.00582871,7.90915006 C1.00499603,7.89971254 1,7.8916629 1,7.88167024 C1,7.87667391 1.00249802,7.87306545 1.00277557,7.86779154 C1.00527359,7.81644037 1.01665345,7.76925281 1.03219667,7.72178767 C1.04080095,7.69291998 1.04801745,7.66432987 1.06106265,7.6374052 C1.07188739,7.61686474 1.08604282,7.59965515 1.09936558,7.58078013 C1.18068993,7.4555943 1.30531324,7.36899124 1.45658208,7.33873568 L18.0614592,1.00810765 C18.072839,1.00505434 18.0836638,1.00838522 18.0950436,1.00644221 C18.1311261,0.998947712 18.1672086,1.00005801 18.2044013,1.00005801 C18.2432593,1.00033558 18.280452,0.999502859 18.3173672,1.00783008 C18.3284695,1.01005067 18.3392942,1.00671978 18.350119,1.00977309 C18.3726011,1.01560215 18.3892546,1.03114628 18.4103489,1.04002865 C18.4475416,1.05501764 18.4827914,1.07000663 18.5158208,1.09221254 C18.5446868,1.11247544 18.5688343,1.13551407 18.5935369,1.16049572 C18.6193497,1.18575495 18.6437748,1.21129175 18.6645916,1.2415473 C18.6862411,1.2734683 18.7006741,1.30733232 18.7153846,1.34286178 C18.724544,1.36451254 18.7403648,1.3819997 18.7467486,1.40587106 C18.7498017,1.41697401 18.7464711,1.42835454 18.7489691,1.4394575 C18.7564631,1.47609725 18.755908,1.51245943 18.7561856,1.55020949 C18.7564631,1.58795954 18.7572958,1.62543201 18.7500793,1.66207177 L18.7500793,1.66207177 Z M3.64595559,7.69625087 L10.2679223,8.90258706 C10.4297383,8.90258706 10.5732355,8.97225811 10.6762094,9.08134465 C10.7850119,9.18376942 10.8546788,9.32755271 10.8546788,9.48965587 L12.0612213,16.1125692 L17.2462728,2.51144792 L3.64595559,7.69625087 L3.64595559,7.69625087 Z" id="Shape" fill="#000000"></path>
    </g>
</svg>