<?xml version="1.0" encoding="UTF-8"?>
<svg width="20px" height="20px" viewBox="0 0 20 20" version="1.1" xmlns="http://www.w3.org/2000/svg" xmlns:xlink="http://www.w3.org/1999/xlink">
    <!-- Generator: Sketch 54.1 (76490) - https://sketchapp.com -->
    <title>icon/page</title>
    <desc>Created with Sketch.</desc>
    <g id="icon/page" stroke="none" stroke-width="1" fill="none" fill-rule="evenodd">
        <path d="M17.4329897,5.44312548 L17.4329897,5.44340306 L17.4329897,5.44340306 L17.4329897,18.2101372 C17.4329897,18.5171339 17.1842982,18.765285 16.8778747,18.765285 L3.55511499,18.765285 C3.24869151,18.765285 3,18.5171339 3,18.2101372 L3,1.55598053 C3,1.24870622 3.24869151,1 3.55511499,1 L12.9920698,1 L12.9920698,1.00194302 L12.9920698,1.00166544 L17.4313243,5.44173761 L17.4329897,5.44173761 L17.4329897,5.44312548 L17.4329897,5.44312548 Z M11.8815623,5.44146004 L11.8815623,2.11057319 L4.66506741,2.11057319 C4.35864393,2.11057319 4.10995242,2.35900183 4.10995242,2.66599857 L4.10995242,17.0992864 C4.10995242,17.4065608 4.35836638,17.6547118 4.66506741,17.6547118 L15.7673672,17.6547118 C16.0740682,17.6547118 16.3224822,17.4065608 16.3224822,17.0992864 L16.3224822,6.55231081 L12.9917922,6.55231081 L11.8815623,6.55231081 L11.8815623,5.44146004 L11.8815623,5.44146004 Z M12.9917922,2.36843935 L12.9917922,5.44146004 L16.0649088,5.44146004 L12.9917922,2.36843935 L12.9917922,2.36843935 Z" id="Shape" fill="#000000"></path>
    </g>
</svg>