<?xml version="1.0" encoding="UTF-8" standalone="no"?>
<svg width="63px" height="63px" viewBox="0 0 63 63" version="1.1" xmlns="http://www.w3.org/2000/svg" xmlns:xlink="http://www.w3.org/1999/xlink" xmlns:sketch="http://www.bohemiancoding.com/sketch/ns">
    <!-- Generator: Sketch 3.4 (15588) - http://www.bohemiancoding.com/sketch -->
    <title>planningcenter</title>
    <desc>Created with Sketch.</desc>
    <defs></defs>
    <g id="Page-1" stroke="none" stroke-width="1" fill="none" fill-rule="evenodd" sketch:type="MSPage">
        <g id="planningcenter" sketch:type="MSLayerGroup" fill="#000000">
            <path d="M4.313,61.5 L6.313,62.438 L31.438,62.438 C58.751,62.438 58.313,62.501 60.688,59.938 C61.376,59.188 62.126,57.813 62.376,56.813 C62.689,55.625 62.876,47 62.876,31.563 C62.876,12.25 62.751,7.75 62.188,5.875 C61.563,3.625 60,1.812 58.063,0.75 C57.375,0.375 49.5,0.25 31.563,0.25 C4.188,0.25 4.875,0.187 2.625,2.625 C0.187,5.188 0.187,5.125 0.187,31.75 L0.187,56.375 L1.25,58.375 C2,59.875 2.813,60.688 4.313,61.5 L4.313,61.5 Z M20,54.125 C19.75,55.188 19.687,55.188 13.875,55.188 C10.687,55.188 7.937,55.063 7.812,54.875 C7.624,54.75 7.499,44.187 7.499,31.5 L7.499,8.437 L55.187,8.437 L55.187,55.187 L43.437,55.187 L42.562,53.499 C41.437,51.249 40.374,50.999 30.374,51.186 C21.436,51.311 20.624,51.561 19.999,54.124 L20,54.125 Z M29.375,45.375 C30.625,46.25 31.688,46.313 33.063,45.625 C34.626,44.812 34.751,44.375 34.751,39.875 C34.751,37.562 34.939,35.687 35.126,35.687 C35.376,35.687 37.189,36.562 39.251,37.687 C41.251,38.875 43.439,39.75 43.939,39.75 C45.627,39.75 47.564,37.437 47.377,35.687 C47.252,34.249 46.877,33.999 43.002,31.874 C38.189,29.249 38.127,29.624 43.815,26.436 C46.628,24.936 47.253,24.311 47.378,23.311 C47.566,21.811 45.378,18.873 44.128,18.873 C43.69,18.873 41.378,19.936 39.003,21.186 L34.753,23.499 L34.753,19.249 C34.753,13.811 34.44,13.311 31.128,13.499 L28.628,13.624 L28.378,18.499 L28.128,23.437 L24.378,21.124 C19.503,18.249 18.503,18.186 16.69,20.999 C15.002,23.499 15.19,23.999 18.503,25.874 C19.816,26.562 21.628,27.624 22.628,28.249 L24.378,29.374 L20.315,31.812 C18.065,33.187 16.002,34.562 15.752,34.875 C15.314,35.375 15.502,36 16.565,37.625 C18.315,40.438 19.628,40.5 24.128,37.688 C25.941,36.563 27.691,35.688 27.941,35.688 C28.191,35.688 28.379,37.563 28.379,40.188 C28.379,44.376 28.442,44.751 29.379,45.376 L29.375,45.375 Z" id="Shape" sketch:type="MSShapeGroup"></path>
        </g>
    </g>
</svg>