<?xml version="1.0" encoding="UTF-8"?>
<svg width="20px" height="20px" viewBox="0 0 20 20" version="1.1" xmlns="http://www.w3.org/2000/svg" xmlns:xlink="http://www.w3.org/1999/xlink">
    <!-- Generator: Sketch 50.2 (55047) - http://www.bohemiancoding.com/sketch -->
    <title>buddicons/chevron-right</title>
    <desc>Created with Sketch.</desc>
    <defs></defs>
    <g id="buddicons/chevron-right" stroke="none" stroke-width="1" fill="none" fill-rule="evenodd">
        <path d="M13.7590504,9.65878978 C13.7646015,9.80063005 13.7165841,9.94413575 13.6080591,10.0529447 C13.5839116,10.0768161 13.5481067,10.0704319 13.5211836,10.0881966 L6.90338025,16.1595706 C6.69687748,16.365808 6.36214314,16.365808 6.15564036,16.1595706 C5.94913759,15.9530556 5.94913759,15.6183015 6.15564036,15.4112314 L12.4289948,9.65712434 L6.15508525,3.90218458 C5.94830492,3.6956696 5.94830492,3.3606379 6.15508525,3.15467806 C6.36158803,2.94844065 6.69632236,2.94844065 6.90282514,3.15467806 L13.5189631,9.22327633 C13.5469964,9.24215135 13.5839116,9.23576715 13.6086142,9.2607488 C13.7182494,9.36983535 13.7654342,9.5150065 13.7590504,9.65878978 L13.7590504,9.65878978 Z" id="Shape" fill="#000000"></path>
    </g>
</svg>