<?xml version="1.0" encoding="UTF-8"?>
<svg width="20px" height="20px" viewBox="0 0 20 20" version="1.1" xmlns="http://www.w3.org/2000/svg" xmlns:xlink="http://www.w3.org/1999/xlink">
    <!-- Generator: Sketch 52.3 (67297) - http://www.bohemiancoding.com/sketch -->
    <title>icon/policy</title>
    <desc>Created with Sketch.</desc>
    <g id="icon/policy" stroke="none" stroke-width="1" fill="none" fill-rule="evenodd">
        <path d="M9.88156225,18.7650074 C1.55511499,14.8784176 1,2.11001804 1,2.11001804 C2.51379857,3.01851743 3.86272799,3.34910795 5.02402855,3.34910795 C8.12018239,3.34910795 9.88156225,1 9.88156225,1 C9.88156225,1 11.6432197,3.34910795 14.7396511,3.34910795 C15.9009516,3.34910795 17.2496035,3.01879501 18.7636796,2.11001804 C18.7636796,2.11001804 18.2085646,14.8784176 9.88156225,18.7650074 L9.88156225,18.7650074 Z M9.88156225,17.5245297 C13.739889,15.4707603 15.6936162,11.1969549 16.6772799,7.6617737 L3.09139572,7.6617737 C4.07755749,11.1986204 6.03211737,15.4740912 9.88156225,17.5245297 L9.88156225,17.5245297 Z M14.7396511,4.45968114 C12.4708961,4.45968114 10.8180412,3.40129185 9.88156225,2.58661244 C8.94563838,3.40129185 7.29278351,4.45968114 5.02402855,4.45968114 C4.13251388,4.45968114 3.22628866,4.29424709 2.31451229,3.96670989 C2.41942902,4.68895719 2.57652657,5.57608338 2.80662173,6.55175566 L16.9617764,6.55175566 C17.1913164,5.57525066 17.3473037,4.68784689 17.4516653,3.96587717 C16.5387787,4.29396952 15.6319984,4.45968114 14.7396511,4.45968114 L14.7396511,4.45968114 Z" id="Shape" fill="#000000"></path>
    </g>
</svg>