<?xml version="1.0" encoding="UTF-8"?>
<svg width="20px" height="20px" viewBox="0 0 20 20" version="1.1" xmlns="http://www.w3.org/2000/svg" xmlns:xlink="http://www.w3.org/1999/xlink">
    <!-- Generator: Sketch 52.3 (67297) - http://www.bohemiancoding.com/sketch -->
    <title>icon/database</title>
    <desc>Created with Sketch.</desc>
    <g id="icon/database" stroke="none" stroke-width="1" fill="none" fill-rule="evenodd">
        <path d="M16.3230373,15.8795279 L16.210904,15.8795279 C15.6788263,17.4528168 12.959318,18.6541567 9.66137986,18.6541567 C6.36344171,18.6541567 3.64365583,17.4528168 3.11213323,15.8795279 L3,15.8795279 L3,15.3235474 C3,15.3235474 3,15.3235474 3,15.3232698 L3,15.3224371 L3,11.9926606 L3,11.9926606 C3,11.9926606 3,11.9926606 3,11.992383 C3,11.992383 3,11.992383 3,11.9918278 L3,8.66205127 L3,8.6617737 L3,8.66094098 L3,5.88603466 L3.11185567,5.88603466 C3.05051546,5.7047789 3,5.52130255 3,5.33088685 C3,3.49084944 5.98235527,2 9.66137986,2 C13.3404044,2 16.3227597,3.49084944 16.3227597,5.33088685 C16.3227597,5.52130255 16.2719667,5.7047789 16.210904,5.88603466 L16.3230373,5.88603466 L16.3230373,15.8795279 L16.3230373,15.8795279 Z M9.66137986,3.1094629 C6.59547978,3.1094629 4.11022998,4.10401019 4.11022998,5.33088685 C4.11022998,6.55665321 6.59547978,7.55147808 9.66137986,7.55147808 C12.7272799,7.55147808 15.2125297,6.55665321 15.2125297,5.33088685 C15.2125297,4.10401019 12.7272799,3.1094629 9.66137986,3.1094629 L9.66137986,3.1094629 Z M15.2125297,7.16814852 C14.0195876,8.0672104 11.9812054,8.6617737 9.66137986,8.6617737 C7.34155432,8.6617737 5.30317209,8.0672104 4.11050753,7.16814852 L4.11050753,8.6617737 C4.11106265,9.88865036 6.59603489,10.8823649 9.66137986,10.8823649 C12.7267248,10.8823649 15.2116971,9.88865036 15.2125297,8.6617737 L15.2125297,8.6617737 L15.2125297,7.16814852 L15.2125297,7.16814852 Z M15.2125297,10.4990354 C14.0195876,11.3980972 11.9812054,11.992383 9.66137986,11.992383 C7.34155432,11.992383 5.30317209,11.3980972 4.11050753,10.4990354 L4.11050753,11.9926606 C4.11106265,13.2189821 6.59603489,14.2135294 9.66137986,14.2135294 C12.7267248,14.2135294 15.2116971,13.2189821 15.2125297,11.9926606 L15.2125297,11.9926606 L15.2125297,10.4990354 L15.2125297,10.4990354 Z M9.66137986,15.3232698 C7.34155432,15.3232698 5.30317209,14.7289841 4.11050753,13.8293671 L4.11050753,15.3235474 C4.11106265,16.5504241 6.59603489,17.5441386 9.66137986,17.5441386 C12.7267248,17.5441386 15.2116971,16.5504241 15.2125297,15.3235474 L15.2125297,15.3235474 L15.2125297,13.8293671 C14.0195876,14.7292617 11.9812054,15.3232698 9.66137986,15.3232698 L9.66137986,15.3232698 Z" id="Shape" fill="#000000"></path>
    </g>
</svg>