<?xml version="1.0" encoding="UTF-8"?>
<svg width="20px" height="20px" viewBox="0 0 20 20" version="1.1" xmlns="http://www.w3.org/2000/svg" xmlns:xlink="http://www.w3.org/1999/xlink">
    <!-- Generator: Sketch 52.5 (67469) - http://www.bohemiancoding.com/sketch -->
    <title>icon/alarm-clock</title>
    <desc>Created with Sketch.</desc>
    <g id="icon/alarm-clock" stroke="none" stroke-width="1" fill="none" fill-rule="evenodd">
        <path d="M17.6531721,9.89152487 C17.6531721,12.9542753 15.8626487,15.5773487 13.2846947,16.8408651 L14.1850912,17.9797509 C14.3843775,18.2315104 14.266138,18.5543288 13.9208565,18.6997776 C13.5755749,18.8455039 13.133981,18.7589008 12.9344171,18.5068637 L12.0012688,17.3271746 C11.3231959,17.5200885 10.6215305,17.6563773 9.88156225,17.6563773 C9.14131642,17.6563773 8.43992863,17.5203661 7.76185567,17.3271746 L6.82870738,18.5068637 C6.62942109,18.7589008 6.18782712,18.8457814 5.84226804,18.6997776 C5.49698652,18.5546064 5.37846947,18.2315104 5.57803331,17.9797509 L6.47842982,16.8408651 C3.90047581,15.5773487 2.11022998,12.9542753 2.11022998,9.89152487 C2.11022998,5.60300805 5.58969072,2.1263949 9.88183981,2.1263949 C14.1734338,2.12667248 17.6531721,5.60300805 17.6531721,9.89152487 Z M9.88156225,3.2358578 C6.20253767,3.2358578 3.22018239,6.21616881 3.22018239,9.89180245 C3.22018239,13.5679912 6.20253767,16.5477471 9.88156225,16.5477471 C13.5605868,16.5477471 16.5429421,13.5682688 16.5429421,9.89180245 C16.5429421,6.21616881 13.5603093,3.2358578 9.88156225,3.2358578 Z M13.7665345,10.996269 L9.34976209,10.996269 C9.34171293,10.9965466 9.33477399,11.0007102 9.32644726,11.0007102 C9.13798573,11.0007102 8.97977795,10.9016163 8.8795797,10.757833 C8.81518636,10.6681767 8.76911182,10.5649192 8.76911182,10.4466727 C8.76911182,10.4425091 8.77160983,10.4389006 8.77160983,10.434737 L8.77160983,6.00909867 C8.77160983,5.70321223 9.02002379,5.45506116 9.32672482,5.45506116 C9.6331483,5.45506116 9.88183981,5.70348981 9.88183981,6.00909867 L9.88183981,9.89679878 L13.7668121,9.89679878 C14.0751784,9.89679878 14.3252577,10.1432844 14.3252577,10.4466727 C14.3252577,10.750061 14.0749009,10.996269 13.7665345,10.996269 Z M3.77529738,2.12667248 C2.85547185,2.12667248 2.10995242,2.87168084 2.10995242,3.79045046 C2.10995242,4.06635892 2.19321967,4.31534271 2.31229183,4.54406361 L1.50376685,5.37761804 C1.18818398,4.92739317 1,4.38196045 1,3.79045046 C1,2.25852008 2.2426249,1.01748716 3.77557494,1.01748716 C4.33651864,1.01748716 4.85693894,1.18652966 5.29325932,1.47270836 L4.48917526,2.30126646 C4.27045995,2.19634353 4.03342585,2.12667248 3.77529738,2.12667248 Z M16.3497621,2.13111366 C16.0991277,2.13111366 15.8693101,2.20245015 15.6575337,2.30959368 L14.8775971,1.46410357 C15.3008723,1.17265097 15.8054718,1 16.3494845,1 C17.8358049,1 19.0409596,2.26601458 19.0409596,3.82847808 C19.0409596,4.4313686 18.8586043,4.98790428 18.5524584,5.44673394 L17.7683584,4.59680265 C17.8835448,4.363363 17.9645916,4.10966045 17.9645916,3.82820051 C17.9645916,2.89055586 17.2415543,2.13111366 16.3497621,2.13111366 Z" id="Combined-Shape" fill="#000000"></path>
    </g>
</svg>