<?xml version="1.0" encoding="UTF-8"?>
<svg width="20px" height="20px" viewBox="0 0 20 20" version="1.1" xmlns="http://www.w3.org/2000/svg" xmlns:xlink="http://www.w3.org/1999/xlink">
    <!-- Generator: Sketch 52.5 (67469) - http://www.bohemiancoding.com/sketch -->
    <title>icon/crosshairs</title>
    <desc>Created with Sketch.</desc>
    <g id="icon/crosshairs" stroke="none" stroke-width="1" fill="none" fill-rule="evenodd">
        <path d="M10.3264473,18.4041567 C5.72815226,18.4041567 2,14.6755064 2,10.0763844 C2,5.47809511 5.72815226,1.75 10.3264473,1.75 C14.9252974,1.75 18.6531721,5.47809511 18.6531721,10.0763844 C18.6531721,14.6755064 14.9252974,18.4041567 10.3264473,18.4041567 L10.3264473,18.4041567 Z M10.8818398,2.9158104 L10.8818398,6.74549755 C10.8818398,7.05221672 10.6331483,7.30147808 10.3264473,7.30147808 C10.0200238,7.30147808 9.77133228,7.05249429 9.77133228,6.74549755 L9.77133228,2.9158104 C6.23663759,3.18949827 3.43830293,5.98910866 3.16352102,9.5212366 L6.99575734,9.5212366 C7.30218081,9.5212366 7.55087232,9.76994281 7.55087232,10.0763844 C7.55087232,10.3833811 7.30218081,10.6318098 6.99575734,10.6318098 L3.16352102,10.6318098 C3.43802538,14.1639377 6.23636003,16.9641033 9.77133228,17.2380687 L9.77133228,13.4075488 C9.77133228,13.1011072 10.0200238,12.852401 10.3264473,12.852401 C10.6331483,12.852401 10.8818398,13.1011072 10.8818398,13.4075488 L10.8818398,17.2380687 C14.4168121,16.9643808 17.2148692,14.1639377 17.4896511,10.6318098 L13.6574148,10.6318098 C13.3507137,10.6318098 13.1022998,10.3833811 13.1022998,10.0763844 C13.1022998,9.76994281 13.3507137,9.5212366 13.6574148,9.5212366 L17.4896511,9.5212366 C17.2148692,5.98938624 14.4168121,3.18977584 10.8818398,2.9158104 L10.8818398,2.9158104 Z" id="Shape" fill="#000000"></path>
    </g>
</svg>