<?xml version="1.0" encoding="UTF-8" standalone="no"?>
<svg width="63px" height="65px" viewBox="0 0 63 65" version="1.1" xmlns="http://www.w3.org/2000/svg" xmlns:xlink="http://www.w3.org/1999/xlink" xmlns:sketch="http://www.bohemiancoding.com/sketch/ns">
    <!-- Generator: Sketch 3.4 (15588) - http://www.bohemiancoding.com/sketch -->
    <title>paypal</title>
    <desc>Created with Sketch.</desc>
    <defs></defs>
    <g id="Page-1" stroke="none" stroke-width="1" fill="none" fill-rule="evenodd" sketch:type="MSPage">
        <g id="paypal" sketch:type="MSLayerGroup" fill="#000000">
            <path d="M0,57.688 L16.438,57.688 L20.501,38.75 L32.189,38.75 C37.939,38.75 42.877,37.125 47.127,33.75 C51.377,30.437 54.127,25.875 55.377,20.062 C56.002,16.749 56.002,13.874 55.377,11.437 C54.752,9 53.627,6.999 52.064,5.374 C50.439,3.811 48.626,2.624 46.626,1.811 C44.626,1.061 42.563,0.686 40.438,0.686 L12.438,0.686 L0,57.688 Z M6.375,64.688 L7.125,61.563 L20.938,61.563 L24.938,42.688 L36.688,42.688 C42.376,42.688 47.376,41 51.626,37.688 C55.876,34.376 58.626,29.813 59.814,24 C60.752,19.875 60.502,16.25 59.064,13.125 C62.127,16.688 63.002,21.375 61.814,27.125 C60.564,32.938 57.814,37.5 53.564,40.813 C49.376,44.126 44.376,45.813 38.626,45.813 L26.876,45.813 L22.876,64.688 L6.376,64.688 L6.375,64.688 Z M22.875,27.875 L26.375,12.25 L34.375,12.25 C35.75,12.25 36.938,12.625 37.938,13.375 C38.938,14.125 39.626,15.125 39.938,16.375 C39.313,16.25 38.938,16.187 38.875,16.187 L30.875,16.187 L28.187,27.875 L22.874,27.875 L22.875,27.875 Z M30.875,27.813 L32.75,19.313 L40.063,19.313 C40.063,19.376 40.063,19.501 40,19.688 C39.937,19.875 39.937,20.001 39.937,20.063 C39.437,22.188 38.374,23.938 36.562,25.438 C34.812,26.938 32.874,27.751 30.874,27.813 L30.875,27.813 Z" id="Shape" sketch:type="MSShapeGroup"></path>
        </g>
    </g>
</svg>