<?xml version="1.0" encoding="UTF-8"?>
<svg width="20px" height="20px" viewBox="0 0 20 20" version="1.1" xmlns="http://www.w3.org/2000/svg" xmlns:xlink="http://www.w3.org/1999/xlink">
    <!-- Generator: Sketch 52.5 (67469) - http://www.bohemiancoding.com/sketch -->
    <title>icon/thunderstorm</title>
    <desc>Created with Sketch.</desc>
    <g id="icon/thunderstorm" stroke="none" stroke-width="1" fill="none" fill-rule="evenodd">
        <path d="M14.3227597,14.9160689 L14.3227597,13.744707 C16.2817605,12.8872812 17.6534496,10.9373246 17.6534496,8.6617737 C17.6534496,5.59596993 15.1679223,3.11085076 12.1022998,3.11085076 C9.77470262,3.11085076 7.78850119,4.54618542 6.96332276,6.57747125 C6.65245837,6.49780754 6.33215702,6.44146004 5.99603489,6.44146004 C3.84996035,6.44146004 2.11022998,8.18129327 2.11022998,10.3272171 C2.11022998,12.283558 3.56019033,13.8859922 5.4409199,14.157737 L5.4409199,15.2680326 C2.94651071,14.9885157 1,12.8964412 1,10.3272171 C1,7.56813252 3.23683584,5.33088685 5.99603489,5.33088685 C6.11566217,5.33088685 6.2277954,5.35808909 6.34575734,5.36669388 C7.49484536,3.36455331 9.62870738,2 12.1022998,2 C15.7813243,2 18.7636796,4.98280917 18.7636796,8.6617737 C18.7639572,11.558535 16.904322,13.9986872 14.3227597,14.9160689 L14.3227597,14.9160689 Z M7.69385408,14.0530916 C7.70190325,14.0269997 7.70773196,14.0011853 7.71938937,13.9764812 C7.72660587,13.9606595 7.72660587,13.9431724 7.73576527,13.9276282 L9.95622522,10.0551947 C10.1097145,9.78761346 10.4488898,9.69601407 10.7145123,9.85034516 C10.9798573,10.0043987 11.0708961,10.3460922 10.9176844,10.6136734 L9.17184774,13.6589367 L10.9920698,13.6589367 C11.0070579,13.6589367 11.019548,13.6661536 11.033981,13.6672639 C11.0614592,13.6697621 11.0867169,13.6772566 11.1139175,13.6833632 C11.1605472,13.6944662 11.2049564,13.7066794 11.24659,13.7288853 C11.2540841,13.7324938 11.2624108,13.7324938 11.2696273,13.7361022 C11.2843378,13.744707 11.2926646,13.7594185 11.3059873,13.7685784 C11.3459556,13.7963358 11.3817605,13.8260362 11.4128469,13.8637862 C11.4303331,13.8846043 11.4433783,13.9068102 11.4575337,13.9301264 C11.4800159,13.966211 11.4991673,14.0025732 11.5127676,14.0439317 C11.5238699,14.0764078 11.5280333,14.1091616 11.5330293,14.1435807 C11.5360825,14.1677297 11.5471848,14.1891029 11.5471848,14.2138069 C11.5471848,14.2262978 11.5410785,14.2362904 11.5405234,14.2482261 C11.5383029,14.2909725 11.5272006,14.3314983 11.5149881,14.3736895 C11.5069389,14.4006142 11.5008327,14.4267061 11.4888977,14.4516878 C11.4819588,14.4677871 11.4816812,14.4841639 11.4730769,14.4997081 L9.25261697,18.3729743 C9.09940523,18.6400004 8.75995242,18.7313222 8.4943299,18.5772687 C8.22870738,18.42266 8.13766852,18.0809666 8.29115781,17.8136629 L10.0369944,14.7686772 L8.2167724,14.7686772 C8.2017843,14.7686772 8.18929421,14.7611827 8.17486122,14.7600724 C8.14738303,14.7581294 8.12157018,14.7500797 8.09436955,14.7439731 C8.04801745,14.7328701 8.00360825,14.7209345 7.96252974,14.6992837 C7.95475813,14.6953977 7.9464314,14.6959528 7.93893735,14.6915116 C7.9242268,14.6826293 7.91590008,14.668473 7.9020222,14.6587579 C7.86260904,14.6304454 7.82680412,14.6015777 7.79571768,14.5641052 C7.77823156,14.5432872 7.76518636,14.5210812 7.75130849,14.4985978 C7.72854877,14.4616804 7.7093973,14.4253182 7.69579699,14.3836822 C7.68469469,14.351206 7.68053132,14.3184523 7.67581285,14.2848659 C7.67248216,14.2604393 7.66137986,14.2387886 7.66137986,14.2138069 C7.66137986,14.2013161 7.66748612,14.191601 7.66831879,14.1793878 C7.67053925,14.1363638 7.68164155,14.0952829 7.69385408,14.0530916 L7.69385408,14.0530916 Z" id="Shape" fill="#000000"></path>
    </g>
</svg>