<?xml version="1.0" encoding="UTF-8" standalone="no"?>
<svg width="79px" height="46px" viewBox="0 0 79 46" version="1.1" xmlns="http://www.w3.org/2000/svg" xmlns:xlink="http://www.w3.org/1999/xlink" xmlns:sketch="http://www.bohemiancoding.com/sketch/ns">
    <!-- Generator: Sketch 3.4 (15588) - http://www.bohemiancoding.com/sketch -->
    <title>vk</title>
    <desc>Created with Sketch.</desc>
    <defs></defs>
    <g id="Page-1" stroke="none" stroke-width="1" fill="none" fill-rule="evenodd" sketch:type="MSPage">
        <g id="vk" sketch:type="MSLayerGroup" fill="#000000">
            <path d="M0.437,3.813 C0.437,4.376 0.5,4.938 0.562,5.501 C0.687,6.126 0.875,6.689 1.125,7.314 C1.313,7.939 1.563,8.439 1.688,8.814 C1.876,9.189 2.126,9.752 2.501,10.439 C2.814,11.189 3.064,11.627 3.189,11.877 C7.127,19.94 11.377,26.815 15.814,32.502 C17.689,34.94 19.377,36.877 20.939,38.44 C22.564,39.94 24.689,41.378 27.377,42.753 C30.127,44.128 33.127,44.941 36.44,45.316 C38.065,45.504 39.503,45.566 40.69,45.566 C43.503,45.566 45.19,45.066 45.753,44.003 C46.066,43.44 46.253,42.378 46.378,40.94 C46.441,39.44 46.628,38.19 46.941,37.127 C47.254,36.064 47.879,35.439 48.879,35.252 C49.442,35.189 50.004,35.315 50.629,35.627 C51.192,36.002 51.692,36.315 52.067,36.752 C52.442,37.127 52.942,37.627 53.505,38.377 C54.068,39.065 54.38,39.502 54.568,39.69 C57.693,43.19 60.631,45.19 63.443,45.69 L63.881,45.69 C64.694,45.502 65.631,45.377 66.756,45.377 C67.444,45.377 68.256,45.44 69.131,45.502 C70.069,45.627 70.944,45.69 71.881,45.69 C73.006,45.69 74.131,45.627 75.256,45.44 C77.444,45.065 78.506,44.19 78.506,42.815 C78.506,41.815 77.631,40.252 75.943,38.002 C74.193,35.814 71.818,33.314 68.755,30.502 C68.692,30.439 68.442,30.189 68.005,29.814 C67.568,29.439 67.317,29.126 67.13,29.001 C67.005,28.813 66.817,28.563 66.505,28.188 C66.255,27.875 66.005,27.563 65.88,27.25 C65.755,26.937 65.692,26.625 65.692,26.312 C65.692,25.749 65.755,25.187 66.005,24.624 C66.255,23.999 66.505,23.499 66.755,23.186 C67.005,22.811 67.38,22.311 67.88,21.623 C68.38,20.935 68.693,20.56 68.755,20.435 C69.193,19.935 69.943,18.935 71.13,17.497 C72.318,15.997 73.318,14.809 74.068,13.747 C74.818,12.747 75.568,11.684 76.256,10.434 C77.756,7.934 78.506,6.059 78.506,4.871 C78.506,4.558 78.443,4.246 78.318,3.996 C78.13,3.683 77.818,3.371 77.443,3.183 C77.005,2.995 76.443,2.87 75.818,2.808 C75.13,2.745 74.505,2.745 73.88,2.745 C73.317,2.808 72.63,2.808 71.817,2.87 C71.004,2.932 70.442,2.933 70.067,2.933 C69.442,2.933 68.442,2.87 67.067,2.808 C65.942,2.745 64.942,2.683 64.129,2.683 L63.504,2.683 C62.566,2.683 61.754,2.808 61.129,3.121 C60.441,3.996 60.129,4.309 60.129,3.996 C60.066,3.683 59.816,4.121 59.316,5.246 C58.878,6.371 58.628,6.934 58.628,6.934 L58.003,8.372 C56.003,12.685 54.003,16.185 52.003,18.81 C51.94,18.873 51.753,19.123 51.315,19.685 C50.94,20.248 50.69,20.623 50.565,20.748 L49.815,21.498 C49.502,21.811 49.19,22.061 48.815,22.186 C48.502,22.311 48.19,22.436 47.815,22.436 C46.69,21.748 46.065,20.436 45.877,18.561 C45.752,17.686 45.752,16.873 45.752,16.123 C45.752,15.123 45.815,14.123 45.94,13.185 C45.94,12.747 46.003,11.622 46.19,9.872 C46.315,8.497 46.378,7.372 46.378,6.497 C46.315,6.184 46.315,5.934 46.315,5.622 C46.252,4.622 46.002,3.684 45.627,2.934 C45.94,2.746 45.627,2.434 44.814,2.059 C44.001,1.621 43.564,1.434 43.564,1.434 L42.126,1.121 C42.126,0.996 41.563,0.933 40.438,0.933 C39.313,0.87 38.75,0.87 38.75,0.87 L35.375,0.87 C32.75,0.87 30.687,1.058 29.187,1.433 C27.687,1.871 26.624,2.621 25.999,3.808 C26.374,4.058 26.874,4.246 27.499,4.496 C28.124,4.746 28.687,4.996 29.062,5.246 C29.5,5.559 29.812,5.934 30.062,6.371 C30.687,7.559 31,9.746 31,12.934 C31,13.622 31,14.372 30.937,15.184 C30.812,19.934 30.187,22.434 28.937,22.622 C28.687,22.685 28.437,22.685 28.187,22.622 C27.937,22.622 27.687,22.497 27.437,22.309 C27.249,22.121 26.999,21.934 26.812,21.746 C26.562,21.558 26.374,21.308 26.124,21.058 C25.874,20.745 25.686,20.495 25.561,20.308 C25.373,20.12 25.186,19.87 24.998,19.495 C24.81,19.182 24.623,18.932 24.56,18.807 C22.185,15.369 20.185,11.869 18.56,8.369 C18.435,8.181 18.185,7.681 17.872,6.994 C17.622,6.306 17.372,5.744 17.184,5.369 C16.934,4.994 16.746,4.556 16.434,4.119 C16.121,3.744 15.871,3.431 15.559,3.306 C15.059,3.056 14.371,2.868 13.559,2.806 C13.121,2.806 12.621,2.806 12.059,2.743 C11.496,2.743 10.871,2.743 10.184,2.806 C8.871,2.869 8.059,2.931 7.809,2.931 C7.371,2.931 6.684,2.931 5.746,2.868 C5.121,2.805 4.621,2.805 4.183,2.805 L3.62,2.805 C3.12,2.805 2.62,2.868 1.995,3.055 C1.37,3.242 0.87,3.493 0.432,3.805 L0.437,3.813 Z" id="Shape" sketch:type="MSShapeGroup"></path>
        </g>
    </g>
</svg>