<?xml version="1.0" encoding="UTF-8"?>
<svg width="20px" height="20px" viewBox="0 0 20 20" version="1.1" xmlns="http://www.w3.org/2000/svg" xmlns:xlink="http://www.w3.org/1999/xlink">
    <!-- Generator: Sketch 51.3 (57544) - http://www.bohemiancoding.com/sketch -->
    <title>buddicons/check-circle</title>
    <desc>Created with Sketch.</desc>
    <defs></defs>
    <g id="buddicons/check-circle" stroke="none" stroke-width="1" fill="none" fill-rule="evenodd">
        <path d="M18.5943695,5.26270245 L10.8460745,12.9714849 C10.8344171,12.9864739 10.8394132,13.0067368 10.8260904,13.0203379 C10.7150674,13.1308123 10.5693497,13.1791102 10.4241872,13.1755017 C10.276249,13.1807756 10.1285884,13.1344208 10.0156225,13.0217258 C9.99924663,13.0059041 10.0053529,12.9812 9.99119746,12.9639904 L6.71379857,9.70305219 C6.49924663,9.48987543 6.49924663,9.1434632 6.71379857,8.92917615 C6.92835052,8.71544424 7.27668517,8.71544424 7.49151467,8.92917615 L10.4200238,11.8434246 L17.8147105,4.48688338 C18.0300952,4.27259633 18.3792625,4.27259633 18.5946471,4.48688338 C18.8097542,4.70089286 18.8097542,5.04869297 18.5943695,5.26270245 L18.5943695,5.26270245 Z M9.87573354,2.10974047 C5.58552736,2.10974047 2.1074544,5.58940693 2.1074544,9.88180979 C2.1074544,14.1744902 5.58552736,17.653324 9.87573354,17.653324 C14.1659397,17.653324 17.6440127,14.1744902 17.6440127,9.88180979 C17.6440127,9.71387757 17.6048771,9.55704832 17.5946075,9.39216942 L18.6176844,8.39734455 C18.6990087,8.88143344 18.7511895,9.37468226 18.7511895,9.88180979 C18.7511895,14.787651 14.7776764,18.7636196 9.87545599,18.7636196 C4.97379064,18.7636196 1,14.787651 1,9.88180979 C1,4.9759686 4.97351308,1 9.87545599,1 C12.1250595,1 14.1726011,1.84382467 15.7371927,3.22447727 L14.9217288,4.01750591 C13.5614195,2.84447859 11.8122522,2.10974047 9.87573354,2.10974047 L9.87573354,2.10974047 Z" id="Shape" fill="#000000"></path>
    </g>
</svg>