<?xml version="1.0" encoding="UTF-8"?>
<svg width="20px" height="20px" viewBox="0 0 20 20" version="1.1" xmlns="http://www.w3.org/2000/svg" xmlns:xlink="http://www.w3.org/1999/xlink">
    <!-- Generator: Sketch 52.5 (67469) - http://www.bohemiancoding.com/sketch -->
    <title>icon/gift</title>
    <desc>Created with Sketch.</desc>
    <g id="icon/gift" stroke="none" stroke-width="1" fill="none" fill-rule="evenodd">
        <path d="M18.6531721,7.66205127 L17.5429421,7.66205127 L17.5429421,12.102401 L17.5429421,13.2126966 L17.5429421,18.7650074 L10.8815623,18.7650074 L9.77133228,18.7650074 L3.11022998,18.7650074 L3.11022998,13.2126966 L3.11022998,12.102401 L3.11022998,7.66205127 L2,7.66205127 L2,4.3303317 L6.74817605,4.3303317 C6.55777161,4.00307207 6.4409199,3.627237 6.4409199,3.22086881 C6.4409199,1.99371458 7.43485329,1 8.6611023,1 C9.32807296,1 9.91954798,1.30005739 10.3264473,1.7658264 C10.7336241,1.30005739 11.3248216,1 11.9917922,1 C13.2183188,1 14.2122522,1.99371458 14.2122522,3.22086881 C14.2122522,3.627237 14.0951229,4.00307207 13.9047185,4.3303317 L18.6531721,4.3303317 L18.6531721,7.66205127 L18.6531721,7.66205127 Z M10.8815623,17.6547118 L16.4327121,17.6547118 L16.4327121,13.2126966 L10.8815623,13.2126966 L10.8815623,17.6547118 L10.8815623,17.6547118 Z M10.8815623,12.102401 L16.4327121,12.102401 L16.4327121,7.66205127 L10.8815623,7.66205127 L10.8815623,12.102401 L10.8815623,12.102401 Z M4.22045995,17.6547118 L9.77133228,17.6547118 L9.77133228,13.2126966 L4.22045995,13.2126966 L4.22045995,17.6547118 L4.22045995,17.6547118 Z M4.22045995,12.102401 L9.77133228,12.102401 L9.77133228,7.66205127 L4.22045995,7.66205127 L4.22045995,12.102401 L4.22045995,12.102401 Z M8.66137986,2.11112834 C8.0479778,2.11112834 7.55114988,2.6082632 7.55114988,3.22170153 C7.55114988,3.83486228 8.0479778,4.33227472 8.66137986,4.33227472 C9.27450436,4.33227472 9.77160983,3.83486228 9.77160983,3.22170153 C9.77160983,2.6082632 9.27450436,2.11112834 8.66137986,2.11112834 L8.66137986,2.11112834 Z M11.9917922,2.11112834 C11.3786677,2.11112834 10.8818398,2.6082632 10.8818398,3.22170153 C10.8818398,3.83486228 11.3786677,4.33227472 11.9917922,4.33227472 C12.6051943,4.33227472 13.1022998,3.83486228 13.1022998,3.22170153 C13.1022998,2.6082632 12.6051943,2.11112834 11.9917922,2.11112834 L11.9917922,2.11112834 Z M17.5429421,5.44146004 L3.11022998,5.44146004 L3.11022998,6.55175566 L17.5429421,6.55175566 L17.5429421,5.44146004 L17.5429421,5.44146004 Z" id="Shape" fill="#000000"></path>
    </g>
</svg>