<?xml version="1.0" encoding="UTF-8"?>
<svg width="20px" height="20px" viewBox="0 0 20 20" version="1.1" xmlns="http://www.w3.org/2000/svg" xmlns:xlink="http://www.w3.org/1999/xlink">
    <!-- Generator: Sketch 52.5 (67469) - http://www.bohemiancoding.com/sketch -->
    <title>icon/folder-cancel</title>
    <desc>Created with Sketch.</desc>
    <g id="icon/folder-cancel" stroke="none" stroke-width="1" fill="none" fill-rule="evenodd">
        <path d="M17.6534496,18.7644523 L2.11022998,18.7644523 C1.49710547,18.7644523 1,18.2673174 1,17.6541567 L1,6.55120051 L1,5.44090489 L1,4.33060928 L1,2.11029562 C1,1.49741244 1.49710547,1 2.11022998,1 L7.66137986,1 C8.27450436,1 8.77160983,1.49741244 8.77160983,2.11029562 L8.77160983,3.22003609 L17.6534496,3.22003609 C18.2665741,3.22003609 18.7636796,3.71744852 18.7636796,4.33060928 L18.7636796,6.55120051 L18.7636796,17.6541567 C18.7636796,18.2673174 18.2665741,18.7644523 17.6534496,18.7644523 L17.6534496,18.7644523 Z M17.0983347,4.33060928 L15.9881047,4.33060928 L7.66137986,4.33060928 L7.66137986,3.77546147 L7.66137986,3.22031366 L7.66137986,2.66516585 C7.66137986,2.35927941 7.4129659,2.11029562 7.10626487,2.11029562 L2.66534496,2.11029562 C2.35892149,2.11029562 2.11022998,2.35927941 2.11022998,2.66516585 L2.11022998,3.22031366 L2.11022998,3.77546147 L2.11022998,4.33060928 L2.11022998,5.44090489 L15.9881047,5.44090489 L17.0983347,5.44090489 C17.4047581,5.44090489 17.6534496,5.19247625 17.6534496,4.88547951 C17.6534496,4.57903792 17.4050357,4.33060928 17.0983347,4.33060928 L17.0983347,4.33060928 Z M17.6534496,7.66149613 L17.6534496,7.10662589 L17.6534496,6.55120051 L17.0983347,6.55120051 L2.66534496,6.55120051 L2.11022998,6.55120051 L2.11022998,7.10662589 L2.11022998,7.66149613 L2.11022998,17.0992864 C2.11022998,17.405728 2.35892149,17.6541567 2.66534496,17.6541567 L17.0983347,17.6541567 C17.4047581,17.6541567 17.6534496,17.405728 17.6534496,17.0992864 L17.6534496,7.66149613 L17.6534496,7.66149613 Z M13.0382236,15.2589715 C12.8195083,15.4776997 12.465345,15.4776997 12.2469072,15.2589715 L9.87323553,12.885437 L7.49956384,15.2589715 C7.28112609,15.4776997 6.92696273,15.4776997 6.70824742,15.2589715 C6.48953212,15.0405208 6.48953212,14.6860589 6.70824742,14.4678858 L9.08191911,12.0937962 L6.70824742,9.71970663 C6.48953212,9.50208869 6.48953212,9.14707166 6.70824742,8.92889857 C6.92668517,8.70989276 7.28084853,8.70989276 7.49956384,8.92889857 L9.87323553,11.3027106 L12.2469072,8.92889857 C12.465345,8.70989276 12.8195083,8.70989276 13.0382236,8.92889857 C13.2566614,9.14707166 13.2566614,9.50208869 13.0382236,9.71970663 L10.6642744,12.0937962 L13.0382236,14.4678858 C13.2563838,14.6860589 13.2563838,15.0405208 13.0382236,15.2589715 L13.0382236,15.2589715 Z" id="Shape" fill="#000000"></path>
    </g>
</svg>