<?xml version="1.0" encoding="UTF-8"?>
<svg width="20px" height="20px" viewBox="0 0 20 20" version="1.1" xmlns="http://www.w3.org/2000/svg" xmlns:xlink="http://www.w3.org/1999/xlink">
    <!-- Generator: Sketch 52.5 (67469) - http://www.bohemiancoding.com/sketch -->
    <title>icon/star</title>
    <desc>Created with Sketch.</desc>
    <g id="icon/star" stroke="none" stroke-width="1" fill="none" fill-rule="evenodd">
        <path d="M18.5516257,8.06014709 L14.3832672,12.2362465 L15.9495242,18.0405944 C15.9634021,18.0919456 15.9592387,18.1416313 15.9592387,18.1924273 C15.9597938,18.206306 15.9620143,18.2171314 15.9614592,18.2310101 C15.9517446,18.3614698 15.8948454,18.4783284 15.806027,18.572426 C15.8001983,18.578255 15.8029738,18.5863047 15.7971451,18.5915786 C15.7938144,18.5949095 15.7885408,18.593244 15.784655,18.5965749 C15.7172086,18.6609721 15.6394925,18.715099 15.5423473,18.7411909 C15.4912768,18.7545145 15.4410389,18.7506284 15.3905234,18.7503509 C15.3899683,18.7503509 15.3894132,18.7506284 15.388858,18.7506284 C15.2506344,18.748963 15.1246233,18.70011 15.0230373,18.6123966 C15.0116574,18.6037918 14.9947264,18.6079555 14.9839017,18.5979628 L9.8649088,14.9550829 L4.74536082,18.5979628 C4.73481364,18.6079555 4.71760508,18.6037918 4.70622522,18.6123966 C4.60463918,18.70011 4.47862807,18.748963 4.340682,18.7506284 C4.34040444,18.7506284 4.33984933,18.7503509 4.33929421,18.7503509 C4.28877875,18.7506284 4.23854084,18.7545145 4.1871927,18.7411909 C4.09032514,18.715099 4.01233148,18.6612496 3.94460745,18.5965749 C3.94099921,18.593244 3.93572561,18.5949095 3.93211737,18.5915786 C3.92628866,18.5860271 3.92878668,18.578255 3.92351308,18.572426 C3.83497224,18.4780509 3.77835052,18.3611923 3.76808089,18.2310101 C3.76724822,18.2171314 3.77002379,18.206306 3.77057891,18.1924273 C3.77002379,18.1421864 3.76613799,18.0919456 3.7797383,18.0405944 L5.34655036,12.2362465 L1.17791435,8.06014709 C1.06966693,7.95883262 1,7.81726993 1,7.65766493 L1,7.65738736 C1,7.64906014 1.00471848,7.64267594 1.00471848,7.6346263 C1.01054718,7.49861509 1.06411578,7.37648257 1.14988105,7.28294016 C1.1554322,7.27711111 1.15321174,7.2676736 1.15876289,7.26156697 C1.16459159,7.25573792 1.17375099,7.25851366 1.1795797,7.25296218 C1.27283902,7.16608155 1.39551943,7.11250979 1.5315226,7.10695831 C1.53957177,7.10668073 1.54567803,7.10251712 1.5537272,7.10251712 L1.55428232,7.10251712 L6.22668517,7.10251712 L9.3850119,1.26069674 C9.3908406,1.25070408 9.40083267,1.24543017 9.40693894,1.23599266 C9.42720063,1.20629225 9.45301348,1.18186575 9.47938144,1.15605138 C9.50658208,1.12995943 9.53156225,1.10414506 9.56292625,1.08443731 C9.5723632,1.07860826 9.57791435,1.0686156 9.58790642,1.06334169 C9.60816812,1.05196116 9.63065028,1.05140601 9.65174465,1.04224607 C9.68754956,1.02753466 9.72224425,1.01393354 9.76082474,1.00699419 C9.79579699,1.00033242 9.829659,0.999777267 9.8649088,1.00005484 C9.9001586,0.999777267 9.93374306,1.00033242 9.96899286,1.00699419 C10.0072958,1.01393354 10.0417129,1.02753466 10.0777954,1.04224607 C10.0991673,1.05140601 10.1213719,1.05196116 10.1419112,1.06334169 C10.1516257,1.06889317 10.1568993,1.07833068 10.1663362,1.08443731 C10.1971451,1.10414506 10.2232355,1.12995943 10.249881,1.15605138 C10.2765266,1.18214332 10.3023394,1.20629225 10.3226011,1.23599266 C10.3289849,1.24487502 10.338977,1.25070408 10.3448057,1.26069674 L13.5028549,7.10251712 L18.1755353,7.10251712 L18.1760904,7.10251712 C18.1835845,7.10251712 18.1899683,7.10668073 18.1977399,7.10695831 C18.3337431,7.11278736 18.4561459,7.16635912 18.5496828,7.25296218 C18.5555115,7.25879123 18.5649485,7.25601549 18.5707772,7.26156697 C18.5766059,7.2676736 18.5741079,7.27683354 18.5793814,7.28294016 C18.6657018,7.37648257 18.7189929,7.49833751 18.724544,7.63490387 C18.7250991,7.64295352 18.72954,7.64906014 18.72954,7.65738736 C18.72954,7.65738736 18.72954,7.65738736 18.72954,7.65766493 C18.72954,7.81726993 18.6598731,7.95883262 18.5516257,8.06014709 L18.5516257,8.06014709 Z M13.1892149,8.21225759 C13.1547978,8.21225759 13.1248216,8.19865647 13.0923473,8.19282742 C13.0648692,8.18810866 13.0434972,8.18644322 13.0171293,8.17783843 C12.9061063,8.14036595 12.815345,8.07013975 12.7481761,7.97687492 C12.7379064,7.9632738 12.7179223,7.96271865 12.7090404,7.94772966 L9.86463125,2.68603874 L7.01994449,7.94772966 C7.01106265,7.96299623 6.99107851,7.96355138 6.98080888,7.9771525 C6.91336241,8.07013975 6.82343378,8.14036595 6.71185567,8.17783843 C6.68548771,8.18616565 6.66411578,8.18810866 6.63663759,8.19282742 C6.60416336,8.19865647 6.57418715,8.21225759 6.54004758,8.21225759 L2.8851705,8.21225759 L6.38100714,11.7149627 C6.38628073,11.7202366 6.38406027,11.7282862 6.38877875,11.7332826 C6.48231562,11.8337643 6.53671689,11.9606156 6.5406027,12.1002353 C6.5406027,12.1038437 6.54004758,12.1066195 6.54004758,12.1102279 C6.54032514,12.1607464 6.54393339,12.2115424 6.53033307,12.2631712 L5.2868755,16.8706204 L9.42553529,13.926394 C9.5462728,13.8145317 9.70503569,13.7759489 9.86407613,13.7867743 C10.0231166,13.7759489 10.1824346,13.8145317 10.3028945,13.926394 L14.4412768,16.8706204 L13.1978192,12.2631712 C13.1842189,12.2115424 13.1881047,12.1607464 13.1886598,12.1102279 C13.1886598,12.1066195 13.1878271,12.1038437 13.1878271,12.1002353 C13.1919905,11.9606156 13.2461142,11.8337643 13.3396511,11.7332826 C13.3446471,11.7280087 13.3421491,11.719959 13.3471451,11.7149627 L16.8429818,8.21225759 L13.1892149,8.21225759 L13.1892149,8.21225759 Z" id="Shape" fill="#000000"></path>
    </g>
</svg>