<?xml version="1.0" encoding="UTF-8"?>
<svg width="20px" height="20px" viewBox="0 0 20 20" version="1.1" xmlns="http://www.w3.org/2000/svg" xmlns:xlink="http://www.w3.org/1999/xlink">
    <!-- Generator: Sketch 52.5 (67469) - http://www.bohemiancoding.com/sketch -->
    <title>icon/briefcase</title>
    <desc>Created with Sketch.</desc>
    <g id="icon/briefcase" stroke="none" stroke-width="1" fill="none" fill-rule="evenodd">
        <path d="M16.5434972,18.1549894 L3.22045995,18.1549894 C1.99421094,18.1549894 1,17.1609972 1,15.9343982 L1,10.3829201 L1,9.27206932 L1,5.94118247 C1,4.71541611 1.99421094,3.72059123 3.22045995,3.72059123 L6.55114988,3.72059123 L6.55114988,2.05514781 C6.55114988,1.74842864 6.7998414,1.5 7.10626487,1.5 L12.6574148,1.5 C12.9638382,1.5 13.2125297,1.74842864 13.2125297,2.05514781 L13.2125297,3.72059123 L16.5432197,3.72059123 C17.7691911,3.72059123 18.7634021,4.71541611 18.7634021,5.94118247 L18.7634021,9.27206932 L18.7634021,10.3829201 L18.7634021,15.9343982 C18.7636796,17.1612748 17.7694687,18.1549894 16.5434972,18.1549894 L16.5434972,18.1549894 Z M12.1025773,2.61029562 L7.66165741,2.61029562 L7.66165741,3.72003609 L12.1025773,3.72003609 L12.1025773,2.61029562 L12.1025773,2.61029562 Z M17.6537272,5.94146004 C17.6537272,5.32885443 17.1566217,4.83116442 16.5434972,4.83116442 L3.22045995,4.83116442 C2.60761301,4.83116442 2.11022998,5.32857686 2.11022998,5.94146004 L2.11022998,9.27234689 L6.55114988,9.27234689 L13.2125297,9.27234689 L17.6534496,9.27234689 L17.6534496,5.94146004 L17.6537272,5.94146004 Z M7.66137986,10.3831977 L7.66137986,12.6035113 L12.1022998,12.6035113 L12.1022998,10.3831977 L7.66137986,10.3831977 L7.66137986,10.3831977 Z M17.6537272,10.3831977 L13.2128073,10.3831977 L13.2128073,13.7140845 L6.55142744,13.7140845 L6.55142744,10.3831977 L2.11050753,10.3831977 L2.11050753,15.9346757 C2.11050753,16.5478365 2.60761301,17.0449714 3.22073751,17.0449714 L16.5434972,17.0449714 C17.1563442,17.0449714 17.6537272,16.5481141 17.6537272,15.9346757 L17.6537272,10.3831977 L17.6537272,10.3831977 Z" id="Shape" fill="#000000"></path>
    </g>
</svg>