<?xml version="1.0" encoding="UTF-8"?>
<svg width="20px" height="20px" viewBox="0 0 20 20" version="1.1" xmlns="http://www.w3.org/2000/svg" xmlns:xlink="http://www.w3.org/1999/xlink">
    <!-- Generator: Sketch 52.3 (67297) - http://www.bohemiancoding.com/sketch -->
    <title>icon/ip-address</title>
    <desc>Created with Sketch.</desc>
    <g id="icon/ip-address" stroke="none" stroke-width="1" fill="none" fill-rule="evenodd">
        <path d="M14.3230373,14.2135294 L10.2523791,14.2135294 L12.1025773,16.4341206 L11.5474623,17.5444162 L8.77188739,14.2135294 L8.77188739,13.1029562 L14.3230373,13.1029562 C16.1624108,13.1029562 17.6537272,11.6115516 17.6537272,9.77234689 C17.6537272,7.93230948 16.1624108,6.44146004 14.3230373,6.44146004 L12.1025773,6.44146004 L12.1025773,5.33088685 L14.3230373,5.33088685 C16.7755353,5.33088685 18.7639572,7.3194263 18.7639572,9.77234689 C18.7639572,12.2244348 16.7755353,14.2135294 14.3230373,14.2135294 L14.3230373,14.2135294 Z M2.11050753,9.77206932 C2.11050753,11.611274 3.60154639,13.1026786 5.4409199,13.1026786 L6.55142744,13.1026786 L6.55142744,14.2132518 L5.4409199,14.2132518 C2.98814433,14.2132518 1,12.2241572 1,9.77206932 C1,7.31914873 2.98814433,5.33060928 5.4409199,5.33060928 L8.40162569,5.33060928 L6.55142744,3.11029562 L7.10654243,2 L9.88211737,5.33060928 L9.88211737,6.44118247 L5.4409199,6.44118247 C3.60154639,6.44118247 2.11050753,7.93203191 2.11050753,9.77206932 L2.11050753,9.77206932 Z" id="Shape" fill="#000000"></path>
    </g>
</svg>