<?xml version="1.0" encoding="UTF-8"?>
<svg width="20px" height="20px" viewBox="0 0 20 20" version="1.1" xmlns="http://www.w3.org/2000/svg" xmlns:xlink="http://www.w3.org/1999/xlink">
    <!-- Generator: Sketch 52.5 (67469) - http://www.bohemiancoding.com/sketch -->
    <title>icon/link</title>
    <desc>Created with Sketch.</desc>
    <g id="icon/link" stroke="none" stroke-width="1" fill="none" fill-rule="evenodd">
        <path d="M17.956022,7.45572472 L12.9103043,12.500908 C12.8869895,12.5242242 12.8584011,12.5397684 12.8348087,12.5622518 C12.7973384,12.6036103 12.7631989,12.6482997 12.7235081,12.6882704 L12.7038015,12.6688402 C11.5863551,13.5945492 9.8538412,13.6386834 8.79829005,12.760162 C8.76193002,12.7371234 8.72251685,12.7196362 8.69032019,12.6882704 L8.62648196,12.6241508 L7.94757633,11.945205 L7.48100218,11.4788809 C7.2575684,11.255989 7.2575684,10.8948654 7.48100218,10.6719735 C7.70360329,10.4485266 8.06470559,10.4485266 8.2873067,10.6719735 L8.69032019,11.0747333 L8.69920203,11.0661285 C8.71835349,11.0883344 8.73278648,11.1177572 8.75415841,11.1388529 L9.4333416,11.8169659 C10.0642298,12.4490017 11.412049,12.3865476 12.1039998,11.695111 L13.5198206,10.2789289 L17.1488848,6.64909496 C17.799202,5.99818415 17.7750545,4.83320648 17.0964265,4.15398313 L15.6117714,2.66924032 C14.9323107,1.9897394 13.7662916,1.96586805 13.1159744,2.61511341 L12.7235081,3.00788048 L11.513635,4.21782513 C11.4023345,4.32885469 11.2563392,4.38547977 11.1100664,4.38547977 C10.9640712,4.38547977 10.8183535,4.32913227 10.7064978,4.21782513 C10.4836192,3.99493328 10.4836192,3.63380964 10.7064978,3.41119536 L11.9160934,2.20180586 L12.3091148,1.80876122 C13.4082425,0.709568555 15.2898047,0.733995058 16.4186311,1.86261055 L17.902731,3.34735337 C19.0307246,4.47513614 19.0551497,6.35597691 17.956022,7.45572472 L17.956022,7.45572472 Z M11.9163709,7.84710393 L12.3199395,8.25125153 C12.5428182,8.47442095 12.5428182,8.83471188 12.3199395,9.05760372 C12.2089165,9.16863328 12.0626437,9.22442564 11.9163709,9.22442564 C11.7712084,9.22442564 11.6249356,9.16891086 11.513635,9.05760372 L11.1100664,8.65345612 L10.3034843,7.84710393 C9.63595857,7.18009384 8.55126388,7.18009384 7.88373811,7.84710393 L2.64067705,13.0913077 C1.97342883,13.7585954 1.97342883,14.8436318 2.64067705,15.5114746 L4.25356364,17.124179 C4.92108942,17.7914666 6.00661678,17.7914666 6.67386499,17.124179 L7.07743359,16.7211416 L8.2873067,15.5117521 C8.51018537,15.2883052 8.87101011,15.2883052 9.09361122,15.5117521 C9.31621233,15.7340888 9.31621233,16.0954901 9.09361122,16.3183819 L7.88373811,17.5272163 L7.48072463,17.9310863 C6.36882931,19.0424922 4.55887689,19.0436025 3.44698157,17.9310863 L1.83381741,16.3181043 C0.721922089,15.2058657 0.722199646,13.3969166 1.83381741,12.2849555 L7.07715603,7.04102931 C8.18905135,5.92823553 9.99761598,5.92823553 11.1097889,7.04102931 L11.9163709,7.84710393 L11.9163709,7.84710393 Z" id="Shape" fill="#000000"></path>
    </g>
</svg>