<?xml version="1.0" encoding="UTF-8"?>
<svg width="20px" height="20px" viewBox="0 0 20 20" version="1.1" xmlns="http://www.w3.org/2000/svg" xmlns:xlink="http://www.w3.org/1999/xlink">
    <!-- Generator: Sketch 54.1 (76490) - https://sketchapp.com -->
    <title>icon/layout-col-left</title>
    <desc>Created with Sketch.</desc>
    <g id="icon/layout-col-left" stroke="none" stroke-width="1" fill="none" fill-rule="evenodd">
        <path d="M16.5432197,18.7641747 L3.22045995,18.7641747 C1.99421094,18.7641747 1,17.7704601 1,16.5435835 L1,3.22059123 C1,1.99399215 1.99421094,1 3.22045995,1 L16.5432197,1 C17.7694687,1 18.7636796,1.99399215 18.7636796,3.22059123 L18.7636796,16.5435835 C18.7636796,17.7704601 17.7694687,18.7641747 16.5432197,18.7641747 L16.5432197,18.7641747 Z M2.10995242,16.5435835 C2.10995242,17.1572994 2.60705789,17.6544343 3.22045995,17.6544343 L5.44064235,17.6544343 L5.44064235,6.55092294 L2.10995242,6.55092294 L2.10995242,16.5435835 L2.10995242,16.5435835 Z M17.6531721,3.22059123 C17.6531721,2.60770805 17.1563442,2.11001804 16.5432197,2.11001804 L3.22045995,2.11001804 C2.60705789,2.11001804 2.10995242,2.60770805 2.10995242,3.22059123 L2.10995242,5.44118247 L17.6531721,5.44118247 L17.6531721,3.22059123 L17.6531721,3.22059123 Z M17.6531721,6.55092294 L6.55087232,6.55092294 L6.55087232,17.6544343 L16.5432197,17.6544343 C17.1563442,17.6544343 17.6531721,17.1572994 17.6531721,16.5435835 L17.6531721,6.55092294 L17.6531721,6.55092294 Z" id="Shape" fill="#000000"></path>
    </g>
</svg>