<?xml version="1.0" encoding="UTF-8"?>
<svg width="20px" height="20px" viewBox="0 0 20 20" version="1.1" xmlns="http://www.w3.org/2000/svg" xmlns:xlink="http://www.w3.org/1999/xlink">
    <!-- Generator: Sketch 52.5 (67469) - http://www.bohemiancoding.com/sketch -->
    <title>icon/list</title>
    <desc>Created with Sketch.</desc>
    <g id="icon/list" stroke="none" stroke-width="1" fill="none" fill-rule="evenodd">
        <path d="M5.33068993,14.9932157 L5.33068993,13.8823649 L17.5432197,13.8823649 L17.5432197,14.9932157 L5.33068993,14.9932157 L5.33068993,14.9932157 Z M5.33068993,9.44118247 L17.5432197,9.44118247 L17.5432197,10.5517557 L5.33068993,10.5517557 L5.33068993,9.44118247 L5.33068993,9.44118247 Z M5.33068993,5 L17.5432197,5 L17.5432197,6.11029562 L5.33068993,6.11029562 L5.33068993,5 L5.33068993,5 Z M2,13.8823649 L3.11022998,13.8823649 L3.11022998,14.9932157 L2,14.9932157 L2,13.8823649 L2,13.8823649 Z M2,9.44118247 L3.11022998,9.44118247 L3.11022998,10.5517557 L2,10.5517557 L2,9.44118247 L2,9.44118247 Z M2,5 L3.11022998,5 L3.11022998,6.11029562 L2,6.11029562 L2,5 L2,5 Z" id="Shape" fill="#000000"></path>
    </g>
</svg>