<?xml version="1.0" encoding="UTF-8"?>
<svg width="20px" height="20px" viewBox="0 0 20 20" version="1.1" xmlns="http://www.w3.org/2000/svg" xmlns:xlink="http://www.w3.org/1999/xlink">
    <!-- Generator: Sketch 54.1 (76490) - https://sketchapp.com -->
    <title>icon/eye</title>
    <desc>Created with Sketch.</desc>
    <defs>
        <path d="M10,15.5 C13.1304516,15.5 15.7316006,13.7118439 17.8563624,10 C15.7316006,6.28815612 13.1304516,4.5 10,4.5 C6.86954836,4.5 4.26839939,6.28815612 2.1436376,10 C4.26839939,13.7118439 6.86954836,15.5 10,15.5 Z M10,3.5 C13.6666667,3.5 16.6666667,5.66666667 19,10 C16.6666667,14.3333333 13.6666667,16.5 10,16.5 C6.33333333,16.5 3.33333333,14.3333333 1,10 C3.33333333,5.66666667 6.33333333,3.5 10,3.5 Z M10,12.5 C11.3807119,12.5 12.5,11.3807119 12.5,10 C12.5,8.61928813 11.3807119,7.5 10,7.5 C8.61928813,7.5 7.5,8.61928813 7.5,10 C7.5,11.3807119 8.61928813,12.5 10,12.5 Z M10,13.5 C8.06700338,13.5 6.5,11.9329966 6.5,10 C6.5,8.06700338 8.06700338,6.5 10,6.5 C11.9329966,6.5 13.5,8.06700338 13.5,10 C13.5,11.9329966 11.9329966,13.5 10,13.5 Z" id="path-1"></path>
    </defs>
    <g id="icon/eye" stroke="none" stroke-width="1" fill="none" fill-rule="evenodd">
        <mask id="mask-2" fill="white">
            <use xlink:href="#path-1"></use>
        </mask>
        <use id="Shape" fill="#000000" xlink:href="#path-1"></use>
    </g>
</svg>