<?xml version="1.0" encoding="UTF-8"?>
<svg width="20px" height="20px" viewBox="0 0 20 20" version="1.1" xmlns="http://www.w3.org/2000/svg" xmlns:xlink="http://www.w3.org/1999/xlink">
    <!-- Generator: Sketch 52.5 (67469) - http://www.bohemiancoding.com/sketch -->
    <title>icon/slides</title>
    <desc>Created with Sketch.</desc>
    <g id="icon/slides" stroke="none" stroke-width="1" fill="none" fill-rule="evenodd">
        <path d="M17.6379064,16.5438611 L4.32735924,16.5438611 C3.71478985,16.5438611 3.21796193,16.0467262 3.21796193,15.433843 L3.21796193,2.11001804 C3.21796193,1.49741244 3.71478985,1 4.32735924,1 L17.6379064,1 C18.2507534,1 18.7473037,1.49741244 18.7473037,2.11001804 L18.7473037,15.433843 C18.7470262,16.0467262 18.2504758,16.5438611 17.6379064,16.5438611 L17.6379064,16.5438611 Z M17.6379064,2.66488828 C17.6379064,2.35844669 17.38977,2.10974047 17.0833466,2.10974047 L4.88191911,2.10974047 C4.57549564,2.10974047 4.32735924,2.35844669 4.32735924,2.66488828 L4.32735924,14.8781401 C4.32735924,15.1848592 4.5757732,15.4335654 4.88191911,15.4335654 L17.0833466,15.4335654 C17.38977,15.4335654 17.6379064,15.1848592 17.6379064,14.8781401 L17.6379064,2.66488828 L17.6379064,2.66488828 Z M15.9739492,13.2124191 L5.99103886,13.2124191 C5.68461538,13.2124191 5.43647898,12.9645456 5.43647898,12.6575488 L5.43647898,3.77546147 C5.43647898,3.46901988 5.68489294,3.22031366 5.99103886,3.22031366 L15.9739492,3.22031366 C16.2803727,3.22031366 16.5285091,3.46901988 16.5285091,3.77546147 L16.5285091,12.6575488 C16.5285091,12.9645456 16.2803727,13.2124191 15.9739492,13.2124191 L15.9739492,13.2124191 Z M15.4196669,4.88603466 C15.4196669,4.57931549 15.171253,4.33088685 14.8648295,4.33088685 L7.10043616,4.33088685 C6.79401269,4.33088685 6.54587629,4.57903792 6.54587629,4.88603466 L6.54587629,11.5478084 C6.54587629,11.8542499 6.79401269,12.1026786 7.10043616,12.1026786 L14.8648295,12.1026786 C15.171253,12.1026786 15.4196669,11.8545275 15.4196669,11.5478084 L15.4196669,4.88603466 L15.4196669,4.88603466 Z M16.5260111,17.6544343 L16.5260111,18.7647299 L3.35701824,18.7647299 C2.05527359,18.7647299 1,17.7701826 1,16.5441386 L1,3.22086881 L1,3.22003609 L1,4.33060928 L2.1093973,4.33060928 L2.1093973,16.5438611 C2.1093973,17.1570218 2.64147502,17.6544343 3.29789849,17.6544343 L16.5260111,17.6544343 L16.5260111,17.6544343 Z" id="Shape" fill="#000000"></path>
    </g>
</svg>