<?xml version="1.0" encoding="UTF-8" standalone="no"?>
<svg width="61px" height="35px" viewBox="0 0 61 35" version="1.1" xmlns="http://www.w3.org/2000/svg" xmlns:xlink="http://www.w3.org/1999/xlink" xmlns:sketch="http://www.bohemiancoding.com/sketch/ns">
    <!-- Generator: Sketch 3.4 (15588) - http://www.bohemiancoding.com/sketch -->
    <title>renren</title>
    <desc>Created with Sketch.</desc>
    <defs></defs>
    <g id="Page-1" stroke="none" stroke-width="1" fill="none" fill-rule="evenodd" sketch:type="MSPage">
        <g id="renren" sketch:type="MSLayerGroup" fill="#000000">
            <path d="M20.375,0.438 C20.688,7.126 19.5,13.001 21.75,18.501 C22.625,20.564 23.813,22.564 25.313,24.251 C29.688,29.251 32.188,28.876 36.438,23.563 C41.813,16.75 40.001,9 40.313,0.563 C37.438,2.126 34.938,3.063 32.938,4.688 C30.938,6.251 29.875,6.438 27.875,4.625 C26,2.937 23.375,2.062 20.375,0.437 L20.375,0.438 Z M4.125,28.188 C13.875,23.313 15.25,13.125 13.688,1.375 C1.625,3.188 -3.812,18.188 4.125,28.188 L4.125,28.188 Z M47.188,1.25 C47.188,5.938 46.75,10.563 47.313,15 C47.938,20.125 50.626,24.375 55.063,27.375 C56.438,28.313 57.126,28.125 58.063,26.687 C64.188,16.812 58.876,3.874 47.188,1.249 L47.188,1.25 Z M43.688,24.438 C41.625,27.001 39.25,29.938 36.75,33.063 C41.5,35.188 46.188,35.063 50.75,33.063 C48.25,30.063 45.875,27.125 43.687,24.438 L43.688,24.438 Z M24.188,33.063 C21.625,29.875 19.313,27.063 17.25,24.5 C15.062,27.125 12.75,30.063 10.312,33.063 C15,35.063 19.687,35.126 24.187,33.063 L24.188,33.063 Z" id="Shape" sketch:type="MSShapeGroup"></path>
        </g>
    </g>
</svg>