<?xml version="1.0" encoding="UTF-8"?>
<svg width="20px" height="20px" viewBox="0 0 20 20" version="1.1" xmlns="http://www.w3.org/2000/svg" xmlns:xlink="http://www.w3.org/1999/xlink">
    <!-- Generator: Sketch 52.5 (67469) - http://www.bohemiancoding.com/sketch -->
    <title>icon/logout</title>
    <desc>Created with Sketch.</desc>
    <g id="icon/logout" stroke="none" stroke-width="1" fill="none" fill-rule="evenodd">
        <path d="M18.6007534,10.003566 C18.6659794,10.0854503 18.7114988,10.180103 18.7198255,10.2914101 C18.7201031,10.3014028 18.7267645,10.3088972 18.7264869,10.3191675 C18.7267645,10.3222208 18.7284298,10.3241638 18.7284298,10.3269396 C18.7284298,10.3297153 18.7267645,10.332491 18.7267645,10.3352668 C18.7267645,10.3422061 18.7231562,10.3477576 18.7228787,10.3549745 C18.7159397,10.4873773 18.6640365,10.6056238 18.5810468,10.6975007 C18.5743854,10.7049952 18.5774385,10.7158206 18.570222,10.7235927 C18.5632831,10.7302544 18.5524584,10.7274787 18.5449643,10.7338629 C18.5394132,10.7388592 18.5299762,10.7380265 18.5244251,10.7424677 L14.1115385,15.1650527 C13.9000397,15.3760089 13.5575337,15.3760089 13.3463125,15.1650527 C13.1348136,14.9529862 13.1348136,14.6096273 13.3463125,14.398116 L16.8551943,10.8823649 L3.76974623,10.8823649 C3.46332276,10.8823649 3.21546392,10.6336587 3.21546392,10.326662 C3.21546392,10.0202204 3.46360032,9.77151417 3.76974623,9.77151417 L16.8554718,9.77151417 L13.3460349,6.25548552 C13.1345361,6.04397421 13.1345361,5.70089286 13.3460349,5.48854883 C13.5572561,5.27703751 13.8997621,5.27703751 14.1112609,5.48854883 L18.5097145,9.89586728 C18.5147105,9.90003089 18.5166534,9.90613751 18.5213719,9.91002355 C18.5360825,9.92168165 18.5566217,9.91668532 18.570222,9.93028644 C18.5904837,9.95082691 18.5843775,9.98136004 18.6007534,10.003566 L18.6007534,10.003566 Z M9.86407613,3.66544343 C9.86407613,3.35844669 10.170222,3.11001804 9.86407613,3.11001804 L2.66201427,3.11001804 C2.3555908,3.11001804 2.10773196,3.35844669 2.10773196,3.66544343 L2.10773196,16.9887133 C2.10773196,17.2951548 2.35586836,17.5438611 2.66201427,17.5438611 L9.31007137,17.5438611 C9.61621729,17.5438611 9.86407613,17.2951548 9.86407613,16.9887133 L9.86407613,15.3227147 L10.9723632,15.3227147 L10.9723632,17.5438611 C10.9723632,18.157577 10.4760904,18.6544343 9.86407613,18.6544343 L2.10773196,18.6544343 C1.49571768,18.6544343 1,18.157577 1,17.5438611 L1,3.11001804 C1,2.49657971 1.49571768,2 2.10773196,2 L9.86407613,2 C10.4760904,2 10.9723632,2.49657971 10.9723632,3.11001804 L10.9723632,5.3303317 L9.86407613,5.3303317 L9.86407613,3.66544343 L9.86407613,3.66544343 Z" id="Shape" fill="#000000"></path>
    </g>
</svg>