<?xml version="1.0" encoding="UTF-8"?>
<svg width="20px" height="20px" viewBox="0 0 20 20" version="1.1" xmlns="http://www.w3.org/2000/svg" xmlns:xlink="http://www.w3.org/1999/xlink">
    <!-- Generator: Sketch 52.5 (67469) - http://www.bohemiancoding.com/sketch -->
    <title>icon/mail-check</title>
    <desc>Created with Sketch.</desc>
    <g id="icon/mail-check" stroke="none" stroke-width="1" fill="none" fill-rule="evenodd">
        <path d="M17.6440127,4.66771591 L10.2734734,10.5792073 C10.2662569,10.5875346 10.2695876,10.6000254 10.261816,10.608075 C10.1519033,10.7179943 10.008406,10.7665697 9.86435369,10.7635164 C9.72057891,10.7665697 9.57708168,10.7182719 9.46716891,10.608075 C9.4593973,10.600303 9.46272799,10.5878121 9.45523394,10.5792073 L2.10689929,4.68548064 L2.10689929,15.7692842 C2.10689929,16.0751706 2.3555908,16.3241544 2.66201427,16.3241544 L10.9917922,16.3241544 L10.9917922,17.4350052 L1.55455987,17.4350052 C1.2481364,17.4350052 1,17.186299 1,16.8795798 L1,3.55603242 C1,3.55214638 1.0019429,3.5488155 1.00222046,3.54492946 C1.0019429,3.53715739 1.00638382,3.53105077 1.00666138,3.52355627 C1.01415543,3.39476198 1.06411578,3.27984638 1.14460745,3.18935729 C1.15348929,3.17880948 1.14960349,3.16326534 1.15959556,3.15327268 C1.17180809,3.14105943 1.190682,3.14577819 1.20400476,3.13467523 C1.28727201,3.06500418 1.38913561,3.02142508 1.50321174,3.0105997 C1.52402855,3.00865668 1.54012688,2.99921917 1.56122125,3.00005189 L18.1677637,3.00005189 C18.1810864,2.99977432 18.1916336,3.00088461 18.2049564,3.00143976 C18.5072165,3.00643609 18.7511895,3.25181142 18.7511895,3.55575485 L18.7511895,12.9943779 L17.6440127,12.9943779 L17.6440127,4.66771591 L17.6440127,4.66771591 Z M3.12359239,4.11090265 L9.86435369,9.51776473 L16.6053925,4.11090265 L3.12359239,4.11090265 L3.12359239,4.11090265 Z M13.0759715,15.4192635 L14.8581681,17.2218284 L17.7822363,14.2631682 C18.0053925,14.0375006 18.3667724,14.0375006 18.5899286,14.2631682 C18.8128073,14.4891134 18.8128073,14.8549558 18.5899286,15.0797906 L15.3597145,18.3479458 C15.2228787,18.4867327 15.0352498,18.5300343 14.8578906,18.4981133 C14.6805313,18.5300343 14.49318,18.4864552 14.3560666,18.3479458 L12.2682791,16.2350532 C12.0454005,16.0096632 12.0454005,15.6443759 12.2682791,15.4189859 C12.4911578,15.1933184 12.8528152,15.1933184 13.0759715,15.4192635 L13.0759715,15.4192635 Z" id="Shape" fill="#000000"></path>
    </g>
</svg>